<svg width="22" height="22" viewBox="0 0 22 22" fill="none" xmlns="http://www.w3.org/2000/svg">
<g id="icon/attachment">
<path id="Vector" d="M12.9771 2.74956L2.74981 12.9768C0.977087 14.6814 0.977087 17.4768 2.68163 19.2496C4.38618 21.0223 7.24981 21.0223 8.95436 19.2496L9.02254 19.1814L10.9998 17.2723L10.0453 16.3177L8.068 18.295C6.90891 19.4541 4.93163 19.4541 3.77254 18.295C2.61345 17.1359 2.54527 15.1586 3.70436 13.9996L3.77254 13.9314L13.9316 3.77228C15.0907 2.54501 17.068 2.54501 18.2271 3.7041C19.4544 4.86319 19.4544 6.84047 18.2953 7.99956L18.2271 8.06774L13.1816 13.1132C12.4998 13.795 11.4089 13.7268 10.7953 13.1132C10.1816 12.4314 10.1816 11.4086 10.7953 10.7268L13.5907 7.93137L12.6362 6.97683L9.77254 9.84046C8.61345 11.0677 8.68163 12.9768 9.90891 14.1359C11.068 15.2268 12.9089 15.2268 14.1362 14.1359L19.2498 9.02228C21.0225 7.31774 21.0225 4.52228 19.318 2.74956C17.6135 0.97683 14.7498 0.97683 12.9771 2.74956Z" fill="#089108"/>
</g>
</svg>
