<svg width="24" height="19" viewBox="0 0 24 19" fill="none" xmlns="http://www.w3.org/2000/svg">
<path d="M10.2075 0.0281249L8.29125 2.42344C7.7175 2.62031 7.185 2.98125 6.735 3.47812L5.7375 4.58906C5.355 5.01562 4.85625 5.25 4.3425 5.25H3.6V11.25C4.365 11.2781 5.0925 11.6672 5.63625 12.3469L6.97125 14.0156L7.23375 14.3438L8.24625 15.6094C8.47875 15.9 8.86125 15.9 9.09375 15.6094C9.1575 15.5297 9.20625 15.4359 9.2325 15.3375C9.3375 14.9766 9.58125 14.7047 9.88125 14.6203C10.1813 14.5359 10.4963 14.6484 10.7138 14.925L11.1188 15.4219C11.5538 15.9656 12.2587 15.9656 12.69 15.4219C12.8925 15.1687 13.0013 14.8453 13.0125 14.5125C13.0275 14.1 13.2225 13.7344 13.5225 13.5563C13.8225 13.3781 14.1713 13.4156 14.4375 13.6547C14.79 13.9687 15.2812 13.9266 15.5963 13.5328C15.9488 13.0922 15.9488 12.3797 15.5963 11.9437L12.7538 8.39062L11.4113 9.9375C10.3875 11.1187 8.81625 11.1375 7.77375 9.97969C6.585 8.65781 6.55875 6.35156 7.71375 4.9875L10.3425 1.88437C11.37 0.675 12.7275 0 14.1413 0C15.495 0 16.8038 0.623437 17.8125 1.74375L18.9413 3H23.4C23.73 3 24 3.3375 24 3.75V13.5C24 14.3297 23.4638 15 22.8 15H21.6C21.1575 15 20.7675 14.7 20.5613 14.25H17.3775C17.25 14.5641 17.0813 14.8641 16.8713 15.1266C16.23 15.9281 15.3413 16.2422 14.5087 16.0687C14.3738 16.4109 14.19 16.7297 13.9613 17.0156C12.9375 18.2953 11.3363 18.4219 10.1962 17.3953C9.255 18.3703 7.8525 18.3094 6.97125 17.2031L5.9625 15.9375L5.7 15.6094L4.365 13.9406C4.15875 13.6828 3.88875 13.5328 3.6 13.5047C3.6 14.3297 3.06 15 2.4 15H1.2C0.53625 15 0 14.3297 0 13.5V3.75C0 3.3375 0.27 3 0.6 3H4.3425C4.4175 3 4.48875 2.96719 4.54125 2.90625L5.535 1.8C6.58125 0.642188 7.9275 0 9.32625 0H9.7125C9.8775 0 10.0463 0.00937493 10.2075 0.0281249ZM20.4 12V5.25H18.6C18.3787 5.25 18.165 5.14687 18.0038 4.96406L16.62 3.42656C15.9375 2.66719 15.0563 2.25 14.1413 2.25C13.1888 2.25 12.2738 2.70469 11.58 3.52031L8.95125 6.62344C8.565 7.08281 8.5725 7.85625 8.97 8.29688C9.31875 8.68594 9.8475 8.67656 10.1888 8.28281L12.885 5.17031C13.2488 4.74844 13.8188 4.77656 14.1563 5.23594C14.4938 5.69531 14.4713 6.40313 14.1038 6.825L14.0738 6.8625L16.8638 10.35C17.2388 10.8187 17.4825 11.3953 17.5913 11.9953H20.4V12ZM2.4 12.75C2.4 12.5511 2.33679 12.3603 2.22426 12.2197C2.11174 12.079 1.95913 12 1.8 12C1.64087 12 1.48826 12.079 1.37574 12.2197C1.26321 12.3603 1.2 12.5511 1.2 12.75C1.2 12.9489 1.26321 13.1397 1.37574 13.2803C1.48826 13.421 1.64087 13.5 1.8 13.5C1.95913 13.5 2.11174 13.421 2.22426 13.2803C2.33679 13.1397 2.4 12.9489 2.4 12.75ZM22.2 13.5C22.3591 13.5 22.5117 13.421 22.6243 13.2803C22.7368 13.1397 22.8 12.9489 22.8 12.75C22.8 12.5511 22.7368 12.3603 22.6243 12.2197C22.5117 12.079 22.3591 12 22.2 12C22.0409 12 21.8883 12.079 21.7757 12.2197C21.6632 12.3603 21.6 12.5511 21.6 12.75C21.6 12.9489 21.6632 13.1397 21.7757 13.2803C21.8883 13.421 22.0409 13.5 22.2 13.5Z" fill="#1A1C2B"/>
</svg>
