<svg width="20" height="21" viewBox="0 0 20 21" fill="none" xmlns="http://www.w3.org/2000/svg">
<path opacity="0.3" fill-rule="evenodd" clip-rule="evenodd" d="M0.544817 16.8256C-0.181463 17.5519 -0.181463 18.7294 0.544817 19.4557C1.2711 20.182 2.44863 20.182 3.17491 19.4557L9.91843 12.7121L16.8253 19.619C17.5516 20.3453 18.7291 20.3453 19.4554 19.619C20.1817 18.8927 20.1817 17.7152 19.4554 16.9889L12.5485 10.082L19.4554 3.17514C20.1817 2.44886 20.1817 1.27132 19.4554 0.545037C18.7291 -0.181246 17.5516 -0.181245 16.8253 0.545038L9.91843 7.45193L3.17491 0.708387C2.44863 -0.0178946 1.2711 -0.0178946 0.544817 0.708387C-0.181463 1.43467 -0.181463 2.61221 0.544817 3.33849L7.28834 10.082L0.544817 16.8256Z" fill="#1A1C2B"/>
</svg>
