<svg width="16" height="22" viewBox="0 0 16 22" fill="none" xmlns="http://www.w3.org/2000/svg">
<path d="M15.5 1.25C15.5 1.05109 15.421 0.860322 15.2803 0.71967C15.1397 0.579018 14.9489 0.5 14.75 0.5H1.25C1.05109 0.5 0.860322 0.579018 0.71967 0.71967C0.579018 0.860322 0.5 1.05109 0.5 1.25V20.75C0.5 20.9489 0.579018 21.1397 0.71967 21.2803C0.860322 21.421 1.05109 21.5 1.25 21.5H14.75C14.9489 21.5 15.1397 21.421 15.2803 21.2803C15.421 21.1397 15.5 20.9489 15.5 20.75V1.25ZM5 19.25H2.75V17H5V19.25ZM5 15.5H2.75V13.25H5V15.5ZM5 11.75H2.75V9.5H5V11.75ZM9.125 19.25H6.875V17H9.125V19.25ZM9.125 15.5H6.875V13.25H9.125V15.5ZM9.125 11.75H6.875V9.5H9.125V11.75ZM13.25 19.25H11V13.25H13.25V19.25ZM13.25 11.75H11V9.5H13.25V11.75ZM13.25 7.25H2.75V2.75H13.25V7.25Z" fill="#1A1C2B"/>
</svg>
