<svg width="19" height="23" viewBox="0 0 19 23" fill="none" xmlns="http://www.w3.org/2000/svg">
<path d="M17.4994 5.89995H14.0794V4.75995C14.0794 3.55056 13.599 2.39071 12.7438 1.53554C11.8887 0.680378 10.7288 0.199951 9.51941 0.199951C8.31003 0.199951 7.15017 0.680378 6.29501 1.53554C5.43984 2.39071 4.95941 3.55056 4.95941 4.75995V5.89995H1.53941C1.23707 5.89995 0.947104 6.02006 0.733313 6.23385C0.519521 6.44764 0.399414 6.7376 0.399414 7.03995V19.58C0.399414 20.487 0.759735 21.3569 1.40111 21.9983C2.04248 22.6396 2.91237 23 3.81941 23H15.2194C16.1265 23 16.9963 22.6396 17.6377 21.9983C18.2791 21.3569 18.6394 20.487 18.6394 19.58V7.03995C18.6394 6.7376 18.5193 6.44764 18.3055 6.23385C18.0917 6.02006 17.8018 5.89995 17.4994 5.89995ZM7.23941 4.75995C7.23941 4.15526 7.47963 3.57533 7.90721 3.14775C8.33479 2.72016 8.91472 2.47995 9.51941 2.47995C10.1241 2.47995 10.704 2.72016 11.1316 3.14775C11.5592 3.57533 11.7994 4.15526 11.7994 4.75995V5.89995H7.23941V4.75995ZM16.3594 19.58C16.3594 19.8823 16.2393 20.1723 16.0255 20.3861C15.8117 20.5998 15.5218 20.72 15.2194 20.72H3.81941C3.51707 20.72 3.2271 20.5998 3.01331 20.3861C2.79952 20.1723 2.67941 19.8823 2.67941 19.58V8.17995H4.95941V9.31995C4.95941 9.6223 5.07952 9.91226 5.29331 10.1261C5.5071 10.3398 5.79707 10.46 6.09941 10.46C6.40176 10.46 6.69172 10.3398 6.90552 10.1261C7.11931 9.91226 7.23941 9.6223 7.23941 9.31995V8.17995H11.7994V9.31995C11.7994 9.6223 11.9195 9.91226 12.1333 10.1261C12.3471 10.3398 12.6371 10.46 12.9394 10.46C13.2418 10.46 13.5317 10.3398 13.7455 10.1261C13.9593 9.91226 14.0794 9.6223 14.0794 9.31995V8.17995H16.3594V19.58Z" fill="#1A1C2B"/>
</svg>
