<svg width="16" height="16" viewBox="0 0 16 16" fill="none" xmlns="http://www.w3.org/2000/svg">
<g id="bx:time">
<path id="Vector" d="M8.00065 1.33301C4.32465 1.33301 1.33398 4.32367 1.33398 7.99967C1.33398 11.6757 4.32465 14.6663 8.00065 14.6663C11.6767 14.6663 14.6673 11.6757 14.6673 7.99967C14.6673 4.32367 11.6767 1.33301 8.00065 1.33301ZM8.00065 13.333C5.05998 13.333 2.66732 10.9403 2.66732 7.99967C2.66732 5.05901 5.05998 2.66634 8.00065 2.66634C10.9413 2.66634 13.334 5.05901 13.334 7.99967C13.334 10.9403 10.9413 13.333 8.00065 13.333Z" fill="#6B6B6B"/>
<path id="Vector_2" d="M8.66732 4.66699H7.33398V8.66699H11.334V7.33366H8.66732V4.66699Z" fill="#6B6B6B"/>
</g>
</svg>
