<svg width="16" height="20" viewBox="0 0 16 20" fill="none" xmlns="http://www.w3.org/2000/svg">
<path id="Vector" d="M15.4421 5.78027L9.91211 0.250273C9.77159 0.109581 9.58095 0.0304485 9.38211 0.0302734H6.91211C6.18276 0.0302734 5.48329 0.320005 4.96757 0.83573C4.45184 1.35145 4.16211 2.05093 4.16211 2.78027V4.03027H2.91211C2.18276 4.03027 1.48329 4.32 0.967566 4.83573C0.451841 5.35145 0.162109 6.05093 0.162109 6.78027V16.7803C0.162109 17.5096 0.451841 18.2091 0.967566 18.7248C1.48329 19.2405 2.18276 19.5303 2.91211 19.5303H9.91211C10.6415 19.5303 11.3409 19.2405 11.8567 18.7248C12.3724 18.2091 12.6621 17.5096 12.6621 16.7803V15.5303H12.9121C13.6415 15.5303 14.3409 15.2405 14.8567 14.7248C15.3724 14.2091 15.6621 13.5096 15.6621 12.7803V6.28027C15.6542 6.09188 15.5757 5.91336 15.4421 5.78027ZM10.1621 2.59027L13.1021 5.53027H10.1621V2.59027ZM11.1621 16.7803C11.1621 17.1118 11.0304 17.4297 10.796 17.6642C10.5616 17.8986 10.2436 18.0303 9.91211 18.0303H2.91211C2.58059 18.0303 2.26265 17.8986 2.02823 17.6642C1.79381 17.4297 1.66211 17.1118 1.66211 16.7803V6.78027C1.66211 6.44875 1.79381 6.13081 2.02823 5.89639C2.26265 5.66197 2.58059 5.53027 2.91211 5.53027H4.16211V12.7803C4.16211 13.5096 4.45184 14.2091 4.96757 14.7248C5.48329 15.2405 6.18276 15.5303 6.91211 15.5303H11.1621V16.7803ZM12.9121 14.0303H6.91211C6.58059 14.0303 6.26265 13.8986 6.02823 13.6642C5.79381 13.4297 5.66211 13.1118 5.66211 12.7803V2.78027C5.66211 2.44875 5.79381 2.13081 6.02823 1.89639C6.26265 1.66197 6.58059 1.53027 6.91211 1.53027H8.66211V6.28027C8.6647 6.47838 8.74455 6.66764 8.88464 6.80774C9.02474 6.94783 9.214 7.02768 9.41211 7.03027H14.1621V12.7803C14.1621 13.1118 14.0304 13.4297 13.796 13.6642C13.5616 13.8986 13.2436 14.0303 12.9121 14.0303Z" fill="#4D537F"/>
</svg>
