<svg width="20" height="20" viewBox="0 0 20 20" fill="none" xmlns="http://www.w3.org/2000/svg">
<path d="M14.3958 16.875L17.2917 14L16.4167 13.125L14.3958 15.1042L13.5833 14.2917L12.7083 15.1875L14.3958 16.875ZM5 7.5H15V5.83333H5V7.5ZM15 19.1667C13.8472 19.1667 12.8644 18.7603 12.0517 17.9475C11.2389 17.1347 10.8328 16.1522 10.8333 15C10.8333 13.8472 11.2397 12.8644 12.0525 12.0517C12.8653 11.2389 13.8478 10.8328 15 10.8333C16.1528 10.8333 17.1356 11.2397 17.9483 12.0525C18.7611 12.8653 19.1672 13.8478 19.1667 15C19.1667 16.1528 18.7603 17.1356 17.9475 17.9483C17.1347 18.7611 16.1522 19.1672 15 19.1667ZM2.5 18.3333V4.16667C2.5 3.70833 2.66333 3.31583 2.99 2.98917C3.31667 2.6625 3.70889 2.49945 4.16667 2.5H15.8333C16.2917 2.5 16.6842 2.66333 17.0108 2.99C17.3375 3.31667 17.5006 3.70889 17.5 4.16667V9.72917C17.2361 9.60417 16.9653 9.5 16.6875 9.41667C16.4097 9.33333 16.125 9.27083 15.8333 9.22917V4.16667H4.16667V15.875H9.22917C9.29861 16.3056 9.40639 16.7153 9.5525 17.1042C9.69861 17.4931 9.88944 17.8611 10.125 18.2083L10 18.3333L8.75 17.0833L7.5 18.3333L6.25 17.0833L5 18.3333L3.75 17.0833L2.5 18.3333ZM5 14.1667H9.22917C9.27083 13.875 9.33333 13.5903 9.41667 13.3125C9.5 13.0347 9.60417 12.7639 9.72917 12.5H5V14.1667ZM5 10.8333H10.9167C11.4444 10.3194 12.0592 9.91306 12.7608 9.61417C13.4625 9.31528 14.2089 9.16611 15 9.16667H5V10.8333Z" fill="#00AD00"/>
</svg>
