<svg width="24" height="23" viewBox="0 0 24 23" fill="none" xmlns="http://www.w3.org/2000/svg">
<path d="M21.8865 6.5851H17.8876C17.9321 6.54748 17.9777 6.511 18.021 6.4711C18.3672 6.16353 18.6462 5.78782 18.8406 5.36749C19.035 4.94716 19.1405 4.49124 19.1507 4.02826C19.1656 3.52176 19.0769 3.01755 18.89 2.54657C18.7031 2.0756 18.4218 1.6478 18.0636 1.28944C17.7053 0.931086 17.2776 0.649732 16.8067 0.462653C16.3358 0.275575 15.8316 0.186719 15.3251 0.201543C14.8619 0.211519 14.4058 0.316999 13.9852 0.511381C13.5647 0.705762 13.1888 0.98486 12.8811 1.3312C12.4553 1.82467 12.1092 2.38157 11.8552 2.98181C11.6012 2.38157 11.255 1.82467 10.8292 1.3312C10.5215 0.98486 10.1457 0.705762 9.72511 0.511381C9.30457 0.316999 8.84844 0.211519 8.38525 0.201543C7.87875 0.186719 7.37457 0.275575 6.90365 0.462653C6.43273 0.649732 6.00502 0.931086 5.64677 1.28944C5.28852 1.6478 5.00729 2.0756 4.82035 2.54657C4.63341 3.01755 4.54471 3.52176 4.55968 4.02826C4.56981 4.49124 4.67537 4.94716 4.86975 5.36749C5.06412 5.78782 5.34314 6.16353 5.68934 6.4711C5.73266 6.50872 5.77826 6.5452 5.82271 6.5851H1.82387C1.34015 6.5851 0.876242 6.77725 0.5342 7.1193C0.192157 7.46134 0 7.92525 0 8.40897V12.0567C0 12.5404 0.192157 13.0043 0.5342 13.3464C0.876242 13.6884 1.34015 13.8806 1.82387 13.8806V21.1761C1.82387 21.6598 2.01603 22.1237 2.35807 22.4657C2.70012 22.8078 3.16402 23 3.64775 23H20.0626C20.5463 23 21.0102 22.8078 21.3523 22.4657C21.6943 22.1237 21.8865 21.6598 21.8865 21.1761V13.8806C22.3702 13.8806 22.8341 13.6884 23.1761 13.3464C23.5182 13.0043 23.7103 12.5404 23.7103 12.0567V8.40897C23.7103 7.92525 23.5182 7.46134 23.1761 7.1193C22.8341 6.77725 22.3702 6.5851 21.8865 6.5851ZM14.249 2.53952C14.3934 2.38007 14.5692 2.25219 14.7654 2.16392C14.9615 2.07564 15.1738 2.02887 15.3889 2.02655H15.4448C15.6969 2.02813 15.9462 2.08001 16.178 2.17916C16.4098 2.2783 16.6195 2.42272 16.7947 2.60394C16.97 2.78517 17.1074 2.99955 17.1987 3.23453C17.2901 3.46952 17.3336 3.72037 17.3268 3.9724C17.3245 4.1875 17.2777 4.3998 17.1894 4.59596C17.1012 4.79213 16.9733 4.96793 16.8138 5.11232C15.732 6.06985 13.9367 6.40727 12.8241 6.52582C12.9609 5.31865 13.3371 3.56431 14.249 2.53952ZM6.94326 2.58056C7.29657 2.22728 7.77506 2.02778 8.27468 2.02542H8.33054C8.54564 2.02774 8.75794 2.0745 8.9541 2.16278C9.15027 2.25105 9.32607 2.37893 9.47046 2.53838C10.4269 3.61902 10.7643 5.41098 10.8828 6.51898C9.77482 6.40499 7.98286 6.06301 6.90222 5.10662C6.74277 4.96223 6.61489 4.78643 6.52661 4.59026C6.43834 4.3941 6.39157 4.1818 6.38925 3.9667C6.38219 3.71048 6.42724 3.4555 6.52169 3.21723C6.61614 2.97895 6.75801 2.76235 6.9387 2.58056H6.94326ZM1.82387 8.40897H10.9432V12.0567H1.82387V8.40897ZM3.64775 13.8806H10.9432V21.1761H3.64775V13.8806ZM20.0626 21.1761H12.7671V13.8806H20.0626V21.1761ZM21.8865 12.0567H12.7671V8.40897H21.8865V12.0567Z" fill="#1A1C2B"/>
</svg>
