<svg width="18" height="18" viewBox="0 0 18 18" fill="none" xmlns="http://www.w3.org/2000/svg">
<circle cx="8.88889" cy="9.11155" r="8.05556" stroke="#094AC3" stroke-width="1.66667"/>
<path d="M10.5602 13.5557H7.50244V13.2831L8.27281 13.212V8.16307L7.25355 8.10381V7.85492L9.78985 7.70085V13.212L10.5602 13.2831V13.5557ZM9.87281 5.70974C9.87281 5.94677 9.7859 6.15221 9.61207 6.32603C9.44614 6.49986 9.23676 6.58678 8.98392 6.58678C8.73108 6.58678 8.51775 6.50381 8.34392 6.33789C8.17799 6.16406 8.09503 5.95468 8.09503 5.70974C8.09503 5.4569 8.18195 5.24357 8.35577 5.06974C8.5296 4.88801 8.73898 4.79715 8.98392 4.79715C9.22886 4.79715 9.43824 4.88801 9.61207 5.06974C9.7859 5.25147 9.87281 5.4648 9.87281 5.70974Z" fill="#094AC3"/>
</svg>

