<svg width="20" height="20" viewBox="0 0 20 20" fill="none" xmlns="http://www.w3.org/2000/svg">
<circle cx="10" cy="10" r="10" fill="#094AC3"/>
<path d="M11.88 14.333H8.44V14.0263L9.30667 13.9463V8.26634L8.16 8.19967V7.91967L11.0133 7.74634V13.9463L11.88 14.0263V14.333ZM11.1067 5.50634C11.1067 5.77301 11.0089 6.00412 10.8133 6.19967C10.6267 6.39523 10.3911 6.49301 10.1067 6.49301C9.82222 6.49301 9.58222 6.39967 9.38667 6.21301C9.2 6.01745 9.10667 5.7819 9.10667 5.50634C9.10667 5.2219 9.20444 4.9819 9.4 4.78634C9.59556 4.5819 9.83111 4.47967 10.1067 4.47967C10.3822 4.47967 10.6178 4.5819 10.8133 4.78634C11.0089 4.99078 11.1067 5.23078 11.1067 5.50634Z" fill="#E7EFFE"/>
</svg>
