<svg width="17" height="15" viewBox="0 0 17 15" fill="none" xmlns="http://www.w3.org/2000/svg">
<g id="Group">
<path id="Vector" d="M3.83398 4.25H3.00065C2.55862 4.25 2.1347 4.40804 1.82214 4.68934C1.50958 4.97064 1.33398 5.35218 1.33398 5.75V12.5C1.33398 12.8978 1.50958 13.2794 1.82214 13.5607C2.1347 13.842 2.55862 14 3.00065 14H10.5007C10.9427 14 11.3666 13.842 11.6792 13.5607C11.9917 13.2794 12.1673 12.8978 12.1673 12.5V11.75" stroke="#8086B2" stroke-width="2" stroke-linecap="round" stroke-linejoin="round"/>
<path id="Vector_2" d="M11.3333 2.75008L13.8333 5.00008M14.9875 3.93883C15.3157 3.64345 15.5001 3.24282 15.5001 2.82508C15.5001 2.40734 15.3157 2.00672 14.9875 1.71133C14.6593 1.41595 14.2142 1.25 13.75 1.25C13.2858 1.25 12.8407 1.41595 12.5125 1.71133L5.5 8.00008V10.2501H8L14.9875 3.93883Z" stroke="#8086B2" stroke-width="2" stroke-linecap="round" stroke-linejoin="round"/>
</g>
</svg>
