<svg width="20" height="20" viewBox="0 0 20 20" fill="none" xmlns="http://www.w3.org/2000/svg">
<path d="M13.1253 12.0837C12.9596 12.0837 12.8006 12.1495 12.6834 12.2667C12.5662 12.3839 12.5003 12.5429 12.5003 12.7087C12.5003 12.8744 12.5662 13.0334 12.6834 13.1506C12.8006 13.2678 12.9596 13.3337 13.1253 13.3337H15.2087C15.3744 13.3337 15.5334 13.2678 15.6506 13.1506C15.7678 13.0334 15.8337 12.8744 15.8337 12.7087C15.8337 12.5429 15.7678 12.3839 15.6506 12.2667C15.5334 12.1495 15.3744 12.0837 15.2087 12.0837H13.1253ZM1.66699 6.87533C1.66699 6.15703 1.95233 5.46816 2.46024 4.96024C2.96816 4.45233 3.65703 4.16699 4.37533 4.16699H15.6253C15.981 4.16699 16.3332 4.23705 16.6618 4.37315C16.9903 4.50926 17.2889 4.70875 17.5404 4.96024C17.7919 5.21174 17.9914 5.5103 18.1275 5.83889C18.2636 6.16748 18.3337 6.51966 18.3337 6.87533V13.1253C18.3337 13.481 18.2636 13.8332 18.1275 14.1618C17.9914 14.4904 17.7919 14.7889 17.5404 15.0404C17.2889 15.2919 16.9903 15.4914 16.6618 15.6275C16.3332 15.7636 15.981 15.8337 15.6253 15.8337H4.37533C3.65703 15.8337 2.96816 15.5483 2.46024 15.0404C1.95233 14.5325 1.66699 13.8436 1.66699 13.1253V6.87533ZM17.0837 7.91699V6.87533C17.0837 6.48855 16.93 6.11762 16.6565 5.84413C16.383 5.57064 16.0121 5.41699 15.6253 5.41699H4.37533C3.98855 5.41699 3.61762 5.57064 3.34413 5.84413C3.07064 6.11762 2.91699 6.48855 2.91699 6.87533V7.91699H17.0837ZM2.91699 9.16699V13.1253C2.91699 13.9303 3.57033 14.5837 4.37533 14.5837H15.6253C16.0121 14.5837 16.383 14.43 16.6565 14.1565C16.93 13.883 17.0837 13.5121 17.0837 13.1253V9.16699H2.91699Z" fill="#8086B2"/>
</svg>
