<svg width="20" height="20" viewBox="0 0 20 20" fill="none" xmlns="http://www.w3.org/2000/svg">
<path d="M18.1792 3.86758C18.1044 3.78206 18.0126 3.71291 17.9098 3.66447C17.8069 3.61602 17.6952 3.58933 17.5816 3.58605C15.8162 3.53989 13.5823 1.6522 12.1054 0.911431C11.1931 0.455277 10.5908 0.154508 10.1385 0.0752769C10.0466 0.0618943 9.95332 0.0621535 9.86155 0.0760462C9.40925 0.155277 8.80694 0.456046 7.8954 0.9122C6.41848 1.6522 4.18463 3.53989 2.41924 3.58605C2.30553 3.5895 2.19373 3.61627 2.09079 3.66469C1.98784 3.71312 1.89594 3.78218 1.82078 3.86758C1.66499 4.04384 1.58461 4.27421 1.59694 4.50912C1.97617 12.2191 4.74155 16.9907 9.59386 19.7637C9.72001 19.8353 9.86001 19.8722 9.99924 19.8722C10.1385 19.8722 10.2785 19.8353 10.4054 19.7637C15.2577 16.9907 18.0223 12.2191 18.4023 4.50912C18.4154 4.27424 18.3352 4.04371 18.1792 3.86758ZM14.3208 6.89989L10.2262 12.9422C10.0792 13.1591 9.84848 13.303 9.62001 13.303C9.39078 13.303 9.13617 13.1776 8.9754 13.0168L6.08924 10.1299C5.99502 10.0353 5.94211 9.90725 5.94211 9.77374C5.94211 9.64023 5.99502 9.51216 6.08924 9.41759L6.80232 8.70297C6.8971 8.60911 7.02509 8.55646 7.15848 8.55646C7.29186 8.55646 7.41985 8.60911 7.51463 8.70297L9.39155 10.5799L12.6523 5.76682C12.7278 5.65668 12.8437 5.58086 12.9749 5.55593C13.106 5.53099 13.2417 5.55897 13.3523 5.63374L14.1869 6.19989C14.2972 6.27522 14.3732 6.39112 14.3983 6.52228C14.4233 6.65344 14.3955 6.7892 14.3208 6.89989Z" fill="#00AD00"/>
</svg>
