<svg width="24" height="24" viewBox="0 0 24 24" fill="none" xmlns="http://www.w3.org/2000/svg">
<path d="M20.587 11.3321L4.08705 3.08214C3.95772 3.01746 3.81246 2.99155 3.66876 3.00752C3.52505 3.02348 3.38902 3.08065 3.27705 3.17214C3.17012 3.26176 3.0903 3.37943 3.04658 3.51192C3.00286 3.64441 2.99696 3.78648 3.02955 3.92214L5.24955 11.9996L2.99955 20.0546C2.96897 20.1679 2.9654 20.2868 2.98913 20.4017C3.01285 20.5167 3.06322 20.6244 3.13617 20.7163C3.20912 20.8082 3.30262 20.8818 3.40915 20.931C3.51568 20.9802 3.63227 21.0037 3.74955 20.9996C3.86695 20.9989 3.98256 20.9707 4.08705 20.9171L20.587 12.6671C20.7099 12.6042 20.813 12.5086 20.885 12.3908C20.957 12.273 20.9951 12.1377 20.9951 11.9996C20.9951 11.8616 20.957 11.7262 20.885 11.6085C20.813 11.4907 20.7099 11.3951 20.587 11.3321ZM4.91205 18.8321L6.56955 12.7496H13.4995V11.2496H6.56955L4.91205 5.16714L18.5695 11.9996L4.91205 18.8321Z" fill="white"/>
</svg>
