<svg width="20" height="20" viewBox="0 0 20 20" fill="none" xmlns="http://www.w3.org/2000/svg">
<path d="M18.4473 4.15225V1.1499C18.4473 0.735059 18.1121 0.399902 17.6973 0.399902H1.85353C1.43869 0.399902 1.10353 0.735059 1.10353 1.1499V4.15225C0.712124 4.17568 0.400405 4.50146 0.400405 4.8999V7.98662C0.398904 8.55391 0.513771 9.11548 0.737905 9.63662C0.838686 9.87568 0.962905 10.1007 1.10353 10.314V18.3999C1.10353 18.8124 1.43869 19.1499 1.85353 19.1499H17.6973C18.1121 19.1499 18.4473 18.8147 18.4473 18.3999V10.314C18.5901 10.1001 18.7125 9.87336 18.8129 9.63662C19.0356 9.11397 19.1504 8.5585 19.1504 7.98662V4.8999C19.1504 4.50146 18.8387 4.17568 18.4473 4.15225ZM2.79103 2.0874H16.7598V4.1499H2.79103V2.0874ZM11.2754 17.4647H8.2754V15.0249H11.2754V17.4647ZM16.7598 17.4647H12.7754V14.2749C12.7754 13.8601 12.4402 13.5249 12.0254 13.5249H7.5254C7.11056 13.5249 6.7754 13.8601 6.7754 14.2749V17.4647H2.79103V11.7882C2.859 11.821 2.92931 11.8538 3.00197 11.8819C3.52462 12.1022 4.08009 12.2124 4.65197 12.2124C5.22384 12.2124 5.77697 12.1022 6.30197 11.8819C6.6254 11.746 6.93009 11.5726 7.209 11.364C7.21369 11.3616 7.21837 11.3616 7.22306 11.364C7.50283 11.5734 7.8075 11.7474 8.13009 11.8819C8.65275 12.1022 9.20822 12.2124 9.78009 12.2124C10.352 12.2124 10.9051 12.1022 11.4301 11.8819C11.7535 11.746 12.0582 11.5726 12.3371 11.364C12.3418 11.3616 12.3465 11.3616 12.3512 11.364C12.631 11.5734 12.9356 11.7474 13.2582 11.8819C13.7809 12.1022 14.3363 12.2124 14.9082 12.2124C15.4801 12.2124 16.0332 12.1022 16.5582 11.8819C16.6285 11.8515 16.6988 11.821 16.7692 11.7882V17.4647H16.7598ZM17.4629 7.98662C17.4629 9.38818 16.3145 10.5249 14.9012 10.5249C13.9449 10.5249 13.1106 10.0069 12.6699 9.23818C12.602 9.121 12.4801 9.04834 12.3442 9.04834H12.3301C12.1965 9.04834 12.0723 9.121 12.0043 9.23818C11.7794 9.63033 11.4548 9.95596 11.0633 10.182C10.6718 10.408 10.2274 10.5263 9.7754 10.5249C8.8215 10.5249 7.98947 10.0093 7.54884 9.24287C7.47853 9.12334 7.35197 9.04834 7.21369 9.04834C7.0754 9.04834 6.9465 9.12334 6.87853 9.24287C6.65236 9.63352 6.32727 9.95769 5.93598 10.1828C5.54469 10.4078 5.10102 10.5258 4.64962 10.5249C3.23634 10.5249 2.0879 9.38818 2.0879 7.98662V5.84912C2.0879 5.84209 2.09259 5.8374 2.09962 5.8374H17.4512C17.4582 5.8374 17.4629 5.84209 17.4629 5.84912V7.98662Z" fill="#1A1C2B"/>
</svg>
