<svg width="32" height="32" viewBox="0 0 32 32" fill="none" xmlns="http://www.w3.org/2000/svg">
<rect y="0.00195312" width="31.8594" height="31.9753" rx="15.9297" fill="#DFE1EC"/>
<g clip-path="url(#clip0_1041_4041)">
<path d="M21.9437 21.2574V22.0692C21.9452 22.1297 21.9703 22.1873 22.0137 22.2295C22.057 22.2718 22.1151 22.2954 22.1757 22.2954H21.9437C19.6638 24.4802 16.2113 25.4498 12.6395 24.1509C11.4619 23.7188 10.397 23.0265 9.52435 22.1255C8.65167 21.2245 7.99366 20.1381 7.59941 18.9473C5.61401 12.9981 9.8643 7.45356 15.4714 7.19727V9.90864C11.5621 10.1673 8.65474 14.1462 10.2621 18.3269C10.7561 19.6153 12.2254 21.0835 13.5092 21.574C17.6899 23.1802 21.6677 20.2717 21.9263 16.3647H24.647V21.0301H22.1652C22.1058 21.0311 22.0491 21.0555 22.0076 21.0981C21.9661 21.1407 21.9431 21.198 21.9437 21.2574Z" fill="#00AD00"/>
<path d="M24.6511 22.291H21.9443V24.7322H24.6511V22.291Z" fill="#1A1C2B"/>
<path d="M24.6501 7.18555V15.9598H21.9433V9.89228H15.877V7.18555H24.6501Z" fill="#1A1C2B"/>
</g>
<defs>
<clipPath id="clip0_1041_4041">
<rect width="17.8594" height="17.9753" fill="white" transform="translate(7 7.00195)"/>
</clipPath>
</defs>
</svg>
