<?xml version="1.0" encoding="utf-8"?>
<!-- Generator: Adobe Illustrator 16.0.0, SVG Export Plug-In . SVG Version: 6.00 Build 0)  -->
<!DOCTYPE svg PUBLIC "-//W3C//DTD SVG 1.1//EN" "http://www.w3.org/Graphics/SVG/1.1/DTD/svg11.dtd">
<svg version="1.1" id="Layer_1" xmlns="http://www.w3.org/2000/svg" xmlns:xlink="http://www.w3.org/1999/xlink" x="0px" y="0px"
	 width="18px" height="16px" viewBox="0 0 18 16" enable-background="new 0 0 18 16" xml:space="preserve">
<path fill="none" stroke="#DFE1EC" stroke-width="2.1429" d="M8.46,13.684l-0.002-0.002c-2.229-1.928-3.99-3.455-5.207-4.875
	C2.044,7.399,1.5,6.239,1.5,5.067c0-1.886,1.545-3.425,3.643-3.425c1.186,0,2.329,0.532,3.061,1.346L9,3.874l0.797-0.885
	c0.732-0.813,1.875-1.346,3.061-1.346c2.098,0,3.643,1.539,3.643,3.425c0,1.172-0.544,2.332-1.751,3.739
	c-1.217,1.42-2.978,2.947-5.207,4.875l-0.001,0.002L9,14.152L8.46,13.684z"/>
<image overflow="visible" width="512" height="512" xlink:href="C:\Users\moham\Desktop\heart.png"  transform="matrix(0.0265 0 0 0.0265 2.1875 1.1875)">
</image>
</svg>
