<svg width="18" height="16" viewBox="0 0 18 16" fill="none" xmlns="http://www.w3.org/2000/svg">
<path d="M8.45969 13.6833L8.45813 13.682C6.22915 11.7544 4.46779 10.2262 3.25116 8.80673C2.04445 7.39879 1.50014 6.23901 1.50014 5.06732C1.50014 3.18174 3.04497 1.64284 5.143 1.64284C6.32896 1.64284 7.47148 2.17476 8.20373 2.98841L9.00014 3.87335L9.79654 2.98841C10.5288 2.17476 11.6713 1.64284 12.8573 1.64284C14.9553 1.64284 16.5001 3.18174 16.5001 5.06732C16.5001 6.23901 15.9558 7.39879 14.7491 8.80673C13.5325 10.2262 11.7711 11.7544 9.54215 13.682L9.54059 13.6833L9.00014 14.1525L8.45969 13.6833Z" stroke="#DFE1EC" stroke-width="2.14286"/>
</svg>
