<svg width="85" height="17" viewBox="0 0 85 17" fill="none" xmlns="http://www.w3.org/2000/svg">
<g clip-path="url(#clip0_315_10593)">
<path d="M5.38475 16.2349H2.18186V8.25049H0V5.65093H2.18178V3.80116C2.18178 1.60918 3.14679 0.0371094 6.341 0.0371094C7.01658 0.0371094 8.07721 0.173279 8.07721 0.173279V2.58711H6.9632C5.82811 2.58711 5.38492 2.93238 5.38492 3.88693V5.65093H8.03471L7.79875 8.25049H5.38484L5.38475 16.2349ZM12.7338 5.44319C12.6872 5.44319 12.6392 5.44489 12.5916 5.44608C9.62175 5.44608 8.26293 7.68005 8.26293 10.8512C8.26293 14.8461 10.0255 16.4449 12.6149 16.4449C14.0963 16.4449 15.0696 15.8214 15.6613 14.6577V16.236H18.7076V5.65204H15.6613V7.2797C15.1782 6.2325 14.1777 5.4556 12.7338 5.44319ZM13.5085 7.94415C14.7558 7.94415 15.5045 8.81421 15.5045 10.2941L15.5074 11.8057C15.5074 12.8032 14.889 13.9701 13.5085 13.9701C11.386 13.9701 11.4427 11.6784 11.4427 10.9151C11.4427 8.34747 12.5735 7.94415 13.5085 7.94415ZM19.9379 10.9446C19.9379 9.65843 19.8764 5.45008 25.3592 5.45008C27.5601 5.45008 28.4792 6.14988 28.4792 6.14988L27.7405 8.44089C27.7405 8.44089 26.8227 7.93548 25.6267 7.93548C24.0949 7.93548 23.1175 8.82347 23.1175 10.3859L23.1192 11.5062C23.1192 13.0074 24.0623 14.0096 25.6299 14.0096C26.7194 14.0096 27.7236 13.4994 27.7236 13.4994L28.4604 15.7426C28.4604 15.7426 27.6201 16.4468 25.3746 16.4468C20.1541 16.4468 19.938 12.6711 19.938 10.9446H19.9379ZM46.3413 5.44608C49.3113 5.44608 50.6915 7.68005 50.6915 10.8512C50.6915 14.8461 48.9289 16.4449 46.3395 16.4449C44.8581 16.4449 43.7629 15.8214 43.1713 14.6577V16.236L40.1633 16.2348V0.358919L43.3571 0.0803744V7.13631C43.818 5.90185 45.3328 5.44608 46.3413 5.44608ZM45.4459 7.94415C44.1986 7.94415 43.3571 8.81421 43.3571 10.2941L43.3541 11.8057C43.3522 12.8032 43.9368 13.9701 45.4459 13.9701C47.5684 13.9701 47.5117 11.6784 47.5117 10.9151C47.5117 8.34747 46.3809 7.94415 45.4459 7.94415ZM34.0207 5.45484C30.6521 5.45484 28.8737 7.29143 28.8737 10.5553V11.1617C28.8737 15.3978 31.3711 16.4884 34.3485 16.4884C37.2425 16.4884 38.5524 15.679 38.5524 15.679L37.9548 13.5234C37.9548 13.5234 36.4139 14.179 34.7314 14.179C32.9872 14.179 32.2371 13.7344 32.0448 12.0582H38.8078V10.3289C38.8078 6.78849 36.8119 5.45475 34.0206 5.45475L34.0207 5.45484ZM34.1018 7.61333C35.2679 7.61333 36.0234 8.32835 35.9819 9.98661H32.0507C32.1189 8.24131 32.9337 7.61333 34.1018 7.61333ZM57.0598 5.4403C53.6006 5.4403 51.7794 7.3897 51.7794 10.8831C51.7794 15.6763 54.9187 16.4478 57.0656 16.4478C60.2086 16.4478 62.2996 14.7557 62.2996 10.9266C62.2996 6.94123 59.9485 5.4403 57.0598 5.4403ZM57.0163 7.95282C58.5374 7.95282 59.1401 9.09122 59.1401 10.387V11.5011C59.1401 13.0709 58.2967 13.9789 57.0105 13.9789C55.8076 13.9789 54.9622 13.1296 54.9622 11.5011V10.387C54.9622 8.65033 55.9682 7.95282 57.0163 7.95282ZM68.6621 5.4403C65.2029 5.4403 63.3818 7.3897 63.3818 10.8831C63.3818 15.6763 66.521 16.4478 68.6679 16.4478C71.8108 16.4478 73.9019 14.7557 73.9019 10.9266C73.9019 6.94123 71.5507 5.4403 68.6621 5.4403ZM68.6186 7.95282C70.1397 7.95282 70.7424 9.09122 70.7424 10.387V11.5011C70.7424 13.0709 69.899 13.9789 68.6129 13.9789C67.4099 13.9789 66.5645 13.1296 66.5645 11.5011V10.387C66.5645 8.65033 67.5705 7.95282 68.6186 7.95282ZM75.1088 16.2349V0.358919L78.3119 0.0803744V10.7214L81.4897 5.65093H84.8723L81.5573 10.9025L85 16.2349H81.6077L78.3119 11.0572V16.2349H75.1088Z" fill="#1877F2"/>
</g>
<defs>
<clipPath id="clip0_315_10593">
<rect width="85" height="16.524" fill="white"/>
</clipPath>
</defs>
</svg>
