<svg width="85" height="20" viewBox="0 0 85 20" fill="none" xmlns="http://www.w3.org/2000/svg">
<path d="M27.2694 3.56808C26.9607 2.41877 26.0515 1.50961 24.9022 1.20084C22.8266 0.634766 14.4727 0.634766 14.4727 0.634766C14.4727 0.634766 6.11873 0.651919 4.04311 1.218C2.8938 1.52677 1.98465 2.43592 1.67588 3.58523C1.12695 5.66085 1.12695 10.0008 1.12695 10.0008C1.12695 10.0008 1.12695 14.3407 1.69303 16.4335C2.0018 17.5828 2.91095 18.4919 4.06026 18.8007C6.13588 19.3668 14.4898 19.3668 14.4898 19.3668C14.4898 19.3668 22.8437 19.3668 24.9194 18.8007C26.0687 18.4919 26.9778 17.5828 27.2866 16.4335C27.8527 14.3579 27.8527 10.0008 27.8527 10.0008C27.8527 10.0008 27.8355 5.66085 27.2694 3.56808Z" fill="#FF0000"/>
<path d="M18.7446 10.0003L11.8145 5.98633V14.0143L18.7446 10.0003Z" fill="white"/>
<path d="M39.894 17.6684C39.3623 17.3082 38.9849 16.7593 38.7619 16.0045C38.5389 15.2497 38.436 14.2548 38.436 13.0026V11.3044C38.436 10.0521 38.556 9.02289 38.8133 8.26812C39.0706 7.4962 39.4652 6.94728 40.0141 6.6042C40.563 6.26112 41.2663 6.07243 42.1412 6.07243C42.9989 6.07243 43.7022 6.24397 44.2168 6.6042C44.7314 6.96443 45.126 7.51335 45.3661 8.26812C45.6063 9.02289 45.7263 10.035 45.7263 11.2872V12.9854C45.7263 14.2377 45.6063 15.2326 45.3661 15.9874C45.126 16.7421 44.7486 17.2911 44.2168 17.6513C43.685 17.9944 42.9646 18.1831 42.0726 18.1831C41.1463 18.2002 40.4258 18.0115 39.894 17.6684ZM42.8616 15.833C43.016 15.4556 43.0847 14.8209 43.0847 13.9632V10.3094C43.0847 9.46889 43.016 8.85135 42.8616 8.47397C42.7073 8.07943 42.45 7.89074 42.0897 7.89074C41.7295 7.89074 41.4893 8.07943 41.335 8.47397C41.1806 8.86851 41.112 9.46889 41.112 10.3094V13.9632C41.112 14.8209 41.1806 15.4556 41.3178 15.833C41.455 16.2104 41.7123 16.3991 42.0897 16.3991C42.45 16.3991 42.7073 16.2104 42.8616 15.833ZM80.4629 13.0369V13.6373L80.5315 15.3355C80.583 15.7129 80.6688 15.9874 80.806 16.1589C80.9432 16.3304 81.1662 16.4162 81.4578 16.4162C81.8524 16.4162 82.1268 16.2618 82.2641 15.9531C82.4185 15.6443 82.4871 15.1297 82.5042 14.4264L84.7857 14.5636C84.8028 14.6665 84.8028 14.8037 84.8028 14.9753C84.8028 16.056 84.5112 16.8622 83.9108 17.394C83.3105 17.9257 82.4871 18.2002 81.4064 18.2002C80.1027 18.2002 79.1935 17.7885 78.6789 16.9823C78.1643 16.1761 77.8898 14.9067 77.8898 13.2084V11.1328C77.8898 9.38312 78.1643 8.09658 78.6961 7.29035C79.245 6.48412 80.1713 6.07243 81.475 6.07243C82.3841 6.07243 83.0703 6.24397 83.5506 6.56989C84.0309 6.89581 84.374 7.41043 84.5798 8.11374C84.7857 8.81705 84.8715 9.77766 84.8715 11.0127V13.0197H80.4629V13.0369ZM80.806 8.09658C80.6688 8.26812 80.583 8.52543 80.5315 8.90281C80.4801 9.2802 80.4629 9.84628 80.4629 10.6182V11.4587H82.3841V10.6182C82.3841 9.86343 82.367 9.29735 82.3155 8.90281C82.2641 8.50828 82.1783 8.23381 82.0411 8.07943C81.9038 7.92505 81.698 7.83928 81.4235 7.83928C81.1319 7.85643 80.9261 7.9422 80.806 8.09658ZM33.4785 12.8139L30.4766 1.97266H33.1011L34.1475 6.87866C34.4219 8.09658 34.6106 9.12582 34.7479 9.96635H34.8165C34.9023 9.34882 35.1081 8.33674 35.4169 6.89581L36.4976 1.97266H39.1221L36.0859 12.7967V17.9944H33.4956V12.8139H33.4785Z" fill="#282828"/>
<path d="M54.2341 6.29492V18.011H52.1756L51.9526 16.5701H51.9012C51.3351 17.6508 50.4945 18.1997 49.3795 18.1997C48.6076 18.1997 48.0244 17.9424 47.6642 17.4278C47.2868 16.9132 47.1152 16.1241 47.1152 15.0434V6.29492H49.7569V14.889C49.7569 15.4036 49.8084 15.781 49.9285 16.004C50.0485 16.227 50.2372 16.3299 50.4945 16.3299C50.7175 16.3299 50.9405 16.2613 51.1464 16.1241C51.3522 15.9869 51.5066 15.7982 51.6095 15.5923V6.29492H54.2341Z" fill="#282828"/>
<path d="M67.7692 6.29492V18.011H65.7108L65.4878 16.5701H65.4363C64.8702 17.6508 64.0297 18.1997 62.9147 18.1997C62.1428 18.1997 61.5595 17.9424 61.1993 17.4278C60.8219 16.9132 60.6504 16.1241 60.6504 15.0434V6.29492H63.2921V14.889C63.2921 15.4036 63.3435 15.781 63.4636 16.004C63.5837 16.227 63.7724 16.3299 64.0297 16.3299C64.2527 16.3299 64.4757 16.2613 64.6815 16.1241C64.8874 15.9869 65.0418 15.7982 65.1447 15.5923V6.29492H67.7692Z" fill="#282828"/>
<path d="M61.4042 4.09953H58.7796V18.0113H56.2066V4.09953H53.582V1.97246H61.387V4.09953H61.4042ZM76.4824 8.165C76.3281 7.42738 76.0707 6.89561 75.7105 6.55254C75.3503 6.22661 74.87 6.05507 74.2353 6.05507C73.755 6.05507 73.2918 6.19231 72.8801 6.46677C72.4513 6.74123 72.1425 7.10146 71.9024 7.54746H71.8852V1.37207H69.3464V17.9942H71.525L71.7994 16.8792H71.8509C72.0567 17.2737 72.3655 17.5825 72.76 17.8226C73.1753 18.0502 73.6417 18.1682 74.1152 18.1657C75.0072 18.1657 75.659 17.754 76.0879 16.9306C76.4996 16.1072 76.7226 14.8207 76.7226 13.0882V11.2355C76.7226 9.93185 76.6368 8.90262 76.4824 8.165ZM74.0637 12.9509C74.0637 13.8086 74.0294 14.4776 73.9608 14.9579C73.8922 15.4382 73.7721 15.7813 73.6006 15.9872C73.429 16.193 73.206 16.2959 72.9316 16.2959C72.7086 16.2959 72.5199 16.2445 72.3312 16.1415C72.1425 16.0386 72.0053 15.8842 71.8852 15.6784V9.02269C71.971 8.69677 72.1254 8.43946 72.3484 8.23361C72.5714 8.02777 72.7944 7.92485 73.0517 7.92485C73.3261 7.92485 73.532 8.02777 73.6692 8.23361C73.8236 8.43946 73.9094 8.79969 73.978 9.29715C74.0294 9.79462 74.0637 10.4979 74.0637 11.4242V12.9509Z" fill="#282828"/>
</svg>
