<svg width="332" height="220" viewBox="0 0 332 220" fill="none" xmlns="http://www.w3.org/2000/svg">
<path d="M127.069 134.972L128.036 160.604H125.682V163.506H132.262V160.604H130.343L130.48 134.972H127.069Z" fill="#4D537F"/>
<path d="M124.531 156.493C125.532 156.493 126.344 157.305 126.344 158.306V165.802C126.344 166.804 125.532 167.616 124.531 167.616C123.529 167.616 122.717 166.804 122.717 165.802V158.306C122.717 157.305 123.529 156.493 124.531 156.493Z" fill="#4D537F"/>
<path d="M133.719 156.493C134.721 156.493 135.533 157.305 135.533 158.306V165.802C135.533 166.804 134.721 167.616 133.719 167.616C132.718 167.616 131.906 166.804 131.906 165.802V158.306C131.906 157.305 132.718 156.493 133.719 156.493Z" fill="#4D537F"/>
<path d="M148.47 119.002L111.231 117.31L117.035 114.65L149.679 115.134L148.47 119.002Z" fill="#8086B2"/>
<path d="M0 122.761L4.49722 121.068L144.117 124.695L149.92 122.036L147.502 138.478L36.5961 126.661L0 122.761Z" fill="#8086B2"/>
<path d="M35.9077 132.312L36.5955 126.661L147.501 138.478L146.897 146.821L35.9077 132.312Z" fill="#4D537F"/>
<path d="M110.505 148.997C116.849 148.997 121.991 143.53 121.991 136.786C121.991 130.042 116.849 124.575 110.505 124.575C104.162 124.575 99.0195 130.042 99.0195 136.786C99.0195 143.53 104.162 148.997 110.505 148.997Z" fill="#4D537F"/>
<path d="M110.505 143.073C115.179 143.073 118.968 139.284 118.968 134.61C118.968 129.936 115.179 126.146 110.505 126.146C105.831 126.146 102.042 129.936 102.042 134.61C102.042 139.284 105.831 143.073 110.505 143.073Z" fill="#8086B2"/>
<path d="M204.931 134.972L203.964 160.604H206.318V163.506H199.738V160.604H201.657L201.52 134.972H204.931Z" fill="#4D537F"/>
<path d="M207.469 156.493H207.469C206.468 156.493 205.656 157.305 205.656 158.306V165.802C205.656 166.804 206.468 167.616 207.469 167.616H207.469C208.471 167.616 209.283 166.804 209.283 165.802V158.306C209.283 157.305 208.471 156.493 207.469 156.493Z" fill="#4D537F"/>
<path d="M198.281 156.493H198.281C197.28 156.493 196.468 157.305 196.468 158.306V165.802C196.468 166.804 197.28 167.616 198.281 167.616H198.281C199.283 167.616 200.095 166.804 200.095 165.802V158.306C200.095 157.305 199.283 156.493 198.281 156.493Z" fill="#4D537F"/>
<path d="M183.531 119.002L220.769 117.31L214.966 114.65L182.322 115.134L183.531 119.002Z" fill="#8086B2"/>
<path d="M170.203 113.793L168.51 76.5547L165.85 82.358L166.334 115.002L170.203 113.793Z" fill="#8086B2"/>
<path d="M332 122.761L327.503 121.068L187.883 124.695L182.08 122.036L184.498 138.478L295.404 126.661L332 122.761Z" fill="#8086B2"/>
<path d="M296.092 132.312L295.404 126.661L184.499 138.478L185.103 146.821L296.092 132.312Z" fill="#4D537F"/>
<path d="M221.495 148.997C227.838 148.997 232.98 143.53 232.98 136.786C232.98 130.042 227.838 124.575 221.495 124.575C215.151 124.575 210.009 130.042 210.009 136.786C210.009 143.53 215.151 148.997 221.495 148.997Z" fill="#4D537F"/>
<path d="M221.495 143.073C226.169 143.073 229.958 139.284 229.958 134.61C229.958 129.936 226.169 126.146 221.495 126.146C216.821 126.146 213.032 129.936 213.032 134.61C213.032 139.284 216.821 143.073 221.495 143.073Z" fill="#8086B2"/>
<path d="M187.097 114.364L186.548 118.408L186.263 140.181C186.241 141.801 186.045 143.402 185.678 144.954C184.619 149.476 182.145 153.589 178.491 156.57C175.176 159.279 170.654 161.329 164.67 160.966C148.711 159.999 147.301 146.417 147.301 146.417L147.903 121.787L147.985 118.408L148.711 112.313C148.711 112.313 150.645 95.1451 168.539 95.6287C186.432 96.1123 187.097 114.364 187.097 114.364Z" fill="#8086B2"/>
<path d="M152.58 108.686L156.207 102.883L160.801 101.432H176.518L180.387 102.883L183.898 108.686L177.486 105.785H159.497L152.58 108.686Z" fill="#4D537F"/>
<path d="M165.882 150.409L166.503 166.852H164.993V168.713H169.214V166.852H167.983L168.071 150.409H165.882Z" fill="#4D537F"/>
<path d="M164.253 164.214C164.896 164.214 165.417 164.735 165.417 165.378V170.187C165.417 170.829 164.896 171.35 164.253 171.35C163.611 171.35 163.09 170.829 163.09 170.187V165.378C163.09 164.735 163.611 164.214 164.253 164.214Z" fill="#4D537F"/>
<path d="M170.148 164.214C170.79 164.214 171.311 164.735 171.311 165.378V170.187C171.311 170.829 170.79 171.35 170.148 171.35C169.505 171.35 168.984 170.829 168.984 170.187V165.378C168.984 164.735 169.505 164.214 170.148 164.214Z" fill="#4D537F"/>
<path d="M161.38 97.868L158.039 109.896L158.683 110.074L162.023 98.0468L161.38 97.868Z" fill="#8086B2"/>
<path d="M176.529 99.7872L175.873 99.916L178.28 112.165L178.936 112.036L176.529 99.7872Z" fill="#8086B2"/>
<path d="M245.364 80.5724C247.763 80.5724 249.707 78.6279 249.707 76.2292C249.707 73.8305 247.763 71.886 245.364 71.886C242.966 71.886 241.021 73.8305 241.021 76.2292C241.021 78.6279 242.966 80.5724 245.364 80.5724Z" fill="#8086B2" fill-opacity="0.5"/>
<path d="M186.527 26.2075C188.926 26.2075 190.87 24.2629 190.87 21.8642C190.87 19.4655 188.926 17.521 186.527 17.521C184.128 17.521 182.184 19.4655 182.184 21.8642C182.184 24.2629 184.128 26.2075 186.527 26.2075Z" fill="#8086B2" fill-opacity="0.5"/>
<path d="M44.1093 63.1992C46.508 63.1992 48.4526 61.2546 48.4526 58.8559C48.4526 56.4572 46.508 54.5127 44.1093 54.5127C41.7106 54.5127 39.7661 56.4572 39.7661 58.8559C39.7661 61.2546 41.7106 63.1992 44.1093 63.1992Z" fill="#8086B2" fill-opacity="0.5"/>
<path d="M125.152 94.789C127.551 94.789 129.496 92.8445 129.496 90.4458C129.496 88.0471 127.551 86.1025 125.152 86.1025C122.754 86.1025 120.809 88.0471 120.809 90.4458C120.809 92.8445 122.754 94.789 125.152 94.789Z" fill="#8086B2" fill-opacity="0.5"/>
<path d="M65.6216 175.789C68.0203 175.789 69.9648 173.845 69.9648 171.446C69.9648 169.047 68.0203 167.103 65.6216 167.103C63.2229 167.103 61.2783 169.047 61.2783 171.446C61.2783 173.845 63.2229 175.789 65.6216 175.789Z" fill="#8086B2" fill-opacity="0.5"/>
<path d="M214.271 212.091C216.67 212.091 218.614 210.146 218.614 207.747C218.614 205.349 216.67 203.404 214.271 203.404C211.872 203.404 209.928 205.349 209.928 207.747C209.928 210.146 211.872 212.091 214.271 212.091Z" fill="#8086B2" fill-opacity="0.5"/>
<path d="M249.413 176.948C251.812 176.948 253.756 175.004 253.756 172.605C253.756 170.206 251.812 168.262 249.413 168.262C247.014 168.262 245.07 170.206 245.07 172.605C245.07 175.004 247.014 176.948 249.413 176.948Z" fill="#8086B2" fill-opacity="0.5"/>
</svg>
