<svg width="83" height="41" viewBox="0 0 83 41" fill="none" xmlns="http://www.w3.org/2000/svg">
<path d="M70.5686 17.0891C71.0784 17.0891 71.5203 16.8174 71.5546 16.4838L72.0644 10.7399C72.0644 10.1614 71.3919 9.72021 70.5686 9.72021C69.7191 9.72021 69.0728 10.1964 69.0728 10.7399L69.5826 16.4838C69.6162 16.8234 70.0588 17.0891 70.5686 17.0891ZM67.4411 18.8916C67.7128 18.4497 67.6792 17.9399 67.4075 17.7361L62.6825 14.4391C62.2063 14.1674 61.4584 14.5064 61.0508 15.2207C60.6432 15.9349 60.7112 16.7501 61.1867 17.0218L66.4214 19.4701C66.7611 19.5723 67.203 19.3342 67.4411 18.8916ZM73.6625 18.8909C73.9342 19.3328 74.3754 19.5635 74.6821 19.429L79.9169 16.9808C80.3931 16.7091 80.4953 15.8932 80.0527 15.1796C79.6452 14.4667 78.8972 14.1257 78.4211 14.3981L73.6961 17.6951C73.4244 17.9332 73.3901 18.443 73.6625 18.8856M70.5686 24.2548C71.0784 24.2548 71.5203 24.5265 71.5546 24.8601L72.0644 30.604C72.0644 31.1824 71.3919 31.6237 70.5686 31.6237C69.7191 31.6237 69.0728 31.1475 69.0728 30.604L69.5826 24.8601C69.6162 24.5205 70.0588 24.2548 70.5686 24.2548ZM73.6625 22.459C73.9342 22.0171 74.3754 21.7864 74.6821 21.9209L79.9169 24.3342C80.3931 24.6059 80.4953 25.4218 80.0527 26.1354C79.6452 26.8483 78.8972 27.1893 78.4211 26.9169L73.6961 23.6199C73.4244 23.4161 73.3901 22.9069 73.6625 22.4644M67.4411 22.4657C67.7128 22.9076 67.6792 23.4175 67.4075 23.6213L62.6825 26.9183C62.2063 27.19 61.4584 26.851 61.0508 26.1367C60.6432 25.4224 60.7112 24.6073 61.1867 24.3355L66.4214 21.9223C66.7611 21.7864 67.203 22.0245 67.4411 22.4604" fill="#4D537F"/>
<path d="M45.6164 23.0798C45.6164 23.2223 45.6164 23.3932 45.5592 23.5069C45.3884 24.0476 44.8194 24.5319 44.1078 24.5319C43.5024 24.5319 43.0262 24.1902 43.0262 23.4786C43.0262 22.3688 44.2504 22.0836 45.6157 22.0836L45.6164 23.0798ZM47.7794 21.1723C47.7794 19.3563 47.0107 17.7556 44.3923 17.7556C43.0471 17.7556 41.973 18.1255 41.4033 18.4672L41.8304 19.9186C42.3711 19.5769 43.1957 19.2931 44.023 19.2931C45.3682 19.2931 45.5599 20.0329 45.5599 20.5172V20.6315C42.6563 20.6315 40.835 21.627 40.835 23.677C40.835 24.9294 41.7746 26.0963 43.3908 26.0963C44.3862 26.0963 45.2068 25.6981 45.7247 25.0713H45.7818C45.7818 25.0713 46.1235 26.4662 47.9449 25.9255C47.8595 25.3565 47.8305 24.7296 47.8305 23.9898L47.7734 21.1649M2.65625 15.2798L4.84889 24.2749C5.19056 25.7546 5.84432 26.2961 7.67375 25.9261L8.84069 21.1158L9.52403 17.8706H9.55228C9.69487 19.0947 9.89395 19.9556 10.1213 21.1441L10.8611 24.4747C11.1167 25.6134 11.8007 26.3532 13.5939 25.9544L16.4187 15.3087H14.1413L13.1728 19.92L12.4895 23.5351H12.4612L11.8357 20.0054L10.8403 15.3087H8.46942L7.3879 19.8917L6.61913 23.5923H6.59089C6.38509 22.298 6.15727 21.0073 5.90753 19.7209L5.05336 15.3087L2.66231 15.2804M20.7387 23.0798C20.7387 23.2223 20.7387 23.3932 20.6816 23.5069C20.5107 24.0476 19.9417 24.5319 19.2301 24.5319C18.6248 24.5319 18.1486 24.1902 18.1486 23.4786C18.1486 22.3688 19.3727 22.0836 20.7381 22.0836L20.7387 23.0798ZM22.9018 21.1723C22.9018 19.3563 22.133 17.7556 19.5146 17.7556C18.1695 17.7556 17.0953 18.1255 16.5257 18.4672L16.9528 19.9186C17.4935 19.5769 18.3181 19.2931 19.1454 19.2931C20.4906 19.2931 20.6823 20.0329 20.6823 20.5172V20.6315C17.7787 20.6315 15.9573 21.627 15.9573 23.677C15.9573 24.9294 16.8969 26.0963 18.5132 26.0963C19.5086 26.0963 20.3291 25.6981 20.847 25.0713H20.9042C20.9042 25.0713 21.2459 26.4662 23.0672 25.9255C22.9818 25.3565 22.9529 24.7296 22.9529 23.9898V21.1649M26.4813 23.6777V15.2804H24.3182V25.9261H26.4813V23.6777Z" fill="#4D537F"/>
<path d="M54.8111 15.2806V23.1364C54.8111 24.2179 55.0102 24.986 55.4367 25.442C55.8066 25.8402 56.4321 26.0964 57.2015 26.0964C57.827 26.0964 58.4821 25.9821 58.7673 25.8678L58.7391 24.1883C58.5104 24.2455 58.2548 24.2738 57.9138 24.2738C57.174 24.2738 56.9184 23.7895 56.9184 22.8223V19.8051H58.7969V17.7557H56.9184V15.251H54.8118M49.2038 17.9279V25.9263H51.4233V21.8275C51.4233 21.5989 51.4233 21.4004 51.4805 21.2222C51.6513 20.368 52.3058 19.8273 53.2454 19.8273C53.501 19.8273 53.7007 19.8555 53.8998 19.8845V17.7779C53.729 17.7496 53.6153 17.7207 53.4155 17.7207C52.5903 17.7207 51.6224 18.2615 51.2229 19.4002H51.1657V17.8916H49.2018M28.0261 17.9279V25.9263H30.1891V21.2296C30.1891 21.0009 30.2174 20.7743 30.3034 20.5752C30.4743 20.0909 30.9289 19.5502 31.613 19.5502C32.4954 19.5502 32.8936 20.29 32.8936 21.3662V25.9195H35.0566V21.1657C35.0566 20.9666 35.0849 20.7104 35.142 20.5113C35.3129 19.9705 35.7965 19.5428 36.4516 19.5428C37.334 19.5428 37.7611 20.2826 37.7611 21.535V25.9189H39.9241V21.194C39.9241 18.7175 38.6718 17.7214 37.2486 17.7214C36.6972 17.7161 36.1551 17.864 35.6828 18.1485C35.3129 18.3771 34.9712 18.7175 34.6578 19.1439H34.6295C34.2878 18.2897 33.4908 17.7207 32.4369 17.7207C31.0715 17.7207 30.4729 18.4041 30.103 19.0013H30.0748V17.9198H28.0254" fill="#4D537F"/>
</svg>
