<svg width="62" height="25" viewBox="0 0 62 25" fill="none" xmlns="http://www.w3.org/2000/svg">
<path d="M38.2755 12.0211C35.7052 12.1068 34.1098 12.5676 34.1098 14.2605C34.1098 15.3565 34.9961 16.5442 37.2001 16.5442C40.1751 16.5442 41.7645 14.9222 41.7645 12.2663V11.9709C40.7187 11.9738 39.4336 11.9827 38.2755 12.0211ZM44.5948 15.5338C44.5948 16.3581 44.6184 17.1734 44.6893 17.8973H42.06C41.9945 17.3087 41.9629 16.7168 41.9654 16.1247C40.5414 17.8766 38.8456 18.3818 36.494 18.3818C32.999 18.3759 31.1289 16.5442 31.1289 14.3993C31.1289 11.312 33.6696 10.2219 38.0805 10.1214C39.2858 10.0948 40.6419 10.0889 41.7616 10.0889V9.79351C41.7616 7.72547 40.4351 6.87462 38.1396 6.87462C36.4349 6.87462 35.1852 7.5807 35.0464 8.80085H32.0684C32.3845 5.76083 35.5781 4.98975 38.3877 4.98975C41.7527 4.98975 44.5918 6.18625 44.5918 9.74624L44.5948 15.5338Z" fill="#4D537F"/>
<path d="M13.7641 10.5115C13.6548 7.85255 11.7404 6.86876 9.69602 6.86876C7.49503 6.86876 5.72243 7.97663 5.427 10.5115H13.7641ZM5.35905 12.4081C5.51267 14.9814 7.28528 16.5029 9.72556 16.5029C11.4154 16.5029 12.9192 15.8145 13.4214 14.3166H16.3581C15.7672 17.3419 12.547 18.3759 9.76692 18.3759C4.71205 18.3759 2.47266 15.59 2.47266 11.838C2.47266 7.70188 4.78886 4.98389 9.81419 4.98389C13.8114 4.98389 16.7421 7.09033 16.7421 11.643V12.4081H5.35905Z" fill="#4D537F"/>
<path d="M24.0106 16.438C26.6459 16.438 28.4421 14.5413 28.4421 11.6815C28.4421 8.82166 26.64 6.92497 24.0106 6.92497C21.3812 6.92497 19.5791 8.82166 19.5791 11.6815C19.5791 14.5413 21.3812 16.438 24.0106 16.438ZM16.7429 0H19.5761V7.11996C20.9647 5.46553 22.8791 4.98397 24.761 4.98397C27.9192 4.98397 31.426 7.11405 31.426 11.7169C31.426 15.5576 28.6371 18.376 24.7078 18.376C22.6398 18.376 20.7165 17.6374 19.523 16.178C19.5231 16.7554 19.4905 17.3325 19.4255 17.9063H16.6543C16.7016 17.02 16.7518 15.8855 16.7518 14.9785L16.7429 0Z" fill="#4D537F"/>
<path d="M59.0271 5.45654L50.2646 22.6656H47.0827L49.6028 17.8855L43.0176 5.45654H46.3323L51.1863 15.1704L56.0255 5.4595L59.0271 5.45654Z" fill="#4D537F"/>
</svg>
