<svg width="90" height="46" viewBox="0 0 90 46" fill="none" xmlns="http://www.w3.org/2000/svg">
<g clip-path="url(#clip0_315_10615)">
<path d="M26.818 23.8188L35.5358 0.325195H29.7732L25.7837 10.5205L26.6703 0.325195H20.6122L11.8944 23.8188H17.5092L21.7942 12.4414L21.0554 23.5233L26.818 23.8188ZM33.6149 23.8188L42.3327 0.325195H36.8656L28.0001 23.8188H33.6149ZM49.4251 22.3412L49.1296 10.5205L57.4041 0.91623L49.4251 22.3412ZM89.6155 14.0668L61.5413 21.3069L62.2801 19.0906H56.3698L58.2907 13.4757H63.3144L64.792 9.19072L59.7682 9.48624L61.5413 4.75796H66.4174L68.0427 0.472954H52.2325L46.47 7.26986L49.2774 0.325195H43.6625L34.9448 23.8188H40.7074L44.4013 13.7712V23.8188H51.7893L25.3405 30.7635C22.5822 31.5515 20.1195 31.8964 17.9525 31.7978C15.7853 31.6992 14.1108 31.1082 12.9287 30.0247C10.2691 28.0546 9.33315 25.0501 10.1213 21.0114C10.6138 18.3518 11.6973 15.7907 13.372 13.328C9.43171 17.4652 6.52574 20.9622 4.65423 23.8188C2.5856 26.8726 1.25577 29.8769 0.66474 32.8321C0.0737046 35.7873 0.418426 38.2006 1.69905 40.0723C5.14671 45.7857 12.6824 46.1796 24.3061 41.2544L89.6155 14.0668Z" fill="#221F1F"/>
</g>
<defs>
<clipPath id="clip0_315_10615">
<rect width="90" height="45" fill="white" transform="translate(0 0.5)"/>
</clipPath>
</defs>
</svg>
