<svg width="120" height="50" viewBox="0 0 120 50" fill="none" xmlns="http://www.w3.org/2000/svg">
<path d="M72.797 24.5955C67.5729 24.7697 64.3303 25.7064 64.3303 29.1471C64.3303 31.3749 66.1317 33.7888 70.6113 33.7888C76.6581 33.7888 79.8886 30.4922 79.8886 25.0939V24.4934C77.7629 24.4994 75.1509 24.5175 72.797 24.5955ZM85.6412 31.7352C85.6412 33.4105 85.6892 35.0678 85.8333 36.539H80.4891C80.356 35.3427 80.2919 34.1398 80.2969 32.9361C77.4026 36.497 73.9559 37.5238 69.1761 37.5238C62.0725 37.5118 58.2715 33.7888 58.2715 29.4293C58.2715 23.1544 63.4356 20.9386 72.4007 20.7345C74.8506 20.6804 77.6068 20.6684 79.8826 20.6684V20.0679C79.8826 15.8646 77.1865 14.1352 72.5208 14.1352C69.056 14.1352 66.516 15.5704 66.2338 18.0503H60.181C60.8235 11.8714 67.3146 10.3042 73.0252 10.3042C79.8646 10.3042 85.6352 12.7361 85.6352 19.9719L85.6412 31.7352Z" fill="#F8B100"/>
<path d="M22.9756 21.5269C22.7534 16.1226 18.8623 14.123 14.707 14.123C10.2335 14.123 6.63062 16.3748 6.03015 21.5269H22.9756ZM5.89204 25.3819C6.20429 30.6121 9.80714 33.7045 14.7671 33.7045C18.2018 33.7045 21.2582 32.3054 22.279 29.261H28.2477C27.0468 35.4099 20.5016 37.5116 14.8511 37.5116C4.577 37.5116 0.0253906 31.8491 0.0253906 24.223C0.0253906 15.8164 4.73312 10.292 14.9472 10.292C23.0716 10.292 29.0284 14.5734 29.0284 23.8267V25.3819H5.89204Z" fill="#E83434"/>
<path d="M43.7995 33.5726C49.1557 33.5726 52.8066 29.7175 52.8066 23.9049C52.8066 18.0923 49.1437 14.2373 43.7995 14.2373C38.4553 14.2373 34.7924 18.0923 34.7924 23.9049C34.7924 29.7175 38.4553 33.5726 43.7995 33.5726ZM29.0278 0.162109H34.7864V14.6336C37.6086 11.2709 41.4997 10.2921 45.3247 10.2921C51.7438 10.2921 58.8714 14.6216 58.8714 23.977C58.8714 31.7832 53.2029 37.5117 45.2166 37.5117C41.0133 37.5117 37.1042 36.0105 34.6783 33.0442C34.6785 34.2179 34.6123 35.3907 34.4801 36.5569H28.8477C28.9437 34.7555 29.0458 32.4497 29.0458 30.6062L29.0278 0.162109Z" fill="#006CB8"/>
<path d="M114.973 11.2529L97.1633 46.2306H90.6961L95.8182 36.5149L82.4336 11.2529H89.1709L99.0367 30.9966L108.873 11.2589L114.973 11.2529Z" fill="#7CBD27"/>
</svg>
