<svg width="55" height="70" viewBox="0 0 55 70" fill="none" xmlns="http://www.w3.org/2000/svg">
<g clip-path="url(#clip0_315_10625)">
<path d="M27.1481 45.1289C17.2538 45.1289 9.22419 37.1121 9.22419 27.2162C9.22419 17.3023 17.2538 9.29131 27.1481 9.29131C37.051 9.29131 45.0706 17.3023 45.0706 27.2162C45.0706 37.1121 37.051 45.1289 27.1481 45.1289ZM27.1481 0.341309C12.3153 0.341309 0.287109 12.3726 0.287109 27.2162C0.287109 42.0484 12.3153 54.0759 27.1481 54.0759C41.9872 54.0759 54.0343 42.0484 54.0343 27.2162C54.0343 12.3726 41.9872 0.341309 27.1481 0.341309Z" fill="#CC0000"/>
<path d="M27.1472 18.0068C22.0629 18.0068 17.9434 22.1164 17.9434 27.2161C17.9434 32.2991 22.0628 36.4209 27.1472 36.4209C32.2364 36.4209 36.3649 32.2989 36.3649 27.2161C36.3649 22.1166 32.2364 18.0068 27.1472 18.0068Z" fill="#CC0000"/>
<path d="M2.85326 61.0852H-0.109375V59.2568H7.98979V61.0852H5.02715V69.1429H2.85326V61.0852Z" fill="#CC0000"/>
<path d="M7.04883 69.1429H9.24924L10.0252 66.9409H13.722L14.4699 69.1429H16.7263L13.0295 59.2568H10.8009L7.04883 69.1429ZM11.8806 61.6928H11.9079L13.1534 65.321H10.5938L11.8806 61.6928Z" fill="#CC0000"/>
<path d="M17.584 69.1429H19.7588V65.2801H21.9312C23.0261 65.2801 23.4268 65.7366 23.5787 66.7745C23.6908 67.564 23.6626 68.5195 23.9259 69.143H26.0984C25.7112 68.5894 25.7255 67.4248 25.6834 66.802C25.6138 65.8037 25.3105 64.7665 24.2436 64.4898V64.4625C25.3387 64.0197 25.809 63.1484 25.809 61.9838C25.809 60.4897 24.6866 59.2573 22.915 59.2573H17.5841L17.584 69.1429ZM19.7588 60.9459H22.1407C23.1083 60.9459 23.6348 61.3615 23.6348 62.3158C23.6348 63.3122 23.1083 63.7283 22.1407 63.7283H19.7588V60.9459Z" fill="#CC0000"/>
<path d="M34.4458 68.0207C33.6836 69.0051 32.6885 69.3802 31.7326 69.3802C28.6735 69.3802 26.873 67.092 26.873 64.2397C26.873 61.3059 28.6733 59.0225 31.7326 59.0225C33.7535 59.0225 35.6649 60.2684 35.9008 62.5095H33.8229C33.5732 61.4147 32.7565 60.8491 31.7326 60.8491C29.7803 60.8491 29.0454 62.5095 29.0454 64.2397C29.0454 65.8882 29.7803 67.5488 31.7326 67.5488C33.1453 67.5488 33.9604 66.7879 34.0857 65.4163H31.8992V63.7983H36.0518V69.1427H34.6662L34.4458 68.0207Z" fill="#CC0000"/>
<path d="M37.5352 59.2568H44.926V61.0852H39.7086V63.2025H44.4981V64.8932H39.7086V67.3146H45.0381V69.1429H37.5352V59.2568Z" fill="#CC0000"/>
<path d="M48.9686 61.0852H46.0059V59.2568H54.1061V61.0852H51.1418V69.1429H48.9686V61.0852Z" fill="#CC0000"/>
</g>
<defs>
<clipPath id="clip0_315_10625">
<rect width="55" height="70" fill="white"/>
</clipPath>
</defs>
</svg>
