<svg width="125" height="52" viewBox="0 0 125 52" fill="none" xmlns="http://www.w3.org/2000/svg">
<g clip-path="url(#clip0_315_10605)">
<path d="M77.5152 37.613C70.2569 42.9548 59.7125 45.8308 50.6744 45.8308C37.9718 45.8308 26.5362 41.1408 17.8741 33.299C17.1905 32.6838 17.8057 31.8611 18.6285 32.3396C27.9742 37.7839 39.5123 41.0359 51.463 41.0359C59.5098 41.0359 68.3428 39.3586 76.4898 35.8991C77.6861 35.3889 78.7481 36.7243 77.5152 37.613Z" fill="#FF9900"/>
<path d="M80.5623 34.156C79.637 32.9573 74.4343 33.6091 72.0711 33.8826C71.3533 33.9851 71.2483 33.3357 71.9001 32.8889C76.0432 29.9787 82.8572 30.8015 83.6433 31.7927C84.4319 32.7864 83.4382 39.5979 79.5344 42.8523C78.9534 43.365 78.3699 43.0915 78.6433 42.4079C79.5027 40.2497 81.4876 35.3547 80.5623 34.156Z" fill="#FF9900"/>
<path d="M72.2437 12.2783V9.43652C72.2437 8.99219 72.5855 8.71875 72.9614 8.71875H85.6641C86.0742 8.71875 86.3818 9.02637 86.3818 9.43652V11.8682C86.3818 12.2783 86.04 12.7935 85.4224 13.6479L78.8477 23.062C81.2793 22.9937 83.8794 23.3696 86.106 24.6025C86.6187 24.876 86.7554 25.2861 86.7896 25.6987V28.7114C86.7896 29.1216 86.3452 29.6025 85.8643 29.3608C81.9605 27.3076 76.7578 27.1001 72.4439 29.395C71.9995 29.6343 71.5527 29.1558 71.5527 28.7456V25.8696C71.5527 25.3911 71.5527 24.6025 72.0313 23.9189L79.6655 12.9619H73.0225C72.5513 12.9961 72.2437 12.7227 72.2437 12.2783Z" fill="#221F1F"/>
<path d="M25.8521 30.0127H21.9824C21.6064 29.9785 21.333 29.7051 21.2988 29.3633V9.50488C21.2988 9.09472 21.6406 8.78711 22.0532 8.78711H25.647C26.023 8.78711 26.3306 9.09472 26.3306 9.43652V12.0391H26.3989C27.3242 9.53906 29.104 8.37451 31.5015 8.37451C33.9331 8.37451 35.4395 9.53906 36.5332 12.0391C37.4585 9.53906 39.5801 8.37451 41.875 8.37451C43.4839 8.37451 45.2637 9.0581 46.3599 10.5303C47.5928 12.2075 47.3193 14.6392 47.3193 16.7607V29.2925C47.3193 29.7026 46.9775 30.0102 46.5649 30.0102H42.6953C42.3193 29.9761 42.0117 29.6685 42.0117 29.2925V18.7822C42.0117 17.9595 42.0801 15.8721 41.9092 15.0493C41.6357 13.7139 40.7446 13.3379 39.6484 13.3379C38.7231 13.3379 37.7319 13.9531 37.3193 14.981C36.9092 15.9746 36.9775 17.6519 36.9775 18.7822V29.2925C36.9775 29.7026 36.6357 30.0102 36.2231 30.0102H32.3535C31.9775 29.9761 31.6699 29.6685 31.6699 29.2925V18.7822C31.6699 16.5557 32.0459 13.3037 29.2725 13.3037C26.499 13.3037 26.6016 16.4873 26.6016 18.7822V29.2925C26.604 29.6709 26.2622 30.0127 25.8521 30.0127Z" fill="#221F1F"/>
<path d="M97.3389 8.37451C103.091 8.37451 106.172 13.3037 106.172 19.5708C106.172 25.6304 102.749 30.4228 97.3389 30.4228C91.6895 30.4228 88.6426 25.4937 88.6426 19.3633C88.6426 13.167 91.7578 8.37451 97.3389 8.37451ZM97.373 12.415C94.5313 12.415 94.3604 16.2847 94.3604 18.7139C94.3604 21.1455 94.3262 26.314 97.373 26.314C100.386 26.314 100.522 22.1367 100.522 19.6025C100.522 17.9253 100.454 15.938 99.9414 14.3291C99.4604 12.9619 98.606 12.415 97.373 12.415Z" fill="#221F1F"/>
<path d="M113.636 30.0127H109.801C109.425 29.9785 109.117 29.6709 109.117 29.2949V9.43652C109.151 9.06054 109.459 8.78711 109.872 8.78711H113.465C113.807 8.78711 114.081 9.02637 114.149 9.33398V12.3809H114.217C115.313 9.67578 116.82 8.37451 119.491 8.37451C121.236 8.37451 122.914 8.98974 124.01 10.7036C125.038 12.2783 125.038 14.9492 125.038 16.8657V29.3633C125.003 29.7051 124.662 29.9785 124.283 29.9785H120.345C120.003 29.9443 119.696 29.7051 119.662 29.3633V18.5771C119.662 16.4214 119.901 13.2353 117.23 13.2353C116.305 13.2353 115.416 13.8506 115.003 14.8101C114.457 16.0088 114.388 17.2417 114.388 18.5771V29.2583C114.391 29.6709 114.046 30.0127 113.636 30.0127Z" fill="#221F1F"/>
<path d="M68.9893 26.3506C68.2715 25.3569 67.5171 24.5708 67.5171 22.7568V16.7314C67.5171 14.1631 67.688 11.8364 65.8057 10.0884C64.3335 8.65039 61.8677 8.17188 59.9854 8.17188C56.3208 8.17188 52.1802 9.5415 51.3232 14.0947C51.2207 14.5732 51.5967 14.8491 51.9043 14.9175L55.6372 15.3276C55.979 15.3276 56.2524 14.9858 56.3208 14.6099C56.6284 13.0352 57.9639 12.2808 59.436 12.2808C60.2246 12.2808 61.1475 12.5884 61.5918 13.2744C62.1387 14.063 62.0703 15.1567 62.0703 16.082V16.5947C59.8438 16.834 56.8994 17.0049 54.812 17.9302C52.3804 18.9922 50.7031 21.1138 50.7031 24.2632C50.7031 28.2695 53.2373 30.2886 56.4893 30.2886C59.2285 30.2886 60.7349 29.6392 62.8564 27.481C63.54 28.5088 63.7817 28.9873 65.083 30.0493C65.3564 30.186 65.7324 30.186 66.0083 29.9468C66.7969 29.2632 68.2007 28.0303 68.9868 27.3784C69.2993 27.1367 69.231 26.6924 68.9893 26.3506ZM61.3892 24.6025C60.7739 25.6987 59.7803 26.3481 58.7183 26.3481C57.2461 26.3481 56.355 25.2178 56.355 23.5405C56.355 20.2544 59.2993 19.6367 62.1069 19.6367V20.4595C62.1094 22.0366 62.1436 23.2671 61.3892 24.6025Z" fill="#221F1F"/>
<path d="M18.2871 26.3506C17.5693 25.3569 16.8149 24.5708 16.8149 22.7568V16.7314C16.8149 14.1631 16.9858 11.8364 15.1035 10.0884C13.6313 8.65039 11.1655 8.17188 9.2832 8.17188C5.61865 8.17188 1.51221 9.5415 0.621094 14.0947C0.518555 14.5732 0.894531 14.8491 1.20215 14.9175L4.96924 15.3276C5.31104 15.3276 5.58447 14.9858 5.65283 14.6099C5.96045 13.0352 7.2959 12.2808 8.76807 12.2808C9.55664 12.2808 10.4795 12.5884 10.9238 13.2744C11.4707 14.063 11.4023 15.1567 11.4023 16.082V16.5947C9.17578 16.834 6.23145 17.0049 4.14404 17.9302C1.7124 18.9922 0.0351562 21.1138 0.0351562 24.2632C0.0351562 28.2695 2.56934 30.2886 5.82129 30.2886C8.56055 30.2886 10.0669 29.6392 12.1885 27.481C12.9062 28.5088 13.1138 28.9873 14.415 30.0493C14.6885 30.186 15.0645 30.186 15.3403 29.9468C16.1289 29.2632 17.5327 28.0303 18.3188 27.3784C18.5947 27.1367 18.5264 26.6924 18.2871 26.3506ZM10.6846 24.6025C10.0693 25.6987 9.10986 26.3481 8.01367 26.3481C6.5415 26.3481 5.65039 25.2178 5.65039 23.5405C5.65039 20.2544 8.59473 19.6367 11.4023 19.6367V20.4595C11.4048 22.0366 11.439 23.2671 10.6846 24.6025Z" fill="#221F1F"/>
</g>
<defs>
<clipPath id="clip0_315_10605">
<rect width="125" height="51" fill="white" transform="translate(0 0.5)"/>
</clipPath>
</defs>
</svg>
