<svg width="34" height="18" viewBox="0 0 34 18" fill="none" xmlns="http://www.w3.org/2000/svg">
<g clip-path="url(#clip0_315_10479)">
<path d="M27.2402 0.406082H27.291C27.3251 0.406082 27.349 0.400926 27.3632 0.389582C27.3771 0.378238 27.3838 0.363801 27.3838 0.346527C27.3838 0.328996 27.3774 0.314816 27.3642 0.303731C27.3513 0.29084 27.3281 0.285684 27.2972 0.285684H27.2425V0.404277L27.2402 0.406082ZM27.1229 0.204988H27.3338C27.3936 0.204988 27.4369 0.217105 27.4638 0.241082C27.4906 0.265574 27.504 0.297801 27.504 0.338277C27.504 0.370246 27.4937 0.397574 27.473 0.420777C27.4529 0.443981 27.4207 0.460996 27.3769 0.471309C27.3949 0.476465 27.4078 0.484199 27.4168 0.491934C27.4287 0.502246 27.4413 0.517715 27.4542 0.53834L27.531 0.674981H27.3918C27.3464 0.584746 27.316 0.531379 27.3008 0.513848C27.2853 0.496316 27.2699 0.488066 27.2544 0.488066C27.2508 0.488066 27.2462 0.488066 27.24 0.489356V0.674981H27.1214V0.204988H27.1229ZM27.679 0.441402C27.679 0.342918 27.6442 0.258871 27.5749 0.189262C27.5053 0.119652 27.4215 0.0848477 27.323 0.0848477C27.225 0.0848477 27.1425 0.11991 27.0729 0.189262C27.0033 0.258871 26.9698 0.342918 26.9698 0.441402C26.9698 0.539371 27.0048 0.623676 27.0742 0.693285C27.1438 0.762895 27.2279 0.797699 27.3258 0.797699C27.4246 0.797699 27.5084 0.762895 27.578 0.693285C27.6476 0.623676 27.6824 0.539629 27.6824 0.441402H27.679ZM27.7649 0.441402C27.7649 0.520551 27.7453 0.594027 27.7056 0.662348C27.6664 0.730668 27.6128 0.784551 27.5445 0.823996C27.4761 0.863184 27.4027 0.882777 27.3232 0.882777C27.2446 0.882777 27.1711 0.863184 27.1031 0.823996C27.0348 0.784551 26.9809 0.730668 26.9414 0.662348C26.9028 0.594027 26.8821 0.520551 26.8821 0.441402C26.8821 0.36277 26.9028 0.289293 26.9414 0.220715C26.9827 0.152137 27.0368 0.0982539 27.1038 0.0588086C27.1735 0.0175586 27.2456 -0.000488281 27.3256 -0.000488281C27.405 -0.000488281 27.4787 0.0175586 27.5473 0.0588086C27.6153 0.0974805 27.6692 0.151621 27.7087 0.218652C27.7481 0.286457 27.768 0.360449 27.768 0.438824L27.7649 0.441402ZM5.97328 10.9723H6.02484C6.05887 10.9723 6.08285 10.9671 6.09703 10.9555C6.11069 10.9447 6.11765 10.9302 6.11765 10.913C6.11765 10.8949 6.11095 10.881 6.0978 10.8702C6.08414 10.8588 6.06171 10.8534 6.02948 10.8534H5.97354V10.972L5.97328 10.9723ZM5.85675 10.7712H6.06764C6.12745 10.7712 6.17076 10.7833 6.19758 10.8073C6.22413 10.8318 6.23754 10.864 6.23754 10.9047C6.23754 10.9362 6.22722 10.964 6.20711 10.9872C6.18649 11.0104 6.15426 11.0269 6.11044 11.0375C6.12848 11.0445 6.14189 11.0519 6.15065 11.0594C6.16226 11.0702 6.17515 11.0865 6.18804 11.1074L6.26486 11.244H6.12565C6.08182 11.1545 6.05088 11.1004 6.03541 11.0831C6.01994 11.0656 6.00447 11.0566 5.98901 11.0566C5.98643 11.0566 5.98127 11.0566 5.97611 11.0584V11.244H5.85958V10.7712H5.85675ZM6.41285 11.0076C6.41285 10.9091 6.37779 10.8253 6.30844 10.7557C6.23883 10.6861 6.15504 10.6513 6.05681 10.6513C5.95884 10.6513 5.87479 10.6858 5.80519 10.7557C5.73558 10.8253 5.70103 10.9091 5.70103 11.0076C5.70103 11.1056 5.73558 11.1901 5.80519 11.2597C5.87479 11.3293 5.95858 11.3641 6.05681 11.3641C6.15478 11.3641 6.23883 11.3291 6.30844 11.2597C6.37804 11.1901 6.41285 11.1058 6.41285 11.0076ZM6.4987 11.0076C6.4987 11.0867 6.47911 11.1602 6.4394 11.2285C6.40022 11.2969 6.34608 11.3507 6.27776 11.3902C6.21072 11.4314 6.13596 11.4495 6.05862 11.4495C5.98127 11.4495 5.90651 11.4314 5.83947 11.3902C5.77141 11.3515 5.71727 11.2974 5.67783 11.2303C5.63864 11.1628 5.61853 11.0885 5.61853 11.0102C5.61853 10.9313 5.63864 10.8581 5.67783 10.7895C5.71727 10.7209 5.77141 10.667 5.83973 10.6278C5.90831 10.5886 5.98153 10.5685 6.06042 10.5685C6.13931 10.5685 6.21253 10.5886 6.28111 10.6278C6.34969 10.6673 6.40383 10.7206 6.44353 10.7897C6.4822 10.8588 6.50231 10.9315 6.50231 11.0115L6.4987 11.0076ZM4.9477 8.94638H7.01072L8.49572 5.04697L8.33072 8.94638H10.5177L13.8598 0.00286328H11.8179L10.2909 3.95384L10.5384 0.00286328H8.33097L4.9477 8.94638ZM14.1903 0.00286328L10.8684 8.94638H12.9314L16.2729 0.00286328H14.1898H14.1903ZM19.0792 8.32763L22.0711 0.239535L18.8933 3.62358L19.0789 8.32737L19.0792 8.32763ZM4.64297 5.94415C4.64297 5.94415 3.79219 7.55342 3.79219 8.94612C3.79219 8.94612 3.71484 12.2281 7.10353 12.2281H7.56759C7.56759 12.2281 8.24822 12.4446 19.9766 8.9487H17.0061L16.8514 5.26585L15.4587 8.94741H13.3235L16.6967 0.00363672H18.7391L17.811 2.57197L20.0076 0.00337891H26.4446L25.8872 1.48889H23.6902L23.0095 3.3766H25.0519L24.4022 5.04722H22.3908L21.5864 7.2443H24L23.8144 7.89399C23.8144 7.89399 32.5718 5.63504 33.4999 5.38754C33.4999 5.38754 8.54109 17.2155 4.45605 17.2155C4.45605 17.2155 0.512038 17.2394 0.512038 14.0212C0.512038 14.0212 0.0634436 11.0197 4.64322 5.94441L4.64297 5.94415Z" fill="#4D537F"/>
</g>
<defs>
<clipPath id="clip0_315_10479">
<rect width="33" height="17.2734" fill="white" transform="translate(0.5)"/>
</clipPath>
</defs>
</svg>
