<svg width="31" height="18" viewBox="0 0 31 18" fill="none" xmlns="http://www.w3.org/2000/svg">
<g clip-path="url(#clip0_315_10481)">
<path d="M4.17912 0.217173C5.76415 0.217173 6.94146 1.02104 6.94146 2.20747C6.94146 3.13461 6.34611 3.5768 5.82132 3.78732C6.68271 4.04707 7.46579 4.54332 7.46579 5.63037C7.46579 7.23839 6.02445 7.78579 4.46476 7.78579H0.501953V0.217173H4.17912ZM2.9296 3.10899H3.82218C4.17465 3.10899 4.46248 2.8218 4.46248 2.55338C4.46248 2.26455 4.18541 1.97991 3.82209 1.97991H2.9296V3.10899ZM2.9296 6.04311H4.03634C4.54135 6.04311 4.86419 5.72829 4.86419 5.34929C4.86419 4.99216 4.51901 4.67981 4.10773 4.67981H2.9296V6.04311ZM6.1427 8.61127C7.72773 8.61127 8.90504 9.41514 8.90504 10.6017C8.90504 11.5287 8.30969 11.9709 7.7849 12.1814C8.6462 12.4412 9.42937 12.9374 9.42937 14.0245C9.42937 15.6325 7.98794 16.1799 6.42825 16.1799H2.46553V8.61136L6.1427 8.61127ZM4.89318 11.5031H5.78567C6.13814 11.5031 6.42606 11.2159 6.42606 10.9475C6.42606 10.6586 6.1489 10.374 5.78567 10.374H4.89309L4.89318 11.5031ZM4.89318 14.4373H5.99983C6.50493 14.4373 6.82768 14.1225 6.82768 13.7434C6.82768 13.3863 6.4825 13.074 6.07122 13.074H4.89318V14.4373ZM7.65634 7.78488V0.216262H13.7612V2.04418H10.0769V3.03669H13.0686V4.75028H10.0769V5.96416H13.7612V7.78488H7.65634ZM13.8788 6.75225L15.3219 5.37646C15.6707 5.6662 16.1188 6.00765 16.6845 6.00765C17.1828 6.00765 17.4575 5.72045 17.4575 5.4349C17.4575 4.62027 14.1707 4.99709 14.1707 2.40103C14.1707 1.08824 15.3703 0 17.2038 0C18.4246 0 19.331 0.459146 19.9048 1.00527L18.4702 2.3714C18.4702 2.3714 18.0561 1.99386 17.4831 1.99386C17.1506 1.99386 16.8264 2.15742 16.8264 2.46577C16.8264 3.26389 20.1612 2.86939 20.1612 5.43289C20.1612 7.0213 18.7867 8.0015 17.0683 8.0015C15.3929 8.0015 14.4599 7.31834 13.8789 6.75234L13.8788 6.75225ZM22.0295 7.78488V2.03707H20.0302V0.216353H26.4563V2.03707H24.4571V7.78488H22.0295ZM9.5128 8.60598H11.9333V13.14C11.9333 13.6004 12.3916 14.0246 12.8693 14.0246C13.32 14.0246 13.7755 13.6415 13.7755 13.1157V8.60598H16.1888V13.0849C16.1888 14.8622 14.7133 16.2799 12.8054 16.2799C10.8865 16.2799 9.5128 14.737 9.5128 12.9881V8.60598ZM19.1734 16.1746V13.4701L16.3285 8.60607H18.7775L20.3872 11.2121L22.0026 8.60598H24.4571L21.6011 13.4979V16.1746H19.1734Z" fill="#4D537F"/>
<path d="M30.4979 12.748V17.5319H24.4573L23.0293 16.1039V14.1761L24.4573 12.748H30.4979Z" fill="#4D537F"/>
<path d="M24.2227 15.1392C24.2227 15.2244 24.1888 15.3061 24.1286 15.3664C24.0683 15.4266 23.9866 15.4605 23.9014 15.4605C23.8162 15.4605 23.7344 15.4266 23.6742 15.3664C23.6139 15.3061 23.5801 15.2244 23.5801 15.1392C23.5801 15.054 23.6139 14.9722 23.6742 14.912C23.7344 14.8517 23.8162 14.8179 23.9014 14.8179C23.9866 14.8179 24.0683 14.8517 24.1286 14.912C24.1888 14.9722 24.2227 15.054 24.2227 15.1392Z" fill="#1A1C2B"/>
</g>
<defs>
<clipPath id="clip0_315_10481">
<rect width="30" height="17.5321" fill="white" transform="translate(0.5)"/>
</clipPath>
</defs>
</svg>
