<svg width="152" height="44" viewBox="0 0 152 44" fill="none" xmlns="http://www.w3.org/2000/svg">
<g clip-path="url(#clip0_315_10617)">
<path d="M132.722 14.8441C133.717 14.8441 134.579 14.3139 134.646 13.663L135.641 2.45535C135.641 1.32672 134.329 0.46582 132.722 0.46582C131.065 0.46582 129.804 1.39496 129.804 2.45535L130.798 13.663C130.864 14.3257 131.728 14.8441 132.722 14.8441ZM126.62 18.3612C127.15 17.499 127.084 16.5043 126.554 16.1066L117.335 9.67336C116.406 9.14316 114.946 9.80466 114.151 11.1984C113.356 12.5921 113.488 14.1827 114.416 14.7129L124.63 19.4899C125.293 19.6894 126.155 19.2247 126.62 18.3612ZM138.759 18.3599C139.289 19.2221 140.15 19.6723 140.749 19.4098L150.963 14.6328C151.892 14.1026 152.092 12.5107 151.228 11.1183C150.433 9.72718 148.973 9.06183 148.044 9.59334L138.825 16.0265C138.295 16.4911 138.228 17.4859 138.759 18.3494M132.722 28.826C133.717 28.826 134.579 29.3562 134.646 30.0071L135.641 41.2147C135.641 42.3433 134.329 43.2043 132.722 43.2043C131.065 43.2043 129.804 42.2751 129.804 41.2147L130.798 30.0071C130.864 29.3444 131.728 28.826 132.722 28.826ZM138.759 25.322C139.289 24.4598 140.15 24.0097 140.749 24.2721L150.963 28.9809C151.892 29.5111 152.092 31.103 151.228 32.4954C150.433 33.8865 148.973 34.5518 148.044 34.0203L138.825 27.5872C138.295 27.1895 138.228 26.196 138.759 25.3325M126.62 25.3351C127.15 26.1974 127.084 27.1922 126.554 27.5898L117.335 34.023C116.406 34.5532 114.946 33.8918 114.151 32.498C113.356 31.1043 113.488 29.5137 114.416 28.9835L124.63 24.2748C125.293 24.0097 126.155 24.4742 126.62 25.3246" fill="#FDBB30"/>
<path d="M84.0336 26.5349C84.0336 26.8131 84.0336 27.1465 83.9221 27.3683C83.5887 28.4234 82.4785 29.3683 81.09 29.3683C79.9089 29.3683 78.9797 28.7016 78.9797 27.3131C78.9797 25.1477 81.3682 24.5913 84.0323 24.5913L84.0336 26.5349ZM88.2542 22.813C88.2542 19.2696 86.7542 16.1462 81.6451 16.1462C79.0204 16.1462 76.9246 16.8681 75.813 17.5347L76.6463 20.3668C77.7015 19.7001 79.3104 19.1463 80.9246 19.1463C83.5494 19.1463 83.9234 20.5899 83.9234 21.5348V21.7579C78.2579 21.7579 74.704 23.7002 74.704 27.7003C74.704 30.1439 76.5374 32.4208 79.691 32.4208C81.6333 32.4208 83.2344 31.6439 84.2449 30.4208H84.3565C84.3565 30.4208 85.0232 33.1427 88.577 32.0875C88.4104 30.9773 88.3539 29.7542 88.3539 28.3106L88.2424 22.7986M0.208984 11.3154L4.4873 28.8669C5.15399 31.7541 6.4296 32.8106 9.99923 32.0888L12.2762 22.7028L13.6095 16.3706H13.6647C13.9429 18.7591 14.3313 20.439 14.7749 22.7579L16.2185 29.2567C16.7172 31.4785 18.0519 32.9222 21.5507 32.1439L27.0626 11.3718H22.6189L20.7291 20.3694L19.3958 27.4234H19.3406L18.1201 20.5361L16.1778 11.3718H11.5518L9.44147 20.3143L7.94143 27.5349H7.88632C7.48477 25.0096 7.04025 22.4912 6.55295 19.9809L4.88626 11.3718L0.220799 11.3167M35.4919 26.5349C35.4919 26.8131 35.4919 27.1465 35.3803 27.3683C35.047 28.4234 33.9367 29.3683 32.5483 29.3683C31.3671 29.3683 30.438 28.7016 30.438 27.3131C30.438 25.1477 32.8265 24.5913 35.4906 24.5913L35.4919 26.5349ZM39.7125 22.813C39.7125 19.2696 38.2124 16.1462 33.1034 16.1462C30.4787 16.1462 28.3828 16.8681 27.2712 17.5347L28.1046 20.3668C29.1598 19.7001 30.7687 19.1463 32.3829 19.1463C35.0076 19.1463 35.3817 20.5899 35.3817 21.5348V21.7579C29.7162 21.7579 26.1623 23.7002 26.1623 27.7003C26.1623 30.1439 27.9957 32.4208 31.1493 32.4208C33.0916 32.4208 34.6927 31.6439 35.7032 30.4208H35.8148C35.8148 30.4208 36.4814 33.1427 40.0353 32.0875C39.8686 30.9773 39.8122 29.7542 39.8122 28.3106V22.7986M46.6969 27.7016V11.3167H42.4763V32.0888H46.6969V27.7016Z" fill="#1A75CF"/>
<path d="M101.974 11.3165V26.6449C101.974 28.7552 102.362 30.254 103.194 31.1438C103.916 31.9207 105.137 32.4207 106.638 32.4207C107.859 32.4207 109.137 32.1976 109.693 31.9745L109.638 28.6975C109.192 28.8091 108.693 28.8642 108.028 28.8642C106.584 28.8642 106.086 27.9193 106.086 26.0321V20.1448H109.751V16.146H106.086V11.2588H101.975M91.0327 16.4821V32.0886H95.3635V24.0911C95.3635 23.6449 95.3635 23.2577 95.4751 22.9099C95.8084 21.2432 97.0853 20.1881 98.9187 20.1881C99.4174 20.1881 99.8072 20.2433 100.196 20.2997V16.1894C99.8623 16.1342 99.6405 16.0778 99.2507 16.0778C97.6405 16.0778 95.752 17.1329 94.9724 19.3548H94.8609V16.4112H91.0288M49.7103 16.4821V32.0886H53.9309V22.9244C53.9309 22.4782 53.986 22.0359 54.154 21.6475C54.4873 20.7026 55.3745 19.6475 56.7091 19.6475C58.431 19.6475 59.2079 21.0911 59.2079 23.1909V32.0755H63.4285V22.7997C63.4285 22.4113 63.4836 21.9112 63.5951 21.5228C63.9285 20.4676 64.872 19.633 66.1503 19.633C67.8721 19.633 68.7055 21.0766 68.7055 23.5202V32.0742H72.926V22.8548C72.926 18.0227 70.4824 16.0791 67.7054 16.0791C66.6295 16.0689 65.5719 16.3573 64.6503 16.9124C63.9285 17.3586 63.2618 18.0227 62.6502 18.8548H62.5951C61.9284 17.1881 60.3733 16.0778 58.3168 16.0778C55.6527 16.0778 54.4847 17.4111 53.7629 18.5765H53.7078V16.4663H49.709" fill="#1A75CF"/>
</g>
<defs>
<clipPath id="clip0_315_10617">
<rect width="152" height="43" fill="white" transform="translate(0 0.5)"/>
</clipPath>
</defs>
</svg>
