<svg width="93" height="46" viewBox="0 0 93 46" fill="none" xmlns="http://www.w3.org/2000/svg">
<g clip-path="url(#clip0_315_10623)">
<path d="M9.63919 4.01042V16.5271C9.63919 16.5271 14.0496 16.5271 16.41 16.3479C18.2663 16.0229 18.6079 15.8437 18.9496 13.9875L19.6329 11.2688H21.6517L21.31 17.2104L21.4892 23.2979H19.4538L18.9496 20.9208C18.4454 19.2292 17.7621 18.8854 16.41 18.7229C14.7184 18.5438 9.63919 18.5437 9.63919 18.5437V29.0417C9.63919 31.0604 10.6642 31.9229 13.0246 31.9229H20.1371C22.335 31.9229 24.5309 31.7437 25.8996 28.5375L27.7392 24.4687H29.4475C29.2684 25.3146 28.4225 32.7687 28.26 34.4458C28.26 34.4458 21.8309 34.2833 19.1288 34.2833H6.93711L-0.337891 34.4458V32.6062L2.02253 32.0854C3.73086 31.7437 4.23503 31.2396 4.23503 29.8875C4.23503 29.8875 4.41419 25.3146 4.41419 17.6958C4.41419 10.0958 4.23503 5.52083 4.23503 5.52083C4.23503 4.00625 3.73086 3.66458 2.02253 3.32292L-0.337891 2.82292V0.966667L6.77461 1.1125H20.3163C23.0184 1.1125 27.5746 0.625 27.5746 0.625C27.5746 0.625 27.4121 3.48958 27.2329 10.2604H25.3767L24.6934 7.88333C24.0267 4.83958 23.0163 3.325 21.1454 3.325H10.5017C9.63919 3.32708 9.63919 3.48958 9.63919 4.01042ZM37.0475 5.34583H39.0829V12.4583L46.0329 12.1167L45.6913 15.3396L38.9204 14.8187V27.3521C38.9204 30.9 40.1079 32.2667 42.1434 32.2667C43.9829 32.2667 45.3496 31.2417 45.8538 30.3958L46.8621 31.5833C45.8538 33.9437 42.9892 35.1312 40.2704 35.1312C36.9017 35.1312 34.1663 33.1125 34.1663 29.2229V14.9958H30.1288V13.3042C33.5163 12.9625 36.0392 10.9271 37.0475 5.34583ZM51.6142 27.1708L52.9642 30.3937C53.4684 31.7437 54.6559 33.1125 57.3579 33.1125C60.2392 33.1125 61.4267 31.5833 61.4267 29.7271C61.4267 23.9646 50.0829 25.6583 50.0829 17.8771C50.0829 13.4833 53.6309 11.4312 58.2038 11.4312C60.2392 11.4312 63.2829 11.7729 64.8121 12.4562C64.4704 14.1479 64.2913 16.3458 64.2913 18.0396L62.6142 18.2021L61.4267 14.8167C61.085 13.9875 59.7184 13.3021 58.0413 13.3021C56.0059 13.3021 53.9725 14.1479 53.9725 16.3458C53.9725 21.5875 65.658 20.4146 65.658 28.1958C65.658 32.6062 61.7684 34.9667 57.0163 34.9667C53.4684 34.9667 49.9038 33.6 49.9038 33.6C50.2454 31.5812 50.083 29.3854 49.9038 27.1708H51.6142ZM64.8142 43.4146C65.3184 41.5583 65.66 39.2 66.0017 36.9854L67.8579 36.8229L68.5413 40.3708C68.7038 41.2167 69.208 41.9 70.56 41.9C72.7579 41.9 75.6392 40.55 78.3559 35.8125C77.1517 32.9312 73.6038 23.6375 70.3809 16.525C69.535 14.6542 69.3725 14.4896 68.1996 14.1479L67.3371 13.8229V12.1146L72.4309 12.2937L78.6809 11.9521V13.6458L77.1517 13.9875C75.9642 14.15 75.4746 14.8167 75.4746 15.5021C75.4746 15.6812 75.4746 15.8437 75.6371 16.1854C75.9621 17.2104 78.6809 24.8125 80.7163 29.8896C82.3934 26.3417 85.6163 18.3833 86.1205 17.0312C86.2996 16.3479 86.4621 16.1854 86.4621 15.6812C86.4621 14.8188 85.958 14.3146 84.785 13.9896L83.5809 13.6458V11.9542L88.3329 12.1167L92.7267 11.9542V13.6458L91.8809 14.3125C90.1892 14.9958 90.01 15.1583 89.3413 16.525L81.9038 33.9396C77.4934 43.9333 72.9204 44.7792 69.7121 44.7792C67.6788 44.7812 66.1496 44.2604 64.8142 43.4146Z" fill="#F45800"/>
</g>
<defs>
<clipPath id="clip0_315_10623">
<rect width="93" height="45" fill="white" transform="translate(0 0.5)"/>
</clipPath>
</defs>
</svg>
