<svg width="75" height="19" viewBox="0 0 75 19" fill="none" xmlns="http://www.w3.org/2000/svg">
<g clip-path="url(#clip0_315_10488)">
<path d="M17.1837 4.56973V10.334C17.1837 10.4275 17.1392 10.5171 17.0599 10.5831C16.9806 10.6492 16.8731 10.6863 16.7609 10.6863H14.5774C14.4653 10.6863 14.3578 10.6491 14.2785 10.5831C14.1992 10.517 14.1547 10.4274 14.1546 10.334V0.958124C14.1546 0.864686 14.1992 0.775076 14.2784 0.709006C14.3577 0.642935 14.4653 0.605817 14.5774 0.605817H16.598C16.7101 0.605817 16.8177 0.642935 16.897 0.709006C16.9762 0.775076 17.0208 0.864686 17.0208 0.958124V2.2785C17.0208 2.2785 17.7431 0.395024 19.8868 0.395024C19.8868 0.395024 22.0071 0.181434 22.8693 2.14258C22.8693 2.14258 23.5916 0.395024 25.7819 0.395024C25.7819 0.395024 29.0391 0.233628 29.0391 3.04229L29.0639 4.58915V10.3534C29.0639 10.4469 29.0194 10.5365 28.9401 10.6026C28.8608 10.6686 28.7533 10.7057 28.6411 10.7057H26.4574C26.3453 10.7057 26.2378 10.6686 26.1585 10.6025C26.0792 10.5364 26.0347 10.4469 26.0346 10.3534L26.0147 4.06488C26.0767 2.6409 24.6944 2.74451 24.6944 2.74451C22.9546 2.77045 23.122 4.58915 23.122 4.58915V10.3534C23.122 10.4469 23.0775 10.5365 22.9982 10.6026C22.9189 10.6686 22.8114 10.7057 22.6993 10.7057H20.5157C20.4036 10.7057 20.2961 10.6686 20.2168 10.6025C20.1375 10.5364 20.093 10.4469 20.0929 10.3534V4.20717C20.0929 4.20717 20.2206 2.73146 18.6671 2.73146C18.6673 2.73146 17.1295 2.56323 17.1837 4.56973ZM73.4698 4.55249V10.3166C73.4698 10.41 73.4252 10.4996 73.3459 10.5657C73.2667 10.6318 73.1592 10.6689 73.047 10.6689L70.7761 10.7056C70.664 10.7055 70.5564 10.6684 70.4772 10.6023C70.3979 10.5363 70.3533 10.4467 70.3533 10.3533V4.20717C70.3533 4.20717 70.481 2.73146 68.9277 2.73146C68.9277 2.73146 67.4441 2.67057 67.4441 4.98433V10.3339C67.444 10.4273 67.3995 10.5169 67.3202 10.5829C67.2409 10.649 67.1334 10.6861 67.0213 10.6862H64.8376C64.7254 10.6861 64.6179 10.649 64.5387 10.5829C64.4594 10.5169 64.4148 10.4273 64.4148 10.3339V0.958124C64.4148 0.864699 64.4594 0.775112 64.5387 0.709051C64.6179 0.64299 64.7254 0.605859 64.8376 0.605817H66.8582C66.9703 0.605817 67.0779 0.642935 67.1571 0.709006C67.2364 0.775076 67.281 0.864686 67.281 0.958124V2.2785C67.281 2.2785 68.0033 0.395024 70.1469 0.395024C70.1469 0.395024 72.4433 0.104697 73.2167 2.10607C73.2169 2.10592 73.4698 2.5188 73.4698 4.55249ZM57.7036 0.356189C54.9113 0.356189 52.6474 2.31733 52.6474 5.61826C52.6474 8.52448 54.3949 10.8803 57.7036 10.8803C60.8259 10.8803 62.7599 8.52448 62.7599 5.61826C62.7599 2.37558 60.4962 0.356189 57.7036 0.356189ZM59.4661 5.73477C59.4661 6.97747 59.2797 7.63766 59.2797 7.63766C59.0144 8.95135 57.8701 8.95321 57.7014 8.94622C57.5193 8.95228 56.3652 8.93861 56.1264 7.63766C56.1264 7.63766 55.94 6.97747 55.94 5.73477V5.5277C55.94 4.285 56.1264 3.62481 56.1264 3.62481C56.3652 2.32386 57.5195 2.31019 57.7014 2.31609C57.8701 2.3091 59.0144 2.31081 59.2797 3.62481C59.2797 3.62481 59.4661 4.285 59.4661 5.5277V5.73477ZM51.38 2.26545V0.920221C51.38 0.826797 51.3354 0.73721 51.2561 0.671149C51.1768 0.605087 51.0693 0.567956 50.9572 0.567915H43.7396C43.6275 0.567915 43.5199 0.605033 43.4407 0.671103C43.3614 0.737173 43.3168 0.826784 43.3168 0.920221V2.25504C43.3169 2.34847 43.3614 2.43805 43.4407 2.50411C43.52 2.57018 43.6275 2.60731 43.7396 2.60735H47.5044L43.0482 7.99447C43.0482 7.99447 42.8726 8.21287 42.8784 8.45411V10.0928C42.8784 10.0928 42.8493 10.6546 43.614 10.3286C43.614 10.3286 44.9721 9.64478 47.2494 9.64478C47.2494 9.64478 49.4984 9.62148 50.9979 10.3875C50.9979 10.3875 51.6203 10.6233 51.6203 10.1047V8.67842C51.6203 8.67842 51.6768 8.30095 51.0827 8.0653C51.0827 8.0653 49.3569 7.27556 47.0938 7.40512L51.38 2.26545ZM12.4693 9.0096L11.7858 8.14251C11.5682 7.81878 11.5839 7.45622 11.5839 7.45622V3.45642C11.6771 0.000154525 7.07903 0.297938 7.07903 0.297938C2.99153 0.297938 2.38776 2.94878 2.38776 2.94878C2.21739 3.48175 2.71285 3.49464 2.71285 3.49464L4.71019 3.66349C4.71019 3.66349 5.05075 3.72842 5.17471 3.39056C5.17471 3.39056 5.43773 2.23407 6.90866 2.23407C8.50913 2.23407 8.49254 3.37876 8.49254 3.37876V4.33704C5.29755 4.42604 3.81693 5.16514 3.81693 5.16514C1.8442 6.09717 1.96835 7.94833 1.96835 7.94833C1.96835 10.9644 5.41685 10.8348 5.41685 10.8348C7.62259 10.8348 8.92743 9.48866 8.92743 9.48866C9.31571 10.0584 10.0304 10.6018 10.0304 10.6018C10.3879 10.9249 10.7605 10.6537 10.7605 10.6537L12.3761 9.50171C12.7333 9.28144 12.4693 9.0096 12.4693 9.0096ZM6.49334 8.97232C5.45581 8.97232 5.07014 8.11315 5.24238 7.26873C5.4148 6.42431 6.31029 5.76071 8.49273 5.78013V6.29352C8.57009 8.53629 7.35696 8.97232 6.49334 8.97232ZM41.4863 9.0096L40.803 8.14251C40.5854 7.81878 40.6009 7.45622 40.6009 7.45622V3.45642C40.6941 0.000154525 36.096 0.297938 36.096 0.297938C32.0085 0.297938 31.4048 2.94878 31.4048 2.94878C31.2344 3.48175 31.7299 3.49464 31.7299 3.49464L33.7272 3.66349C33.7272 3.66349 34.0678 3.72842 34.1917 3.39056C34.1917 3.39056 34.4547 2.23407 35.9257 2.23407C37.5261 2.23407 37.5096 3.37876 37.5096 3.37876V4.33704C34.3148 4.42604 32.8339 5.16514 32.8339 5.16514C30.8612 6.09717 30.9854 7.94833 30.9854 7.94833C30.9854 10.9644 34.4339 10.8348 34.4339 10.8348C36.6396 10.8348 37.9444 9.48866 37.9444 9.48866C38.3329 10.0584 39.0472 10.6018 39.0472 10.6018C39.4047 10.9249 39.7776 10.6537 39.7776 10.6537L41.3929 9.50171C41.7503 9.28144 41.4863 9.0096 41.4863 9.0096ZM35.5104 8.97232C34.4728 8.97232 34.0872 8.11315 34.2594 7.26873C34.4318 6.42431 35.3273 5.76071 37.5096 5.78013V6.29352C37.5871 8.53629 36.3742 8.97232 35.5104 8.97232Z" fill="#4D537F"/>
<path d="M46.9847 16.5805C46.9847 16.5805 46.802 16.8454 47.0264 16.9046C47.0264 16.9046 47.2799 16.987 47.5961 16.7425C47.5961 16.7425 49.9017 15.0641 49.9573 12.0083C49.9573 12.0083 49.9742 11.6266 49.7904 11.5223C49.7904 11.5223 49.0681 10.9898 46.4708 11.1518C46.4708 11.1518 44.2067 11.2791 42.9706 12.1936C42.9706 12.1936 42.8595 12.2746 42.8595 12.3786C42.8595 12.3786 42.8329 12.6034 43.5123 12.506C43.5123 12.506 45.7762 12.2396 47.1235 12.3786C47.1235 12.3786 47.8183 12.4481 48.0127 12.645C48.0127 12.645 48.3322 12.865 48.1654 13.594C48.1654 13.5943 47.7068 15.4462 46.9847 16.5805Z" fill="#4D537F"/>
<path d="M46.528 13.6487C46.528 13.6487 46.8661 14.0137 46.3205 14.3286C46.3205 14.3286 40.4922 18.2136 30.7059 18.2136C30.7059 18.2136 20.6321 18.6277 12.2206 12.2589C12.2206 12.2589 11.9257 12.0431 12.1087 11.8426C12.1087 11.8426 12.2724 11.658 12.6961 11.8587C12.6961 11.8587 20.6088 15.9676 31.0009 15.9676C31.0009 15.9676 38.2242 16.2006 45.6338 13.5598C45.6338 13.5598 46.2241 13.3049 46.528 13.6487Z" fill="#4D537F"/>
</g>
<defs>
<clipPath id="clip0_315_10488">
<rect width="74.3125" height="18.6277" fill="white" transform="translate(0.5)"/>
</clipPath>
</defs>
</svg>
