<svg width="1440" height="722" viewBox="0 0 1440 722" fill="none" xmlns="http://www.w3.org/2000/svg">
<g clip-path="url(#clip0_802_4058)">
<g clip-path="url(#clip1_802_4058)">
<rect width="1440" height="722" fill="#1A1C2B"/>
<g opacity="0.3" filter="url(#filter0_f_802_4058)">
<circle cx="1347" cy="118" r="100" fill="#00AD00"/>
</g>
<g opacity="0.4">
<g clip-path="url(#clip2_802_4058)">
<g opacity="0.3" filter="url(#filter1_f_802_4058)">
<circle cx="114.001" cy="187" r="100" fill="#00AD00"/>
<circle cx="114.001" cy="187" r="99.5" stroke="#8086B2"/>
</g>
<path d="M767.621 -14.2841C518.769 1.95765 424.436 76.2756 385.351 143.843C355.406 195.637 350.951 255.615 284.628 328.965C234.134 384.849 179.975 412.8 143.419 431.648C120.885 443.304 26.089 490.333 -107.149 497.551C-133.611 498.979 -160.136 498.769 -186.572 496.925" stroke="#8086B2" stroke-width="0.5" stroke-miterlimit="10"/>
<path d="M756.272 -35.9295C507.448 -19.5748 413.087 54.6303 374.002 122.198C344.058 173.992 339.602 233.97 273.28 307.32C222.772 363.179 168.613 391.13 132.071 410.003C109.523 421.634 14.7402 468.687 -118.498 475.906C-144.964 477.34 -171.494 477.122 -197.934 475.255" stroke="#8086B2" stroke-width="0.5" stroke-miterlimit="10"/>
<path d="M744.91 -57.5999C496.124 -41.2333 401.726 32.96 362.654 100.552C332.709 152.346 328.253 212.324 261.931 285.674C211.424 341.534 157.265 369.484 120.722 388.357C98.1743 399.988 3.39157 447.042 -129.846 454.261C-156.298 455.718 -182.815 455.525 -209.243 453.684" stroke="#8086B2" stroke-width="0.5" stroke-miterlimit="10"/>
<path d="M733.562 -79.2453C484.736 -62.9536 390.377 11.3145 351.305 78.9068C321.347 130.676 316.892 190.654 250.582 264.029C200.075 319.888 145.916 347.838 109.373 366.712C86.8256 378.343 -7.95702 425.396 -141.195 432.615C-167.662 434.036 -194.191 433.819 -220.631 431.964" stroke="#8086B2" stroke-width="0.5" stroke-miterlimit="10"/>
<path d="M722.213 -100.89C473.402 -84.5108 379.028 -10.3308 339.943 57.2365C309.998 109.031 305.543 169.009 239.22 242.359C188.726 298.243 134.567 326.193 98.0112 345.042C75.4766 356.698 -19.3061 403.751 -152.557 410.945C-179.019 412.385 -205.544 412.176 -231.98 410.319" stroke="#8086B2" stroke-width="0.5" stroke-miterlimit="10"/>
<path d="M710.864 -122.536C462.04 -106.181 367.679 -31.9763 328.594 35.591C298.65 87.3851 294.194 147.363 227.872 220.713C177.378 276.597 123.218 304.548 86.6626 323.396C64.1149 335.027 -30.6678 382.081 -163.906 389.3C-190.348 390.758 -216.855 390.582 -243.276 388.773" stroke="#8086B2" stroke-width="0.5" stroke-miterlimit="10"/>
<path d="M699.502 -144.205C450.703 -127.864 356.33 -53.6206 317.246 13.9467C287.301 65.7408 282.845 125.719 216.523 199.069C166.016 254.928 111.856 282.879 75.3137 301.752C52.7661 313.383 -42.0167 360.436 -175.255 367.655C-201.721 369.089 -228.251 368.871 -254.69 367.004" stroke="#8086B2" stroke-width="0.5" stroke-miterlimit="10"/>
<path d="M688.154 -165.851C439.367 -149.484 344.969 -75.2909 305.897 -7.69864C275.952 44.0954 271.496 104.073 205.174 177.423C154.667 233.283 100.508 261.233 63.9651 280.106C41.4174 291.737 -53.3652 338.791 -186.603 346.01C-213.07 347.431 -239.599 347.213 -266.039 345.358" stroke="#8086B2" stroke-width="0.5" stroke-miterlimit="10"/>
<path d="M676.805 -187.496C427.994 -171.117 333.62 -96.9366 294.548 -29.3443C264.59 22.4248 260.135 82.4029 193.825 155.778C143.318 211.637 89.1592 239.588 52.6165 258.461C30.0688 270.092 -64.7139 317.145 -197.952 324.364C-224.419 325.785 -250.948 325.568 -277.388 323.713" stroke="#8086B2" stroke-width="0.5" stroke-miterlimit="10"/>
<path d="M665.456 -209.141C416.67 -192.775 322.271 -118.582 283.186 -51.0144C253.241 0.779641 248.786 60.7577 182.463 134.108C131.969 189.992 77.8102 217.942 41.2544 236.791C18.7852 248.571 -76.0629 295.5 -209.314 302.694C-235.776 304.121 -262.301 303.912 -288.737 302.068" stroke="#8086B2" stroke-width="0.5" stroke-miterlimit="10"/>
<path d="M654.106 -230.787C405.282 -214.432 310.921 -140.227 271.837 -72.6599C241.892 -20.8659 237.436 39.1122 171.114 112.462C120.62 168.346 66.4606 196.297 29.9048 215.145C7.3571 226.776 -87.4256 273.83 -220.664 281.049C-247.125 282.476 -273.65 282.266 -300.086 280.422" stroke="#8086B2" stroke-width="0.5" stroke-miterlimit="10"/>
<path d="M642.744 -252.457C393.933 -236.078 299.573 -161.873 260.488 -94.3052C230.543 -42.5112 226.087 17.4669 159.765 90.8168C109.258 146.676 55.0987 174.627 18.5559 193.5C-3.99174 205.131 -98.7745 252.184 -232.012 259.403C-258.479 260.837 -285.009 260.619 -311.448 258.752" stroke="#8086B2" stroke-width="0.5" stroke-miterlimit="10"/>
<path d="M631.396 -274.103C382.636 -257.686 288.211 -183.543 249.139 -115.951C219.194 -64.1567 214.739 -4.17856 148.416 69.1713C97.9091 125.031 43.75 152.981 7.20729 171.854C-15.3404 183.485 -110.123 230.539 -243.361 237.758C-269.828 239.179 -296.357 238.961 -322.797 237.106" stroke="#8086B2" stroke-width="0.5" stroke-miterlimit="10"/>
<path d="M620.047 -295.747C371.236 -279.368 276.862 -205.188 237.777 -137.62C207.833 -85.8262 203.377 -25.8481 137.068 47.5267C86.5605 103.386 32.4014 131.337 -4.14135 150.21C-26.689 161.841 -121.472 208.894 -254.723 216.088C-281.184 217.528 -307.71 217.319 -334.146 215.462" stroke="#8086B2" stroke-width="0.5" stroke-miterlimit="10"/>
<path d="M608.698 -317.393C359.912 -301.026 265.513 -226.833 226.428 -159.265C196.484 -107.471 192.028 -47.4932 125.706 25.8566C75.2115 81.7409 21.0524 109.691 -15.5034 128.54C-37.9726 140.32 -132.821 187.249 -266.072 194.443C-292.534 195.87 -319.058 195.661 -345.495 193.817" stroke="#8086B2" stroke-width="0.5" stroke-miterlimit="10"/>
<path d="M597.35 -339.038C348.603 -322.597 254.165 -248.478 215.08 -180.911C185.135 -129.117 180.68 -69.139 114.357 4.21087C63.8502 60.0702 9.70416 88.0456 -26.8517 106.894C-49.3993 118.525 -144.182 165.579 -277.42 172.797C-303.882 174.224 -330.407 174.015 -356.843 172.171" stroke="#8086B2" stroke-width="0.5" stroke-miterlimit="10"/>
<path d="M585.988 -360.708C337.176 -344.329 242.816 -270.124 203.731 -202.556C173.786 -150.762 169.33 -90.784 103.008 -17.4342C52.5009 38.4251 -1.65817 66.3756 -38.2009 85.2488C-60.7486 96.8798 -155.531 143.933 -288.769 151.152C-315.236 152.586 -341.766 152.368 -368.205 150.501" stroke="#8086B2" stroke-width="0.5" stroke-miterlimit="10"/>
<path d="M574.639 -382.354C325.828 -365.974 231.454 -291.794 192.382 -224.202C162.438 -172.408 157.982 -112.43 91.6595 -39.0797C41.1523 16.7796 -13.0068 44.7301 -49.5496 63.6033C-72.0972 75.2343 -166.88 122.288 -300.118 129.507C-326.585 130.928 -353.114 130.71 -379.554 128.855" stroke="#8086B2" stroke-width="0.5" stroke-miterlimit="10"/>
</g>
</g>
</g>
<g filter="url(#filter2_b_802_4058)">
<g clip-path="url(#clip3_802_4058)">
<g filter="url(#filter3_d_802_4058)">
<rect x="904" y="-11" width="274" height="51" rx="25.5" fill="#00AD00" shape-rendering="crispEdges"/>
</g>
</g>
</g>
</g>
<defs>
<filter id="filter0_f_802_4058" x="1022" y="-207" width="650" height="650" filterUnits="userSpaceOnUse" color-interpolation-filters="sRGB">
<feFlood flood-opacity="0" result="BackgroundImageFix"/>
<feBlend mode="normal" in="SourceGraphic" in2="BackgroundImageFix" result="shape"/>
<feGaussianBlur stdDeviation="112.5" result="effect1_foregroundBlur_802_4058"/>
</filter>
<filter id="filter1_f_802_4058" x="-210.999" y="-138" width="650" height="650" filterUnits="userSpaceOnUse" color-interpolation-filters="sRGB">
<feFlood flood-opacity="0" result="BackgroundImageFix"/>
<feBlend mode="normal" in="SourceGraphic" in2="BackgroundImageFix" result="shape"/>
<feGaussianBlur stdDeviation="112.5" result="effect1_foregroundBlur_802_4058"/>
</filter>
<filter id="filter2_b_802_4058" x="791" y="30" width="613" height="662" filterUnits="userSpaceOnUse" color-interpolation-filters="sRGB">
<feFlood flood-opacity="0" result="BackgroundImageFix"/>
<feGaussianBlur in="BackgroundImageFix" stdDeviation="25"/>
<feComposite in2="SourceAlpha" operator="in" result="effect1_backgroundBlur_802_4058"/>
<feBlend mode="normal" in="SourceGraphic" in2="effect1_backgroundBlur_802_4058" result="shape"/>
</filter>
<filter id="filter3_d_802_4058" x="872" y="-27" width="338" height="115" filterUnits="userSpaceOnUse" color-interpolation-filters="sRGB">
<feFlood flood-opacity="0" result="BackgroundImageFix"/>
<feColorMatrix in="SourceAlpha" type="matrix" values="0 0 0 0 0 0 0 0 0 0 0 0 0 0 0 0 0 0 127 0" result="hardAlpha"/>
<feOffset dy="16"/>
<feGaussianBlur stdDeviation="16"/>
<feComposite in2="hardAlpha" operator="out"/>
<feColorMatrix type="matrix" values="0 0 0 0 0 0 0 0 0 0.678431 0 0 0 0 0 0 0 0 0.2 0"/>
<feBlend mode="normal" in2="BackgroundImageFix" result="effect1_dropShadow_802_4058"/>
<feBlend mode="normal" in="SourceGraphic" in2="effect1_dropShadow_802_4058" result="shape"/>
</filter>
<clipPath id="clip0_802_4058">
<rect width="1440" height="722" fill="white"/>
</clipPath>
<clipPath id="clip1_802_4058">
<rect width="1440" height="722" fill="white"/>
</clipPath>
<clipPath id="clip2_802_4058">
<rect width="1083.79" height="595.975" fill="white" transform="translate(817.6 79.8242) rotate(152.332)"/>
</clipPath>
<clipPath id="clip3_802_4058">
<rect x="841" y="80" width="513" height="562" rx="40" fill="white"/>
</clipPath>
</defs>
</svg>
