<svg width="1440" height="800" viewBox="0 0 1440 800" fill="none" xmlns="http://www.w3.org/2000/svg">
<g clip-path="url(#clip0_803_4332)">
<rect width="1440" height="800" fill="#1A1C2B"/>
<g opacity="0.3" filter="url(#filter0_f_803_4332)">
<circle cx="1489" cy="204" r="100" fill="#00AD00"/>
</g>
<g opacity="0.3" filter="url(#filter1_f_803_4332)">
<circle cx="1116.5" cy="398.5" r="146.5" fill="#8086B2"/>
</g>
<g opacity="0.4">
<g clip-path="url(#clip1_803_4332)">
<path d="M994.471 -284.255C1084.11 -51.5409 1183.15 16.3699 1259.3 33.5519C1317.66 46.7075 1376.24 33.0934 1466.02 74.5534C1534.41 106.107 1577.22 149.481 1606.11 178.762C1623.95 196.801 1697.08 273.283 1743.66 398.321C1752.91 423.156 1760.61 448.539 1766.72 474.324" stroke="#4E547E" stroke-width="0.5" stroke-miterlimit="10"/>
<path d="M977.19 -266.974C1066.93 -34.3192 1165.87 33.6513 1242.02 50.8333C1300.38 63.9889 1358.96 50.3749 1448.74 91.8349C1517.11 123.408 1559.92 166.782 1588.83 196.043C1606.65 214.102 1679.8 290.564 1726.38 415.602C1735.63 440.44 1743.33 465.83 1749.42 491.626" stroke="#4E547E" stroke-width="0.5" stroke-miterlimit="10"/>
<path d="M959.887 -249.672C1049.62 -17.0574 1148.57 50.9529 1224.73 68.115C1283.1 81.2706 1341.68 67.6565 1431.46 109.117C1499.82 140.69 1542.64 184.064 1571.54 213.325C1589.36 231.384 1662.52 307.846 1709.1 432.884C1718.37 457.701 1726.08 483.071 1732.2 508.847" stroke="#4E547E" stroke-width="0.5" stroke-miterlimit="10"/>
<path d="M942.605 -232.391C1032.28 0.284039 1131.29 68.2346 1207.45 85.3967C1265.79 98.5722 1324.38 84.9583 1414.17 126.398C1482.54 157.972 1525.36 201.345 1554.26 230.607C1572.08 248.666 1645.23 325.128 1691.82 450.166C1701.06 475.007 1708.75 500.397 1714.86 526.189" stroke="#4E547E" stroke-width="0.5" stroke-miterlimit="10"/>
<path d="M925.325 -215.109C1015.08 17.5257 1114.01 85.5163 1190.15 102.698C1248.51 115.854 1307.1 102.24 1396.87 143.7C1465.26 175.253 1508.08 218.627 1536.96 247.908C1554.8 265.947 1627.95 342.409 1674.52 467.467C1683.77 492.299 1691.48 517.682 1697.58 543.471" stroke="#4E547E" stroke-width="0.5" stroke-miterlimit="10"/>
<path d="M908.042 -197.827C997.779 34.8274 1096.72 102.798 1172.87 119.98C1231.23 133.136 1289.81 119.522 1379.59 160.982C1447.98 192.535 1490.79 235.909 1519.68 265.19C1537.5 283.249 1610.65 359.711 1657.23 484.749C1666.5 509.556 1674.23 534.913 1680.37 560.673" stroke="#4E547E" stroke-width="0.5" stroke-miterlimit="10"/>
<path d="M890.74 -180.526C980.457 52.109 1079.44 120.08 1155.59 137.262C1213.95 150.417 1272.53 136.803 1362.31 178.263C1430.68 209.837 1473.49 253.21 1502.4 282.471C1520.22 300.53 1593.37 376.992 1639.95 502.03C1649.2 526.868 1656.9 552.258 1662.99 578.054" stroke="#4E547E" stroke-width="0.5" stroke-miterlimit="10"/>
<path d="M873.459 -163.244C963.196 69.3707 1062.14 137.381 1138.31 154.543C1196.67 167.699 1255.25 154.085 1345.03 195.545C1413.4 227.118 1456.21 270.492 1485.11 299.753C1502.93 317.812 1576.09 394.274 1622.67 519.312C1631.91 544.154 1639.61 569.543 1645.71 595.335" stroke="#4E547E" stroke-width="0.5" stroke-miterlimit="10"/>
<path d="M856.178 -145.962C945.935 86.6724 1044.86 154.663 1121.02 171.825C1179.37 185.001 1237.95 171.386 1327.75 212.827C1396.12 244.4 1438.93 287.774 1467.83 317.035C1485.65 335.094 1558.81 411.556 1605.39 536.594C1614.63 561.436 1622.33 586.825 1628.43 612.617" stroke="#4E547E" stroke-width="0.5" stroke-miterlimit="10"/>
<path d="M838.895 -128.681C928.632 103.934 1027.58 171.945 1103.72 189.127C1162.08 202.282 1220.67 188.668 1310.44 230.128C1378.83 261.682 1421.65 305.055 1450.53 334.336C1468.47 352.276 1541.52 428.838 1588.09 553.895C1597.33 578.731 1605.03 604.114 1611.15 629.899" stroke="#4E547E" stroke-width="0.5" stroke-miterlimit="10"/>
<path d="M821.614 -111.399C911.351 121.256 1010.3 189.226 1086.44 206.408C1144.8 219.564 1203.39 205.95 1293.16 247.41C1361.55 278.963 1404.37 322.337 1433.25 351.618C1451.07 369.677 1524.22 446.139 1570.81 571.177C1580.05 596.013 1587.75 621.395 1593.87 647.181" stroke="#4E547E" stroke-width="0.5" stroke-miterlimit="10"/>
<path d="M804.312 -94.0971C894.069 138.538 993.016 206.508 1069.16 223.69C1127.52 236.846 1186.1 223.232 1275.88 264.692C1344.25 296.265 1387.07 339.639 1415.97 368.9C1433.79 386.959 1506.94 463.421 1553.52 588.459C1562.78 613.297 1570.47 638.687 1576.57 664.483" stroke="#4E547E" stroke-width="0.5" stroke-miterlimit="10"/>
<path d="M787.031 -76.8159C876.808 155.759 975.714 223.809 1051.88 240.972C1110.24 254.127 1168.82 240.513 1258.6 281.973C1326.97 313.547 1369.78 356.92 1398.69 386.181C1416.51 404.24 1489.66 480.702 1536.24 605.74C1545.48 630.582 1553.18 655.972 1559.28 681.764" stroke="#4E547E" stroke-width="0.5" stroke-miterlimit="10"/>
<path d="M769.75 -59.5342C859.507 173.101 958.433 241.091 1034.58 258.273C1092.94 271.429 1151.52 257.815 1241.32 299.255C1309.69 330.828 1352.5 374.202 1381.41 403.463C1399.23 421.522 1472.38 497.984 1518.94 623.042C1528.2 647.873 1535.9 673.257 1542 699.045" stroke="#4E547E" stroke-width="0.5" stroke-miterlimit="10"/>
<path d="M752.467 -42.2525C842.204 190.362 941.151 258.373 1017.29 275.555C1075.66 288.71 1134.24 275.096 1224.02 316.556C1292.4 348.11 1335.22 391.484 1364.1 420.765C1382.04 438.704 1455.1 515.266 1501.66 640.324C1510.9 665.159 1518.61 690.542 1524.72 716.327" stroke="#4E547E" stroke-width="0.5" stroke-miterlimit="10"/>
<path d="M735.187 -24.9709C824.984 207.584 923.87 275.654 1000.01 292.836C1058.38 305.992 1116.96 292.378 1206.74 333.838C1275.1 365.411 1317.94 408.765 1346.82 438.046C1364.64 456.105 1437.8 532.567 1484.38 657.605C1493.62 682.441 1501.33 707.823 1507.44 733.609" stroke="#4E547E" stroke-width="0.5" stroke-miterlimit="10"/>
<path d="M717.885 -7.66896C807.642 224.966 906.588 292.936 982.731 310.118C1041.09 323.274 1099.68 309.66 1189.45 351.12C1257.82 382.694 1300.64 426.067 1329.54 455.328C1347.36 473.387 1420.51 549.849 1467.1 674.887C1476.35 699.725 1484.04 725.115 1490.14 750.911" stroke="#4E547E" stroke-width="0.5" stroke-miterlimit="10"/>
<path d="M700.604 9.61278C790.361 242.248 889.287 310.238 965.45 327.4C1023.81 340.556 1082.39 326.942 1172.17 368.402C1240.54 399.975 1283.36 443.349 1312.26 472.61C1330.08 490.669 1403.23 567.131 1449.81 692.169C1459.06 717.011 1466.75 742.4 1472.86 768.192" stroke="#4E547E" stroke-width="0.5" stroke-miterlimit="10"/>
</g>
</g>
<g opacity="0.3" filter="url(#filter2_f_803_4332)">
<ellipse cx="-49.5" cy="508.105" rx="95.5" ry="90.1045" fill="#00AD00"/>
</g>
</g>
<defs>
<filter id="filter0_f_803_4332" x="1164" y="-121" width="650" height="650" filterUnits="userSpaceOnUse" color-interpolation-filters="sRGB">
<feFlood flood-opacity="0" result="BackgroundImageFix"/>
<feBlend mode="normal" in="SourceGraphic" in2="BackgroundImageFix" result="shape"/>
<feGaussianBlur stdDeviation="112.5" result="effect1_foregroundBlur_803_4332"/>
</filter>
<filter id="filter1_f_803_4332" x="718" y="0" width="797" height="797" filterUnits="userSpaceOnUse" color-interpolation-filters="sRGB">
<feFlood flood-opacity="0" result="BackgroundImageFix"/>
<feBlend mode="normal" in="SourceGraphic" in2="BackgroundImageFix" result="shape"/>
<feGaussianBlur stdDeviation="126" result="effect1_foregroundBlur_803_4332"/>
</filter>
<filter id="filter2_f_803_4332" x="-387.797" y="175.203" width="676.593" height="665.802" filterUnits="userSpaceOnUse" color-interpolation-filters="sRGB">
<feFlood flood-opacity="0" result="BackgroundImageFix"/>
<feBlend mode="normal" in="SourceGraphic" in2="BackgroundImageFix" result="shape"/>
<feGaussianBlur stdDeviation="121.398" result="effect1_foregroundBlur_803_4332"/>
</filter>
<clipPath id="clip0_803_4332">
<rect width="1440" height="800" fill="white"/>
</clipPath>
<clipPath id="clip1_803_4332">
<rect width="1083.79" height="595.975" fill="white" transform="translate(1069.42 -360) rotate(45)"/>
</clipPath>
</defs>
</svg>
