<svg width="41" height="41" viewBox="0 0 41 41" fill="none" xmlns="http://www.w3.org/2000/svg">
<circle cx="20.5" cy="20.5" r="20.5" fill="#00CC00"/>
<path fill-rule="evenodd" clip-rule="evenodd" d="M18.3395 13.1309C14.5742 15.549 12.4824 18.3635 12.0641 21.5744C11.4129 26.5729 15.883 29.0196 18.148 26.8213C20.4129 24.623 19.0552 21.8327 17.4152 21.07C15.7751 20.3073 14.7722 20.5729 14.9471 19.5537C15.1221 18.5345 17.4554 15.7086 19.5053 14.3925C19.6413 14.2769 19.693 14.0525 19.5621 13.8822C19.4759 13.7703 19.307 13.5507 19.0552 13.2235C18.8351 12.9374 18.6242 12.9481 18.3395 13.1309Z" fill="black"/>
<path fill-rule="evenodd" clip-rule="evenodd" d="M28.2526 13.1309C24.4873 15.549 22.3955 18.3635 21.9772 21.5744C21.3261 26.5729 25.7962 29.0196 28.0611 26.8213C30.3261 24.623 28.9684 21.8327 27.3283 21.07C25.6883 20.3073 24.6853 20.5729 24.8603 19.5537C25.0352 18.5345 27.3685 15.7086 29.4184 14.3925C29.5544 14.2769 29.6062 14.0525 29.4752 13.8822C29.3891 13.7703 29.2201 13.5507 28.9684 13.2235C28.7482 12.9374 28.5373 12.9481 28.2526 13.1309Z" fill="black"/>
</svg>
