<svg width="91" height="91" viewBox="0 0 91 91" fill="none" xmlns="http://www.w3.org/2000/svg">
<path d="M75.6539 72.1659V76.2756C75.6615 76.5819 75.7886 76.8731 76.008 77.087C76.2274 77.3009 76.5217 77.4205 76.8281 77.4205H75.6539C64.1115 88.4814 46.6337 93.3895 28.5511 86.814C22.5896 84.6267 17.1988 81.1217 12.7809 76.5604C8.36291 71.9991 5.03176 66.4993 3.03586 60.471C-7.01523 30.3529 14.5019 2.28381 42.888 0.986328V14.7127C23.097 16.0219 8.37846 36.1652 16.5156 57.33C19.0166 63.8526 26.4552 71.2853 32.9543 73.7687C54.1192 81.9 74.2566 67.1756 75.5658 47.3963H89.3391V71.0152H76.7752C76.4742 71.0199 76.1872 71.1435 75.9771 71.3592C75.7669 71.5748 75.6507 71.8649 75.6539 72.1659Z" fill="#00AD00"/>
<path d="M89.3562 77.4028H75.6533V89.7612H89.3562V77.4028Z" fill="#1A1C2B"/>
<path d="M89.3553 0.927612V45.3474H75.6524V14.6305H44.9414V0.927612H89.3553Z" fill="#1A1C2B"/>
</svg>
