<svg width="507" height="365" viewBox="0 0 507 365" fill="none" xmlns="http://www.w3.org/2000/svg">
<g clip-path="url(#clip0_409_7639)">
<path d="M371.978 0.210449H0.158691V238.34H371.978V0.210449Z" fill="#E6E6E6"/>
<path d="M361.346 30.0776H10.7914V224.252H361.346V30.0776Z" fill="white"/>
<path d="M371.819 0H0V15.7961H371.819V0Z" fill="#00AD00"/>
<path d="M11.7389 11.0043C13.3559 11.0043 14.6668 9.69346 14.6668 8.07639C14.6668 6.45933 13.3559 5.14844 11.7389 5.14844C10.1218 5.14844 8.81091 6.45933 8.81091 8.07639C8.81091 9.69346 10.1218 11.0043 11.7389 11.0043Z" fill="white"/>
<path d="M22.8511 11.0043C24.4681 11.0043 25.779 9.69346 25.779 8.07639C25.779 6.45933 24.4681 5.14844 22.8511 5.14844C21.234 5.14844 19.9231 6.45933 19.9231 8.07639C19.9231 9.69346 21.234 11.0043 22.8511 11.0043Z" fill="white"/>
<path d="M33.9638 11.0043C35.5809 11.0043 36.8918 9.69346 36.8918 8.07639C36.8918 6.45933 35.5809 5.14844 33.9638 5.14844C32.3468 5.14844 31.0359 6.45933 31.0359 8.07639C31.0359 9.69346 32.3468 11.0043 33.9638 11.0043Z" fill="white"/>
<path d="M122.485 46.0493H53.9218V120.434H122.485V46.0493Z" fill="#E6E6E6"/>
<path d="M220.349 46.0493H151.786V120.434H220.349V46.0493Z" fill="#E6E6E6"/>
<path d="M318.212 46.0493H249.649V120.434H318.212V46.0493Z" fill="#E6E6E6"/>
<path d="M122.485 133.898H53.9218V208.283H122.485V133.898Z" fill="#E6E6E6"/>
<path d="M220.349 133.898H151.786V208.283H220.349V133.898Z" fill="#E6E6E6"/>
<path d="M318.212 133.898H249.649V208.283H318.212V133.898Z" fill="#E6E6E6"/>
<path d="M168.357 153.016L180.885 148.063L182.341 172.826C182.341 172.826 184.963 180.401 184.089 183.314C184.089 183.314 184.672 188.267 183.215 188.558C181.758 188.85 177.679 189.433 177.39 189.141C177.102 188.849 177.099 187.975 177.099 187.975C177.099 187.975 174.185 190.015 173.894 192.345C173.894 192.345 161.658 196.132 161.367 192.636C161.076 189.14 167.485 186.227 167.485 186.227L172.437 178.652L168.357 153.016Z" fill="white"/>
<path d="M194.87 153.016L207.396 148.063L208.853 172.826C208.853 172.826 211.474 180.401 210.601 183.314C210.601 183.314 211.183 188.267 209.726 188.558C208.27 188.85 204.19 189.433 203.902 189.141C203.613 188.849 203.61 187.975 203.61 187.975C203.61 187.975 200.697 190.015 200.406 192.345C200.406 192.345 188.17 196.132 187.878 192.636C187.587 189.14 193.996 186.227 193.996 186.227L198.949 178.652L194.87 153.016Z" fill="white"/>
<path d="M196.094 57.3885C196.094 57.3885 193.426 64.8419 196.517 68.203L193.94 77.0572C193.94 77.0572 203.095 104.521 200.48 108.358C200.48 108.358 190.715 113.24 171.183 106.614L179.117 75.8363L177.983 62.8453L179.553 56.742L183.04 56.396C183.04 56.396 180.948 64.2427 184.784 65.4636C188.62 66.6845 192.362 56.5921 192.362 56.5921L196.094 57.3885Z" fill="#3F3D56"/>
<path d="M72.9073 105.502L76.2736 106.879L92.3396 85.7639L97.3887 110.551L100.755 109.939C102.914 88.569 104.677 66.7723 102.514 56.463L90.0443 55.9272L84.3833 73.9846L81.6289 86.2253L72.9073 105.502Z" fill="white"/>
<path d="M277.211 56.2939C277.211 56.2939 272.617 62.6804 272.842 65.2577C273.066 67.8351 275.979 109.853 275.979 109.853L282.814 110.189L280.796 79.9362L282.476 71.7567L286.622 109.853L295.026 110.077L287.519 60.6643L286.062 56.2945L277.211 56.2939Z" fill="white"/>
<path d="M303.176 159.182C301.956 157.719 299.859 156.927 297.846 156.499C297.904 156.317 291.722 155.039 291.617 155.302L289.287 153.446L282.126 157.164L278.102 154.424L276.233 155.088C276.309 154.758 270.431 155.776 270.431 155.776C269.308 155.817 267.874 155.887 266.268 156.01C260.646 156.443 260.213 171.005 260.213 171.005C262.799 169.947 265.558 169.369 268.352 169.301L269.871 186.717C277.688 186.047 285.885 186.827 294.382 188.736L298.366 175.045L307.645 171.436C307.645 171.436 306.059 162.642 303.176 159.182Z" fill="#3F3D56"/>
<path d="M104.062 150.889C103.057 149.683 101.33 149.031 99.6705 148.678C99.7201 148.527 94.6248 147.475 94.5377 147.692L92.6173 146.163L86.7181 149.226L83.4026 146.969L81.8628 147.516C81.9257 147.244 77.0819 148.083 77.0819 148.083C76.1592 148.116 74.9746 148.174 73.6522 148.276C69.0195 148.633 68.6631 160.63 68.6631 160.63C70.7946 159.758 73.0673 159.282 75.3696 159.226L76.6217 194.355C83.0618 193.803 89.8162 194.446 96.8152 196.019L100.098 163.959L107.743 160.986C107.743 160.986 106.438 153.741 104.062 150.889Z" fill="white"/>
<path d="M432.215 160.239H465.088V142.65C465.088 138.29 463.356 134.11 460.274 131.027C457.191 127.945 453.011 126.213 448.652 126.213C444.293 126.213 440.112 127.945 437.03 131.027C433.947 134.11 432.215 138.29 432.215 142.65V160.239Z" fill="#2F2E41"/>
<path d="M417.541 355.942H410.471L407.107 328.668H417.542L417.541 355.942Z" fill="#FFB6B6"/>
<path d="M419.344 353.634H405.42C403.066 353.634 400.81 354.569 399.146 356.233C397.482 357.897 396.547 360.153 396.546 362.506V362.795H419.344V353.634Z" fill="#2F2E41"/>
<path d="M502.06 346.507L495.903 349.982L479.566 327.888L488.653 322.758L502.06 346.507Z" fill="#FFB6B6"/>
<path d="M502.496 343.61L490.37 350.453C488.321 351.61 486.815 353.534 486.184 355.801C485.553 358.068 485.849 360.493 487.006 362.543L487.148 362.794L507 351.586L502.496 343.61Z" fill="#2F2E41"/>
<path d="M456.871 233.293L457.417 236.021C457.417 236.021 459.054 237.657 458.235 238.476C457.417 239.294 457.69 243.114 457.69 243.114C458.148 250.078 467.247 289.214 468.875 296.857C468.875 296.857 481.424 305.041 491.245 321.136C501.066 337.232 501.337 341.324 501.337 341.324L490.427 345.962L463.149 312.953C463.149 312.953 455.51 308.315 452.782 304.223C450.053 300.131 433.137 257.845 433.137 257.845L423.587 302.04C423.587 302.04 424.132 318.136 421.677 328.503C420.167 335.045 419.254 341.71 418.949 348.417L406.127 347.054C406.127 347.054 406.946 308.315 408.309 304.222C408.309 304.222 402.58 257.027 414.038 238.203L423.273 213.585L432.317 210.104L456.871 233.293Z" fill="#2F2E41"/>
<path d="M448.822 130.513C431.609 130.807 431.612 156.412 448.822 156.703C466.034 156.409 466.031 130.804 448.822 130.513Z" fill="#FFB8B8"/>
<path d="M435.573 142.929H438.499L439.296 140.937L438.897 142.929H454.898L454.379 138.761L458.268 142.929H462.148V140.671C462.149 138.926 461.807 137.198 461.14 135.585C460.473 133.973 459.496 132.508 458.263 131.273C457.03 130.038 455.566 129.059 453.955 128.39C452.343 127.721 450.616 127.376 448.871 127.375C447.126 127.374 445.398 127.716 443.786 128.383C442.173 129.049 440.708 130.027 439.473 131.26C438.239 132.493 437.259 133.957 436.59 135.568C435.921 137.18 435.576 138.907 435.575 140.652V140.671L435.573 142.929Z" fill="#2F2E41"/>
<path d="M431.071 164.349L463.598 164.613L456.725 234.347C456.725 234.347 418.686 232.339 418.663 220.728L422.226 210.41L431.071 164.349Z" fill="#3F3D56"/>
<path d="M464.996 241.088C464.496 240.475 464.136 239.761 463.942 238.995C463.748 238.228 463.725 237.429 463.873 236.652C464.022 235.876 464.339 235.141 464.802 234.5C465.265 233.86 465.862 233.328 466.553 232.944L465.139 220.667L472.39 217.988L474.143 235.354C474.709 236.556 474.815 237.925 474.44 239.2C474.066 240.475 473.237 241.569 472.111 242.275C470.985 242.981 469.639 243.25 468.328 243.031C467.017 242.813 465.832 242.121 464.996 241.088Z" fill="#FFB6B6"/>
<path d="M459.321 170.62L463.6 164.638C463.6 164.638 466.529 163.988 469.99 168.025C473.45 172.062 475.468 222.524 475.468 222.524L462.781 225.407L455.284 189.651L459.321 170.62Z" fill="#3F3D56"/>
<path d="M387.627 225.343L388.57 270.175L417.593 285.512L470.448 276.074L471.746 229.472L438.24 217.674L387.627 225.343Z" fill="white"/>
<path d="M417.518 285.996L388.113 270.457L387.155 224.946L438.285 217.199L438.394 217.237L472.219 229.147L470.901 276.464L417.518 285.996ZM389.028 269.892L417.669 285.028L469.995 275.684L471.273 229.797L438.195 218.15L388.099 225.74L389.028 269.892Z" fill="#CACACA"/>
<path d="M416.945 237.498L416.832 237.453L387.455 225.773L387.797 224.912L417.061 236.547L471.682 229.013L471.809 229.931L416.945 237.498Z" fill="#CACACA"/>
<path d="M417.467 237.017L416.54 237.028L417.13 285.518L418.057 285.506L417.467 237.017Z" fill="#CACACA"/>
<path d="M413.233 235.178L402.643 230.885L453.622 222.762L464.211 227.054L413.233 235.178Z" fill="#CACACA"/>
<path d="M387.81 238.348L387.443 239.199L399.725 244.487L400.091 243.636L387.81 238.348Z" fill="#CACACA"/>
<path d="M393.372 253.642L393.005 254.494L405.287 259.782L405.653 258.93L393.372 253.642Z" fill="#00AD00"/>
<path d="M226.147 287.628L227.091 332.459L256.114 347.797L308.968 338.358L310.266 291.757L276.76 279.958L226.147 287.628Z" fill="white"/>
<path d="M256.039 348.281L226.634 332.742L225.676 287.23L276.806 279.483L276.915 279.522L310.739 291.432L309.422 338.748L256.039 348.281ZM227.549 332.177L256.19 347.313L308.516 337.969L309.794 292.082L276.716 280.434L226.62 288.025L227.549 332.177Z" fill="#CACACA"/>
<path d="M255.467 299.783L255.353 299.738L225.977 288.058L226.319 287.197L255.582 298.831L310.204 291.298L310.331 292.216L255.467 299.783Z" fill="#CACACA"/>
<path d="M255.988 299.302L255.061 299.313L255.651 347.802L256.577 347.791L255.988 299.302Z" fill="#CACACA"/>
<path d="M249.189 296.407L241.164 293.169L292.143 285.046L300.166 288.284L249.189 296.407Z" fill="#CACACA"/>
<path d="M226.331 300.633L225.965 301.484L238.247 306.772L238.613 305.92L226.331 300.633Z" fill="#CACACA"/>
<path d="M231.893 315.927L231.527 316.778L243.809 322.066L244.175 321.215L231.893 315.927Z" fill="#00AD00"/>
<path d="M276.57 293.774L277.665 345.817L311.356 363.621L372.712 352.665L374.218 298.568L335.323 284.872L276.57 293.774Z" fill="#00AD00"/>
<path d="M311.267 364.183L277.133 346.145L276.021 293.313L335.374 284.32L335.501 284.365L374.766 298.191L373.237 353.117L311.267 364.183ZM278.195 345.489L311.443 363.059L372.185 352.212L373.669 298.945L335.27 285.424L277.117 294.235L278.195 345.489Z" fill="#3F3D56"/>
<path d="M310.603 307.885L310.472 307.833L276.37 294.274L276.767 293.274L310.737 306.78L374.143 298.035L374.29 299.101L310.603 307.885Z" fill="#3F3D56"/>
<path d="M311.208 307.326L310.132 307.339L310.817 363.628L311.893 363.615L311.208 307.326Z" fill="#3F3D56"/>
<path d="M303.861 303.991L294.001 300.208L353.178 290.778L363.039 294.561L303.861 303.991Z" fill="#3F3D56"/>
<path d="M276.782 308.871L276.356 309.859L290.614 315.998L291.039 315.01L276.782 308.871Z" fill="#3F3D56"/>
<path d="M283.238 326.625L282.812 327.614L297.069 333.752L297.495 332.764L283.238 326.625Z" fill="white"/>
<path d="M404.082 232.756C404.798 232.42 405.431 231.931 405.937 231.324C406.443 230.717 406.811 230.007 407.012 229.242C407.214 228.478 407.246 227.679 407.106 226.901C406.966 226.123 406.657 225.385 406.2 224.74L412.788 214.284L407.41 208.731L398.315 223.627C397.282 224.466 396.592 225.654 396.376 226.968C396.161 228.281 396.434 229.628 397.145 230.753C397.855 231.878 398.954 232.703 400.233 233.073C401.511 233.442 402.881 233.33 404.082 232.757V232.756Z" fill="#FFB6B6"/>
<path d="M436.069 167.097L431.35 163.988C431.35 163.988 427.708 164.804 423.834 172.254C419.961 179.704 404.342 213.012 404.342 213.012L410.762 219.528L427.89 193.398L436.069 167.097Z" fill="#3F3D56"/>
</g>
<defs>
<clipPath id="clip0_409_7639">
<rect width="507" height="364.183" fill="white"/>
</clipPath>
</defs>
</svg>
