<svg width="51" height="50" viewBox="0 0 51 50" fill="none" xmlns="http://www.w3.org/2000/svg">
<g clip-path="url(#clip0_1272_9381)">
<path d="M25.56 49.5574C39.245 49.5574 50.3388 38.4634 50.3388 24.7782C50.3388 11.0931 39.245 -0.000976562 25.56 -0.000976562C11.8751 -0.000976562 0.78125 11.0931 0.78125 24.7782C0.78125 38.4634 11.8751 49.5574 25.56 49.5574Z" fill="#3B5998"/>
<path d="M31.7888 25.7485H27.3673V41.947H20.6684V25.7485H17.4824V20.0557H20.6684V16.3718C20.6684 13.7375 21.9198 9.6123 27.427 9.6123L32.3891 9.63306V15.1589H28.7888C28.1982 15.1589 27.3678 15.454 27.3678 16.7106V20.061H32.3741L31.7888 25.7485Z" fill="white"/>
</g>
<defs>
<clipPath id="clip0_1272_9381">
<rect width="49.5576" height="49.5584" fill="white" transform="translate(0.78125)"/>
</clipPath>
</defs>
</svg>
