<svg width="51" height="50" viewBox="0 0 51 50" fill="none" xmlns="http://www.w3.org/2000/svg">
<g clip-path="url(#clip0_1272_9417)">
<path d="M25.4408 0.00488281C11.4878 0.00488281 0.666016 10.2325 0.666016 24.0367C0.666016 31.2607 3.62893 37.5041 8.44548 41.8155C8.85202 42.1727 9.09981 42.6876 9.10949 43.2229L9.24791 47.633C9.2876 49.0404 10.7444 49.9523 12.0327 49.387L16.948 47.2168C17.3642 47.028 17.8298 46.999 18.276 47.118C20.5352 47.7424 22.9435 48.0695 25.4505 48.0695C39.4036 48.0695 50.2254 37.8419 50.2254 24.0377C50.2254 10.2334 39.3939 0.00488281 25.4408 0.00488281Z" fill="url(#paint0_radial_1272_9417)"/>
<path d="M10.5663 31.063L17.8405 19.518C19.0001 17.675 21.4771 17.2287 23.2117 18.5268L28.9991 22.8672C29.5344 23.264 30.2575 23.264 30.7928 22.8575L38.6119 16.9209C39.6525 16.1281 41.0202 17.3768 40.3165 18.4871L33.0423 30.0321C31.8827 31.8751 29.4057 32.3214 27.6614 31.0233L21.874 26.6829C21.3387 26.2861 20.606 26.2861 20.0804 26.6926L12.2612 32.6292C11.2304 33.421 9.86264 32.1733 10.5663 31.063Z" fill="white"/>
</g>
<defs>
<radialGradient id="paint0_radial_1272_9417" cx="0" cy="0" r="1" gradientUnits="userSpaceOnUse" gradientTransform="translate(10.2052 49.2862) scale(53.9887 53.9895)">
<stop stop-color="#0099FF"/>
<stop offset="0.6098" stop-color="#A033FF"/>
<stop offset="0.9348" stop-color="#FF5280"/>
<stop offset="1" stop-color="#FF7061"/>
</radialGradient>
<clipPath id="clip0_1272_9417">
<rect width="49.5593" height="49.5602" fill="white" transform="translate(0.662109)"/>
</clipPath>
</defs>
</svg>
