<svg width="50" height="50" viewBox="0 0 50 50" fill="none" xmlns="http://www.w3.org/2000/svg">
<g clip-path="url(#clip0_1272_9400)">
<path d="M0.338867 49.5543L3.82544 36.8361C1.67658 33.1056 0.54117 28.8891 0.54117 24.5506C0.54117 11.0087 11.5691 -0.00683594 25.0982 -0.00683594C31.6668 -0.00683594 37.8297 2.54764 42.4788 7.19681C47.1144 11.8324 49.6688 18.0091 49.6688 24.5642C49.6688 38.1061 38.6409 49.1216 25.1118 49.1216H25.0982C20.9892 49.1216 16.949 48.0946 13.3676 46.1345L0.338867 49.5543ZM13.9619 41.7021L14.7053 42.1484C17.8405 44.0136 21.4355 44.9865 25.0982 45H25.1118C36.3701 45 45.5192 35.8498 45.5192 24.5922C45.5192 19.1319 43.3974 14.0094 39.5459 10.1578C35.6944 6.30628 30.572 4.17093 25.1118 4.17093C13.8535 4.17093 4.6908 13.3212 4.6908 24.5787C4.6908 28.4303 5.772 32.1879 7.81246 35.4451L8.29934 36.2157L6.23178 43.7436L13.9619 41.7021Z" fill="white"/>
<path d="M1.1875 48.7033L4.55308 36.4178C2.47198 32.8228 1.39077 28.7408 1.39077 24.565C1.39077 11.4955 12.0267 0.859375 25.096 0.859375C31.4342 0.859375 37.3949 3.33254 41.8678 7.80651C46.3417 12.294 48.8148 18.2403 48.8013 24.5786C48.8013 37.6481 38.1654 48.2842 25.096 48.2842H25.0825C21.109 48.2842 17.2169 47.2843 13.7574 45.4055L1.1875 48.7033Z" fill="url(#paint0_linear_1272_9400)"/>
<path d="M18.9612 14.2942C18.5014 13.2672 18.0155 13.2537 17.5829 13.2401C17.2315 13.2266 16.8124 13.2266 16.4068 13.2266C16.0012 13.2266 15.3391 13.3756 14.7719 13.9971C14.2047 14.605 12.623 16.0918 12.623 19.1196C12.623 22.1338 14.8261 25.0523 15.1233 25.4714C15.434 25.877 19.3668 32.2695 25.6111 34.7291C30.8013 36.7696 31.8554 36.364 32.9763 36.2701C34.0981 36.1617 36.6119 34.7833 37.1249 33.3507C37.6389 31.9181 37.6389 30.6878 37.4763 30.4313C37.3272 30.1748 36.9091 30.0257 36.3002 29.715C35.6923 29.4043 32.6646 27.9175 32.1109 27.7152C31.5437 27.5129 31.1381 27.4045 30.7325 28.0259C30.327 28.6338 29.1509 30.0257 28.786 30.4313C28.4346 30.8369 28.0697 30.8911 27.4618 30.5804C26.8539 30.2696 24.8667 29.6211 22.5291 27.539C20.7045 25.9176 19.4752 23.9033 19.1103 23.2954C18.7589 22.6875 19.0696 22.3497 19.3803 22.039C19.6504 21.7689 19.9882 21.3227 20.2989 20.9578C20.6097 20.5928 20.7045 20.3499 20.9068 19.9307C21.1091 19.5252 21.0152 19.1602 20.8526 18.8495C20.7045 18.5378 19.5149 15.511 18.9612 14.2942Z" fill="white"/>
</g>
<defs>
<linearGradient id="paint0_linear_1272_9400" x1="24.9944" y1="48.7037" x2="24.9944" y2="0.859945" gradientUnits="userSpaceOnUse">
<stop stop-color="#20B038"/>
<stop offset="1" stop-color="#60D66A"/>
</linearGradient>
<clipPath id="clip0_1272_9400">
<rect width="49.5593" height="49.5602" fill="white" transform="translate(0.22168)"/>
</clipPath>
</defs>
</svg>
