<svg width="122" height="21" viewBox="0 0 122 21" fill="none" xmlns="http://www.w3.org/2000/svg">
<g clip-path="url(#clip0_335_14830)">
<path d="M26.0293 20.5621L32.7051 6.69629H35.353L42.122 20.5621H39.0377L37.6205 17.5295H30.1392L28.763 20.5621H26.0293ZM31.3103 15.0247H36.4831L33.9358 9.38695L31.3103 15.0247Z" fill="white"/>
<path d="M47.7158 20.5621L40.8945 6.69629H44.031L48.8122 16.7305L53.3659 6.69629H56.1108L49.6215 20.5621H47.7158Z" fill="white"/>
<path d="M57.6875 9.97807C57.6875 8.71946 57.8889 7.8523 58.2917 7.3766C58.6945 6.91577 59.4665 6.68164 60.6152 6.68164H69.3011C70.4498 6.68164 71.2218 6.91577 71.6246 7.3766C72.0274 7.83743 72.2288 8.70335 72.2288 9.97807V17.2808C72.2288 18.5518 72.0274 19.4189 71.6246 19.8822C71.2218 20.3431 70.4498 20.5735 69.3011 20.5735H60.6152C59.4665 20.5735 58.6945 20.3431 58.2917 19.8822C57.8889 19.4214 57.6875 18.5629 57.6875 17.2808V9.97807ZM60.4361 17.9497H69.4913V9.17533H60.4361V17.9497Z" fill="white"/>
<path d="M76.6406 20.5621V6.69629H79.3893V17.9495H88.2431V20.551L76.6406 20.5621Z" fill="white"/>
<path d="M88.2324 20.5621L94.897 6.69629H97.5449L104.31 20.5621H101.237L99.8237 17.5184H92.3423L90.9699 20.551L88.2324 20.5621ZM93.5171 15.0247H98.6862L96.1389 9.38695L93.5171 15.0247Z" fill="white"/>
<path d="M106.75 20.5621V6.69629H109.521V12.4827L116.063 6.69629H120.038L112.206 13.2297L121.004 20.5621H116.588L109.521 14.4635V20.5621H106.75Z" fill="white"/>
<g clip-path="url(#clip1_335_14830)">
<path d="M18.0702 16.5744V17.5184C18.0702 17.5523 18.077 17.586 18.0901 17.6174C18.1033 17.6487 18.1226 17.6772 18.1469 17.701C18.1712 17.7249 18.2 17.7437 18.2316 17.7563C18.2633 17.769 18.2971 17.7753 18.3313 17.7748H18.0702C16.6728 19.1066 14.9236 20.0143 13.0273 20.3914C11.1311 20.7685 9.16622 20.5996 7.36283 19.9043C6.00708 19.4099 4.78096 18.6167 3.77609 17.5838C2.77121 16.551 2.01356 15.3051 1.55975 13.9395C1.03025 12.4544 0.856717 10.8664 1.05301 9.30252C1.2493 7.73863 1.80998 6.24218 2.69024 4.93276C3.57049 3.62334 4.74591 2.53725 6.12256 1.76129C7.49922 0.985334 9.03893 0.541022 10.6187 0.463867V3.57077C9.50757 3.64789 8.43084 3.98739 7.47746 4.56122C6.52409 5.13505 5.72144 5.92673 5.13586 6.87083C4.55027 7.81493 4.19857 8.88434 4.10981 9.99068C4.02104 11.097 4.19777 12.2085 4.62539 13.2334C5.37287 14.8834 6.69901 16.2049 8.35487 16.9498C9.38331 17.3759 10.4987 17.552 11.609 17.4635C12.7192 17.3751 13.7924 17.0246 14.7398 16.4411C15.6873 15.8575 16.4817 15.0577 17.0576 14.1077C17.6334 13.1577 17.9741 12.0847 18.0515 10.9775H21.1843V16.3291H18.3275C18.2612 16.329 18.1973 16.3545 18.1494 16.4002C18.1014 16.4459 18.0731 16.5083 18.0702 16.5744Z" fill="white"/>
<path d="M21.1922 17.7598H18.0781V20.5582H21.1922V17.7598Z" fill="white"/>
<path d="M21.1952 0.437988V10.4982H18.0773V3.54117H11.0957V0.437988H21.1952Z" fill="white"/>
</g>
</g>
<defs>
<clipPath id="clip0_335_14830">
<rect width="122" height="21" fill="white"/>
</clipPath>
<clipPath id="clip1_335_14830">
<rect width="20.221" height="20.1498" fill="white" transform="translate(0.974609 0.437988)"/>
</clipPath>
</defs>
</svg>
