<svg width="57" height="45" viewBox="0 0 57 45" fill="none" xmlns="http://www.w3.org/2000/svg">
<g clip-path="url(#clip0_409_7631)">
<path d="M0 45L3.93954 36.7954H5.49907L9.4914 45H7.67231L6.83645 43.2073H2.424L1.62333 45H0ZM3.11468 41.7248H6.16557L4.66322 38.3879L3.11468 41.7248Z" fill="#1A1C2B"/>
<path d="M12.7911 45L8.76794 36.7954H10.6178L13.4378 42.7344L16.1235 36.7954H17.738L13.9107 45H12.7911Z" fill="#1A1C2B"/>
<path d="M18.6724 38.7355C18.6724 37.992 18.7911 37.4824 19.0287 37.2067C19.2663 36.934 19.7216 36.7954 20.3991 36.7954H25.522C26.1995 36.7954 26.6548 36.934 26.8924 37.2067C27.1299 37.4795 27.2487 37.992 27.2487 38.7355V43.06C27.2487 43.81 27.1299 44.3225 26.8924 44.5997C26.6548 44.8768 26.1995 45.0066 25.522 45.0066H20.3991C19.7216 45.0066 19.2663 44.8724 19.0287 44.5997C18.7911 44.3269 18.6724 43.8166 18.6724 43.06V38.7355ZM20.2935 43.4559H25.6342V38.2626H20.2935V43.4559Z" fill="#1A1C2B"/>
<path d="M29.8513 45V36.7954H31.4724V43.4559H36.6944V44.9956L29.8513 45Z" fill="#1A1C2B"/>
<path d="M36.6873 45L40.6268 36.7954H42.1885L46.1787 45H44.3618L43.5237 43.2073H39.1113L38.3018 45H36.6873ZM39.8041 41.7248H42.8528L41.3505 38.3879L39.8041 41.7248Z" fill="#1A1C2B"/>
<path d="M47.609 45V36.7954H49.2433V40.2136L53.0949 36.7954H55.4397L50.8205 40.6624L55.9984 45H53.4116L49.2323 41.3904V45H47.609Z" fill="#1A1C2B"/>
<path d="M36.2629 26.6903V28.23C36.2658 28.3448 36.3134 28.4539 36.3956 28.534C36.4778 28.6141 36.588 28.659 36.7028 28.6589H36.2629C31.9384 32.803 25.3901 34.6419 18.6153 32.1783C16.3817 31.3588 14.362 30.0457 12.7068 28.3367C11.0515 26.6278 9.80348 24.5672 9.05569 22.3086C5.28993 11.0245 13.3516 0.508091 23.9868 0.0219727V5.16471C16.5718 5.65522 11.0574 13.2021 14.106 21.1318C15.0431 23.5756 17.83 26.3603 20.265 27.2908C28.1947 30.3373 35.7394 24.8206 36.2299 17.41H41.3902V26.2591H36.683C36.5702 26.2609 36.4627 26.3072 36.384 26.388C36.3053 26.4688 36.2617 26.5775 36.2629 26.6903Z" fill="#00AD00"/>
<path d="M41.397 28.6523H36.2631V33.2826H41.397V28.6523Z" fill="#1A1C2B"/>
<path d="M41.397 0V16.6424H36.2631V5.13393H24.7568V0H41.397Z" fill="#1A1C2B"/>
</g>
<defs>
<clipPath id="clip0_409_7631">
<rect width="56.0135" height="45" fill="white"/>
</clipPath>
</defs>
</svg>
