<svg width="112" height="18" viewBox="0 0 112 18" fill="none" xmlns="http://www.w3.org/2000/svg">
<path d="M0.0839844 17.1481L7.92803 0.855713H11.0394L18.993 17.1481H15.3689L13.7037 13.5848H4.91311L3.29611 17.1481H0.0839844ZM6.28911 10.6416H12.3671L9.37413 4.01724L6.28911 10.6416Z" fill="#1A1C2B"/>
<path d="M25.5657 17.1481L17.5508 0.855713H21.2362L26.8541 12.6459L32.2047 0.855713H35.4299L27.805 17.1481H25.5657Z" fill="#1A1C2B"/>
<path d="M37.2812 4.71193C37.2812 3.23306 37.5179 2.21415 37.9912 1.6552C38.4644 1.11373 39.3716 0.838623 40.7213 0.838623H50.9273C52.277 0.838623 53.1841 1.11373 53.6573 1.6552C54.1306 2.19668 54.3672 3.21413 54.3672 4.71193V13.2926C54.3672 14.786 54.1306 15.8049 53.6573 16.3493C53.1841 16.8908 52.277 17.1615 50.9273 17.1615H40.7213C39.3716 17.1615 38.4644 16.8908 37.9912 16.3493C37.5179 15.8078 37.2812 14.7991 37.2812 13.2926V4.71193ZM40.5109 14.0786H51.1508V3.76871H40.5109V14.0786Z" fill="#1A1C2B"/>
<path d="M59.5518 17.1481V0.855713H62.7814V14.0782H73.1846V17.135L59.5518 17.1481Z" fill="#1A1C2B"/>
<path d="M73.1709 17.1481L81.0018 0.855713H84.1131L92.0623 17.1481H88.4514L86.7906 13.5717H78L76.3874 17.135L73.1709 17.1481ZM79.3804 10.6416H85.454L82.4611 4.01724L79.3804 10.6416Z" fill="#1A1C2B"/>
<path d="M94.9287 17.1481V0.855713H98.1846V7.65475L105.871 0.855713H110.542L101.34 8.53246L111.677 17.1481H106.489L98.1846 9.98222V17.1481H94.9287Z" fill="#1A1C2B"/>
</svg>
