<svg width="150" height="26" viewBox="0 0 150 26" fill="none" xmlns="http://www.w3.org/2000/svg">
<g clip-path="url(#clip0_409_7885)">
<path d="M31.2859 25.1551L39.6306 7.82275H42.9406L51.4019 25.1551H47.5465L45.775 21.3644H36.4233L34.7031 25.1551H31.2859ZM37.8871 18.2333H44.3531L41.1691 11.1861L37.8871 18.2333Z" fill="#1A1C2B"/>
<path d="M58.3946 25.1551L49.868 7.82275H53.7887L59.7652 20.3656L65.4574 7.82275H68.8885L60.7768 25.1551H58.3946Z" fill="#1A1C2B"/>
<path d="M70.86 11.9252C70.86 10.352 71.1117 9.26802 71.6152 8.67339C72.1187 8.09735 73.0837 7.80469 74.5196 7.80469H85.3771C86.8129 7.80469 87.7779 8.09735 88.2814 8.67339C88.7849 9.24943 89.0366 10.3318 89.0366 11.9252V21.0536C89.0366 22.6424 88.7849 23.7263 88.2814 24.3055C87.7779 24.8815 86.8129 25.1696 85.3771 25.1696H74.5196C73.0837 25.1696 72.1187 24.8815 71.6152 24.3055C71.1117 23.7294 70.86 22.6563 70.86 21.0536V11.9252ZM74.2958 21.8898H85.6148V10.9218H74.2958V21.8898Z" fill="#1A1C2B"/>
<path d="M94.5521 25.1551V7.82275H97.9879V21.8893H109.055V25.1412L94.5521 25.1551Z" fill="#1A1C2B"/>
<path d="M109.041 25.1551L117.372 7.82275H120.682L129.139 25.1551H125.297L123.53 21.3504H114.179L112.463 25.1412L109.041 25.1551ZM115.647 18.2333H122.108L118.924 11.1861L115.647 18.2333Z" fill="#1A1C2B"/>
<path d="M132.187 25.1551V7.82275H135.651V15.0558L143.828 7.82275H148.797L139.007 15.9895L150.005 25.1551H144.485L135.651 17.5318V25.1551H132.187Z" fill="#1A1C2B"/>
<path d="M21.337 20.1714V21.3514C21.3369 21.3939 21.3454 21.4359 21.3619 21.4751C21.3783 21.5143 21.4024 21.5499 21.4328 21.5797C21.4632 21.6095 21.4992 21.633 21.5387 21.6489C21.5783 21.6647 21.6207 21.6725 21.6633 21.6719H21.337C19.5902 23.3367 17.4037 24.4713 15.0333 24.9427C12.663 25.4141 10.207 25.2029 7.95271 24.3338C6.25802 23.7159 4.72537 22.7243 3.46927 21.4332C2.21317 20.1421 1.2661 18.5849 0.698833 16.8778C0.036964 15.0214 -0.179959 13.0364 0.0654076 11.0816C0.310774 9.12669 1.01163 7.25612 2.11195 5.61934C3.21227 3.98256 4.68155 2.62493 6.40237 1.65499C8.1232 0.685039 10.0478 0.129647 12.0225 0.0332031V3.91684C10.6336 4.01324 9.28773 4.43763 8.096 5.15492C6.90428 5.8722 5.90097 6.8618 5.16899 8.04193C4.437 9.22206 3.99737 10.5588 3.88642 11.9418C3.77546 13.3247 3.99638 14.7141 4.53089 15.9951C5.46526 18.0577 7.12293 19.7096 9.19277 20.6406C10.4783 21.1733 11.8726 21.3934 13.2604 21.2828C14.6482 21.1723 15.9897 20.7342 17.174 20.0048C18.3583 19.2754 19.3514 18.2756 20.0712 17.088C20.791 15.9005 21.2169 14.5593 21.3136 13.1753H25.2296V19.8648H21.6586C21.5757 19.8647 21.4959 19.8966 21.436 19.9537C21.376 20.0109 21.3406 20.0889 21.337 20.1714Z" fill="#00AD00"/>
<path d="M25.239 21.6528H21.3463V25.1509H25.239V21.6528Z" fill="#1A1C2B"/>
<path d="M25.2437 0V12.5754H21.3464V3.87899H12.6194V0H25.2437Z" fill="#1A1C2B"/>
</g>
<defs>
<clipPath id="clip0_409_7885">
<rect width="150.001" height="25.1554" fill="white" transform="translate(-0.000244141)"/>
</clipPath>
</defs>
</svg>
