<svg width="78" height="63" viewBox="0 0 78 63" fill="none" xmlns="http://www.w3.org/2000/svg">
<g clip-path="url(#clip0_315_10564)">
<path d="M0 62.6634L5.48589 51.2383H7.65757L13.217 62.6634H10.6838L9.5199 60.167H3.37546L2.26052 62.6634H0ZM4.33726 58.1025H8.58568L6.49362 53.4559L4.33726 58.1025Z" fill="#1A1C2B"/>
<path d="M17.8113 62.6634L12.209 51.2383H14.785L18.7118 59.5085L22.4518 51.2383H24.7L19.3703 62.6634H17.8113Z" fill="#1A1C2B"/>
<path d="M26 53.9399C26 52.9046 26.1654 52.195 26.4962 51.8111C26.827 51.4313 27.4611 51.2383 28.4045 51.2383H35.5383C36.4817 51.2383 37.1157 51.4313 37.4465 51.8111C37.7773 52.1909 37.9427 52.9046 37.9427 53.9399V59.9618C37.9427 61.0063 37.7773 61.72 37.4465 62.1059C37.1157 62.4918 36.4817 62.6726 35.5383 62.6726H28.4045C27.4611 62.6726 26.827 62.4857 26.4962 62.1059C26.1654 61.7261 26 61.0155 26 59.9618V53.9399ZM28.2575 60.5131H35.6945V53.2813H28.2575V60.5131Z" fill="#1A1C2B"/>
<path d="M41.5684 62.6634V51.2383H43.8258V60.5131H51.0974V62.6572L41.5684 62.6634Z" fill="#1A1C2B"/>
<path d="M51.0879 62.6634L56.5738 51.2383H58.7485L64.3049 62.6634H61.7748L60.6078 60.167H54.4634L53.3362 62.6634H51.0879ZM55.4282 58.1025H59.6736L57.5815 53.4559L55.4282 58.1025Z" fill="#1A1C2B"/>
<path d="M66.2949 62.6634V51.2383H68.5707V55.9982L73.9341 51.2383H77.1993L70.7669 56.6231L77.9773 62.6634H74.3752L68.5554 57.637V62.6634H66.2949Z" fill="#1A1C2B"/>
<path d="M50.4972 37.1674V39.3115C50.5011 39.4713 50.5675 39.6232 50.6819 39.7348C50.7964 39.8464 50.9499 39.9089 51.1098 39.9088H50.4972C44.4752 45.6796 35.3566 48.2402 25.9225 44.8097C22.8122 43.6685 19.9997 41.8399 17.6948 39.4601C15.3898 37.0804 13.6519 34.211 12.6106 31.0659C7.36665 15.3525 18.5927 0.708179 33.4024 0.03125V7.19261C23.0769 7.87567 15.3979 18.3849 19.6433 29.4271C20.9481 32.8302 24.829 36.7079 28.2198 38.0036C39.262 42.2459 49.7682 34.5638 50.4512 24.2445H57.6371V36.567H51.0822C50.9251 36.5695 50.7754 36.634 50.6658 36.7465C50.5562 36.859 50.4955 37.0103 50.4972 37.1674Z" fill="#00AD00"/>
<path d="M57.6452 39.8994H50.4961V46.3471H57.6452V39.8994Z" fill="#1A1C2B"/>
<path d="M57.6464 0V23.1749H50.4973V7.14911H34.4746V0H57.6464Z" fill="#1A1C2B"/>
</g>
<defs>
<clipPath id="clip0_315_10564">
<rect width="78" height="62.6634" fill="white"/>
</clipPath>
</defs>
</svg>
