<svg width="51" height="50" viewBox="0 0 51 50" fill="none" xmlns="http://www.w3.org/2000/svg">
<g clip-path="url(#clip0_2340_514)">
<path d="M4.66895 22.2217H46.3356V47.2217H4.66895V22.2217Z" fill="#66757F"/>
<path d="M3.27778 47.2217H47.7222C48.4589 47.2217 49.1655 47.5143 49.6864 48.0353C50.2073 48.5562 50.5 49.2627 50.5 49.9995H0.5C0.5 49.2627 0.792658 48.5562 1.31359 48.0353C1.83453 47.5143 2.54107 47.2217 3.27778 47.2217Z" fill="#CCD6DD"/>
<path d="M25.5055 31.9414C24.4005 31.9414 23.3407 32.3804 22.5593 33.1618C21.7779 33.9432 21.3389 35.003 21.3389 36.1081V44.4414H29.6722V36.1081C29.6722 35.003 29.2332 33.9432 28.4518 33.1618C27.6704 32.3804 26.6106 31.9414 25.5055 31.9414Z" fill="#292F33"/>
<path d="M4.66895 29.1621H10.2245V44.4399H4.66895V29.1621ZM13.0023 29.1621H18.5578V44.4399H13.0023V29.1621ZM40.7801 29.1621H46.3356V44.4399H40.7801V29.1621ZM32.4467 29.1621H38.0023V44.4399H32.4467V29.1621Z" fill="#CCD6DD"/>
<path d="M3.2793 44.4414H47.7238V47.2192H3.2793V44.4414Z" fill="#AAB8C2"/>
<path d="M50.5 15.2778L25.5 0L0.5 15.2778H50.5Z" fill="#66757F"/>
<path d="M25.5015 3.33008L3.2793 16.6634V22.219H47.7238V16.6634L25.5015 3.33008Z" fill="#CCD6DD"/>
<path d="M4.66895 26.3828H10.2245V29.1606H4.66895V26.3828ZM13.0023 26.3828H18.5578V29.1606H13.0023V26.3828ZM32.4467 26.3828H38.0023V29.1606H32.4467V26.3828ZM40.7801 26.3828H46.3356V29.1606H40.7801V26.3828Z" fill="#8899A6"/>
<path d="M1.89355 16.6621H49.1158V23.6066H1.89355V16.6621Z" fill="#CCD6DD"/>
<path d="M50.5 16.6606C50.5 17.0289 50.3537 17.3822 50.0932 17.6427C49.8327 17.9031 49.4795 18.0495 49.1111 18.0495H1.88889C1.52053 18.0495 1.16726 17.9031 0.906796 17.6427C0.646329 17.3822 0.5 17.0289 0.5 16.6606V15.2717C0.5 14.9033 0.646329 14.5501 0.906796 14.2896C1.16726 14.0291 1.52053 13.8828 1.88889 13.8828H49.1111C49.4795 13.8828 49.8327 14.0291 50.0932 14.2896C50.3537 14.5501 50.5 14.9033 50.5 15.2717V16.6606ZM50.5 24.9939C50.5 25.3623 50.3537 25.7155 50.0932 25.976C49.8327 26.2365 49.4795 26.3828 49.1111 26.3828H1.88889C1.52053 26.3828 1.16726 26.2365 0.906796 25.976C0.646329 25.7155 0.5 25.3623 0.5 24.9939V23.605C0.5 23.2367 0.646329 22.8834 0.906796 22.6229C1.16726 22.3625 1.52053 22.2161 1.88889 22.2161H49.1111C49.4795 22.2161 49.8327 22.3625 50.0932 22.6229C50.3537 22.8834 50.5 23.2367 50.5 23.605V24.9939Z" fill="#AAB8C2"/>
<path d="M18.5586 44.4414H32.4475V47.2192H18.5586V44.4414Z" fill="#E1E8ED"/>
<path d="M15.7793 47.2217H35.2238V49.9995H15.7793V47.2217Z" fill="#F5F8FA"/>
</g>
<defs>
<clipPath id="clip0_2340_514">
<rect width="50" height="50" fill="white" transform="translate(0.5)"/>
</clipPath>
</defs>
</svg>
