<svg width="51" height="51" viewBox="0 0 51 51" fill="none" xmlns="http://www.w3.org/2000/svg">
<path d="M41.2374 29.0178L19.1436 25.5557L22.0725 38.721L41.2374 29.0178Z" fill="#D12053"/>
<path d="M41.2381 29.0178L24.5896 5.88672L19.1484 25.5598L41.2381 29.0178Z" fill="#E2136E"/>
<path d="M18.6317 25.2937L1.1875 3L24.0312 5.7289L18.6317 25.2937Z" fill="#D12053"/>
<path d="M10.6866 15.9779L1 6.84961H3.54977L10.6866 15.9779Z" fill="#9E1638"/>
<path d="M45.9509 17.7734L41.8513 28.8932L35.2061 19.7024L45.9509 17.7734Z" fill="#D12053"/>
<path d="M24.6523 38.0549L40.7384 31.593L41.4133 29.5391L24.6523 38.0549Z" fill="#E2136E"/>
<path d="M11.7861 50.2488L18.6772 26.0762L22.1727 41.8038L11.7861 50.2488Z" fill="#9E1638"/>
<path d="M46.5919 17.8604L44.9004 22.4516L50.9998 22.3516L46.5919 17.8604Z" fill="#E2136E"/>
</svg>
