<svg width="52" height="51" viewBox="0 0 52 51" fill="none" xmlns="http://www.w3.org/2000/svg">
<path d="M8.35973 8.51861C8.49805 8.57048 8.6413 8.54455 8.78209 8.54455C15.7745 8.54578 22.7681 8.54578 29.7604 8.54578C33.3048 8.54578 36.8479 8.54578 40.3922 8.54702C40.6294 8.54702 40.8665 8.55196 41.1023 8.56554C42.693 8.65816 44.1502 9.9561 44.3602 11.6591C44.3873 11.8839 44.3997 12.1074 44.3997 12.3322C44.3985 13.5647 44.3985 14.7971 44.3997 16.0296C44.3997 16.1247 44.4022 16.2186 44.4046 16.3137C44.4059 16.3692 44.4392 16.4001 44.4923 16.4026C44.5874 16.4063 44.6813 16.4075 44.7764 16.4075C45.8076 16.4075 46.8388 16.3939 47.87 16.4112C49.4964 16.4372 50.7388 17.4696 51.2179 18.7848C51.3785 19.2245 51.4353 19.6802 51.4353 20.1458C51.4353 22.2798 51.4365 24.4125 51.4365 26.5465C51.4365 31.8211 51.4353 37.0956 51.4365 42.3688C51.4365 42.9073 51.3649 43.4321 51.1303 43.9237C50.6239 44.987 49.7879 45.6402 48.648 45.9169C48.4393 45.9675 48.2293 45.991 48.0144 45.9922C47.8601 45.9934 47.7069 45.9959 47.5526 45.9959C35.7599 45.9959 23.966 45.9959 12.1733 45.9947C11.8547 45.9947 11.5348 46.0033 11.2199 45.9206C9.82564 45.5538 8.9451 44.6757 8.56968 43.2864C8.49434 43.0086 8.48817 42.7245 8.48817 42.4405C8.48694 41.1598 8.48694 39.8804 8.48817 38.5997C8.48817 38.2293 8.50793 38.2515 8.14361 38.2515C7.1717 38.2515 6.19978 38.2527 5.22786 38.2515C4.80056 38.2515 4.37574 38.2342 3.96696 38.0909C2.56528 37.6019 1.74279 36.6201 1.48222 35.1666C1.44517 34.9591 1.45628 34.7405 1.45628 34.5281C1.45505 29.4672 1.45628 24.4064 1.45505 19.3455C1.45505 19.1442 1.4427 18.9441 1.43652 18.7428C1.4427 18.6132 1.45258 18.4835 1.45381 18.3538C1.45505 16.2828 1.45752 14.2118 1.45258 12.1407C1.45134 11.4343 1.63288 10.7835 2.01943 10.1957C2.64679 9.23983 3.53843 8.70015 4.67213 8.55936C4.94259 8.55566 5.21304 8.55072 5.4835 8.55072C6.31957 8.54949 7.15441 8.55196 7.99048 8.54825C8.10533 8.54825 8.22636 8.57789 8.33627 8.51367L8.35973 8.51861ZM29.9766 26.9232C23.1978 26.9232 16.4191 26.9232 9.64039 26.9244C9.14517 26.9244 9.21803 26.8565 9.21803 27.3629C9.21556 30.717 9.2168 34.0699 9.2168 37.4241C9.2168 39.0826 9.21803 40.7424 9.21556 42.401C9.21556 42.6875 9.24891 42.9666 9.32424 43.2432C9.61199 44.2843 10.6617 45.2759 12.0584 45.2747C23.9561 45.2685 35.855 45.271 47.7526 45.2722C47.9552 45.2722 48.1528 45.2537 48.3516 45.2142C49.2976 45.0302 49.9867 44.5053 50.4251 43.6507C50.6177 43.2753 50.6857 42.8715 50.6857 42.4491C50.682 37.3895 50.6832 32.3286 50.6832 27.269C50.6832 27.2097 50.6844 27.1504 50.682 27.0912C50.677 26.9368 50.6696 26.9281 50.5227 26.9244C50.4164 26.922 50.309 26.9232 50.2028 26.9232C43.4624 26.9232 36.7195 26.9232 29.9766 26.9232ZM22.8977 13.6758C29.6542 13.6758 36.4095 13.6758 43.166 13.6758C43.2722 13.6758 43.3796 13.6783 43.4858 13.6746C43.6204 13.6696 43.6451 13.6474 43.6464 13.5017C43.6488 13.0274 43.6414 12.5532 43.6488 12.079C43.6637 11.0527 42.9795 9.8499 41.6976 9.42384C41.3444 9.30652 40.9826 9.28058 40.6133 9.28058C28.8441 9.28305 17.0749 9.28305 5.30443 9.28305C5.19822 9.28305 5.09078 9.28552 4.98457 9.28305C4.64743 9.27688 4.32634 9.35221 4.01513 9.472C2.91848 9.89683 2.20096 10.9305 2.18614 12.1111C2.1812 12.5026 2.18491 12.8928 2.18491 13.2843C2.18615 13.7116 2.1491 13.6758 2.59492 13.677C2.64185 13.677 2.69001 13.677 2.73694 13.677C9.45638 13.6758 16.1771 13.6758 22.8977 13.6758ZM29.9481 21.4227C36.691 21.4227 43.4352 21.4227 50.1793 21.4227C50.2979 21.4227 50.4164 21.4252 50.535 21.4215C50.6536 21.4178 50.6832 21.3906 50.6844 21.2757C50.6869 20.8373 50.6869 20.3989 50.6857 19.9605C50.6807 18.6774 49.7841 17.6326 48.7443 17.2992C48.4232 17.1967 48.0997 17.1596 47.7662 17.1596C46.3793 17.1596 44.9925 17.1596 43.6069 17.1596C33.1541 17.1596 22.7001 17.1596 12.2474 17.1596C12.1054 17.1596 11.9634 17.1621 11.8213 17.1646C11.3582 17.172 10.9346 17.3152 10.5543 17.5696C9.70708 18.1352 9.26743 18.9367 9.22174 19.9519C9.20692 20.2828 9.21433 20.615 9.22174 20.9472C9.22544 21.0967 9.15382 21.2782 9.27114 21.3869C9.37364 21.4807 9.54406 21.4215 9.68362 21.4215C16.4376 21.4227 23.1929 21.4227 29.9481 21.4227ZM29.9432 22.1575C23.2238 22.1575 16.5043 22.1575 9.78488 22.1575C9.67868 22.1575 9.57123 22.155 9.46502 22.1587C9.23656 22.1649 9.22174 22.1797 9.21556 22.402C9.21309 22.4848 9.21433 22.5675 9.21433 22.6515C9.21433 23.6345 9.21186 24.6188 9.21556 25.6018C9.2168 26.2168 9.14764 26.1415 9.77377 26.1415C23.2238 26.1427 36.675 26.1427 50.125 26.1427C50.2201 26.1427 50.3152 26.1439 50.409 26.1427C50.456 26.1427 50.5041 26.1415 50.5511 26.1353C50.6153 26.1267 50.661 26.0884 50.6684 26.0229C50.6758 25.9525 50.6783 25.8809 50.6783 25.8105C50.6783 24.7089 50.6783 23.6061 50.6783 22.5045C50.6783 22.4687 50.6795 22.4329 50.6783 22.3983C50.6709 22.1908 50.6511 22.1686 50.4572 22.1612C50.3386 22.1575 50.2201 22.16 50.1015 22.16C43.3821 22.1575 36.6626 22.1575 29.9432 22.1575ZM8.5635 19.2047C8.41778 19.1553 8.29798 19.1738 8.18066 19.1738C6.86543 19.1726 5.55019 19.1726 4.23495 19.1726C3.61871 19.1726 3.00246 19.1738 2.38621 19.1714C2.20097 19.1701 2.17626 19.2047 2.18244 19.3714C2.18491 19.4431 2.18244 19.5135 2.18244 19.5851C2.18244 22.4527 2.18244 25.3202 2.18244 28.1866C2.18244 30.307 2.18368 32.4287 2.18121 34.5491C2.18121 34.8356 2.20591 35.1172 2.28124 35.3926C2.62703 36.6621 3.73726 37.513 5.05744 37.5179C6.02935 37.5216 7.00004 37.5216 7.97195 37.5155C8.1325 37.5142 8.33133 37.5896 8.44618 37.4673C8.54498 37.3611 8.48199 37.1734 8.48199 37.0215C8.48323 31.4407 8.48323 25.8599 8.48323 20.2791C8.4857 19.9259 8.47952 19.5703 8.5635 19.2047ZM22.9039 14.4057C16.1832 14.4057 9.46379 14.4057 2.74311 14.4057C2.64802 14.4057 2.55293 14.4044 2.45907 14.4057C2.18615 14.4106 2.1812 14.418 2.17503 14.686C2.17379 14.7453 2.17503 14.8046 2.17503 14.8638C2.17503 15.7295 2.17503 16.594 2.17503 17.4597C2.17503 17.7203 2.17256 17.9809 2.1775 18.2414C2.18121 18.4242 2.20838 18.4489 2.38251 18.4563C2.46525 18.46 2.54799 18.4576 2.63197 18.4576C3.61623 18.4576 4.59927 18.4576 5.58353 18.4576C6.5431 18.4576 7.5039 18.4551 8.46347 18.46C8.63637 18.4613 8.74134 18.4045 8.83026 18.2476C9.07107 17.8253 9.36006 17.4474 9.76512 17.1534C10.4271 16.673 11.147 16.3952 11.9683 16.3952C19.898 16.3952 27.8265 16.3952 35.7562 16.3952C38.2212 16.3952 40.6862 16.3952 43.1524 16.3952C43.2586 16.3952 43.366 16.3964 43.4722 16.3915C43.5846 16.3853 43.6254 16.3483 43.6353 16.2458C43.6402 16.1865 43.6402 16.1272 43.6402 16.0679C43.6402 15.6172 43.6402 15.1676 43.6402 14.7169C43.6402 14.6576 43.6402 14.5983 43.6353 14.539C43.6278 14.4551 43.576 14.4118 43.4945 14.4081C43.3759 14.4032 43.2574 14.4032 43.1388 14.4032C36.3922 14.4057 29.648 14.4057 22.9039 14.4057Z" fill="#07080C"/>
<path d="M29.9766 26.9237C36.7195 26.9237 43.4624 26.9237 50.2053 26.9237C50.3115 26.9237 50.419 26.9224 50.5252 26.9249C50.6721 26.9286 50.6796 26.9373 50.6845 27.0916C50.6857 27.1509 50.6857 27.2102 50.6857 27.2695C50.6857 32.3291 50.6845 37.39 50.6882 42.4496C50.6882 42.8719 50.6203 43.2758 50.4276 43.6512C49.9892 44.5046 49.3001 45.0294 48.3541 45.2147C48.1553 45.2529 47.9565 45.2727 47.7552 45.2727C35.8575 45.2715 23.9586 45.269 12.061 45.2752C10.6655 45.2764 9.61452 44.2847 9.32677 43.2437C9.2502 42.967 9.21686 42.6879 9.21809 42.4014C9.22056 40.7429 9.21933 39.0831 9.21933 37.4245C9.21933 34.0704 9.21809 30.7175 9.22056 27.3633C9.22056 26.857 9.1477 26.9249 9.64292 26.9249C16.4192 26.9237 23.1979 26.9237 29.9766 26.9237ZM40.953 40.7305C40.9987 40.7663 41.0345 40.7935 41.0703 40.8219C41.116 40.859 41.1617 40.8972 41.2086 40.9343C41.7866 41.3764 42.4386 41.6469 43.1623 41.7049C44.0453 41.7753 44.8505 41.5345 45.5631 41.0084C46.8228 40.0772 47.2933 38.4891 46.8647 37.1232C46.2571 35.1831 44.0453 34.1321 42.0978 34.925C41.7112 35.0831 41.3593 35.2992 41.0431 35.5696C40.9777 35.6264 40.9196 35.624 40.8579 35.5647C40.7035 35.4165 40.538 35.2819 40.3528 35.1744C39.1153 34.4569 37.868 34.4718 36.6467 35.1843C35.6908 35.7413 35.1116 36.5971 34.9795 37.6987C34.8337 38.9188 35.2314 39.9698 36.149 40.796C37.4815 41.9964 39.4821 42.0346 40.8147 40.8454C40.8579 40.8071 40.9036 40.7713 40.953 40.7305ZM20.3081 39.6561C17.6072 39.6561 14.9076 39.6561 12.2067 39.6561C12.1005 39.6561 11.9918 39.6487 11.8881 39.6672C11.709 39.6969 11.5658 39.8784 11.5744 40.0451C11.5831 40.2131 11.7028 40.3576 11.8819 40.3872C11.998 40.4057 12.1178 40.4045 12.2363 40.4045C13.4923 40.4057 14.747 40.4057 16.003 40.4057C20.1129 40.4057 24.2229 40.4057 28.3316 40.4057C28.4502 40.4057 28.57 40.4107 28.6861 40.3946C28.8874 40.3662 29.0096 40.223 29.0096 40.0352C29.0084 39.8327 28.8713 39.682 28.6589 39.6623C28.5527 39.6524 28.4465 39.6586 28.339 39.6586C25.6616 39.6561 22.9855 39.6561 20.3081 39.6561ZM15.7572 37.164C14.5717 37.164 13.3861 37.164 12.2018 37.164C12.1067 37.164 12.0116 37.159 11.9177 37.1677C11.7337 37.1837 11.5855 37.3406 11.5793 37.5172C11.5732 37.6962 11.714 37.8592 11.9004 37.879C11.9943 37.8889 12.0894 37.8864 12.1845 37.8864C14.5667 37.8864 16.949 37.8864 19.3312 37.8864C19.4263 37.8864 19.5214 37.8901 19.6153 37.8815C19.8153 37.8642 19.945 37.7259 19.9499 37.5357C19.9549 37.3541 19.819 37.1911 19.6325 37.1689C19.5387 37.1578 19.4436 37.164 19.3485 37.164C18.1518 37.164 16.9551 37.164 15.7572 37.164ZM30.4138 29.5541C30.4138 29.7913 30.4138 30.0284 30.4138 30.2655C30.4138 30.4557 30.4076 30.6446 30.4163 30.8336C30.4274 31.0694 30.5817 31.2189 30.7966 31.2164C30.9918 31.2139 31.1362 31.0744 31.1646 30.8546C31.1708 30.8076 31.1683 30.7595 31.1683 30.7125C31.1683 29.9308 31.1683 29.1491 31.1683 28.3661C31.1683 28.271 31.1659 28.1772 31.1288 28.087C31.0337 27.8585 30.7658 27.7844 30.5694 27.9339C30.4447 28.029 30.4113 28.1599 30.4125 28.3105C30.4163 28.7243 30.4138 29.1392 30.4138 29.5541ZM34.11 29.5381C34.11 29.9172 34.1088 30.2964 34.11 30.6755C34.11 30.7471 34.1051 30.8187 34.115 30.8879C34.1421 31.0818 34.2879 31.209 34.4768 31.2139C34.6645 31.2189 34.8127 31.0991 34.851 30.904C34.8621 30.8459 34.8634 30.7866 34.8634 30.7274C34.8646 29.9333 34.8634 29.1404 34.8646 28.3464C34.8646 28.2513 34.8597 28.1574 34.8189 28.0685C34.7312 27.8758 34.4929 27.8005 34.3113 27.9067C34.1607 27.9932 34.11 28.1278 34.1113 28.2945C34.1113 28.7094 34.11 29.1244 34.11 29.5381ZM17.0589 29.5381C17.0589 29.9172 17.0576 30.2964 17.0601 30.6755C17.0601 30.7582 17.0589 30.8422 17.0749 30.9225C17.112 31.1003 17.254 31.2139 17.4281 31.2176C17.6146 31.2201 17.769 31.0966 17.806 30.9064C17.8172 30.8484 17.8147 30.7891 17.8147 30.7298C17.8147 29.9357 17.8159 29.1429 17.8147 28.3488C17.8147 28.2784 17.8134 28.2056 17.7962 28.1376C17.7542 27.9746 17.585 27.8499 17.4294 27.8536C17.2688 27.8573 17.112 27.9845 17.0774 28.1537C17.0614 28.234 17.0614 28.318 17.0614 28.4007C17.0589 28.7798 17.0589 29.159 17.0589 29.5381ZM18.9657 29.5541C18.9657 29.9333 18.9644 30.3124 18.9669 30.6915C18.9669 30.7743 18.9644 30.8595 18.983 30.9385C19.0237 31.1077 19.1818 31.2189 19.351 31.2164C19.5103 31.2139 19.6474 31.1151 19.6955 30.9558C19.7153 30.8891 19.7227 30.8163 19.7227 30.7459C19.7239 29.9407 19.7252 29.1343 19.7227 28.3291C19.7227 28.2587 19.7128 28.187 19.6931 28.1204C19.6461 27.9647 19.5041 27.8573 19.3534 27.8524C19.1954 27.8474 19.0274 27.9697 18.9854 28.1339C18.9657 28.213 18.9669 28.2982 18.9657 28.3797C18.9644 28.7724 18.9657 29.1639 18.9657 29.5541ZM28.5045 29.5183C28.5045 29.8975 28.5045 30.2766 28.5045 30.6557C28.5045 30.7385 28.5008 30.8224 28.5156 30.904C28.5478 31.0855 28.6811 31.2016 28.8553 31.2127C29.0454 31.225 29.201 31.1139 29.2467 30.9237C29.2628 30.8558 29.2616 30.7829 29.2628 30.7125C29.264 29.9308 29.264 29.1491 29.2628 28.3661C29.2628 28.271 29.2653 28.1784 29.222 28.0882C29.1517 27.9413 29.0035 27.8425 28.8565 27.8548C28.7034 27.8672 28.5638 27.9796 28.5268 28.1352C28.507 28.2142 28.5058 28.2994 28.5058 28.3809C28.5045 28.7601 28.5045 29.1392 28.5045 29.5183ZM32.9578 29.5529C32.9578 29.1738 32.9578 28.7946 32.9578 28.4155C32.9578 28.3328 32.9615 28.2476 32.9467 28.1673C32.9109 27.9833 32.7405 27.8474 32.5676 27.8536C32.4058 27.8598 32.2514 27.9857 32.2156 28.1549C32.1983 28.2352 32.1995 28.3192 32.1995 28.4019C32.1983 29.1602 32.1983 29.9185 32.1995 30.6767C32.1995 30.7595 32.1983 30.8447 32.2168 30.9237C32.2576 31.1015 32.4008 31.2127 32.5737 31.2152C32.759 31.2176 32.9134 31.0929 32.9479 30.9015C32.9628 30.8212 32.9578 30.736 32.9578 30.6533C32.9578 30.2877 32.9578 29.9197 32.9578 29.5529ZM26.6052 29.5183C26.6052 29.8962 26.6052 30.2754 26.6052 30.6533C26.6052 30.736 26.6027 30.82 26.615 30.9002C26.6447 31.0954 26.7916 31.2164 26.9831 31.2115C27.1732 31.2065 27.3165 31.0793 27.3424 30.8867C27.3498 30.8286 27.3461 30.7681 27.3461 30.7101C27.3461 29.9296 27.3461 29.1491 27.3461 28.3686C27.3461 28.2982 27.3498 28.2253 27.3375 28.1562C27.3091 27.9956 27.1461 27.861 26.9868 27.8548C26.8213 27.8487 26.6607 27.9672 26.6262 28.1364C26.6076 28.2278 26.6076 28.3241 26.6064 28.418C26.6027 28.786 26.6039 29.1515 26.6052 29.5183ZM20.8799 29.5183C20.8799 29.9086 20.8799 30.2988 20.8799 30.6891C20.8799 30.7595 20.8749 30.8323 20.886 30.9015C20.9144 31.0904 21.0676 31.2152 21.2565 31.2127C21.4307 31.2115 21.5751 31.0966 21.606 30.9212C21.6221 30.8286 21.6208 30.7335 21.6208 30.6384C21.6221 30.2124 21.6221 29.7876 21.6221 29.3615C21.6221 29.0071 21.627 28.6526 21.6196 28.2982C21.6134 28.0277 21.4726 27.8635 21.2602 27.8548C21.0416 27.8462 20.8836 28.0314 20.8799 28.3118C20.8762 28.7144 20.8799 29.117 20.8799 29.5183ZM36.0242 29.5109C36.0242 29.8888 36.023 30.2679 36.0242 30.6458C36.0242 30.7286 36.0193 30.8126 36.0292 30.8941C36.0526 31.0855 36.1984 31.2102 36.391 31.2127C36.5824 31.2152 36.7245 31.0929 36.7529 30.8965C36.7603 30.8496 36.7615 30.8027 36.7615 30.7558C36.7615 29.9407 36.7652 29.1244 36.7603 28.3093C36.759 28.0216 36.5997 27.8462 36.3762 27.8585C36.1638 27.8697 36.0279 28.0364 36.0255 28.3068C36.0205 28.707 36.0242 29.1083 36.0242 29.5109ZM25.4332 29.5183C25.4332 29.1874 25.4332 28.8564 25.4332 28.5254C25.4332 28.4192 25.4381 28.3118 25.4307 28.2068C25.4147 28.0043 25.243 27.8474 25.0565 27.8561C24.8737 27.8635 24.7292 28.0006 24.707 28.1932C24.6984 28.2636 24.7008 28.3352 24.7008 28.4056C24.7008 29.1627 24.7008 29.9185 24.7008 30.6755C24.7008 30.7459 24.6984 30.8175 24.707 30.8879C24.7292 31.0843 24.87 31.2102 25.0615 31.2115C25.2702 31.2139 25.4134 31.0806 25.4319 30.8657C25.4381 30.7953 25.4344 30.7236 25.4344 30.6533C25.4332 30.2754 25.4332 29.8962 25.4332 29.5183ZM22.7928 29.5196C22.7928 29.8975 22.7928 30.2754 22.7928 30.6533C22.7928 30.736 22.7879 30.82 22.799 30.9015C22.8225 31.0904 22.9744 31.2139 23.1683 31.2102C23.3473 31.2065 23.4893 31.0917 23.5153 30.9188C23.5276 30.8373 23.5252 30.7545 23.5252 30.6718C23.5264 29.916 23.5264 29.159 23.5252 28.4032C23.5252 28.3204 23.5289 28.2364 23.514 28.1562C23.4671 27.8869 23.1559 27.7709 22.9398 27.9376C22.8274 28.024 22.7916 28.1413 22.7928 28.2797C22.7953 28.6934 22.7928 29.1059 22.7928 29.5196Z" fill="#D8DDEB"/>
<path d="M22.8977 13.6758C16.177 13.6758 9.45756 13.6758 2.73688 13.6758C2.68995 13.6758 2.64179 13.6758 2.59486 13.6758C2.1478 13.6745 2.18485 13.7103 2.18485 13.283C2.18362 12.8916 2.17991 12.5013 2.18608 12.1098C2.20214 10.9292 2.91842 9.89554 4.01507 9.47072C4.32628 9.34969 4.64737 9.27559 4.98451 9.28177C5.09072 9.28424 5.19816 9.28177 5.30437 9.28177C17.0736 9.28177 28.8428 9.28177 40.6132 9.2793C40.9825 9.2793 41.3443 9.30523 41.6975 9.42255C42.9782 9.84861 43.6636 11.0515 43.6488 12.0777C43.6414 12.5519 43.6488 13.0262 43.6463 13.5004C43.6451 13.6461 43.6204 13.6696 43.4858 13.6733C43.3796 13.677 43.2721 13.6745 43.1659 13.6745C36.4094 13.6758 29.6529 13.6758 22.8977 13.6758Z" fill="#ADB6CE"/>
<path d="M29.9481 21.4232C23.1928 21.4232 16.4376 21.4232 9.68231 21.422C9.54276 21.422 9.37234 21.4813 9.26983 21.3874C9.15251 21.2787 9.22414 21.0972 9.22044 20.9478C9.21303 20.6156 9.20562 20.2834 9.22044 19.9524C9.26613 18.9373 9.70578 18.1358 10.553 17.5702C10.9333 17.3158 11.3569 17.1725 11.82 17.1651C11.9621 17.1626 12.1041 17.1602 12.2461 17.1602C22.6988 17.1602 33.1528 17.1602 43.6056 17.1602C44.9924 17.1602 46.3793 17.1602 47.7649 17.1602C48.0971 17.1602 48.4207 17.196 48.743 17.2997C49.7828 17.6331 50.6794 18.6779 50.6844 19.961C50.6856 20.3995 50.6856 20.8379 50.6831 21.2763C50.6831 21.3911 50.6523 21.4183 50.5337 21.422C50.4151 21.4257 50.2966 21.4232 50.178 21.4232C43.4351 21.4232 36.6922 21.4232 29.9481 21.4232Z" fill="#D7DCEA"/>
<path d="M29.9431 22.1581C36.6625 22.1581 43.3819 22.1581 50.1014 22.1581C50.2199 22.1581 50.3385 22.1556 50.457 22.1593C50.6509 22.1667 50.6695 22.1889 50.6781 22.3964C50.6793 22.4322 50.6781 22.468 50.6781 22.5026C50.6781 23.6042 50.6781 24.707 50.6781 25.8086C50.6781 25.879 50.6756 25.9506 50.6682 26.021C50.6608 26.0877 50.6164 26.1247 50.5509 26.1334C50.504 26.1396 50.4571 26.1408 50.4089 26.1408C50.3138 26.142 50.2187 26.1408 50.1248 26.1408C36.6748 26.1408 23.2236 26.1408 9.77361 26.1396C9.14749 26.1396 9.21788 26.2149 9.21541 25.5999C9.21294 24.6169 9.21418 23.6326 9.21418 22.6496C9.21418 22.5668 9.21294 22.4841 9.21541 22.4001C9.22282 22.1778 9.2364 22.163 9.46487 22.1568C9.57108 22.1543 9.67853 22.1556 9.78473 22.1556C16.5042 22.1581 23.2236 22.1581 29.9431 22.1581Z" fill="#2B2B2B"/>
<path d="M8.56368 19.2052C8.47847 19.5719 8.48464 19.9276 8.48464 20.282C8.48464 25.8628 8.48464 31.4436 8.48341 37.0244C8.48341 37.1763 8.54639 37.364 8.44759 37.4702C8.33274 37.5925 8.13391 37.5171 7.97337 37.5184C7.00145 37.5233 6.03077 37.5233 5.05885 37.5208C3.73991 37.5159 2.62968 36.665 2.28265 35.3955C2.20732 35.1201 2.18262 34.8385 2.18262 34.552C2.18509 32.4316 2.18385 30.3099 2.18385 28.1895C2.18385 25.3219 2.18385 22.4543 2.18385 19.588C2.18385 19.5164 2.18509 19.446 2.18385 19.3743C2.17891 19.2076 2.20361 19.173 2.38762 19.1743C3.00387 19.1767 3.62012 19.1755 4.23636 19.1755C5.5516 19.1755 6.86684 19.1755 8.18208 19.1767C8.29816 19.1743 8.41795 19.1545 8.56368 19.2052Z" fill="#ADB6CE"/>
<path d="M22.9038 14.4053C29.648 14.4053 36.3921 14.4053 43.1363 14.4053C43.2548 14.4053 43.3734 14.4053 43.4919 14.4102C43.5722 14.4139 43.6253 14.4571 43.6327 14.5411C43.6377 14.6004 43.6377 14.6597 43.6377 14.719C43.6377 15.1697 43.6377 15.6192 43.6377 16.07C43.6377 16.1293 43.6389 16.1886 43.6327 16.2478C43.6228 16.3491 43.5821 16.3874 43.4697 16.3936C43.3635 16.3985 43.2561 16.3973 43.1498 16.3973C40.6849 16.3973 38.2199 16.3973 35.7536 16.3973C27.8239 16.3973 19.8955 16.3973 11.9658 16.3973C11.1445 16.3973 10.4245 16.6739 9.76258 17.1555C9.35875 17.4494 9.06854 17.8273 8.82772 18.2497C8.7388 18.4065 8.63383 18.4633 8.46093 18.4621C7.50137 18.4572 6.54056 18.4596 5.581 18.4596C4.59673 18.4596 3.6137 18.4596 2.62943 18.4596C2.54669 18.4596 2.46394 18.4621 2.37997 18.4584C2.20584 18.451 2.17867 18.4263 2.17496 18.2435C2.17002 17.9829 2.17249 17.7224 2.17249 17.4618C2.17249 16.5961 2.17249 15.7316 2.17249 14.8659C2.17249 14.8066 2.17126 14.7474 2.17249 14.6881C2.17867 14.4189 2.18484 14.4127 2.45653 14.4077C2.55163 14.4053 2.64672 14.4077 2.74058 14.4077C9.46372 14.4053 16.1832 14.4053 22.9038 14.4053Z" fill="#2B2B2B"/>
<path d="M40.9531 40.7303C40.9037 40.7711 40.858 40.8069 40.8148 40.8464C39.4822 42.0344 37.4816 41.9961 36.1491 40.797C35.2315 39.9708 34.8338 38.9199 34.9796 37.6997C35.1117 36.5981 35.6909 35.7423 36.6468 35.1853C37.8681 34.474 39.1155 34.4579 40.3529 35.1755C40.5381 35.2829 40.7036 35.4175 40.858 35.5657C40.9197 35.625 40.9778 35.6262 41.0432 35.5706C41.3606 35.299 41.7113 35.0828 42.0979 34.926C44.0442 34.1332 46.2573 35.1841 46.8649 37.1242C47.2934 38.4901 46.8216 40.077 45.5632 41.0094C44.8506 41.5367 44.0442 41.7763 43.1624 41.7059C42.4387 41.6479 41.7867 41.3787 41.2087 40.9353C41.1618 40.8995 41.1173 40.86 41.0704 40.8229C41.0346 40.7933 40.9988 40.7661 40.9531 40.7303ZM46.2807 38.1319C46.2671 37.9912 46.2647 37.8479 46.24 37.7084C46.0164 36.4487 44.9099 35.4496 43.507 35.3965C42.8463 35.3718 42.2523 35.5941 41.7188 35.9806C41.536 36.1128 41.3791 36.2733 41.2223 36.4363C41.0136 36.6537 40.8111 36.6438 40.6172 36.424C40.5937 36.3981 40.5752 36.366 40.553 36.3388C40.0516 35.7164 39.3785 35.4113 38.6017 35.4015C37.4865 35.3891 36.6208 35.8856 36.0404 36.8464C35.7897 37.2613 35.6711 37.7207 35.6921 38.2036C35.7292 39.0643 36.0762 39.7831 36.7456 40.3339C37.9818 41.3515 39.786 41.0884 40.5838 39.9918C40.5974 39.9733 40.6159 39.956 40.6283 39.9362C40.7444 39.7547 41.0581 39.7337 41.2161 39.9214C41.2766 39.9943 41.3421 40.0634 41.4113 40.1289C42.1399 40.8168 43.0056 41.1156 43.9874 40.9168C45.5867 40.592 46.2992 39.2051 46.2807 38.1319Z" fill="#11100F"/>
<path d="M20.3085 39.6554C22.9847 39.6554 25.6621 39.6554 28.3383 39.6554C28.4445 39.6554 28.5519 39.6492 28.6581 39.6591C28.8718 39.6801 29.0088 39.8295 29.0088 40.032C29.0101 40.2197 28.8878 40.3642 28.6853 40.3914C28.5692 40.4075 28.4494 40.4025 28.3308 40.4025C24.2209 40.4025 20.1109 40.4025 16.0022 40.4025C14.7462 40.4025 13.4915 40.4025 12.2356 40.4013C12.117 40.4013 11.9972 40.4037 11.8811 40.384C11.702 40.3543 11.5823 40.2099 11.5736 40.0419C11.565 39.8752 11.7082 39.6936 11.8873 39.664C11.991 39.6467 12.0997 39.6541 12.2059 39.6529C14.908 39.6554 17.6089 39.6554 20.3085 39.6554Z" fill="#141C21"/>
<path d="M15.7572 37.1638C16.9539 37.1638 18.1518 37.1638 19.3485 37.1638C19.4436 37.1638 19.5386 37.1576 19.6325 37.1688C19.8177 37.191 19.9548 37.354 19.9499 37.5355C19.945 37.7257 19.8153 37.8628 19.6152 37.8813C19.5214 37.89 19.4263 37.8863 19.3312 37.8863C16.9489 37.8863 14.5667 37.8863 12.1844 37.8863C12.0893 37.8863 11.9943 37.89 11.9004 37.8789C11.7127 37.8591 11.5731 37.6961 11.5793 37.517C11.5855 37.3404 11.7337 37.1823 11.9177 37.1675C12.0115 37.1589 12.1066 37.1638 12.2017 37.1638C13.3873 37.1638 14.5716 37.1638 15.7572 37.1638Z" fill="#040304"/>
<path d="M30.4142 29.5541C30.4142 29.1392 30.4167 28.7242 30.413 28.3105C30.4118 28.1599 30.4451 28.029 30.5699 27.9339C30.7662 27.7844 31.0342 27.8598 31.1293 28.087C31.1676 28.1772 31.1688 28.271 31.1688 28.3661C31.1688 29.1478 31.1688 29.9296 31.1688 30.7125C31.1688 30.7595 31.1713 30.8076 31.1651 30.8546C31.1367 31.0744 30.9922 31.2152 30.7971 31.2164C30.5822 31.2189 30.4278 31.0694 30.4167 30.8336C30.4081 30.6446 30.4142 30.4544 30.4142 30.2655C30.4142 30.0284 30.4142 29.7913 30.4142 29.5541Z" fill="#1A191D"/>
<path d="M34.1101 29.5376C34.1101 29.1226 34.1114 28.7089 34.1089 28.294C34.1077 28.1273 34.1583 27.9926 34.309 27.9062C34.4917 27.8012 34.7289 27.8753 34.8166 28.068C34.8573 28.1569 34.8622 28.2508 34.8622 28.3458C34.861 29.1399 34.8622 29.9328 34.861 30.7268C34.861 30.7861 34.8598 30.8454 34.8487 30.9034C34.8104 31.0986 34.6622 31.2184 34.4745 31.2134C34.2855 31.2085 34.141 31.0813 34.1126 30.8874C34.1027 30.817 34.1077 30.7454 34.1077 30.675C34.1102 30.2958 34.1101 29.9167 34.1101 29.5376Z" fill="#1A191D"/>
<path d="M17.0589 29.5381C17.0589 29.1589 17.0577 28.7798 17.0601 28.4007C17.0601 28.3179 17.0589 28.234 17.0762 28.1537C17.1108 27.9857 17.2676 27.8585 17.4282 27.8536C17.585 27.8499 17.753 27.9746 17.7949 28.1376C17.8122 28.2056 17.8135 28.2784 17.8135 28.3488C17.8147 29.1429 17.8147 29.9357 17.8135 30.7298C17.8135 30.7891 17.8159 30.8496 17.8048 30.9064C17.7678 31.0954 17.6134 31.2201 17.4269 31.2176C17.254 31.2152 17.1108 31.1015 17.0737 30.9225C17.0577 30.8422 17.0589 30.7582 17.0589 30.6755C17.0589 30.2951 17.0589 29.9172 17.0589 29.5381Z" fill="#1A191D"/>
<path d="M18.9652 29.5542C18.9652 29.1627 18.9639 28.7725 18.9664 28.381C18.9664 28.2982 18.9664 28.213 18.9862 28.1352C19.0269 27.971 19.1961 27.8487 19.3542 27.8537C19.5048 27.8586 19.6469 27.966 19.6938 28.1216C19.7135 28.1883 19.7234 28.2612 19.7234 28.3304C19.7259 29.1355 19.7259 29.942 19.7234 30.7472C19.7234 30.8176 19.716 30.8904 19.6963 30.9571C19.6481 31.1164 19.511 31.2152 19.3517 31.2177C19.1813 31.2202 19.0244 31.1078 18.9837 30.9398C18.9639 30.8608 18.9676 30.7756 18.9676 30.6928C18.9639 30.3125 18.9652 29.9333 18.9652 29.5542Z" fill="#1A191D"/>
<path d="M28.5042 29.5181C28.5042 29.1389 28.503 28.7598 28.5055 28.3807C28.5055 28.2979 28.5079 28.2139 28.5265 28.1349C28.5647 27.9793 28.7043 27.8669 28.8562 27.8546C29.0031 27.8422 29.1513 27.9398 29.2217 28.088C29.265 28.1781 29.2612 28.272 29.2625 28.3658C29.2625 29.1476 29.2625 29.9293 29.2625 30.7123C29.2625 30.7827 29.2637 30.8555 29.2464 30.9234C29.2007 31.1136 29.0451 31.2248 28.8549 31.2124C28.6808 31.2013 28.5474 31.0852 28.5153 30.9037C28.5005 30.8234 28.5054 30.7382 28.5042 30.6555C28.5042 30.2763 28.5042 29.8972 28.5042 29.5181Z" fill="#1A191D"/>
<path d="M32.9574 29.5528C32.9574 29.9195 32.9574 30.2876 32.9574 30.6544C32.9574 30.7371 32.9624 30.8211 32.9476 30.9026C32.913 31.094 32.7586 31.2187 32.5734 31.2163C32.4005 31.2138 32.2572 31.1026 32.2165 30.9248C32.1979 30.8458 32.1992 30.7606 32.1992 30.6778C32.1979 29.9195 32.1979 29.1613 32.1992 28.403C32.1992 28.3203 32.1979 28.2351 32.2152 28.156C32.2523 27.9868 32.4066 27.8609 32.5672 27.8547C32.7388 27.8485 32.9093 27.9831 32.9463 28.1684C32.9624 28.2486 32.9574 28.3339 32.9574 28.4166C32.9574 28.7945 32.9574 29.1736 32.9574 29.5528Z" fill="#1A191D"/>
<path d="M26.6038 29.5182C26.6038 29.1514 26.6026 28.7846 26.6051 28.4179C26.6051 28.324 26.6063 28.2277 26.6248 28.1363C26.6594 27.9671 26.8199 27.8485 26.9854 27.8547C27.1447 27.8609 27.3078 27.9955 27.3362 28.1561C27.3485 28.2252 27.3448 28.2981 27.3448 28.3685C27.3448 29.149 27.3448 29.9295 27.3448 30.7099C27.3448 30.7692 27.3485 30.8285 27.3411 30.8865C27.3152 31.0792 27.1719 31.2064 26.9817 31.2113C26.7903 31.2163 26.6433 31.0953 26.6137 30.9001C26.6013 30.8186 26.6038 30.7346 26.6038 30.6531C26.6038 30.2752 26.6051 29.8973 26.6038 29.5182Z" fill="#11100F"/>
<path d="M20.8797 29.518C20.8797 29.1167 20.8772 28.7141 20.8809 28.3127C20.8834 28.0324 21.0427 27.8471 21.2613 27.8558C21.4737 27.8644 21.6145 28.0287 21.6207 28.2991C21.6281 28.6535 21.6232 29.008 21.6232 29.3624C21.6232 29.7885 21.6244 30.2133 21.6219 30.6394C21.6219 30.7332 21.6232 30.8295 21.6071 30.9222C21.5762 31.0975 21.4317 31.2124 21.2576 31.2136C21.0687 31.2148 20.9155 31.0901 20.8871 30.9024C20.876 30.8332 20.8809 30.7604 20.8809 30.69C20.8797 30.2985 20.8797 29.9083 20.8797 29.518Z" fill="#07080C"/>
<path d="M36.0238 29.5106C36.0238 29.1092 36.0201 28.7066 36.025 28.3052C36.0275 28.0348 36.1646 27.8681 36.3758 27.8569C36.5993 27.8458 36.7574 28.02 36.7598 28.3077C36.7648 29.1228 36.7623 29.9391 36.7611 30.7542C36.7611 30.8011 36.7598 30.8493 36.7524 30.8949C36.724 31.0913 36.582 31.2136 36.3906 31.2111C36.1979 31.2086 36.0522 31.0839 36.0287 30.8925C36.0189 30.811 36.0238 30.727 36.0238 30.6443C36.0226 30.2664 36.0226 29.8885 36.0238 29.5106Z" fill="#07080C"/>
<path d="M25.4331 29.5181C25.4331 29.896 25.4331 30.2751 25.4331 30.653C25.4331 30.7234 25.4368 30.795 25.4306 30.8654C25.4121 31.0803 25.2689 31.2137 25.0602 31.2112C24.8687 31.21 24.728 31.084 24.7057 30.8876C24.6971 30.8172 24.6995 30.7456 24.6995 30.6752C24.6995 29.9182 24.6995 29.1624 24.6995 28.4054C24.6995 28.335 24.6971 28.2633 24.7057 28.193C24.728 27.9991 24.8724 27.8632 25.0552 27.8558C25.2417 27.8472 25.4134 28.004 25.4294 28.2065C25.4381 28.3127 25.4319 28.4189 25.4319 28.5252C25.4331 28.8561 25.4331 29.1871 25.4331 29.5181Z" fill="#07080C"/>
<path d="M22.7924 29.5195C22.7924 29.1058 22.7949 28.6921 22.7912 28.2796C22.79 28.1413 22.8258 28.0252 22.9381 27.9375C23.1543 27.7708 23.4667 27.8881 23.5124 28.1561C23.526 28.2364 23.5235 28.3204 23.5235 28.4031C23.5248 29.1589 23.5248 29.9159 23.5235 30.6717C23.5235 30.7545 23.526 30.8384 23.5136 30.9187C23.4877 31.0916 23.3457 31.2065 23.1666 31.2102C22.974 31.2139 22.8208 31.0904 22.7974 30.9014C22.7875 30.8199 22.7924 30.7359 22.7912 30.6532C22.7912 30.2765 22.7924 29.8974 22.7924 29.5195Z" fill="#07080C"/>
<path d="M46.2807 38.1318C46.2992 39.2062 45.5866 40.5931 43.9861 40.9167C43.0055 41.1155 42.1386 40.8166 41.41 40.1288C41.3408 40.0633 41.2766 39.9941 41.2148 39.9213C41.0568 39.7336 40.7419 39.7546 40.627 39.9361C40.6147 39.9559 40.5961 39.9719 40.5825 39.9917C39.7848 41.0883 37.9805 41.3514 36.7443 40.3338C36.0762 39.783 35.7291 39.0642 35.6908 38.2035C35.6699 37.7206 35.7884 37.2599 36.0391 36.8462C36.6195 35.8854 37.4853 35.389 38.6004 35.4013C39.3772 35.41 40.0503 35.7162 40.5517 36.3387C40.5739 36.3658 40.5924 36.3979 40.6159 36.4239C40.8098 36.6437 41.0135 36.6536 41.221 36.4362C41.3779 36.2732 41.5347 36.1127 41.7175 35.9805C42.251 35.594 42.845 35.3717 43.5057 35.3964C44.9086 35.4495 46.0152 36.4486 46.2387 37.7082C46.2659 37.8466 46.2683 37.9898 46.2807 38.1318Z" fill="#FFE679"/>
</svg>
