<svg width="37" height="50" viewBox="0 0 37 50" fill="none" xmlns="http://www.w3.org/2000/svg">
<path d="M12.7099 31.7305H1.09105C0.890729 31.7305 0.730469 31.8907 0.730469 32.091V32.9725C0.730469 33.1728 0.890729 33.333 1.09105 33.333H9.70506V38.1007C9.46467 37.7401 9.18421 37.4196 8.86369 37.0991C7.86206 36.0574 6.74024 35.5366 5.61841 35.5366C4.73698 35.5366 3.93568 35.9773 3.3347 36.8186C2.85392 37.4997 2.5334 38.301 2.5334 39.0222C2.5334 39.7834 2.6536 40.7449 3.21451 41.6264C3.93568 42.7081 5.0575 43.0286 6.05913 43.0286C7.38128 43.0286 8.5031 42.1071 8.5031 40.9453C8.5031 40.2642 8.14252 39.6632 7.50148 39.3026L6.86043 38.942V39.9036C6.82037 40.144 6.33959 40.5847 5.81874 40.5847C5.37802 40.5847 4.93731 40.3844 4.69692 40.144C4.49659 39.9436 4.45653 39.6231 4.45653 39.3828C4.45653 39.0622 4.57672 38.7417 4.81711 38.4212C5.09757 38.1007 5.37802 37.9404 5.81874 37.9404C6.98063 37.9004 7.94219 38.4613 8.7435 39.6231C9.38454 40.5847 9.70506 41.5062 9.70506 42.5078L9.74512 44.9116L11.4679 45.9533C11.508 45.9934 11.5881 45.9934 11.6683 45.9934C11.8686 45.9934 12.0288 45.8331 12.0288 45.6328V33.3731H12.7099C12.9103 33.3731 13.0705 33.2128 13.0705 33.0125V32.1311C13.0705 31.8907 12.9103 31.7305 12.7099 31.7305Z" fill="#EC1C24"/>
<path d="M35.8684 31.7314H21.1645C20.9642 31.7314 20.8039 31.8917 20.8039 32.092V33.7347C19.4016 32.2523 18.1195 31.4911 16.9577 31.4911C15.8759 31.451 14.9143 31.7314 14.1932 32.3324C13.4319 32.9334 12.9912 33.6545 12.9912 34.4959C12.9912 37.06 15.8759 37.06 16.5971 36.6594C16.7173 36.5792 16.8775 36.4991 17.0779 36.4991C17.6788 36.4991 17.8792 36.9398 17.8792 37.3404C17.8792 37.9414 17.0378 38.4622 15.9961 38.4622C15.4352 38.4622 15.0746 38.302 14.8342 37.9815L14.3935 37.3004L14.073 38.0616C13.9928 38.2619 13.9127 38.4622 13.9127 38.7427C13.9127 39.3437 14.2332 39.9046 14.7541 40.3853C15.2749 40.826 15.916 41.0664 16.5971 41.0664C17.6788 41.0664 18.6003 40.6658 19.2013 39.8645C19.6821 39.2235 19.9225 38.4622 19.9225 37.6209C19.9225 37.1401 19.7622 36.6594 19.3616 36.0985C18.8808 35.4174 18.3199 35.0968 17.6788 35.0968C17.4384 35.0968 17.158 35.177 16.8775 35.2571C16.7573 35.2972 16.557 35.3372 16.5169 35.3372C16.4368 35.3372 16.2365 35.2972 16.1163 35.1369C16.0362 35.0568 15.8759 34.8565 15.8759 34.576C15.916 33.935 16.4769 33.294 17.4785 33.294H17.5186C18.1997 33.294 18.8808 33.6145 19.5619 34.2555C20.0827 34.7363 20.4834 35.2571 20.8039 35.818V44.9527L22.5267 45.9543C22.5668 45.9943 22.6469 45.9943 22.727 45.9943C22.9274 45.9943 23.0876 45.8341 23.0876 45.6338V33.3741H25.6919V41.3068L27.7752 42.1482C27.8153 42.1482 27.8554 42.1882 27.8954 42.1882C28.0958 42.1882 28.256 42.028 28.256 41.8677V41.7876C28.6166 39.4639 29.6182 37.8212 31.341 36.8597V37.3004C31.341 37.6209 31.3811 38.5023 31.3811 38.9831C31.3811 39.2635 31.4212 39.4639 31.4212 39.6241C31.4212 40.5055 31.5414 41.9478 31.8619 42.9494C32.4228 44.9126 33.3844 45.3533 34.1055 45.3934H34.1456C34.5463 45.3934 34.8668 45.2732 35.1072 45.0729C35.2274 44.9527 35.3876 44.7123 35.3876 44.3116C35.3876 43.9511 35.3476 43.6706 35.2274 43.4703L35.0671 43.1898L34.7466 43.27C34.386 43.3501 34.2658 43.3501 34.2257 43.3501H34.1456C34.0655 43.3501 34.0254 43.3501 33.9853 43.31C33.8651 43.27 33.6648 43.0696 33.5046 42.4286C33.3844 41.9478 33.3443 41.3469 33.3443 40.9863C33.3443 38.4222 33.8651 36.4991 34.7065 36.0584L34.7466 36.0183C34.8668 35.9382 34.9469 35.818 34.9469 35.6978C34.9469 35.6177 34.9469 35.5776 34.9068 35.5376V35.4174C34.5062 34.6161 33.6648 34.0552 32.5029 33.7347L32.4228 33.6946H32.3427C31.4212 33.8549 30.3394 34.4959 28.9772 35.6177C28.6166 35.8981 28.2961 36.2186 27.9756 36.4991V33.334H35.8684C36.0687 33.334 36.229 33.1738 36.229 32.9734V32.092C36.229 31.8917 36.0687 31.7314 35.8684 31.7314Z" fill="#EC1C24"/>
<path d="M1.89236 48.1974V48.9185L2.49333 48.6781L2.69366 48.8384V49.0387C2.69366 49.2791 2.61353 49.4794 2.49333 49.6397C2.37314 49.7999 2.17281 49.8801 1.93242 49.8801C1.69203 49.8801 1.45164 49.7599 1.25132 49.5596C1.09105 49.3993 0.97086 49.1589 0.850664 48.8785L1.01092 48.7583C1.21125 49.3592 1.53177 49.6397 1.93242 49.6397C2.09268 49.6397 2.21288 49.5996 2.29301 49.4794C2.4132 49.3592 2.45327 49.239 2.45327 49.0788C2.45327 48.9987 2.45327 48.9586 2.4132 48.8785L1.85229 49.1188L1.65197 48.9586V48.1974H0.730469V48.0371H2.85392V48.2374H1.89236V48.1974Z" fill="#231F20"/>
<path d="M3.05487 49.8801V48.1974H2.77441V48.0371H3.53565V48.1974H3.2552V49.8801H3.05487Z" fill="#231F20"/>
<path d="M4.69902 48.1974V48.3176C4.85928 48.3176 5.01955 48.3576 5.17981 48.4778C5.34007 48.598 5.4202 48.7182 5.4202 48.8785C5.4202 48.9987 5.38013 49.1188 5.25994 49.199C5.17981 49.2791 5.05961 49.3192 4.89935 49.3192H4.85928V49.1188H4.97948C5.13974 49.1188 5.21987 49.0387 5.21987 48.8785C5.21987 48.6781 5.05961 48.598 4.69902 48.5579V49.8801H4.4987C4.41857 49.6797 4.29837 49.5195 4.13811 49.3993C3.97785 49.239 3.77753 49.1589 3.61727 49.1589L3.53714 48.9185C3.65733 48.8384 3.97785 48.6381 4.4987 48.3576V48.2374H3.49707V48.0371H5.62052V48.2374H4.69902V48.1974ZM4.45863 48.5579C4.3785 48.598 4.25831 48.6381 4.13811 48.7583L3.85766 48.9987C3.97785 49.0387 4.05798 49.1589 4.17818 49.239C4.21824 49.2791 4.33844 49.3993 4.45863 49.5596V48.5579Z" fill="#231F20"/>
<path d="M8.42323 47.7161C8.06264 47.4758 7.74212 47.3556 7.50173 47.3556C7.26134 47.3556 7.10108 47.3956 6.98089 47.5158C6.82063 47.636 6.78056 47.7963 6.78056 48.0367H7.02095V48.237H6.78056V49.8796H6.58023V48.237H6.33984V48.0367H6.58023C6.58023 47.7562 6.66036 47.5559 6.86069 47.3956C7.02095 47.2354 7.26134 47.1953 7.5418 47.1953C7.70206 47.1953 7.90238 47.2354 8.06264 47.3155C8.18284 47.3556 8.3431 47.4758 8.54343 47.596L8.42323 47.7161Z" fill="#231F20"/>
<path d="M8.58413 48.1974V49.84H8.3838C8.26361 49.6797 8.10335 49.5195 7.82289 49.3592C7.54244 49.199 7.30204 49.1188 7.10172 49.1188L7.02159 48.8785C7.14178 48.7983 7.34211 48.6781 7.66263 48.5579C7.74276 48.5179 7.98315 48.4378 8.3838 48.2775V48.1974H6.86133V48.0371H8.78445V48.2374H8.58413V48.1974ZM8.3838 48.5579C8.18348 48.6381 7.82289 48.7583 7.38217 48.9987C7.78283 49.1188 8.10335 49.3192 8.3838 49.5596V48.5579Z" fill="#231F20"/>
<path d="M8.74414 48.0371H10.8275V48.2374H8.74414V48.0371ZM9.90603 49.84C9.66564 49.84 9.46531 49.7198 9.26499 49.5195C9.10473 49.3192 8.98453 49.1188 8.9044 48.8785L9.0246 48.7583C9.10473 48.9987 9.22492 49.199 9.34512 49.3592C9.50538 49.5596 9.7057 49.6797 9.90603 49.6797C10.0663 49.6797 10.1865 49.6397 10.3067 49.5195C10.3868 49.3993 10.4269 49.2791 10.4269 49.1188C10.2666 49.239 10.1464 49.2791 9.98616 49.2791C9.86596 49.2791 9.74577 49.239 9.62557 49.1589C9.50538 49.0788 9.46531 48.9586 9.46531 48.7983C9.46531 48.6781 9.50538 48.5579 9.58551 48.4778C9.66564 48.3977 9.78583 48.3576 9.90603 48.3576C9.98616 48.3576 10.1064 48.3977 10.1464 48.4378C10.2266 48.4778 10.2266 48.5579 10.2266 48.6381C10.2266 48.7182 10.1865 48.7983 10.1064 48.8384L9.94609 48.7182C9.98616 48.6781 10.0262 48.6381 10.0262 48.598C10.0262 48.5179 9.98616 48.4778 9.90603 48.4778C9.8259 48.4778 9.78583 48.5179 9.74577 48.5579C9.7057 48.598 9.66564 48.6781 9.66564 48.7182C9.66564 48.7983 9.7057 48.8785 9.74577 48.9185C9.8259 48.9586 9.86596 48.9987 9.98616 48.9987C10.1464 48.9987 10.3067 48.9185 10.4269 48.7983L10.6272 48.9987C10.6272 49.239 10.5471 49.4394 10.4269 49.5996C10.3067 49.7599 10.1464 49.84 9.90603 49.84Z" fill="#231F20"/>
<path d="M11.0285 49.8801V48.1974H10.748V48.0371H11.4692V48.1974H11.2288V49.8801H11.0285Z" fill="#231F20"/>
<path d="M12.3111 50.0003C12.0707 50.0003 11.9105 49.9602 11.8303 49.8801C11.6701 49.6797 11.5499 49.4394 11.5499 49.199C11.5499 49.0387 11.5899 48.8785 11.7101 48.6781C11.7903 48.5579 11.9105 48.4378 12.0707 48.2374H11.4297V48.0371H12.4714V48.2374C12.3111 48.3176 12.1509 48.4378 11.9906 48.598C11.8303 48.7983 11.7903 48.9586 11.7903 49.1589C11.7903 49.5996 11.9906 49.84 12.3512 49.84C12.3913 49.84 12.4714 49.7999 12.5114 49.7599V49.9602C12.4313 49.9602 12.3913 50.0003 12.3111 50.0003Z" fill="#231F20"/>
<path d="M13.7118 48.1974V49.84H13.5115V48.7583C13.5115 48.7182 13.4714 48.6781 13.4313 48.5579C13.3111 48.3576 13.1108 48.2374 12.9105 48.2374C12.8304 48.2374 12.7502 48.2775 12.6701 48.3576L12.5499 48.4778C12.63 48.4378 12.7102 48.4378 12.7903 48.4378C12.9105 48.4378 12.9906 48.4778 13.0708 48.5179C13.1509 48.5579 13.191 48.6381 13.191 48.7583C13.191 48.8785 13.1509 48.9987 13.0307 49.1188C12.9506 49.239 12.8304 49.3192 12.7102 49.3592L12.59 49.199C12.6701 49.1589 12.7502 49.1188 12.8304 49.0387C12.9105 48.9586 12.9906 48.8785 12.9906 48.7983C12.9906 48.7583 12.9506 48.7182 12.8304 48.6781C12.7502 48.6381 12.6701 48.6381 12.59 48.6381H12.5098L12.3896 48.4378L12.63 48.1974C12.7102 48.1172 12.8304 48.0772 12.9506 48.0772C13.191 48.0772 13.3913 48.1974 13.5515 48.4378V48.0371H13.9923V48.2374H13.7118V48.1974Z" fill="#231F20"/>
<path d="M15.5558 48.1974V49.84H15.3555C15.2353 49.6797 15.075 49.5195 14.7945 49.3592C14.5141 49.199 14.2737 49.1188 14.0734 49.1188L13.9932 48.8785C14.3138 48.6781 14.7545 48.4778 15.3154 48.2775V48.1974H13.873V48.0371H15.7561V48.2374H15.5558V48.1974ZM15.3154 48.5579C14.9548 48.6781 14.6343 48.8384 14.3538 48.9987C14.7144 49.1188 15.0349 49.3192 15.3154 49.5596V48.5579ZM14.7545 49.9201C14.6743 49.84 14.5942 49.7999 14.434 49.7198L14.5141 49.5596C14.6343 49.5996 14.7545 49.6797 14.8747 49.7999L14.7545 49.9201Z" fill="#231F20"/>
<path d="M18.6 47.7161C18.2394 47.4758 17.9189 47.3556 17.6785 47.3556C17.4381 47.3556 17.2779 47.3956 17.1577 47.5158C16.9974 47.636 16.9573 47.7963 16.9573 48.0367H17.1977V48.237H16.9573V49.8796H16.757V48.237H16.4766V48.0367H16.717C16.717 47.7562 16.7971 47.5559 16.9974 47.3956C17.1577 47.2354 17.3981 47.1953 17.6785 47.1953C17.8388 47.1953 18.0391 47.2354 18.1994 47.3155C18.3196 47.3556 18.4798 47.4758 18.6801 47.596L18.6 47.7161Z" fill="#231F20"/>
<path d="M18.2391 48.1974V48.9185L18.84 48.6781L19.0404 48.8384V49.0387C19.0404 49.2791 18.9602 49.4794 18.84 49.6397C18.7198 49.7999 18.5195 49.8801 18.2791 49.8801C18.0387 49.8801 17.7983 49.7599 17.598 49.5596C17.4378 49.3993 17.3176 49.1589 17.1974 48.8785L17.3576 48.7583C17.558 49.3592 17.8785 49.6397 18.2791 49.6397C18.4394 49.6397 18.5596 49.5996 18.6397 49.4794C18.7599 49.3592 18.8 49.239 18.8 49.0788C18.8 48.9987 18.8 48.9586 18.7599 48.8785L18.199 49.1188L17.9987 48.9586V48.1974H17.0371V48.0371H19.1606V48.2374H18.2391V48.1974Z" fill="#231F20"/>
<path d="M21.2055 47.7161C20.8449 47.4758 20.5243 47.3556 20.284 47.3556C20.0436 47.3556 19.8833 47.3956 19.7631 47.5158C19.6029 47.636 19.5628 47.7963 19.5628 48.0367H19.8032V48.237H19.5628V49.8796H19.3625V48.237H19.1221V48.0367H19.3625C19.3625 47.7562 19.4426 47.5559 19.6429 47.3956C19.8032 47.2354 20.0436 47.1953 20.324 47.1953C20.4843 47.1953 20.6846 47.2354 20.8449 47.3155C20.9651 47.3556 21.1253 47.4758 21.3257 47.596L21.2055 47.7161Z" fill="#231F20"/>
<path d="M21.0849 48.1974C21.165 48.3977 21.3253 48.5179 21.5657 48.5179H21.6458L21.8061 48.7182C21.6859 48.9586 21.6057 49.1589 21.6057 49.2791C21.6057 49.5596 21.6458 49.7599 21.7259 49.84L21.5657 49.9201C21.4455 49.7599 21.4054 49.5996 21.4054 49.3993C21.4054 49.2791 21.4054 49.1589 21.4455 49.0788C21.4455 49.0387 21.4855 48.9185 21.5256 48.7182C21.3654 48.7182 21.2051 48.6381 21.0849 48.5579C20.9246 48.4378 20.8445 48.3176 20.8044 48.1974C20.564 48.3576 20.4439 48.5579 20.4439 48.7182C20.4439 48.8384 20.4839 48.9185 20.6041 48.9185C20.6442 48.9185 20.7243 48.9185 20.7644 48.8785C20.8044 48.8384 20.8846 48.7983 20.8846 48.7583H21.0849C21.125 48.8384 21.165 48.9586 21.165 49.1188C21.165 49.5195 20.9647 49.7599 20.524 49.7599C20.4439 49.7599 20.3637 49.7198 20.2836 49.6797C20.2435 49.6797 20.1634 49.5996 20.0432 49.5596C19.9631 49.4394 19.8829 49.2791 19.7627 49.0387L19.8829 48.9185C19.923 49.0788 20.0432 49.239 20.2035 49.4394L20.3637 49.5195C20.4038 49.5596 20.4839 49.5596 20.524 49.5596C20.6442 49.5596 20.7644 49.5195 20.8445 49.4794C20.9246 49.3993 20.9647 49.3192 20.9647 49.199C20.9647 49.1188 20.9647 49.0788 20.9246 49.0387C20.8044 49.1589 20.7243 49.199 20.6041 49.199C20.4839 49.199 20.4038 49.1589 20.3637 49.0788C20.2836 48.9987 20.2836 48.9185 20.2836 48.7983C20.2836 48.6381 20.3637 48.4778 20.524 48.2775H19.6826V48.0371H21.9663V48.2374H21.0849V48.1974Z" fill="#231F20"/>
<path d="M22.2874 48.1968V49.6391H22.4076C22.5678 49.6391 22.7682 49.5991 22.9685 49.4789C23.1688 49.3587 23.289 49.2385 23.289 49.0382C23.289 48.8378 23.2089 48.7577 23.0085 48.7577C22.9685 48.7577 22.8483 48.7978 22.7281 48.8779L22.648 48.6776C22.7682 48.5975 22.9284 48.5574 23.0887 48.5574C23.2089 48.5574 23.3291 48.5975 23.4092 48.7177C23.4893 48.7978 23.4893 48.918 23.4893 49.0382C23.4893 49.2385 23.4092 49.3987 23.2089 49.5189C23.0486 49.6391 22.8883 49.7193 22.688 49.7593C22.5678 49.7994 22.3274 49.7994 22.047 49.7994V48.1568H21.8867V48.0366H23.1688V47.9965C23.1688 47.8763 23.1287 47.7561 23.0085 47.676C22.9284 47.5959 22.8082 47.5558 22.688 47.5558C22.5278 47.5558 22.3274 47.6359 22.047 47.7561L21.9668 47.5959C22.2072 47.4356 22.4476 47.3555 22.688 47.3555C22.8883 47.3555 23.0486 47.4356 23.1688 47.5558C23.289 47.676 23.3691 47.8362 23.3691 47.9965H23.6896V48.1968H22.2874Z" fill="#231F20"/>
<path d="M23.8898 49.8801V48.1974H23.6094V48.0371H24.3305V48.1974H24.0902V49.8801H23.8898Z" fill="#231F20"/>
<path d="M26.2532 48.1974V49.84H26.0529V49.5195C26.0529 49.1188 25.9728 48.9185 25.7724 48.9185C25.6923 48.9185 25.6523 48.9586 25.5721 49.0387C25.5321 49.1188 25.492 49.1589 25.492 49.239H25.2516C25.2516 49.1589 25.2115 49.0788 25.1715 48.9987C25.1314 48.9185 25.0513 48.8785 24.9711 48.8785C24.891 48.8785 24.8109 48.9185 24.7708 48.9987C24.7308 49.0788 24.6907 49.1589 24.6907 49.239C24.6907 49.4394 24.8109 49.5596 25.0513 49.5596H25.1314L25.0513 49.7599H24.9711C24.8109 49.7599 24.6907 49.7198 24.5705 49.5996C24.4904 49.4794 24.4102 49.3592 24.4102 49.199C24.4102 49.0387 24.4503 48.9185 24.5705 48.7983C24.6506 48.6781 24.8109 48.6381 24.9711 48.6381C25.1314 48.6381 25.2516 48.7182 25.3718 48.9185C25.492 48.7182 25.6122 48.6381 25.7724 48.6381C25.8926 48.6381 25.9728 48.7182 26.0529 48.9185V48.1573H24.29V48.0371H26.4936V48.2374H26.2532V48.1974Z" fill="#231F20"/>
<path d="M27.5352 49.1188C27.5352 49.239 27.5753 49.3592 27.6154 49.4794C27.6955 49.5996 27.7756 49.6797 27.8958 49.6797C27.9359 49.6797 28.016 49.6797 28.0561 49.6397L28.1362 49.84C28.0561 49.8801 27.976 49.8801 27.9359 49.8801C27.5753 49.8801 27.415 49.5996 27.415 49.0387C27.415 48.7182 27.6154 48.3977 28.016 48.0371H28.3365V48.2374C28.1362 48.2775 27.976 48.3576 27.8157 48.5579C27.6154 48.7182 27.5352 48.9185 27.5352 49.1188Z" fill="#231F20"/>
<path d="M30.0989 48.1974V49.84H29.8986V49.5195C29.8986 49.1188 29.8185 48.9185 29.6182 48.9185C29.538 48.9185 29.498 48.9586 29.4178 49.0387C29.3778 49.1188 29.3377 49.1589 29.3377 49.239H29.0973C29.0973 49.1589 29.0572 49.0788 29.0172 48.9987C28.9771 48.9185 28.897 48.8785 28.8168 48.8785C28.7367 48.8785 28.6566 48.9185 28.6165 48.9987C28.5765 49.0788 28.5364 49.1589 28.5364 49.239C28.5364 49.4394 28.6566 49.5596 28.897 49.5596H28.9771L28.897 49.7599H28.8168C28.6566 49.7599 28.5364 49.7198 28.4162 49.5996C28.3361 49.4794 28.2559 49.3592 28.2559 49.199C28.2559 49.0387 28.296 48.9185 28.4162 48.7983C28.4963 48.6781 28.6566 48.6381 28.8168 48.6381C28.9771 48.6381 29.0973 48.7182 29.2175 48.9185C29.3377 48.7182 29.4579 48.6381 29.6182 48.6381C29.7383 48.6381 29.8185 48.7182 29.8986 48.9185V48.1573H28.1357V48.0371H30.3393V48.2374H30.0989V48.1974Z" fill="#231F20"/>
<path d="M31.9425 48.1974V49.84H31.7421V49.7198C31.7421 49.5596 31.662 49.3993 31.4617 49.199C31.2614 49.0387 31.1011 48.9185 30.9408 48.9185C30.8607 48.9185 30.7806 48.9586 30.7405 48.9987C30.7005 49.0387 30.6604 49.1188 30.6604 49.199C30.6604 49.2791 30.7005 49.3592 30.7405 49.3993C30.7806 49.4394 30.8607 49.4794 30.9408 49.4794C30.9809 49.4794 31.021 49.4794 31.1011 49.4394L31.1812 49.6397C31.1011 49.6797 31.021 49.6797 30.9008 49.6797C30.7806 49.6797 30.6604 49.6397 30.5803 49.5195C30.5001 49.4394 30.4601 49.3192 30.4601 49.199C30.4601 49.0788 30.5001 48.9586 30.5803 48.8384C30.6604 48.7583 30.7806 48.6781 30.9408 48.6781C31.2614 48.6781 31.5418 48.8785 31.7822 49.239V48.1573H30.2998V48.0371H32.1829V48.2374H31.9425V48.1974Z" fill="#231F20"/>
<path d="M32.9439 50.0003C32.7035 50.0003 32.5433 49.9602 32.4632 49.8801C32.3029 49.6797 32.1827 49.4394 32.1827 49.199C32.1827 49.0387 32.2228 48.8785 32.343 48.6781C32.4231 48.5579 32.5433 48.4378 32.7035 48.2374H32.0625V48.0371H33.1042V48.2374C32.9439 48.3176 32.7837 48.4378 32.6234 48.598C32.4632 48.7983 32.4231 48.9586 32.4231 49.1589C32.4231 49.5996 32.6234 49.84 32.984 49.84C33.0241 49.84 33.1042 49.7999 33.1443 49.7599V49.9602C33.0641 49.9602 33.0241 50.0003 32.9439 50.0003Z" fill="#231F20"/>
<path d="M33.1839 48.1974V48.9185C33.5044 48.7182 33.7848 48.5579 34.0252 48.4778L34.2255 48.7583C34.1054 49.0387 34.0653 49.239 34.0653 49.3592C34.0653 49.4794 34.1054 49.6397 34.1454 49.84L33.9852 49.9201C33.905 49.7198 33.865 49.5596 33.865 49.4794C33.865 49.239 33.905 49.0387 33.9451 48.7983C33.7047 48.8785 33.4242 49.0788 33.1037 49.3592L32.9435 49.199V48.2374H32.7832V48.0371H34.3858V48.2374H33.1839V48.1974Z" fill="#231F20"/>
<path d="M36.0294 48.1974V49.84H35.8291V49.7198C35.8291 49.5596 35.7489 49.3993 35.5486 49.199C35.3483 49.0387 35.188 48.9185 35.0278 48.9185C34.9476 48.9185 34.8675 48.9586 34.8274 48.9987C34.7874 49.0387 34.7473 49.1188 34.7473 49.199C34.7473 49.2791 34.7874 49.3592 34.8274 49.3993C34.8675 49.4394 34.9476 49.4794 35.0278 49.4794C35.0678 49.4794 35.1079 49.4794 35.188 49.4394L35.2682 49.6397C35.188 49.6797 35.1079 49.6797 34.9877 49.6797C34.8675 49.6797 34.7473 49.6397 34.6672 49.5195C34.587 49.4394 34.547 49.3192 34.547 49.199C34.547 49.0788 34.587 48.9586 34.6672 48.8384C34.7473 48.7583 34.8675 48.6781 35.0278 48.6781C35.3483 48.6781 35.6287 48.8785 35.8691 49.239V48.1573H34.3867V48.0371H36.2698V48.2374H36.0294V48.1974Z" fill="#231F20"/>
<path d="M30.6582 15.4656C30.6582 15.8262 30.6582 16.2268 30.6181 16.5874C30.4979 18.19 30.0973 19.6724 29.4562 21.0746C29.2158 21.6355 28.8953 22.1564 28.5748 22.6772C26.1709 26.4833 21.9641 28.9673 17.1562 28.9673C15.1129 28.9673 13.1497 28.4865 11.3869 27.6852C6.81944 25.5218 3.6543 20.8342 3.6543 15.4656C3.6543 10.1371 6.69925 5.56975 11.1465 3.36621C10.7859 3.80692 10.4654 4.32775 10.1849 4.80853C10.1448 4.84859 10.1448 4.88865 10.1048 4.92872C9.94452 5.08898 9.7442 5.20917 9.58394 5.36943L8.98296 5.97039L8.86276 6.09058C8.8227 6.13065 8.78263 6.17071 8.74257 6.25084C8.66244 6.33097 8.58231 6.4111 8.54224 6.49123C8.42205 6.65148 8.26179 6.81174 8.14159 7.01206C7.58068 7.73322 7.0999 8.57457 6.73931 9.41592L6.61912 9.65631C6.57905 9.7765 6.53899 9.85663 6.49892 9.97682C6.49892 10.0169 6.45886 10.097 6.45886 10.1371C6.41879 10.2973 6.33866 10.4576 6.2986 10.6178C6.25853 10.738 6.21846 10.8182 6.21846 10.9384C6.21846 10.9784 6.1784 11.0586 6.1784 11.0986C6.13833 11.2188 6.13833 11.2989 6.09827 11.4191C6.01814 11.7396 5.93801 12.1002 5.89794 12.4608C5.89794 12.5409 5.85788 12.6211 5.85788 12.7413C5.85788 12.8214 5.85788 12.8614 5.81781 12.9416C5.81781 13.0618 5.81781 13.1419 5.77775 13.2621V14.1435C5.77775 17.8294 7.46048 21.1147 10.1048 23.2782C12.1481 24.9609 14.7523 25.9625 17.5569 25.9625C20.1211 25.9625 22.525 25.1211 24.4481 23.7189C25.8504 22.6772 27.0523 21.3551 27.8937 19.8326C28.0139 19.6323 28.094 19.432 28.2142 19.2317C28.8953 17.8294 29.296 16.2268 29.336 14.5842V14.1836C29.336 13.7829 29.336 13.4223 29.296 13.0618C29.336 13.0618 29.336 13.1018 29.336 13.1018C29.5364 13.2621 29.6966 13.4223 29.8569 13.5826C30.0172 13.3022 30.1774 13.0217 30.3777 12.7813C30.4979 13.3022 30.5781 13.823 30.6181 14.3438C30.6582 14.6643 30.6582 15.065 30.6582 15.4656Z" fill="#EA2227"/>
<path d="M29.3356 14.1045V14.5051C29.3356 16.909 28.334 18.9122 28.2138 19.1526C28.1337 19.3529 28.0135 19.5532 27.8933 19.7535C27.0519 21.276 25.85 22.6382 24.4477 23.6398C22.5246 25.042 20.1207 25.8834 17.5565 25.8834C14.7119 25.8834 12.1076 24.8818 10.1044 23.1991C7.46008 21.0356 5.77734 17.7503 5.77734 14.0644V13.183C5.77734 13.0628 5.77734 12.9827 5.81741 12.8625C5.81741 12.7823 5.81741 12.7423 5.85747 12.6621C5.85747 12.582 5.89754 12.5019 5.89754 12.3817C5.9376 12.0211 6.01773 11.7006 6.09787 11.34C6.13793 11.2198 6.13793 11.1397 6.178 11.0195C6.178 10.9794 6.21806 10.8993 6.21806 10.8593C6.25813 10.7391 6.25813 10.6589 6.29819 10.5387C6.33826 10.3785 6.41839 10.2182 6.45845 10.058C6.45845 10.0179 6.49852 9.93777 6.49852 9.89771C6.53858 9.77752 6.57865 9.69739 6.61871 9.5772L6.73891 9.33681C7.09949 8.49546 7.58028 7.65411 8.14119 6.93295C8.26138 6.7727 8.42164 6.61244 8.54184 6.41212C8.62197 6.33199 8.66203 6.25186 8.74216 6.17173C8.78223 6.13167 8.82229 6.0916 8.86236 6.01147L8.98255 5.89128L9.58353 5.29032C9.74379 5.13006 9.94412 4.9698 10.1044 4.84961C10.0643 4.88967 10.0643 4.92974 10.0242 4.9698C9.98418 5.00987 9.98418 5.04993 9.94412 5.13006C9.26301 6.53231 8.82229 8.13488 8.66203 9.89771C8.62197 10.3785 8.5819 10.8593 8.5819 11.34C8.5819 17.5099 12.1878 22.518 16.6751 22.518H17.1158C17.7568 22.518 18.3979 22.4378 18.9988 22.2776C22.0438 21.4362 24.2474 18.6718 24.2474 15.3865V15.1862C24.2073 13.223 23.3659 11.5003 22.0438 10.2182C22.9653 10.2583 23.8467 10.3785 24.7281 10.5788C26.3708 11.0195 27.8933 11.7807 29.1754 12.8224C29.2154 12.8224 29.2154 12.8625 29.2555 12.8625C29.2956 13.3432 29.3356 13.7038 29.3356 14.1045Z" fill="#F69220"/>
<path d="M29.3758 14.1045V14.5051C29.3758 17.0292 28.2539 19.1926 28.2539 19.1926C28.1738 19.3929 28.0536 19.5933 27.9334 19.7936C27.092 21.316 25.8901 22.6782 24.4478 23.7199C22.4044 25.1622 20.0406 25.9635 17.5165 25.9635C14.7921 25.9635 12.1077 25.002 10.0243 23.2792C7.25981 21.0356 5.69727 17.6702 5.69727 14.1045C5.69727 10.5387 7.29987 7.17334 10.0644 4.92974L10.1846 4.84961C10.1445 4.88967 10.1445 4.92974 10.1044 4.9698C10.0644 5.00987 10.0644 5.04993 10.0243 5.09C7.33994 7.3336 5.7774 10.6189 5.7774 14.1045C5.7774 17.6301 7.33994 20.9555 10.0644 23.1991C12.1478 24.9218 14.7921 25.8433 17.5165 25.8433C20.0005 25.8433 22.3644 25.0821 24.3676 23.6398C25.7699 22.6382 26.9719 21.276 27.8132 19.7535C27.9334 19.5532 28.0135 19.3529 28.1337 19.1526C28.1337 19.1125 29.2556 16.9891 29.2556 14.5051V14.1045C29.2556 13.7439 29.2556 13.3432 29.2155 12.9827V12.9426C29.2556 12.9426 29.2556 12.9827 29.2956 12.9827L29.3357 13.0227C29.3758 13.3833 29.3758 13.7439 29.3758 14.1045Z" fill="#F69220"/>
<path d="M26.1713 6.7737C26.1713 6.7737 16.5557 4.97081 12.0283 13.3442C12.0283 13.3442 12.8296 7.53492 19.7208 4.93075L18.3586 2.36663C18.3586 2.36663 21.1231 -0.117356 25.971 0.523673L26.1713 6.7737Z" fill="#EA2227"/>
<path d="M14.2324 11.2199C14.2324 11.2199 18.0787 6.21188 26.8529 7.49394L26.7327 4.56924C26.7327 4.56924 30.4187 4.44905 33.3836 7.01316L29.7376 12.542C29.7376 12.542 27.2135 9.61734 22.0051 9.53721C19.8816 9.49715 17.2774 9.7776 14.2324 11.2199Z" fill="#F69220"/>
<path d="M10.4249 15.7873C10.4249 15.7873 6.01773 6.21189 16.2343 0.0419922L18.6783 4.52919C18.6783 4.52919 17.0356 5.09009 15.2728 6.61254C13.3497 8.25517 11.2663 11.0597 10.4249 15.7873Z" fill="#F69220"/>
<path d="M16.2353 13.1835C16.2353 13.1835 15.3939 13.3839 15.434 12.9432C15.434 12.7829 15.5141 12.7428 15.5943 12.7829C15.5943 12.7028 15.434 12.5025 15.7946 12.3823C15.9148 12.222 16.035 12.0617 16.075 11.9816C16.1151 11.8614 16.1952 11.7412 16.5158 11.7813C16.8363 11.8614 17.1969 12.1819 17.2369 12.2621C17.4373 12.2621 17.6376 12.3021 17.5575 12.3422C17.4773 12.3823 17.4373 12.4624 17.4773 12.4624C17.4773 12.4624 17.5975 12.5425 17.277 12.5425C17.277 12.6226 17.3571 12.6226 17.3972 12.6627C17.4373 12.7028 17.3972 12.7428 17.3972 12.7428C17.3972 12.7428 17.4373 12.9031 17.277 12.863C17.1167 12.7829 17.1167 12.7428 17.0366 12.7428C16.9965 12.7428 16.8763 12.7829 16.8763 12.823C16.8763 12.863 17.0767 12.9832 16.8363 13.0233C16.7962 13.0634 16.9164 13.1034 16.8363 13.1435C16.7562 13.1835 16.3956 13.464 16.2353 13.5041C16.075 13.5041 16.035 13.464 16.035 13.3839C16.035 13.3037 16.1151 13.2637 16.2353 13.2637C16.2754 13.2236 16.2754 13.1835 16.2353 13.1835Z" fill="#EC1C24"/>
<path d="M16.1552 14.0653C16.0751 14.0653 15.8347 13.9051 15.9549 13.8249C16.0751 13.7448 16.636 13.3842 16.7562 13.3442C16.8764 13.3041 17.0367 13.4644 16.8764 13.5846C16.7562 13.7047 16.1552 14.0653 16.1552 14.0653Z" fill="#EC1C24"/>
<path d="M17.0361 13.6646C17.0361 13.5845 17.1163 13.2239 17.1163 13.1438C17.1163 13.0636 17.3967 13.0636 17.3166 13.3441C17.2765 13.6646 17.0361 13.7447 17.0361 13.6646Z" fill="#EC1C24"/>
<path d="M17.3968 13.0229C17.3968 13.0229 18.9193 12.9428 19.0395 13.0229C19.1597 13.103 19.6805 13.9043 19.5603 14.6255C19.4401 15.3466 19.1998 15.547 18.2382 15.6271C18.2382 15.3867 18.1981 14.7857 18.0779 14.6255C17.9978 14.4652 17.6372 14.1047 17.477 14.1047C17.477 14.2649 17.4369 14.7857 17.4369 14.7857C17.4369 14.7857 16.9561 14.8258 16.876 14.7056V13.9444C16.876 13.9444 17.3167 13.5438 17.3568 13.4636C17.4369 13.5037 17.4369 13.7441 17.9978 13.704C18.0379 13.6239 17.3968 13.704 17.3968 13.0229Z" fill="#EC1C24"/>
<path d="M16.8354 13.7041C16.8354 13.7041 16.3546 14.1047 16.2344 14.1849C16.1943 14.3051 16.1142 14.7458 16.7553 14.7458C16.7953 14.4653 16.8354 13.7041 16.8354 13.7041Z" fill="#EC1C24"/>
<path d="M15.6739 14.305C15.5137 14.305 15.3935 14.2649 15.4335 14.1447C15.4335 14.0245 15.6739 13.9043 15.7941 13.9444C15.9143 13.9844 16.1547 14.0245 16.1547 14.5453C16.2348 14.6655 16.5554 14.8659 16.916 14.9059C17.2765 14.946 17.5169 14.8659 17.5169 14.9861V15.7072C17.5169 15.7072 17.0762 15.7072 15.9544 14.9059C15.8743 14.7857 15.7941 14.7056 15.7941 14.5053C15.7941 14.4252 15.714 14.305 15.6739 14.305Z" fill="#EC1C24"/>
<path d="M15.3137 14.3857C15.1134 14.3857 14.5925 14.8264 14.9932 15.0268C15.1134 14.9466 15.1935 14.8264 15.1935 14.8264C15.1935 14.8264 15.1134 15.0668 15.3137 15.147C15.514 15.2271 15.4339 15.0268 15.5541 15.0268C15.6342 15.147 15.6342 15.187 15.7544 15.187C15.8746 15.187 15.8746 14.8665 15.7544 14.7063C15.6342 14.5059 15.514 14.4258 15.3137 14.3857Z" fill="#EC1C24"/>
<path d="M17.5967 14.4648V15.8671C17.5967 15.8671 18.0775 15.7068 18.1175 15.5866C18.1175 15.3463 18.0374 14.4648 17.5967 14.4648Z" fill="#EC1C24"/>
<path d="M16.4756 15.3867C16.4756 15.3867 17.0365 15.7473 17.357 15.9076C17.317 15.9877 17.0766 16.2681 16.9964 16.2681C16.9163 16.2281 16.5157 15.6672 16.4756 15.3867Z" fill="#EC1C24"/>
<path d="M13.791 15.9082H14.5122V16.1887H13.8311L13.791 15.9082Z" fill="#EC1C24"/>
<path d="M22.003 15.7871H18.8379L19.3587 16.1878H22.003V15.7871Z" fill="#EC1C24"/>
<path d="M18.238 15.748C18.2781 15.708 18.6387 15.9884 18.5586 16.0285C18.4384 16.0686 17.4768 16.5093 17.3967 16.4692C17.3165 16.4291 17.3165 16.1888 17.4367 16.1487C17.5169 16.1086 18.0778 15.9484 18.238 15.748Z" fill="#EC1C24"/>
<path d="M17.1566 16.4289C17.0364 16.3488 16.3953 16.9898 16.6758 17.0299C16.9562 17.07 17.6373 17.1902 17.7976 17.2703C17.9579 17.1902 18.1181 17.07 18.0781 16.9898C18.1983 16.9898 18.3585 17.1501 18.5188 17.11C18.679 17.0299 19.4403 16.469 19.4803 16.3889C19.3201 16.2687 18.9996 16.0684 18.8393 16.0684C18.7191 16.0684 17.6774 16.6693 17.1566 16.4289Z" fill="#EC1C24"/>
<path d="M16.8352 17.1907C16.9153 17.1907 17.7166 17.5112 17.9169 17.4712C18.1172 17.4311 18.1573 17.2308 18.2775 17.2308C18.3977 17.2308 18.4378 17.351 18.6381 17.2308C18.8384 17.1106 19.1589 16.8301 19.2391 16.75C19.2391 16.8702 19.2391 17.2308 18.5179 17.5513C17.7967 17.8718 16.0739 18.3526 16.0339 18.593C16.114 18.633 16.3143 18.5529 16.4746 18.4728C16.5547 18.5529 16.715 18.7532 16.6749 19.1539C16.6348 19.5144 16.3544 20.1555 16.3544 20.3157V21.3574C16.3544 21.4375 16.5146 21.8782 16.2742 21.8382C16.0739 21.7981 15.9137 21.7981 15.8335 21.7981C15.7534 21.7981 15.5931 21.9584 15.4329 21.9183C15.2726 21.8782 15.0322 21.8382 15.0322 21.758C15.0322 21.6779 15.1925 21.6779 15.3527 21.6378C15.513 21.5978 15.5931 21.4375 15.8736 21.3173C15.8736 21.117 15.7935 19.7548 15.7935 19.4744C15.7935 19.1939 15.7133 18.593 15.8335 18.3526C15.8736 18.1122 16.5146 17.1907 16.8352 17.1907Z" fill="#EC1C24"/>
<path d="M17.8779 18.0316C17.8779 18.1117 18.3587 19.3537 18.5991 19.3938C18.7994 19.4338 20.8427 18.9931 21.2434 19.1133C21.3636 19.2736 21.604 19.554 21.604 19.7543C21.604 19.7543 21.6441 20.155 21.604 20.1951C21.6841 20.1951 21.8444 20.155 21.8844 20.0348C21.9245 19.9146 21.8844 19.3938 21.9245 19.2736C21.9245 19.1934 22.1649 18.6726 21.8444 18.7127C21.5239 18.7127 20.5623 18.7127 20.2418 18.6325C19.9213 18.5524 19.2401 18.4322 19.0799 18.5123C18.9196 18.5925 18.7193 18.8729 18.7193 18.9531C18.6392 18.9531 18.6392 18.913 18.6792 18.6726C18.7594 18.4723 18.9998 17.8313 18.9597 17.5107C18.7193 17.5107 17.8779 18.0316 17.8779 18.0316Z" fill="#EC1C24"/>
<path d="M16.7163 16.0674C16.7563 16.1075 16.7563 16.2277 16.8365 16.2678L15.1938 16.1476C15.1938 16.1476 14.9935 16.0274 15.0736 15.9873L16.7163 16.0674Z" fill="#EC1C24"/>
<path d="M14.9117 15.9084H16.5544C16.5544 15.9084 16.4342 15.7081 16.3941 15.5879C16.1137 15.5879 14.8717 15.628 14.8717 15.628C14.8717 15.628 14.7114 15.628 14.7114 15.9485C14.6713 16.0286 14.8316 16.1488 14.9117 15.9084Z" fill="#EC1C24"/>
<path d="M13.35 16.1878H13.6705C13.6705 16.1878 13.7907 16.1477 13.6705 16.0276C13.5503 15.9074 13.35 15.8272 13.5103 15.5868C13.35 15.5468 13.1096 15.5067 13.1497 16.0276H12.9894C12.9894 16.0276 12.9494 15.7471 12.5487 15.7471C12.1881 15.7471 11.2266 16.1477 11.2266 16.1477C11.2266 16.1477 12.2683 16.4282 12.5487 16.4282C12.8292 16.4282 12.9894 16.1878 12.9894 16.1878H13.1096C13.1096 16.1878 13.1497 16.3881 13.2298 16.4683V16.7888C13.2298 16.7888 13.0696 16.8288 13.1096 17.0292C13.1497 17.1894 13.2699 17.1894 13.2699 17.1894C13.3099 17.1894 13.35 17.1494 13.4702 17.1494C13.5503 17.0692 13.5103 16.8689 13.35 16.7888V16.5484C13.35 16.5484 13.4702 16.4683 13.4702 16.3881C13.4702 16.308 13.35 16.308 13.35 16.1878Z" fill="#EC1C24"/>
<path d="M15.3124 17.7901C15.4326 17.7099 15.4727 17.5497 15.4727 17.5497V16.5881C15.4727 16.3478 15.0721 16.1875 15.032 16.1875H14.9919C14.9519 16.2276 14.8317 16.3077 14.7515 16.3077C14.6313 16.3077 14.5913 16.3077 14.4711 16.1875C14.1506 16.1875 13.9903 16.5881 13.9502 16.5881C13.9502 16.6683 13.9102 17.3494 13.9502 17.4696C13.9903 17.5898 14.0704 17.6699 14.1105 17.7099C14.0304 17.9503 13.7098 19.2324 14.1506 19.3926V19.593H15.2724V19.3526C15.673 19.1923 15.3926 18.1106 15.3124 17.7901ZM14.0704 16.5881C14.1105 16.5481 14.2307 16.2276 14.4711 16.2276C14.5913 16.3478 14.6714 16.3478 14.7916 16.3478C14.9118 16.3478 14.9919 16.2676 15.0721 16.2276C15.1922 16.2676 15.4326 16.3878 15.4326 16.5481V17.5096C15.4326 17.5497 15.3926 17.6298 15.3124 17.6699H15.1121V17.2692H14.3509V17.6699H14.1906C14.1506 17.6298 14.0704 17.5497 14.0704 17.4696C14.0304 17.3894 14.0304 16.9087 14.0704 16.5881ZM14.8317 19.2324H14.6313C14.5913 19.2324 14.5512 19.1923 14.5512 19.1523C14.5512 19.1122 14.5913 19.0721 14.6313 19.0721H14.8317C14.8717 19.0721 14.9118 19.1122 14.9118 19.1523C14.9118 19.1923 14.8717 19.2324 14.8317 19.2324ZM15.2323 19.3125L14.7115 18.7116L14.2307 19.3125C13.9102 19.1923 14.1105 18.1907 14.2307 17.75H15.2724C15.3525 18.1907 15.5528 19.1523 15.2323 19.3125Z" fill="#EC1C24"/>
<path d="M15.074 18.1906C15.1942 18.0303 15.0339 17.9102 15.0339 17.9102H14.3929C14.1925 17.9102 14.2727 18.1906 14.2727 18.1906L14.6733 18.5512C14.6733 18.5512 14.9538 18.3909 15.074 18.1906Z" fill="#EC1C24"/>
<path d="M14.833 18.5919L15.2337 19.0727C15.2337 19.0727 15.1936 18.5118 15.1936 18.3516C15.0734 18.3516 14.833 18.5919 14.833 18.5919Z" fill="#EC1C24"/>
<path d="M14.2305 18.3516C14.2305 18.5519 14.1904 19.0727 14.1904 19.0727L14.5911 18.5919C14.5911 18.5919 14.3507 18.3516 14.2305 18.3516Z" fill="#EC1C24"/>
<path d="M14.9936 17.1495H15.0737V17.0694C15.0737 17.0293 15.0337 16.9893 14.9936 16.9893H14.3926C14.3526 16.9893 14.3125 17.0293 14.3125 17.0694V17.1495H14.3926H14.9936Z" fill="#EC1C24"/>
<path d="M14.1104 19.6748H14.0303V19.7549C14.0303 19.795 14.0703 19.8351 14.1104 19.8351H15.2723C15.3124 19.8351 15.3524 19.795 15.3524 19.7549V19.6748H15.2723H14.1104Z" fill="#EC1C24"/>
</svg>
