<svg width="81" height="50" viewBox="0 0 81 50" fill="none" xmlns="http://www.w3.org/2000/svg">
<path fill-rule="evenodd" clip-rule="evenodd" d="M59.8143 6.48583L48.079 18.2184L48.9025 24.8062L51.0644 20.2784L57.7542 28.8216L67.121 0L35.9307 12.9691L44.372 17.3949L59.8143 6.48583Z" fill="#902B86"/>
<path d="M49.6227 27.0762C49.6227 27.0762 39.6887 27.0762 37.2705 27.0762C27.8515 28.5166 26.8737 42.2072 37.1686 44.0606H49.6254V31.7085C53.7768 31.8471 54.6342 37.0258 51.5808 38.9133C52.1978 39.6348 54.6682 42.3091 54.6682 42.3091C61.1489 36.7173 57.4445 27.5206 49.6227 27.0762ZM45.0949 39.4283C45.0949 39.4283 38.7136 39.4283 38.1986 39.4283C33.9269 39.6845 32.5361 32.634 37.7855 31.7085C39.3305 31.7085 45.0949 31.7085 45.0949 31.7085V39.4283Z" fill="#902B86"/>
<path fill-rule="evenodd" clip-rule="evenodd" d="M75.4603 33.2466C73.4003 33.2466 70.9299 33.2466 70.9299 33.2466L68.9744 37.777C68.9744 37.777 74.2238 37.777 74.7388 37.777C75.8969 37.7247 75.9492 39.424 74.7388 39.5259C73.2461 39.5259 64.7551 39.5259 64.7551 39.5259V31.7042H80.0928V27.0719C80.0928 27.0719 77.9569 27.0719 77.8288 27.0719C77.1596 17.4987 65.7093 17.2163 62.6977 22.4395C63.2885 22.9284 66.0936 25.4249 66.0936 25.4249C67.8163 22.7218 72.603 22.8525 73.2984 27.0719H60.2246V44.0563H74.9453C78.2915 44.0041 79.8339 41.5336 80.1947 39.424C80.4012 36.0255 78.3412 33.7616 75.4603 33.2466Z" fill="#902B86"/>
<path fill-rule="evenodd" clip-rule="evenodd" d="M31.4003 27.0723H25.4294C23.5262 29.3884 20.2323 38.7551 26.7678 45.8056C26.7678 45.8056 29.599 43.3875 30.1637 42.9248C28.1586 40.9668 24.8124 32.9908 31.4003 27.0723Z" fill="#902B86"/>
<path fill-rule="evenodd" clip-rule="evenodd" d="M16.2046 45.9691C16.2046 48.0343 14.5289 49.71 12.4636 49.71C10.3958 49.71 8.72266 48.0343 8.72266 45.9691C8.72266 43.9013 10.3984 42.2256 12.4636 42.2256C14.5289 42.2282 16.2046 43.9039 16.2046 45.9691Z" fill="#902B86"/>
<path fill-rule="evenodd" clip-rule="evenodd" d="M8.24024 27.0713C-1.17882 28.5117 -2.15655 42.2023 8.13829 44.0558H8.20626C8.93563 42.4323 10.5669 41.303 12.4622 41.303C14.3575 41.303 15.9862 42.4323 16.7182 44.0558H20.5925C20.5925 43.4885 20.5925 27.0713 20.5925 27.0713C20.5925 27.0713 10.661 27.0713 8.24024 27.0713ZM16.0646 39.4234C16.0646 39.4234 9.6833 39.4234 9.16829 39.4234C4.89664 39.6796 3.50588 32.6291 8.75786 31.7037C10.3029 31.7037 16.0672 31.7037 16.0672 31.7037V39.4234H16.0646Z" fill="#902B86"/>
<path fill-rule="evenodd" clip-rule="evenodd" d="M12.6692 23.0573C14.1855 22.8011 14.9332 19.685 12.4627 18.9922C12.1804 18.9922 8.44727 18.9922 8.44727 18.9922V24.9107H10.0942V23.0573L11.9477 24.9107H14.5227L12.6692 23.0573ZM12.4732 20.9659C12.4732 21.1803 12.298 21.3554 12.0837 21.3554H10.1151V20.532H12.0837C12.298 20.532 12.4732 20.7071 12.4732 20.9215V20.9659Z" fill="#902B86"/>
<path fill-rule="evenodd" clip-rule="evenodd" d="M17.3872 18.9004C15.7298 18.9004 14.3887 20.2441 14.3887 21.8989C14.3887 23.5563 15.7324 24.8974 17.3872 24.8974C19.0446 24.8974 20.3857 23.5537 20.3857 21.8989C20.3883 20.2441 19.0446 18.9004 17.3872 18.9004ZM17.3872 23.2164C16.6604 23.2164 16.0696 22.6256 16.0696 21.8989C16.0696 21.1721 16.6604 20.5813 17.3872 20.5813C18.1139 20.5813 18.7048 21.1721 18.7048 21.8989C18.7074 22.6282 18.1166 23.2164 17.3872 23.2164Z" fill="#902B86"/>
<path fill-rule="evenodd" clip-rule="evenodd" d="M34.4055 20.6037H37.1008V18.8652H34.8185C33.0252 18.8652 31.5586 20.2194 31.5586 21.8742C31.5586 23.529 33.0252 24.8831 34.8185 24.8831H37.1008V23.1447H34.4055C34.0107 23.1447 33.6578 22.9565 33.4304 22.6637H37.1008V21.0847H33.4304C33.6578 20.7919 34.0107 20.6037 34.4055 20.6037Z" fill="#902B86"/>
<path fill-rule="evenodd" clip-rule="evenodd" d="M23.6893 23.1437C23.0096 23.1437 22.4527 22.5869 22.4527 21.9072V21.8392C22.4527 21.1595 23.0096 20.6027 23.6893 20.6027H26.2512V18.8643H23.9533C22.1599 18.8643 20.6934 20.2184 20.6934 21.8732C20.6934 23.528 22.1599 24.8822 23.9533 24.8822H26.2512V23.1437H23.6893Z" fill="#902B86"/>
<path fill-rule="evenodd" clip-rule="evenodd" d="M43.3596 18.9805H37.5508V20.5359H39.6788V24.7892H41.2342V20.5359H43.3596V18.9805Z" fill="#902B86"/>
<path d="M29.5345 21.8613L32.3945 18.9805H30.0783L28.4705 20.6013V18.9805H26.915V24.7892H28.4705V23.124L30.1227 24.7892H32.4363L29.5345 21.8613Z" fill="#902B86"/>
<path d="M52.9233 46.9409C52.6671 46.9931 52.4397 47.1526 52.2463 47.4245C52.058 47.6833 51.9639 47.9447 51.9639 48.2087C51.9639 48.3682 51.9979 48.5224 52.0633 48.6715C52.1469 48.8623 52.2593 48.9564 52.4031 48.9564C52.4763 48.9564 52.5704 48.9172 52.6855 48.8388L52.8475 49.2701C52.7011 49.359 52.56 49.4008 52.4214 49.4008C52.2332 49.4008 52.0554 49.3328 51.8803 49.1917C51.7809 49.1106 51.6842 48.9564 51.5953 48.729C51.5509 48.6166 51.5273 48.4492 51.5273 48.2244V48.0676C51.5273 47.7147 51.7156 47.3199 52.0894 46.8781C52.1678 46.7866 52.3012 46.6585 52.4894 46.4912H53.0776V46.9199C53.0201 46.933 52.9704 46.9382 52.9233 46.9409Z" fill="#902B86"/>
<path d="M55.5248 46.9261V49.3704H55.036V49.0541C55.036 48.9443 54.9523 48.8058 54.7876 48.6358C54.6621 48.5077 54.5314 48.3953 54.3955 48.2986C54.2439 48.194 54.0792 48.1418 53.8988 48.1418C53.7158 48.1418 53.5825 48.2202 53.5014 48.377C53.491 48.3953 53.4857 48.4162 53.4857 48.4424C53.4857 48.5077 53.5171 48.5653 53.5825 48.6175C53.6452 48.6698 53.7106 48.696 53.7759 48.696C53.8282 48.696 53.9511 48.6568 54.1471 48.5809L54.2909 49.0253C54.0739 49.1378 53.8909 49.1927 53.7445 49.1927C53.5825 49.1927 53.4334 49.1482 53.2975 49.0567C53.1616 48.9652 53.0648 48.845 53.0021 48.696C52.9733 48.6306 52.9603 48.5522 52.9603 48.4581C52.9603 48.181 53.0753 47.9692 53.3027 47.8254C53.4622 47.7209 53.6321 47.6686 53.8125 47.6686C53.8308 47.6686 53.8465 47.6686 53.8596 47.6686C53.857 47.5823 53.8099 47.4882 53.7236 47.381C53.6373 47.2738 53.5511 47.2216 53.47 47.2216H52.9289V46.9209H52.7119V46.4922H55.8594V46.9209H55.5248V46.9261ZM55.036 46.9261H53.8857C54.2099 47.1379 54.3798 47.4124 54.3929 47.7522C54.5994 47.8333 54.8138 47.9954 55.036 48.2359V46.9261Z" fill="#902B86"/>
<path d="M56.4766 46.9277V49.372H55.9877V46.9277H55.627V46.499H56.8034V46.9277H56.4766Z" fill="#902B86"/>
<path d="M58.8337 46.9277H56.6299V46.499H59.6781V46.9277H59.3408V49.372H58.9095C58.8677 49.2465 58.6559 49.0531 58.2742 48.7891C58.1174 48.6819 57.903 48.5773 57.6285 48.4754C57.3357 48.3682 57.1057 48.3133 56.9305 48.3133L56.7998 47.827C56.9148 47.7355 57.2285 47.5787 57.7462 47.3565C57.9658 47.2571 58.3291 47.116 58.8337 46.9277ZM58.8624 47.4558C58.7709 47.4872 58.6742 47.5212 58.5696 47.563C58.4154 47.631 58.1383 47.7538 57.7331 47.929L57.639 47.9708C58.0259 48.1068 58.3945 48.3054 58.7474 48.5695C58.7918 48.6035 58.8311 48.6322 58.8624 48.6557V47.4558Z" fill="#902B86"/>
<path d="M60.2959 46.9277V49.372H59.8071V46.9277H59.4463V46.499H60.6227V46.9277H60.2959Z" fill="#902B86"/>
<path d="M60.4502 46.9264V46.4977H61.8932C61.8959 46.482 61.8985 46.469 61.8985 46.4611C61.8985 46.2363 61.7939 46.0899 61.5822 46.0193C61.5534 46.0115 61.522 46.0089 61.488 46.0089C61.4358 46.0089 61.373 46.0193 61.2946 46.0402C61.19 46.069 61.1273 46.0847 61.109 46.0873C61.0253 46.1004 60.9521 46.1265 60.892 46.1657C60.811 46.2206 60.7195 46.2703 60.6175 46.3147L60.4607 45.9514C60.6463 45.8233 60.8946 45.7108 61.1979 45.6193C61.326 45.5828 61.4462 45.5645 61.5612 45.5645C61.6815 45.5645 61.8201 45.6089 61.9717 45.6952C62.2305 45.852 62.3664 46.1187 62.3769 46.4977H62.6566V46.9264H60.4502ZM62.1494 49.7812C61.9508 49.6008 61.7416 49.4361 61.5168 49.2792C61.4096 49.206 61.2318 49.1224 60.9809 49.0309C60.7822 48.9603 60.6672 48.9237 60.6332 48.9237L60.6384 48.3512C60.6802 48.3512 60.743 48.3538 60.8266 48.359C60.9103 48.3643 60.9757 48.3669 61.0175 48.3669C61.2397 48.3669 61.4201 48.3381 61.5586 48.2806C61.8227 48.1708 61.9534 48.0401 61.9534 47.8885C61.9534 47.7787 61.9037 47.6872 61.8018 47.614C61.705 47.5565 61.6057 47.5016 61.5063 47.4493C61.4776 47.4362 61.4514 47.4284 61.4227 47.4284C61.3626 47.4284 61.2998 47.4441 61.2292 47.4728C61.143 47.512 61.1037 47.5591 61.109 47.6088C61.1273 47.7369 61.2606 47.7891 61.509 47.7682L61.2449 48.1734C61.1377 48.1813 61.0279 48.1473 60.9181 48.0715C60.7168 47.9355 60.6175 47.7708 60.6175 47.5748C60.6175 47.3787 60.7195 47.2271 60.9234 47.1173C61.0907 47.0258 61.2815 46.9814 61.4959 46.9814C61.59 46.9814 61.671 46.997 61.7364 47.0258C61.8044 47.0572 61.8723 47.0911 61.9429 47.1277C62.2749 47.2977 62.4422 47.5539 62.4422 47.8989C62.4422 48.1447 62.3403 48.3433 62.1364 48.4976C61.9795 48.6126 61.7573 48.6963 61.4671 48.7459C61.5534 48.7878 61.6789 48.8557 61.841 48.9525C62.1181 49.1616 62.3403 49.3498 62.5102 49.5145L62.1494 49.7812Z" fill="#902B86"/>
<path d="M65.5814 46.9261V49.3704H65.0925V48.4005C65.0925 48.3169 65.0559 48.2306 64.9827 48.1391C64.9095 48.0502 64.8311 48.0058 64.7501 48.0058C64.6742 48.0058 64.601 48.0528 64.5331 48.1469C64.4651 48.2411 64.4285 48.3482 64.4285 48.4685H63.9004C63.9004 48.3326 63.8665 48.2175 63.7959 48.1182C63.7253 48.0188 63.6469 47.9718 63.5554 47.9718C63.4795 47.9718 63.4063 47.9979 63.3358 48.0528C63.2652 48.1077 63.2286 48.1705 63.2207 48.2411L63.205 48.3692V48.4188C63.205 48.6698 63.3593 48.7953 63.6652 48.7953C63.7122 48.7953 63.7959 48.7848 63.9135 48.7639L63.741 49.258C63.6416 49.2684 63.5789 49.2763 63.558 49.2763C63.3279 49.2763 63.1188 49.1926 62.9253 49.0227C62.8495 48.9573 62.7868 48.8606 62.7371 48.7273C62.6927 48.6097 62.6691 48.4946 62.6691 48.3822C62.6691 48.1182 62.7502 47.9038 62.9123 47.7391C63.0743 47.5744 63.2887 47.4934 63.5527 47.4934C63.7985 47.4934 64.005 47.611 64.1723 47.8437C64.3527 47.6084 64.5461 47.4934 64.7553 47.4934C64.8703 47.4934 64.9801 47.5457 65.0873 47.6502V46.9287H62.4521V46.5H65.8611V46.9287H65.5814V46.9261Z" fill="#902B86"/>
<path d="M69.2487 46.9277H67.0449V46.499H70.0931V46.9277H69.7533V49.372H69.3219C69.2801 49.2465 69.0683 49.0531 68.6867 48.7891C68.5298 48.6819 68.3154 48.5773 68.0409 48.4754C67.7481 48.3682 67.5181 48.3133 67.3429 48.3133L67.2122 47.827C67.3273 47.7355 67.641 47.5787 68.1586 47.3565C68.3808 47.2571 68.7442 47.116 69.2487 46.9277ZM69.2775 47.4558C69.186 47.4872 69.0892 47.5212 68.9847 47.563C68.8304 47.631 68.5533 47.7538 68.1481 47.929L68.054 47.9708C68.4409 48.1068 68.8095 48.3054 69.1624 48.5695C69.2069 48.6035 69.2461 48.6322 69.2775 48.6557V47.4558Z" fill="#902B86"/>
<path d="M70.9154 46.9265C70.7612 47.1408 70.6828 47.316 70.6828 47.4571C70.6828 47.5225 70.7612 47.7787 70.9207 48.231C71.0017 48.4584 71.0435 48.6466 71.0435 48.7956C71.0435 49.0806 70.8841 49.2792 70.5651 49.3917C70.4684 49.4283 70.2959 49.4596 70.0449 49.4831L70.1102 49.0596C70.3978 48.9995 70.5442 48.8976 70.5442 48.7538C70.5442 48.6205 70.4841 48.4166 70.3638 48.1421C70.2436 47.8676 70.1834 47.6663 70.1834 47.5356C70.1834 47.3683 70.254 47.1644 70.3926 46.9239H69.8828V46.4951H71.2474V46.9239H70.9154V46.9265Z" fill="#902B86"/>
<path d="M71.9636 46.9277V49.372H71.4721V46.9277H71.1113V46.499H72.2877V46.9277H71.9636Z" fill="#902B86"/>
<path d="M73.0892 48.0843C72.8591 48.0843 72.6761 48.011 72.5376 47.8673C72.399 47.7235 72.3311 47.5379 72.3311 47.3104C72.3311 47.1013 72.4016 46.9262 72.5428 46.785C72.684 46.6438 72.8617 46.5732 73.0735 46.5732C73.3611 46.5732 73.5676 46.717 73.6957 47.0046C73.7506 47.1275 73.7793 47.2477 73.7793 47.3653C73.7793 47.5849 73.7192 47.7601 73.599 47.8882C73.4813 48.0189 73.3114 48.0843 73.0892 48.0843ZM73.6251 49.658C73.0055 49.1352 72.5846 48.8241 72.3624 48.7169L72.3676 48.0398C73.2199 48.6489 73.7767 49.1352 74.0408 49.4985V50.0005L73.6251 49.658ZM73.1911 47.0882C73.1415 47.0543 73.0944 47.0412 73.0447 47.0464C72.8591 47.0778 72.7676 47.1693 72.7676 47.3209C72.7676 47.3993 72.799 47.4699 72.8591 47.5379C72.9193 47.6032 72.9898 47.6372 73.0657 47.6372L73.1336 47.6268C73.2722 47.5823 73.3428 47.4987 73.3428 47.3732C73.3428 47.2555 73.2931 47.1588 73.1911 47.0882Z" fill="#902B86"/>
<path d="M77.1158 46.2102C76.5459 45.852 76.0806 45.6716 75.7172 45.6716C75.2885 45.6716 74.9748 45.8076 74.7735 46.0795C74.7055 46.1736 74.6663 46.3121 74.6584 46.4951H75.0009V46.9238H74.6584V49.3681H74.1617V46.9238H73.835V46.4951H74.1617C74.1722 46.1474 74.2872 45.8651 74.5042 45.6507C74.7212 45.4337 75.0192 45.3004 75.393 45.2507C75.4323 45.2481 75.5028 45.2377 75.6126 45.2246H75.7172C76.0152 45.2246 76.3106 45.29 76.606 45.4181C76.7655 45.4913 77.0269 45.6403 77.3903 45.8651L77.1158 46.2102Z" fill="#902B86"/>
<path d="M76.71 46.9277V46.9434C76.9139 46.9539 77.1283 47.0193 77.3479 47.1369C77.659 47.3068 77.8158 47.5369 77.8158 47.8297C77.8158 47.9996 77.7635 48.146 77.659 48.2715C77.5544 48.3943 77.4185 48.478 77.2511 48.5172C77.0838 48.5564 76.9401 48.5616 76.8224 48.5355V48.0728C76.8773 48.0806 76.9296 48.0832 76.9767 48.0832C77.2224 48.0832 77.3453 47.9943 77.3453 47.8192C77.3453 47.6101 77.1335 47.4767 76.71 47.4218V49.372H76.2787C76.2081 49.2361 76.1401 49.1315 76.0695 49.0583C76.046 49.0322 75.9832 48.9511 75.8813 48.8152C75.8499 48.7708 75.7924 48.7159 75.7087 48.6479C75.6251 48.5799 75.5676 48.525 75.5362 48.4806C75.5231 48.4597 75.4839 48.4388 75.4212 48.4152C75.2094 48.342 75.0369 48.3028 74.9062 48.3028L74.7755 47.8166C74.8827 47.7382 75.1258 47.5944 75.5048 47.38C75.5336 47.3591 75.6486 47.2911 75.8499 47.1761C75.9231 47.1317 76.046 47.0611 76.2159 46.9644V46.9277H74.6709V46.499H78.0276V46.9277H76.71ZM76.2211 47.4924C76.1427 47.5525 76.0198 47.6336 75.8578 47.7355C75.8159 47.7538 75.7689 47.7878 75.714 47.8401C75.6591 47.8924 75.6094 47.9421 75.5597 47.9839C75.612 48.0309 75.6957 48.0963 75.8107 48.1826C75.9179 48.3054 76.0564 48.4544 76.2211 48.6348V47.4924Z" fill="#902B86"/>
<path d="M78.7611 48.0843C78.531 48.0843 78.348 48.011 78.2095 47.8673C78.0709 47.7235 78.0029 47.5379 78.0029 47.3104C78.0029 47.1013 78.0735 46.9262 78.2147 46.785C78.3559 46.6438 78.5336 46.5732 78.7454 46.5732C79.0329 46.5732 79.2395 46.717 79.3676 47.0046C79.4225 47.1275 79.4512 47.2477 79.4512 47.3653C79.4512 47.5849 79.3911 47.7601 79.2708 47.8882C79.1532 48.0189 78.9833 48.0843 78.7611 48.0843ZM79.2944 49.658C78.6748 49.1352 78.2539 48.8241 78.0317 48.7169L78.0369 48.0398C78.8892 48.6489 79.446 49.1352 79.71 49.4985V50.0005L79.2944 49.658ZM78.863 47.0882C78.8133 47.0543 78.7663 47.0412 78.7166 47.0464C78.531 47.0778 78.4395 47.1693 78.4395 47.3209C78.4395 47.3993 78.4709 47.4699 78.531 47.5379C78.5911 47.6032 78.6617 47.6372 78.7375 47.6372L78.8055 47.6268C78.9441 47.5823 79.0146 47.4987 79.0146 47.3732C79.0146 47.2555 78.965 47.1588 78.863 47.0882Z" fill="#902B86"/>
<path d="M24.7168 49.5777L25.6292 49.8862L25.9925 49.5777L25.0828 49.2588L24.7168 49.5777Z" fill="#902B86"/>
<path d="M25.0207 47.0506V46.499H17.8682V47.0506H19.0707V48.2819C19.0707 48.2819 19.9909 48.2819 20.1033 48.2819C20.1033 48.2819 20.3961 48.1878 20.4667 48.0388C20.4667 48.2139 20.4667 48.4571 20.4667 48.525C20.4667 48.742 20.3046 48.9302 20.1033 48.9302C19.902 48.9302 18.676 48.9302 18.5845 48.9302C18.493 48.9302 18.4015 48.8884 18.4015 48.525C18.4015 48.159 18.4015 47.3774 18.4015 47.3774H17.8682C17.8682 47.3774 17.8682 48.7289 17.8682 48.8492C17.8682 48.9694 17.944 49.4008 18.3283 49.4008C18.7126 49.4008 20.3046 49.4008 20.3857 49.4008C20.7072 49.3903 20.9347 49.0635 20.953 48.7891C20.953 48.1956 20.953 47.3774 20.953 47.3774H20.4667C20.417 47.5944 20.4458 47.7408 20.2236 47.7957C20.0014 47.7957 19.6171 47.7957 19.6171 47.7957V47.0506H21.3791V49.4008H21.9856V47.0506H22.4117V49.4008C22.4117 49.4008 24.273 49.4008 24.4168 49.4008C24.558 49.4008 25.0233 49.2831 25.0233 48.7681C25.0233 48.2558 25.0233 47.3774 25.0233 47.3774H24.5371C24.5371 47.5133 24.5161 47.7146 24.2939 47.7146C24.0717 47.7146 22.9581 47.7146 22.9581 47.7146V47.0506H25.0207ZM24.2312 48.2009C24.3227 48.227 24.443 48.0806 24.5344 47.9577C24.5344 48.0937 24.5344 48.3081 24.5344 48.525C24.5344 48.742 24.3619 48.9302 24.2312 48.9302C24.1005 48.9302 22.9555 48.9302 22.9555 48.9302V48.2009C22.9581 48.2009 24.1214 48.2009 24.2312 48.2009Z" fill="#902B86"/>
<path d="M26.9031 47.7119H25.6875V48.3602H26.9031V47.7119Z" fill="#902B86"/>
<path d="M27.5713 46.498V47.0496H29.5712V47.3764H27.5713C27.5713 47.3764 27.5713 48.592 27.5713 48.6861C27.6157 49.1122 27.8327 49.3998 28.2484 49.3998C28.7451 49.3998 30.0574 49.3998 30.0574 49.3998V47.0496H30.4835V49.3998H31.0299V46.498H27.5713ZM29.5712 49.0103C29.5712 49.0103 28.4078 49.0103 28.3556 49.0103C28.1726 48.9841 28.0523 48.7672 28.0523 48.5241C28.0523 48.2809 28.0523 47.8757 28.0523 47.8757H29.5712V49.0103Z" fill="#902B86"/>
<path d="M33.6553 47.0477H36.1336V47.3745C36.0212 47.3745 35.4748 47.3745 35.4042 47.3745C35.3728 47.6045 34.999 47.7274 34.918 47.3745C34.5127 47.3745 33.6553 47.3745 33.6553 47.3745C33.6553 47.3745 33.6553 48.6293 33.6553 48.7652C33.6553 48.9012 33.6762 49.343 34.0474 49.3979C34.3925 49.3979 35.0408 49.3979 35.0408 49.3979V48.9273C35.0408 48.9273 34.4944 48.9273 34.3742 48.9273C34.2435 48.8855 34.1311 48.807 34.1311 48.6031C34.1311 48.36 34.1311 47.8738 34.1311 47.8738H34.8003V48.279H35.4068V47.9548C35.365 47.8058 36.0447 47.8189 36.0761 47.9548C36.0761 48.1561 36.0761 49.3979 36.0761 49.3979H36.6224V47.0477H36.9858V49.3979H37.5322V46.4961H33.6579V47.0477H33.6553Z" fill="#902B86"/>
<path d="M32.7924 46.6602C32.5702 46.6602 31.501 46.6602 31.501 46.6602C31.501 46.6602 31.501 47.3006 31.501 47.4209C31.5506 47.664 31.6814 47.9646 32.1232 47.9882C32.5676 47.9882 33.1558 47.9882 33.1558 47.9882V47.0497C33.127 46.8902 33.0172 46.6863 32.7924 46.6602ZM32.4003 47.4732C32.1676 47.4732 31.9794 47.3869 31.9794 47.2823C31.9794 47.1778 32.1676 47.0915 32.4003 47.0915C32.6329 47.0915 32.8212 47.1778 32.8212 47.2823C32.8212 47.3869 32.6329 47.4732 32.4003 47.4732Z" fill="#902B86"/>
<path d="M31.5898 48.2744V48.7528L33.1479 49.3985V48.8914L31.5898 48.2744Z" fill="#902B86"/>
<path d="M45.8783 46.6562C45.6561 46.6562 44.5869 46.6562 44.5869 46.6562C44.5869 46.6562 44.5869 47.2967 44.5869 47.417C44.6366 47.6601 44.7673 47.9607 45.2091 47.9843C45.6535 47.9843 46.2417 47.9843 46.2417 47.9843V47.0458C46.213 46.8863 46.1005 46.6824 45.8783 46.6562ZM45.4862 47.4693C45.2535 47.4693 45.0653 47.383 45.0653 47.2784C45.0653 47.1739 45.2535 47.0876 45.4862 47.0876C45.7189 47.0876 45.9071 47.1739 45.9071 47.2784C45.9071 47.383 45.7189 47.4693 45.4862 47.4693Z" fill="#902B86"/>
<path d="M44.6709 48.2744V48.7528L46.2316 49.3985V48.8914L44.6709 48.2744Z" fill="#902B86"/>
<path d="M49.1873 47.3745V47.0477H50.1938V46.4961H46.7012V47.0477H48.7011V47.3745H46.7012C46.7012 47.3745 46.7012 48.5901 46.7012 48.6842C46.7456 49.1103 46.9626 49.3979 47.3783 49.3979C47.875 49.3979 49.1873 49.3979 49.1873 49.3979V47.9548H49.6735C49.7546 47.9548 49.7755 47.913 49.7938 48.0359C49.7938 48.1849 49.7938 48.279 49.7938 48.279C49.7624 48.3992 49.752 48.4829 49.6735 48.5221C49.5925 48.5221 49.4958 48.5221 49.4958 48.5221V49.0083H49.8565C49.9768 48.9953 50.2016 48.8593 50.2199 48.6842C50.2199 48.4149 50.2199 47.3745 50.2199 47.3745H49.1873ZM48.7011 49.0083C48.7011 49.0083 47.5377 49.0083 47.4881 49.0083C47.3051 48.9822 47.1848 48.7652 47.1848 48.5221C47.1848 48.279 47.1848 47.8738 47.1848 47.8738H48.6932L48.7011 47.9548V49.0083Z" fill="#902B86"/>
<path d="M39.165 46.498V47.0496H41.1649V47.3764H39.165C39.165 47.3764 39.165 48.592 39.165 48.6861C39.2069 49.1122 39.4265 49.3998 39.8421 49.3998C40.3388 49.3998 41.6512 49.3998 41.6512 49.3998V47.0496H42.2838L42.0538 47.5097V47.8339C42.0538 47.8339 42.3988 47.8339 42.4799 47.8339C42.7047 47.86 42.7831 48.0091 42.7831 48.4012C42.7831 48.6704 42.7204 48.8665 42.5112 48.8874C42.3805 48.8874 42.1139 48.8874 42.1139 48.8874V49.3737C42.1139 49.3737 42.4171 49.3737 42.54 49.3737C42.6603 49.3737 43.2171 49.4286 43.2694 48.8874C43.3295 47.7921 43.3818 47.5097 42.6001 47.4287L42.7152 47.0496H43.57V49.3998H44.1164V46.498H39.165ZM41.1649 49.0103C41.1649 49.0103 40.0016 49.0103 39.9493 49.0103C39.7663 48.9841 39.6461 48.7672 39.6461 48.5241C39.6461 48.2809 39.6461 47.8757 39.6461 47.8757H41.1649V49.0103Z" fill="#902B86"/>
</svg>
