<svg width="12" height="80" viewBox="0 0 12 80" fill="none" xmlns="http://www.w3.org/2000/svg">
<path opacity="0.4" d="M6 0.666667C3.05448 0.666667 0.666666 3.05448 0.666667 6C0.666667 8.94552 3.05448 11.3333 6 11.3333C8.94552 11.3333 11.3333 8.94552 11.3333 6C11.3333 3.05448 8.94552 0.666666 6 0.666667ZM6 68.6667C3.05448 68.6667 0.666669 71.0545 0.666669 74C0.66667 76.9455 3.05448 79.3333 6 79.3333C8.94552 79.3333 11.3333 76.9455 11.3333 74C11.3333 71.0545 8.94552 68.6667 6 68.6667ZM5 6L5 74L7 74L7 6L5 6Z" fill="#8086B2"/>
</svg>
