<svg width="183" height="114" viewBox="0 0 183 114" fill="none" xmlns="http://www.w3.org/2000/svg">
<g clip-path="url(#clip0_315_7217)">
<path d="M0.950996 61.1962H41.7141C41.9655 61.1959 42.2064 61.0959 42.3841 60.9182C42.5618 60.7405 42.6618 60.4996 42.6621 60.2482V35.032C42.6618 34.7806 42.5618 34.5397 42.3841 34.362C42.2064 34.1842 41.9655 34.0843 41.7141 34.084H0.950996C0.699665 34.0843 0.458706 34.1842 0.280987 34.362C0.103271 34.5397 0.0032959 34.7806 0.0030098 35.032V60.2482C0.0032959 60.4996 0.103271 60.7405 0.280987 60.9182C0.458706 61.0959 0.699665 61.1959 0.950996 61.1962Z" fill="white"/>
<path d="M0.950996 61.1962H41.7141C41.9655 61.1959 42.2064 61.0959 42.3841 60.9182C42.5618 60.7405 42.6618 60.4996 42.6621 60.2482V35.032C42.6618 34.7806 42.5618 34.5397 42.3841 34.362C42.2064 34.1842 41.9655 34.0843 41.7141 34.084H0.950996C0.699665 34.0843 0.458706 34.1842 0.280987 34.362C0.103271 34.5397 0.0032959 34.7806 0.0030098 35.032V60.2482C0.0032959 60.4996 0.103271 60.7405 0.280987 60.9182C0.458706 61.0959 0.699665 61.1959 0.950996 61.1962ZM41.7141 34.4632C41.8649 34.4633 42.0095 34.5233 42.1161 34.63C42.2228 34.7366 42.2828 34.8812 42.2829 35.032V60.2482C42.2828 60.399 42.2228 60.5436 42.1161 60.6502C42.0095 60.7569 41.8649 60.8168 41.7141 60.817H0.950996C0.800194 60.8168 0.655617 60.7569 0.548985 60.6502C0.442352 60.5436 0.382362 60.399 0.382198 60.2482V35.032C0.382362 34.8812 0.442352 34.7366 0.548985 34.63C0.655617 34.5233 0.800194 34.4633 0.950996 34.4632H41.7141Z" fill="#3F3D56"/>
<path d="M9.00813 42.5062H33.6556C33.8819 42.5062 34.0989 42.4163 34.2589 42.2563C34.4189 42.0963 34.5088 41.8793 34.5088 41.653C34.5088 41.4267 34.4189 41.2097 34.2589 41.0497C34.0989 40.8897 33.8819 40.7998 33.6556 40.7998H9.00813C8.78185 40.7998 8.56484 40.8897 8.40483 41.0497C8.24483 41.2097 8.15494 41.4267 8.15494 41.653C8.15494 41.8793 8.24483 42.0963 8.40483 42.2563C8.56484 42.4163 8.78185 42.5062 9.00813 42.5062Z" fill="#CCCCCC"/>
<path d="M9.00813 48.3831H33.6556C33.8819 48.3831 34.0989 48.2932 34.2589 48.1332C34.4189 47.9732 34.5088 47.7562 34.5088 47.5299C34.5088 47.3037 34.4189 47.0867 34.2589 46.9267C34.0989 46.7667 33.8819 46.6768 33.6556 46.6768H9.00813C8.78185 46.6768 8.56484 46.7667 8.40483 46.9267C8.24483 47.0867 8.15494 47.3037 8.15494 47.5299C8.15494 47.7562 8.24483 47.9732 8.40483 48.1332C8.56484 48.2932 8.78185 48.3831 9.00813 48.3831Z" fill="#CCCCCC"/>
<path d="M11.2039 57.7016C9.51996 57.7016 8.15486 56.3365 8.15486 54.6526C8.15486 52.9686 9.51996 51.6035 11.2039 51.6035C12.8878 51.6035 14.2529 52.9686 14.2529 54.6526C14.2529 56.3365 12.8878 57.7016 11.2039 57.7016Z" fill="#6ED56E"/>
<path d="M11.1201 53.2163V52.9258H11.0341V53.2163C10.9123 53.2216 10.7929 53.2508 10.6824 53.3023C10.6023 53.3399 10.5332 53.3975 10.4818 53.4695C10.4342 53.5362 10.4088 53.616 10.4091 53.6979C10.4073 53.7577 10.4274 53.8161 10.4655 53.8622C10.482 53.8832 10.503 53.9002 10.527 53.9118C10.551 53.9234 10.5774 53.9293 10.6041 53.9291C10.624 53.9295 10.6437 53.9258 10.6621 53.9183C10.6806 53.9107 10.6972 53.8994 10.7111 53.8852C10.7255 53.871 10.7368 53.854 10.7444 53.8353C10.7519 53.8165 10.7556 53.7964 10.755 53.7762C10.755 53.748 10.7491 53.72 10.7378 53.6941L10.7034 53.6214C10.6913 53.5911 10.6854 53.5586 10.6862 53.5259C10.6853 53.4752 10.7014 53.4258 10.7321 53.3854C10.7656 53.3432 10.8108 53.3116 10.8621 53.2946C10.9178 53.2763 10.9755 53.2648 11.0341 53.2602V54.3056L11.0149 54.3171C10.8353 54.4122 10.6721 54.5354 10.5314 54.6821C10.4691 54.7558 10.4197 54.8395 10.3852 54.9296C10.3509 55.017 10.3331 55.11 10.3327 55.2038C10.3311 55.3253 10.3628 55.445 10.4244 55.5497C10.4846 55.652 10.5728 55.7349 10.6786 55.7886C10.7902 55.8434 10.9105 55.8783 11.0341 55.8918V56.2034H11.1201V55.8976C11.2448 55.8966 11.3681 55.8713 11.4832 55.823C11.5979 55.7804 11.6992 55.7078 11.7765 55.6128C11.8446 55.5277 11.8813 55.4218 11.8807 55.3128C11.8831 55.2362 11.8595 55.1611 11.8138 55.0997C11.7957 55.0732 11.7715 55.0514 11.7432 55.0363C11.7149 55.0211 11.6834 55.0131 11.6514 55.0127C11.6321 55.0121 11.613 55.0153 11.5951 55.0224C11.5772 55.0294 11.5609 55.0401 11.5473 55.0537C11.5336 55.0673 11.523 55.0835 11.5159 55.1014C11.5088 55.1193 11.5055 55.1384 11.5061 55.1577C11.5126 55.2165 11.5373 55.2718 11.5768 55.3159C11.5974 55.3432 11.615 55.3726 11.6294 55.4036C11.6392 55.4279 11.6441 55.4538 11.6437 55.4799C11.6434 55.5496 11.6195 55.6171 11.5759 55.6715C11.5283 55.7324 11.4653 55.7795 11.3934 55.8078C11.3112 55.8399 11.2235 55.8554 11.1354 55.8536H11.1201V54.6057L11.229 54.5426C11.3322 54.4827 11.4109 54.433 11.465 54.3935C11.5179 54.3552 11.5669 54.3116 11.6112 54.2636C11.721 54.1466 11.7819 53.9921 11.7813 53.8316C11.7818 53.7318 11.7568 53.6335 11.7087 53.546C11.6615 53.4587 11.5923 53.3852 11.508 53.3328C11.3906 53.262 11.2571 53.2219 11.1201 53.2163ZM11.1201 53.2583C11.1941 53.2606 11.267 53.2768 11.3351 53.306C11.4031 53.3397 11.4589 53.3937 11.4949 53.4605C11.5359 53.5332 11.5569 53.6155 11.5558 53.6989C11.5566 53.8007 11.5253 53.9001 11.4664 53.9831C11.4352 54.0283 11.3977 54.0688 11.3551 54.1034C11.2861 54.1548 11.2139 54.202 11.1391 54.2445L11.1201 54.2559V53.2583ZM11.0341 55.8498C10.9848 55.8457 10.9362 55.8354 10.8895 55.8192C10.8516 55.8046 10.8162 55.7839 10.7848 55.7581C10.7258 55.7078 10.6801 55.6438 10.6516 55.5718C10.6184 55.4922 10.6016 55.4067 10.6022 55.3204C10.6097 55.182 10.6537 55.048 10.7295 54.9319C10.8053 54.8158 10.9104 54.7218 11.0341 54.6592V55.8498Z" fill="white"/>
<path d="M28.7186 44.3173H69.4817C69.733 44.317 69.974 44.217 70.1517 44.0393C70.3294 43.8616 70.4294 43.6207 70.4297 43.3693V18.1531C70.4294 17.9017 70.3294 17.6608 70.1517 17.4831C69.974 17.3053 69.733 17.2054 69.4817 17.2051H28.7186C28.4672 17.2054 28.2263 17.3053 28.0486 17.4831C27.8708 17.6608 27.7709 17.9017 27.7706 18.1531V43.3693C27.7709 43.6207 27.8708 43.8616 28.0486 44.0393C28.2263 44.217 28.4672 44.317 28.7186 44.3173Z" fill="white"/>
<path d="M28.7186 44.3173H69.4817C69.733 44.317 69.974 44.217 70.1517 44.0393C70.3294 43.8616 70.4294 43.6207 70.4297 43.3693V18.1531C70.4294 17.9017 70.3294 17.6608 70.1517 17.4831C69.974 17.3053 69.733 17.2054 69.4817 17.2051H28.7186C28.4672 17.2054 28.2263 17.3053 28.0486 17.4831C27.8708 17.6608 27.7709 17.9017 27.7706 18.1531V43.3693C27.7709 43.6207 27.8708 43.8616 28.0486 44.0393C28.2263 44.217 28.4672 44.317 28.7186 44.3173ZM69.4817 17.5843C69.6325 17.5844 69.7771 17.6444 69.8837 17.751C69.9903 17.8577 70.0503 18.0023 70.0505 18.1531V43.3693C70.0503 43.5201 69.9903 43.6647 69.8837 43.7713C69.7771 43.878 69.6325 43.9379 69.4817 43.9381H28.7186C28.5678 43.9379 28.4232 43.878 28.3166 43.7713C28.2099 43.6647 28.1499 43.5201 28.1498 43.3693V18.1531C28.1499 18.0023 28.2099 17.8577 28.3166 17.751C28.4232 17.6444 28.5678 17.5844 28.7186 17.5843H69.4817Z" fill="#3F3D56"/>
<path d="M36.7767 25.6273H61.4242C61.6504 25.6273 61.8675 25.5374 62.0275 25.3774C62.1875 25.2174 62.2773 25.0004 62.2773 24.7741C62.2773 24.5478 62.1875 24.3308 62.0275 24.1708C61.8675 24.0108 61.6504 23.9209 61.4242 23.9209H36.7767C36.5504 23.9209 36.3334 24.0108 36.1734 24.1708C36.0134 24.3308 35.9235 24.5478 35.9235 24.7741C35.9235 25.0004 36.0134 25.2174 36.1734 25.3774C36.3334 25.5374 36.5504 25.6273 36.7767 25.6273Z" fill="#CCCCCC"/>
<path d="M36.7767 31.5042H61.4242C61.6504 31.5042 61.8675 31.4143 62.0275 31.2543C62.1875 31.0943 62.2773 30.8773 62.2773 30.651C62.2773 30.4248 62.1875 30.2078 62.0275 30.0477C61.8675 29.8877 61.6504 29.7979 61.4242 29.7979H36.7767C36.5504 29.7979 36.3334 29.8877 36.1734 30.0477C36.0134 30.2078 35.9235 30.4248 35.9235 30.651C35.9235 30.8773 36.0134 31.0943 36.1734 31.2543C36.3334 31.4143 36.5504 31.5042 36.7767 31.5042Z" fill="#CCCCCC"/>
<path d="M38.9724 40.8237C37.2885 40.8237 35.9234 39.4586 35.9234 37.7746C35.9234 36.0907 37.2885 34.7256 38.9724 34.7256C40.6564 34.7256 42.0215 36.0907 42.0215 37.7746C42.0215 39.4586 40.6564 40.8237 38.9724 40.8237Z" fill="#6ED56E"/>
<path d="M38.8886 36.3374V36.0469H38.8026V36.3374C38.6809 36.3427 38.5614 36.3719 38.451 36.4234C38.3709 36.461 38.3018 36.5186 38.2503 36.5906C38.2028 36.6573 38.1774 36.7371 38.1777 36.819C38.1759 36.8788 38.1959 36.9372 38.2341 36.9833C38.2505 37.0043 38.2716 37.0213 38.2956 37.0329C38.3196 37.0445 38.346 37.0504 38.3726 37.0502C38.3925 37.0506 38.4123 37.0469 38.4307 37.0393C38.4491 37.0318 38.4658 37.0205 38.4796 37.0063C38.494 36.9921 38.5054 36.9751 38.5129 36.9564C38.5205 36.9376 38.5241 36.9175 38.5236 36.8973C38.5235 36.8691 38.5177 36.8411 38.5064 36.8152L38.472 36.7425C38.4598 36.7122 38.454 36.6797 38.4548 36.647C38.4538 36.5963 38.47 36.5469 38.5006 36.5065C38.5342 36.4643 38.5794 36.4327 38.6306 36.4157C38.6864 36.3974 38.7441 36.3859 38.8026 36.3813V37.4267L38.7835 37.4382C38.6039 37.5333 38.4406 37.6565 38.3 37.8032C38.2377 37.8769 38.1883 37.9606 38.1538 38.0507C38.1195 38.1381 38.1016 38.2311 38.1012 38.3249C38.0997 38.4464 38.1314 38.5661 38.193 38.6708C38.2531 38.7731 38.3413 38.856 38.4471 38.9097C38.5588 38.9645 38.679 38.9994 38.8026 39.0129V39.3244H38.8886V39.0187C39.0133 39.0177 39.1367 38.9924 39.2517 38.9441C39.3665 38.9015 39.4678 38.8289 39.5451 38.7339C39.6131 38.6488 39.6499 38.5429 39.6492 38.4339C39.6517 38.3573 39.6281 38.2822 39.5824 38.2208C39.5643 38.1942 39.5401 38.1725 39.5118 38.1574C39.4835 38.1422 39.452 38.1342 39.4199 38.1338C39.4007 38.1331 39.3815 38.1364 39.3636 38.1435C39.3457 38.1505 39.3294 38.1612 39.3158 38.1748C39.3022 38.1883 39.2915 38.2046 39.2844 38.2225C39.2774 38.2404 39.274 38.2595 39.2747 38.2788C39.2812 38.3376 39.3059 38.3929 39.3454 38.437C39.366 38.4643 39.3836 38.4937 39.3979 38.5247C39.4077 38.549 39.4126 38.5749 39.4123 38.601C39.4119 38.6707 39.388 38.7382 39.3444 38.7926C39.2968 38.8535 39.2338 38.9006 39.1619 38.9289C39.0797 38.961 38.9921 38.9765 38.9039 38.9747H38.8886V37.7268L38.9976 37.6637C39.1008 37.6038 39.1794 37.5541 39.2336 37.5146C39.2865 37.4762 39.3355 37.4327 39.3798 37.3847C39.4896 37.2677 39.5504 37.1132 39.5499 36.9527C39.5504 36.8529 39.5254 36.7545 39.4773 36.6671C39.4301 36.5798 39.3609 36.5063 39.2766 36.4539C39.1591 36.3831 39.0257 36.343 38.8886 36.3374ZM38.8886 36.3794C38.9627 36.3817 39.0356 36.3979 39.1036 36.4271C39.1716 36.4608 39.2275 36.5148 39.2635 36.5816C39.3045 36.6543 39.3255 36.7366 39.3244 36.82C39.3252 36.9218 39.2939 37.0212 39.235 37.1042C39.2038 37.1494 39.1663 37.1899 39.1236 37.2244C39.0546 37.2759 38.9825 37.3231 38.9076 37.3656L38.8886 37.377V36.3794ZM38.8026 38.9709C38.7533 38.9668 38.7048 38.9565 38.658 38.9403C38.6201 38.9256 38.5848 38.905 38.5534 38.8792C38.4944 38.8289 38.4487 38.7649 38.4202 38.6929C38.387 38.6133 38.3701 38.5278 38.3707 38.4415C38.3783 38.3031 38.4222 38.1691 38.498 38.053C38.5739 37.9369 38.6789 37.8428 38.8026 37.7803V38.9709Z" fill="white"/>
<path d="M113.22 40.5542C113.575 40.5285 113.931 40.581 114.264 40.708C114.597 40.835 114.898 41.0334 115.145 41.2892C115.393 41.545 115.581 41.852 115.698 42.1885C115.814 42.5251 115.855 42.883 115.818 43.2372L123.654 46.911L119.819 49.2596L112.965 45.4108C112.374 45.309 111.841 44.9941 111.467 44.5257C111.093 44.0573 110.904 43.4679 110.935 42.8692C110.967 42.2706 111.217 41.7043 111.638 41.2776C112.059 40.8509 112.622 40.5935 113.22 40.5542Z" fill="#FFB6B6"/>
<path d="M145.648 111.24L142.942 111.24L141.654 100.801L145.648 100.801L145.648 111.24Z" fill="#FFB6B6"/>
<path d="M146.339 110.356L141.009 110.355H141.009C140.108 110.356 139.244 110.713 138.607 111.35C137.97 111.987 137.612 112.851 137.612 113.752V113.862L146.339 113.863L146.339 110.356Z" fill="#2F2E41"/>
<path d="M131.838 111.24L129.132 111.24L127.844 100.801L131.839 100.801L131.838 111.24Z" fill="#FFB6B6"/>
<path d="M132.528 110.356L127.198 110.355H127.198C126.297 110.356 125.433 110.713 124.796 111.35C124.16 111.987 123.802 112.851 123.802 113.752V113.862L132.528 113.863L132.528 110.356Z" fill="#2F2E41"/>
<path d="M130.031 57.0947L128.657 60.0521L126.18 86.4999L128.105 109.232H132.608L137.921 73.4008L140.416 108.407L146.491 108.162L147.657 60.7011L130.031 57.0947Z" fill="#2F2E41"/>
<path d="M151.92 32.6891L146.225 30.3721L138.187 30.8229L131.04 33.4272L128.656 60.0528C134.873 63.4477 141.171 64.3744 147.578 61.9468L153.524 44.6048L151.92 32.6891Z" fill="#BFC2D9"/>
<path d="M133.264 34.1305L130.737 33.4266C130.737 33.4266 128.825 32.1838 128.196 35.8784C127.567 39.5731 124.331 45.3199 124.331 45.3199L118.791 42.3675L116.227 47.9688L124.975 53.2683L134.188 43.9853L133.264 34.1305Z" fill="#BFC2D9"/>
<path d="M147.127 25.4388C147.434 24.7424 147.601 23.9924 147.618 23.2316C147.635 22.4707 147.502 21.714 147.226 21.0045C146.951 20.2951 146.538 19.6468 146.013 19.0968C145.487 18.5467 144.857 18.1057 144.161 17.7988C143.465 17.4919 142.715 17.3251 141.954 17.3081C141.193 17.2911 140.436 17.424 139.727 17.6995C139.017 17.9749 138.369 18.3873 137.819 18.9133C137.269 19.4392 136.828 20.0683 136.521 20.7648L136.488 20.8414C135.878 22.2525 135.854 23.8481 136.42 25.2771C136.701 25.9847 137.118 26.6301 137.648 27.1764C138.178 27.7227 138.811 28.1594 139.509 28.4613C140.92 29.0711 142.516 29.0953 143.945 28.5287C145.374 27.962 146.519 26.8509 147.129 25.4398L147.127 25.4388Z" fill="#FFB6B6"/>
<path d="M139.259 20.1354C138.054 20.3541 136.19 21.1127 135.155 20.2227C135.666 19.6255 136.309 19.1552 137.033 18.849C137.175 18.8017 137.307 18.7271 137.421 18.6293C137.774 18.2728 137.502 17.6584 137.663 17.1763C137.742 17.0001 137.86 16.8445 138.009 16.7219C138.157 16.5992 138.333 16.5127 138.52 16.4693C138.88 16.3619 139.256 16.3444 139.609 16.2141C140.444 15.9003 141.038 15.0021 141.894 14.7581C142.639 14.5424 143.39 14.8776 144.033 15.2689C144.677 15.6601 145.314 16.1243 146.067 16.1985C146.629 16.2499 146.985 17.1754 147.55 17.2025C148.734 17.2601 148.668 16.4799 148.756 17.7234C148.806 18.4655 149.867 19.9418 149.849 20.6903C149.832 21.1808 149.919 21.6666 149.905 22.1586C149.873 23.0956 149.497 23.9881 148.849 24.6656C148.31 25.2198 147.609 25.5936 147.155 26.2253C146.92 26.5607 146.756 26.9521 146.481 27.2556C146.207 27.559 145.742 27.7416 145.435 27.525C145.129 27.3084 145.123 26.8395 144.971 26.4828C144.877 26.264 144.718 26.08 144.515 25.9563C144.312 25.8327 144.075 25.7757 143.838 25.7932C143.592 25.8254 143.359 25.9257 143.167 26.0828C142.975 26.2399 142.83 26.4475 142.749 26.6824C142.892 25.894 143.271 25.1552 143.415 24.3662C143.558 23.5772 143.371 22.6347 142.692 22.3266C142.4 22.1909 142.006 22.1544 141.889 21.8416C141.817 21.6532 141.882 21.4306 141.855 21.2268C141.706 20.2283 140.045 19.9812 139.259 20.1354Z" fill="#2F2E41"/>
<path d="M146.895 61.6391C146.947 61.2869 147.076 60.9503 147.272 60.6531C147.468 60.3559 147.727 60.1053 148.03 59.919C148.334 59.7327 148.674 59.6151 149.028 59.5747C149.382 59.5342 149.74 59.5718 150.078 59.6848L155.363 52.8311L156.824 57.0847L151.581 62.9409C151.354 63.4956 150.931 63.9476 150.392 64.2112C149.854 64.4748 149.238 64.5318 148.66 64.3713C148.082 64.2109 147.584 63.8441 147.258 63.3406C146.933 62.837 146.804 62.2316 146.895 61.6391Z" fill="#FFB6B6"/>
<path d="M150.095 33.9809L151.921 32.6882C151.921 32.6882 156.098 32.4489 156.705 35.878L164.363 48.476L154.868 61.5754L150.265 56.7294L156.073 49.9415L151.196 40.987L150.095 33.9809Z" fill="#BFC2D9"/>
<path d="M105.617 35.9782H105.713V33.3545C105.713 33.1551 105.752 32.9576 105.828 32.7733C105.905 32.5891 106.017 32.4217 106.158 32.2807C106.299 32.1397 106.466 32.0278 106.65 31.9515C106.834 31.8752 107.032 31.8359 107.231 31.8359H112.79C112.989 31.8359 113.187 31.8752 113.371 31.9515C113.555 32.0278 113.723 32.1397 113.864 32.2807C114.005 32.4217 114.117 32.5891 114.193 32.7733C114.269 32.9576 114.309 33.155 114.309 33.3545V47.7483C114.309 47.9477 114.269 48.1452 114.193 48.3294C114.117 48.5137 114.005 48.6811 113.864 48.8221C113.723 48.9631 113.555 49.075 113.371 49.1513C113.187 49.2276 112.989 49.2669 112.79 49.2669H107.231C107.032 49.2669 106.835 49.2276 106.65 49.1513C106.466 49.075 106.299 48.9631 106.158 48.8221C106.017 48.6811 105.905 48.5137 105.828 48.3295C105.752 48.1452 105.713 47.9478 105.713 47.7483V37.8458H105.617V35.9782Z" fill="#3F3D56"/>
<path d="M107.17 32.2314H107.896C107.862 32.3133 107.85 32.402 107.859 32.4899C107.868 32.5778 107.898 32.6621 107.947 32.7354C107.997 32.8088 108.063 32.8689 108.141 32.9104C108.219 32.952 108.306 32.9737 108.395 32.9737H111.579C111.667 32.9737 111.754 32.952 111.832 32.9104C111.91 32.8689 111.977 32.8088 112.026 32.7354C112.075 32.6621 112.106 32.5778 112.115 32.4899C112.124 32.402 112.111 32.3133 112.078 32.2314H112.756C113.056 32.2314 113.345 32.3509 113.557 32.5636C113.77 32.7763 113.89 33.0647 113.89 33.3655V47.7382C113.89 48.039 113.77 48.3274 113.557 48.5401C113.345 48.7528 113.056 48.8722 112.756 48.8722H107.17C106.869 48.8722 106.581 48.7528 106.368 48.5401C106.156 48.3274 106.036 48.039 106.036 47.7382V33.3655C106.036 33.0647 106.156 32.7763 106.368 32.5636C106.581 32.3509 106.869 32.2314 107.17 32.2314Z" fill="#6ED56E"/>
<path d="M57.0311 27.1122H97.7942C98.0455 27.1119 98.2865 27.012 98.4642 26.8342C98.6419 26.6565 98.7419 26.4156 98.7422 26.1642V0.947982C98.7419 0.69665 98.6419 0.455693 98.4642 0.277975C98.2865 0.100256 98.0455 0.000287632 97.7942 0H57.0311C56.7797 0.000287633 56.5388 0.100256 56.3611 0.277975C56.1833 0.455693 56.0834 0.69665 56.0831 0.947982V26.1642C56.0834 26.4156 56.1833 26.6565 56.3611 26.8342C56.5388 27.012 56.7797 27.1119 57.0311 27.1122Z" fill="white"/>
<path d="M57.0311 27.1122H97.7942C98.0455 27.1119 98.2865 27.012 98.4642 26.8342C98.6419 26.6565 98.7419 26.4156 98.7422 26.1642V0.947982C98.7419 0.69665 98.6419 0.455693 98.4642 0.277975C98.2865 0.100256 98.0455 0.000287632 97.7942 0H57.0311C56.7797 0.000287633 56.5388 0.100256 56.3611 0.277975C56.1833 0.455693 56.0834 0.69665 56.0831 0.947982V26.1642C56.0834 26.4156 56.1833 26.6565 56.3611 26.8342C56.5388 27.012 56.7797 27.1119 57.0311 27.1122ZM97.7942 0.379192C97.945 0.379357 98.0896 0.439337 98.1962 0.545969C98.3028 0.652602 98.3628 0.79718 98.363 0.947982V26.1642C98.3628 26.315 98.3028 26.4596 98.1962 26.5663C98.0896 26.6729 97.945 26.7329 97.7942 26.733H57.0311C56.8803 26.7329 56.7357 26.6729 56.6291 26.5663C56.5224 26.4596 56.4624 26.315 56.4623 26.1642V0.947982C56.4624 0.79718 56.5224 0.652602 56.6291 0.545969C56.7357 0.439337 56.8803 0.379357 57.0311 0.379192H97.7942Z" fill="#3F3D56"/>
<path d="M65.0882 8.42122H89.7357C89.962 8.42122 90.179 8.33133 90.339 8.17132C90.499 8.01132 90.5889 7.79431 90.5889 7.56803C90.5889 7.34175 90.499 7.12474 90.339 6.96474C90.179 6.80473 89.962 6.71484 89.7357 6.71484H65.0882C64.8619 6.71484 64.6449 6.80473 64.4849 6.96474C64.3249 7.12474 64.235 7.34175 64.235 7.56803C64.235 7.79431 64.3249 8.01132 64.4849 8.17132C64.6449 8.33133 64.8619 8.42122 65.0882 8.42122Z" fill="#CCCCCC"/>
<path d="M65.0882 14.2982H89.7357C89.962 14.2982 90.179 14.2083 90.339 14.0483C90.499 13.8883 90.5889 13.6713 90.5889 13.445C90.5889 13.2187 90.499 13.0017 90.339 12.8417C90.179 12.6817 89.962 12.5918 89.7357 12.5918H65.0882C64.8619 12.5918 64.6449 12.6817 64.4849 12.8417C64.3249 13.0017 64.235 13.2187 64.235 13.445C64.235 13.6713 64.3249 13.8883 64.4849 14.0483C64.6449 14.2083 64.8619 14.2982 65.0882 14.2982Z" fill="#CCCCCC"/>
<path d="M67.2849 23.6176C65.601 23.6176 64.2359 22.2525 64.2359 20.5686C64.2359 18.8846 65.601 17.5195 67.2849 17.5195C68.9689 17.5195 70.334 18.8846 70.334 20.5686C70.334 22.2525 68.9689 23.6176 67.2849 23.6176Z" fill="#6ED56E"/>
<path d="M67.2011 19.1333V18.8428H67.1151V19.1333C66.9934 19.1386 66.8739 19.1678 66.7635 19.2193C66.6834 19.2569 66.6143 19.3145 66.5628 19.3865C66.5153 19.4532 66.4899 19.533 66.4902 19.6149C66.4884 19.6747 66.5084 19.7331 66.5466 19.7792C66.563 19.8002 66.5841 19.8172 66.6081 19.8288C66.6321 19.8404 66.6585 19.8463 66.6851 19.8461C66.705 19.8465 66.7248 19.8428 66.7432 19.8352C66.7616 19.8277 66.7783 19.8164 66.7921 19.8022C66.8065 19.788 66.8179 19.771 66.8254 19.7523C66.833 19.7335 66.8366 19.7134 66.8361 19.6932C66.836 19.665 66.8302 19.637 66.8189 19.6111L66.7845 19.5384C66.7723 19.5081 66.7665 19.4756 66.7673 19.4429C66.7663 19.3922 66.7825 19.3428 66.8131 19.3024C66.8467 19.2602 66.8919 19.2286 66.9431 19.2116C66.9989 19.1933 67.0566 19.1818 67.1151 19.1772V20.2226L67.096 20.2341C66.9164 20.3291 66.7531 20.4524 66.6125 20.5991C66.5502 20.6728 66.5008 20.7565 66.4663 20.8466C66.432 20.934 66.4141 21.027 66.4137 21.1208C66.4122 21.2423 66.4439 21.362 66.5055 21.4667C66.5656 21.569 66.6538 21.6519 66.7596 21.7056C66.8713 21.7604 66.9915 21.7953 67.1151 21.8088V22.1203H67.2011V21.8146C67.3258 21.8136 67.4492 21.7883 67.5642 21.74C67.679 21.6974 67.7803 21.6248 67.8576 21.5298C67.9256 21.4447 67.9624 21.3388 67.9617 21.2298C67.9642 21.1532 67.9406 21.0781 67.8949 21.0166C67.8768 20.9901 67.8526 20.9684 67.8243 20.9533C67.796 20.9381 67.7645 20.9301 67.7324 20.9297C67.7132 20.929 67.694 20.9323 67.6761 20.9394C67.6582 20.9464 67.6419 20.9571 67.6283 20.9707C67.6147 20.9842 67.604 21.0005 67.5969 21.0184C67.5899 21.0363 67.5865 21.0554 67.5872 21.0747C67.5937 21.1335 67.6184 21.1888 67.6579 21.2329C67.6785 21.2602 67.6961 21.2896 67.7104 21.3206C67.7202 21.3449 67.7251 21.3708 67.7248 21.3969C67.7244 21.4666 67.7005 21.5341 67.6569 21.5885C67.6093 21.6494 67.5463 21.6965 67.4744 21.7248C67.3922 21.7569 67.3046 21.7724 67.2164 21.7706H67.2011V20.5227L67.3101 20.4596C67.4133 20.3997 67.4919 20.35 67.5461 20.3105C67.599 20.2721 67.648 20.2286 67.6923 20.1806C67.8021 20.0636 67.8629 19.9091 67.8624 19.7486C67.8629 19.6488 67.8379 19.5504 67.7898 19.463C67.7426 19.3757 67.6734 19.3022 67.5891 19.2498C67.4716 19.179 67.3382 19.1389 67.2011 19.1333ZM67.2011 19.1753C67.2752 19.1776 67.3481 19.1938 67.4161 19.223C67.4841 19.2567 67.54 19.3107 67.576 19.3775C67.617 19.4502 67.638 19.5325 67.6369 19.6159C67.6377 19.7177 67.6064 19.8171 67.5475 19.9001C67.5163 19.9453 67.4788 19.9858 67.4361 20.0203C67.3671 20.0718 67.295 20.119 67.2201 20.1615L67.2011 20.1729V19.1753ZM67.1151 21.7668C67.0658 21.7627 67.0173 21.7524 66.9705 21.7362C66.9326 21.7215 66.8973 21.7009 66.8659 21.6751C66.8069 21.6248 66.7612 21.5608 66.7327 21.4888C66.6995 21.4092 66.6826 21.3237 66.6832 21.2374C66.6908 21.099 66.7347 20.965 66.8105 20.8489C66.8864 20.7328 66.9914 20.6387 67.1151 20.5762V21.7668Z" fill="white"/>
<path d="M99.7053 114H182.683C182.74 114 182.796 113.977 182.837 113.936C182.877 113.895 182.9 113.84 182.9 113.782C182.9 113.724 182.877 113.669 182.837 113.628C182.796 113.587 182.74 113.564 182.683 113.564H99.7053C99.6475 113.564 99.5921 113.587 99.5512 113.628C99.5104 113.669 99.4875 113.724 99.4875 113.782C99.4875 113.84 99.5104 113.895 99.5512 113.936C99.5921 113.977 99.6475 114 99.7053 114Z" fill="#CACACA"/>
</g>
<defs>
<clipPath id="clip0_315_7217">
<rect width="182.898" height="114" fill="white" transform="matrix(-1 0 0 1 182.9 0)"/>
</clipPath>
</defs>
</svg>
