<svg width="160" height="110" viewBox="0 0 160 110" fill="none" xmlns="http://www.w3.org/2000/svg">
<g clip-path="url(#clip0_315_7222)">
<path d="M55.5915 104.758C55.4642 104.764 55.3381 104.731 55.2305 104.662C55.1228 104.594 55.0387 104.495 54.9895 104.377C54.9404 104.26 54.9285 104.13 54.9556 104.005C54.9827 103.881 55.0475 103.767 55.141 103.681L55.1836 103.512C55.178 103.498 55.1724 103.485 55.1667 103.471C55.0385 103.168 54.8236 102.91 54.549 102.729C54.2745 102.547 53.9525 102.451 53.6235 102.453C53.2946 102.454 52.9734 102.552 52.7002 102.736C52.427 102.919 52.214 103.179 52.088 103.482C51.5845 104.695 50.9434 105.91 50.7855 107.192C50.716 107.759 50.7453 108.334 50.8722 108.89C49.6895 106.311 49.0754 103.507 49.0714 100.669C49.0712 99.9564 49.1107 99.2448 49.1899 98.5371C49.2554 97.9568 49.3462 97.3808 49.4624 96.8088C50.0963 93.7055 51.4572 90.7968 53.4336 88.3216C54.3901 87.7997 55.1636 86.9971 55.65 86.022C55.8262 85.6715 55.9507 85.2973 56.0197 84.9112C55.9118 84.9253 55.6129 83.282 55.6942 83.1812C55.5439 82.953 55.2747 82.8396 55.1105 82.6169C54.2937 81.5095 53.1684 81.7029 52.5809 83.2077C51.326 83.8411 51.3138 84.8915 52.0839 85.9017C52.5738 86.5445 52.6411 87.4142 53.0709 88.1022C53.0267 88.1589 52.9807 88.2137 52.9365 88.2703C52.1281 89.3098 51.4235 90.426 50.8329 91.603C50.9765 90.2845 50.8051 88.9507 50.3327 87.7113C49.8539 86.5563 48.9565 85.5836 48.1662 84.5851C47.217 83.3857 45.2705 83.9092 45.1032 85.4295C45.1016 85.4442 45.1 85.459 45.0985 85.4737C45.2159 85.5399 45.3308 85.6102 45.4432 85.6845C45.5844 85.7789 45.6939 85.9137 45.7572 86.0713C45.8205 86.229 45.8347 86.402 45.7979 86.5679C45.7612 86.7337 45.6752 86.8846 45.5513 87.0007C45.4273 87.1168 45.2712 87.1928 45.1033 87.2187L45.0861 87.2214C45.1279 87.6444 45.2018 88.0637 45.3072 88.4755C44.2934 92.3962 46.4822 93.8242 49.6074 93.8884C49.6764 93.9238 49.7436 93.9591 49.8126 93.9928C49.2192 95.6745 48.847 97.4262 48.7053 99.2039C48.6251 100.253 48.6298 101.306 48.7194 102.354L48.7141 102.317C48.4877 101.152 47.866 100.1 46.9541 99.3401C45.5996 98.2275 43.686 97.8178 42.2247 96.9234C42.0694 96.8237 41.8889 96.7705 41.7043 96.77C41.5198 96.7696 41.339 96.8219 41.1832 96.9209C41.0274 97.0198 40.9032 97.1613 40.8251 97.3285C40.7471 97.4957 40.7185 97.6818 40.7428 97.8647C40.7447 97.8778 40.7467 97.8908 40.7487 97.9038C40.9666 97.9925 41.1786 98.0947 41.3838 98.2098C41.5011 98.276 41.6161 98.3463 41.7285 98.4207C41.8697 98.515 41.9791 98.6499 42.0424 98.8075C42.1057 98.9651 42.1199 99.1382 42.0832 99.304C42.0465 99.4698 41.9605 99.6207 41.8365 99.7368C41.7126 99.853 41.5564 99.929 41.3886 99.9548L41.3714 99.9575C41.359 99.9593 41.3484 99.961 41.336 99.9628C41.7082 100.851 42.2306 101.669 42.8803 102.381C43.5142 105.804 46.2368 106.128 49.1493 105.132H49.151C49.4706 106.52 49.9336 107.872 50.5326 109.165H55.4678C55.4855 109.11 55.5014 109.053 55.5173 108.998C55.0605 109.027 54.6019 109 54.1517 108.917C54.5179 108.468 54.8841 108.015 55.2502 107.566C55.2584 107.557 55.2661 107.548 55.2732 107.539C55.459 107.309 55.6465 107.081 55.8322 106.851L55.8323 106.851C55.8422 106.146 55.7612 105.442 55.5915 104.758Z" fill="#F2F2F2"/>
<path d="M17.6309 97.2932L18.9926 98.7325L25.3155 94.048L23.3058 91.9238L17.6309 97.2932Z" fill="#A0616A"/>
<path d="M19.8624 98.0895L18.3208 96.6414L17.9422 96.2866L14.0176 99.4244L15.0385 100.503L16.2402 99.7328L15.6881 101.19L18.3949 104.051C18.5246 104.188 18.6948 104.28 18.8806 104.314C19.0664 104.348 19.258 104.321 19.4276 104.238C19.5972 104.155 19.7359 104.02 19.8233 103.853C19.9108 103.686 19.9425 103.495 19.9138 103.308L19.3296 99.5287L20.359 98.5552L19.8624 98.0895Z" fill="#2F2E41"/>
<path d="M47.558 44.8921L47.1263 49.6053C47.1263 49.6053 46.3727 53.1563 46.8945 52.8685C47.4163 52.5807 46.4807 53.8761 46.7271 54.9994C46.9735 56.1228 44.6224 64.4999 45.6873 63.6321C46.7521 62.7643 45.0719 68.7593 44.0092 71.717C43.6838 72.6313 43.3494 73.5567 43.0129 74.4754C42.9466 74.6614 42.8801 74.8451 42.8116 75.0311C42.3754 76.2266 41.9392 77.4043 41.5209 78.5156C41.4611 78.6707 41.4035 78.8256 41.346 78.9784C41.3437 78.9827 41.3437 78.9872 41.3416 78.9872C39.9645 82.6112 38.7845 85.4626 38.313 85.9342C38.0673 86.1799 34.1688 88.996 30.2392 91.8163C26.1149 94.7762 21.9573 97.7428 21.9573 97.7428L18.0742 93.6693C18.0742 93.6693 18.1672 93.6427 18.3421 93.5897C18.6653 93.4966 19.2631 93.3217 20.0468 93.0893C23.3143 92.1262 19.1634 90.6275 22.13 89.556C22.9668 89.255 23.5247 89.0203 23.6508 88.8963C24.3881 88.1768 25.3777 86.4611 25.8448 87.1806C26.3119 87.9001 28.4306 82.5537 29.0415 82.0246C29.3692 81.739 30.4385 80.4041 31.355 79.2307C32.1431 78.2212 32.8205 77.3291 32.8205 77.3291C32.8205 77.3291 32.8338 76.8508 32.8537 76.0893C32.8825 74.9625 32.9246 73.2113 32.9689 71.458C32.9666 71.4557 32.9666 71.4557 32.9689 71.4557C32.9844 70.796 32.9998 70.1363 33.0154 69.5098C33.0264 69.0249 33.0375 68.5578 33.0486 68.1261C33.0773 66.8333 33.0972 65.8548 33.0972 65.6112C33.0972 64.8121 33.0972 65.4342 33.7282 64.9515C33.8224 64.8775 33.9119 64.7977 33.9961 64.7124C34.131 64.591 34.2554 64.4584 34.368 64.3161C34.4145 64.2166 34.1245 64.3516 33.7481 64.2763C33.5443 64.2354 33.3558 64.1389 33.2035 63.9973C32.4109 63.2846 33.2655 61.0929 33.2655 61.0929C31.4635 57.4887 31.5941 54.5332 32.4375 52.2552C33.0682 50.6205 34.0692 49.1542 35.362 47.9715C35.854 47.5027 36.3901 47.0823 36.9627 46.7162L37.018 46.4174L37.6268 43.121C37.9506 42.9432 38.2873 42.79 38.634 42.6628C39.7154 42.2748 40.8757 42.1592 42.0123 42.3263C43.142 42.4897 44.2357 42.8438 45.2468 43.3734C46.0733 43.7886 46.8489 44.2983 47.558 44.8921Z" fill="#2F2E41"/>
<path d="M30.5557 104.637L32.5284 104.82L34.1908 97.1287L31.2789 96.8579L30.5557 104.637Z" fill="#A0616A"/>
<path d="M36.2364 107.651L33.3052 105.196L33.4381 103.784L32.7563 103.762L30.6443 103.693H30.6421L30.1241 103.675L29.2451 108.621L30.7262 108.758L31.118 107.386L31.6649 108.847L32.4486 108.92L35.5855 109.212C35.6121 109.214 35.6409 109.217 35.6675 109.217C35.7922 109.217 35.9155 109.19 36.0292 109.139C36.143 109.088 36.2445 109.013 36.3272 108.92C36.4556 108.779 36.5342 108.6 36.5507 108.411C36.5637 108.268 36.5419 108.125 36.4871 107.992C36.4324 107.86 36.3463 107.743 36.2364 107.651Z" fill="#2F2E41"/>
<path d="M41.5208 78.5157C40.7703 82.6002 37.5934 92.1772 35.6719 97.7826C34.7974 100.344 34.1864 102.077 34.1864 102.077L33.1902 101.763H33.1879L31.5032 101.232L30.89 101.037H30.8877L30.1439 100.8C30.1439 100.8 30.2303 96.2263 30.2391 91.8163C30.2457 89.9678 30.2369 88.1458 30.2015 86.7024C30.1616 85.1284 30.093 84.0016 29.9801 83.7779C29.5129 82.8614 30.2945 82.764 31.1202 82.5337C31.9482 82.3013 31.3017 81.9515 30.9807 81.2077C30.7638 80.7117 31.191 80.0499 31.4944 79.6735C31.5781 79.5675 31.6675 79.4663 31.7622 79.3701C31.7622 79.3701 31.6161 79.3192 31.3549 79.2307C32.143 78.2212 32.8204 77.3291 32.8204 77.3291C32.8204 77.3291 32.8337 76.8508 32.8536 76.0893C32.8824 74.9625 32.9245 73.2113 32.9688 71.458C32.9665 71.4557 32.9665 71.4557 32.9688 71.4557C32.9843 70.796 32.9997 70.1363 33.0153 69.5098C34.2816 70.4817 35.5125 71.4337 36.6282 72.3148C36.6296 72.3158 36.6307 72.3172 36.6315 72.3187C36.6322 72.3202 36.6326 72.3219 36.6327 72.3236C39.3136 74.4422 41.326 76.1425 41.6093 76.6826C41.7378 76.9261 41.6934 77.577 41.5208 78.5157Z" fill="#2F2E41"/>
<path d="M107.521 6.39632C107.89 6.36181 108.258 6.47266 108.547 6.7053C108.835 6.93793 109.022 7.27399 109.066 7.64196C109.074 7.7169 109.076 7.79236 109.071 7.86757L113.637 9.81712L113.463 12.4817L107.497 9.13492C107.187 9.09183 106.9 8.9472 106.68 8.72359C106.46 8.49998 106.321 8.20997 106.284 7.89882C106.264 7.72157 106.28 7.5422 106.329 7.37094C106.379 7.19969 106.462 7.0399 106.573 6.90072C106.685 6.76153 106.823 6.64566 106.979 6.55973C107.135 6.47381 107.307 6.4195 107.484 6.39991C107.497 6.39855 107.509 6.39735 107.521 6.39632Z" fill="#FFB6B6"/>
<path d="M138.582 22.8446C138.469 22.328 138.26 21.8374 137.964 21.3989C137.882 21.2741 137.793 21.1543 137.696 21.0402C137.338 20.613 137.003 20.2212 136.693 19.8714C136.505 19.6521 136.322 19.4485 136.149 19.2604C135.146 18.1601 134.489 17.5779 134.187 17.5291C134.041 17.5048 133.897 17.4871 133.758 17.4693C133.043 17.3808 132.525 17.3166 132.509 16.5616C132.508 16.4535 132.515 16.3454 132.531 16.2384C132.558 16.0588 132.598 15.8813 132.649 15.7071C132.678 15.6084 132.701 15.5078 132.717 15.4061C132.74 15.2755 132.731 15.178 132.66 15.1182C132.571 15.0453 132.423 15.0563 132.144 15.167C132.1 15.1847 132.049 15.2046 131.996 15.2289C131.978 15.2356 131.96 15.2445 131.94 15.2533C131.905 15.2688 131.865 15.2865 131.825 15.3064C131.491 15.4659 130.975 15.4857 130.386 15.426C128.648 15.2489 126.297 14.3722 126.269 14.3611L111.462 8.60742L111.325 8.8288L111 9.35567L110.887 9.53716L110.759 9.74525L110.198 10.6485L109.915 11.1046L114.697 14.7109L115.217 15.1027L115.664 15.4415L124.794 22.3287L128.199 24.5757L128.958 25.076L132.195 27.2102C132.66 27.5175 133.182 27.7286 133.73 27.8309C134.279 27.9332 134.842 27.9247 135.386 27.8058C135.931 27.687 136.447 27.4602 136.902 27.1389C137.358 26.8176 137.745 26.4082 138.04 25.935C138.614 25.0142 138.809 23.9061 138.582 22.8446Z" fill="#BFC2D9"/>
<path d="M159.779 109.363H0.221383C0.162668 109.363 0.106359 109.339 0.0648413 109.298C0.023324 109.256 0 109.2 0 109.141C0 109.083 0.023324 109.026 0.0648413 108.985C0.106359 108.943 0.162668 108.92 0.221383 108.92H159.779C159.837 108.92 159.894 108.943 159.935 108.985C159.977 109.026 160 109.083 160 109.141C160 109.2 159.977 109.256 159.935 109.298C159.894 109.339 159.837 109.363 159.779 109.363Z" fill="#E6E6E6"/>
<path d="M36.5098 36.9248L36.9246 40.7729L36.6807 45.8186L47.8572 44.491L48.9072 36.9248L47.5692 36.9381L36.5098 36.9248Z" fill="#FFB6B6"/>
<path d="M46.0164 24.4955L41.8101 21.1748L39.6021 21.0464L36.3258 23.1453L35.5236 27.238L33.6262 31.8468L36.4091 44.2845C36.4091 44.2845 36.6701 45.177 35.9861 45.2842C35.3022 45.3914 35.3842 46.707 35.3842 46.707C35.3842 46.707 35.5235 47.8472 34.8593 47.9476C34.1952 48.048 32.4242 48.048 33.9739 50.0405C35.5236 52.0329 47.7806 44.4972 47.7806 44.4972L49.5608 35.1561C49.5608 35.1561 53.0133 30.519 49.2952 27.8632L46.0164 24.4955Z" fill="#BFC2D9"/>
<path d="M27.6533 52.7349C27.468 52.5037 27.3356 52.2346 27.2655 51.9466C27.1954 51.6586 27.1893 51.3588 27.2477 51.0682C27.306 50.7776 27.4273 50.5033 27.6031 50.2647C27.7789 50.0261 28.0049 49.8289 28.2651 49.6871L33.5559 31.9312L36.8642 33.5968L31.1024 50.6156C31.3117 51.0686 31.3476 51.5826 31.2032 52.0603C31.0589 52.5379 30.7443 52.946 30.3192 53.2073C29.894 53.4685 29.3878 53.5647 28.8965 53.4776C28.4052 53.3906 27.9628 53.1263 27.6533 52.7349Z" fill="#A0616A"/>
<path d="M37.0853 22.9814C37.0853 22.9814 36.1395 22.4788 35.4927 24.6537C34.9748 26.3949 30.7726 36.7662 30.719 39.2877C30.3732 39.361 30.0616 39.5473 29.8333 39.8172C29.605 40.087 29.473 40.4252 29.458 40.7784L34.6536 41.4747C35.5615 40.7089 35.7997 39.6747 35.4484 39.3677L36.5765 36.2867L41.2827 26.484L37.7753 23.3325L37.0853 22.9814Z" fill="#BFC2D9"/>
<path d="M64.8469 46.8988C64.914 46.6101 64.917 46.3102 64.8556 46.0202C64.7943 45.7303 64.6701 45.4573 64.4919 45.2205C64.3136 44.9837 64.0856 44.7889 63.824 44.6498C63.5623 44.5106 63.2732 44.4306 62.9773 44.4152L50.8402 30.5537L48.2656 33.6258L60.8205 46.4794C60.8277 46.9783 61.0176 47.4573 61.3543 47.8256C61.691 48.1938 62.1511 48.4258 62.6475 48.4775C63.1438 48.5292 63.6418 48.397 64.0472 48.106C64.4525 47.8151 64.7371 47.3855 64.8469 46.8988Z" fill="#A0616A"/>
<path d="M43.4761 24.1492C43.4761 24.1492 44.1114 23.2871 45.6352 24.9684C46.8551 26.3144 55.129 33.8486 56.2678 36.099C56.6113 36.0156 56.9728 36.0487 57.2954 36.1934C57.6179 36.338 57.8832 36.5858 58.0494 36.8978L53.6659 39.7724C52.5161 39.4745 51.8541 38.645 52.0381 38.2163L49.6886 35.9261L41.2061 29.1226L43.0057 24.7643L43.4761 24.1492Z" fill="#BFC2D9"/>
<path d="M88.7367 62.2079C105.854 62.2079 119.73 48.3316 119.73 31.2143C119.73 14.097 105.854 0.220703 88.7367 0.220703C71.6195 0.220703 57.7432 14.097 57.7432 31.2143C57.7432 48.3316 71.6195 62.2079 88.7367 62.2079Z" fill="#6ED56E"/>
<path opacity="0.2" d="M87.2706 42.1836C85.8507 43.6035 83.925 44.4011 81.917 44.4011C79.9091 44.4011 77.9834 43.6035 76.5635 42.1836C75.3434 40.963 74.5768 39.3623 74.3907 37.6465C74.2046 35.9307 74.6103 34.2028 75.5404 32.749L73.8747 34.4484C72.4549 35.8682 71.6572 37.7939 71.6572 39.8019C71.6572 41.8099 72.4549 43.7356 73.8747 45.1554C75.2946 46.5753 77.2203 47.3729 79.2283 47.3729C81.2362 47.3729 83.1619 46.5753 84.5818 45.1554L88.273 41.3228L88.3291 41.0845L87.2706 42.1836Z" fill="black"/>
<path opacity="0.2" d="M90.7869 18.5056C92.4465 17.3752 94.4871 16.9505 96.4599 17.3247C98.4327 17.699 100.176 18.8416 101.306 20.5012C102.278 21.9278 102.732 23.6434 102.595 25.3638C102.458 27.0842 101.738 28.7062 100.553 29.9612L102.506 28.6021C104.166 27.4717 105.308 25.7284 105.683 23.7556C106.057 21.7829 105.632 19.7422 104.502 18.0826C103.372 16.423 101.628 15.2804 99.6554 14.9061C97.6827 14.5319 95.642 14.9566 93.9824 16.087L89.6416 19.1645L89.542 19.3882L90.7869 18.5056Z" fill="black"/>
<path d="M79.2284 48.3206C77.5997 48.3206 76.0074 47.8376 74.6532 46.9327C73.2989 46.0279 72.2433 44.7417 71.62 43.2369C70.9967 41.7321 70.8336 40.0763 71.1514 38.4788C71.4692 36.8813 72.2535 35.4139 73.4052 34.2622L80.3939 27.1321C81.1584 26.3663 82.0663 25.7588 83.0657 25.3441C84.0651 24.9294 85.1364 24.7158 86.2184 24.7153C87.3004 24.7149 88.3719 24.9277 89.3717 25.3416C90.3714 25.7555 91.2798 26.3623 92.0449 27.1274C92.1694 27.2519 92.2393 27.4209 92.2393 27.597C92.2393 27.7731 92.1694 27.942 92.0449 28.0665C91.9203 28.1911 91.7514 28.2611 91.5753 28.2611C91.3992 28.2611 91.2302 28.1911 91.1057 28.0665C89.8104 26.7713 88.0536 26.0436 86.2218 26.0436C84.39 26.0436 82.6332 26.7713 81.3379 28.0666C80.3114 31.6853 78.0935 34.1683 74.3492 35.1968C73.7068 35.8377 73.1969 36.5989 72.8488 37.4369C72.5006 38.2749 72.3211 39.1733 72.3203 40.0808C72.3195 40.9882 72.4976 41.887 72.8443 42.7256C73.191 43.5642 73.6996 44.3263 74.3409 44.9682C74.9823 45.6102 75.7439 46.1195 76.5822 46.467C77.4204 46.8145 78.319 46.9935 79.2264 46.9936C80.1339 46.9937 81.0325 46.815 81.8708 46.4677C82.7092 46.1203 83.4709 45.6112 84.1124 44.9694C83.9611 43.4848 84.3949 42.0892 87.7948 41.1456C87.8553 41.0825 87.9276 41.0319 88.0076 40.9968C88.0876 40.9617 88.1737 40.9427 88.2611 40.941C88.3484 40.9392 88.4353 40.9547 88.5166 40.9865C88.598 41.0184 88.6722 41.066 88.7351 41.1266C88.7981 41.1872 88.8484 41.2596 88.8833 41.3397C88.9182 41.4198 88.9369 41.506 88.9384 41.5934C88.94 41.6807 88.9242 41.7675 88.8921 41.8488C88.86 41.9301 88.8122 42.0042 88.7515 42.067L85.0603 45.8996C84.2968 46.6691 83.3882 47.2793 82.3871 47.6949C81.386 48.1105 80.3124 48.3232 79.2284 48.3206Z" fill="white"/>
<path d="M90.5743 38.2338C89.4924 38.2367 88.4206 38.0251 87.4211 37.611C86.4215 37.197 85.514 36.5888 84.7511 35.8216C84.6266 35.6971 84.5566 35.5281 84.5566 35.352C84.5567 35.1758 84.6267 35.0069 84.7512 34.8824C84.8758 34.7578 85.0447 34.6879 85.2209 34.6879C85.397 34.6879 85.5659 34.7579 85.6905 34.8825C86.3318 35.5239 87.0932 36.0326 87.9312 36.3797C88.7692 36.7269 89.6673 36.9055 90.5743 36.9055C91.4814 36.9055 92.3795 36.7269 93.2175 36.3798C94.0554 36.0326 94.8168 35.5239 95.4582 34.8825C96.3433 29.5506 99.9519 28.7982 103.089 27.2524C103.73 26.611 104.239 25.8496 104.586 25.0116C104.933 24.1736 105.112 23.2754 105.111 22.3684C105.111 21.4614 104.933 20.5632 104.586 19.7252C104.239 18.8872 103.73 18.1258 103.088 17.4845C102.447 16.8431 101.686 16.3343 100.848 15.9872C100.01 15.6401 99.1115 15.4615 98.2045 15.4615C97.2975 15.4615 96.3993 15.6401 95.5613 15.9873C94.7233 16.3344 93.9619 16.8431 93.3206 17.4845C92.448 20.0019 91.5913 22.549 88.9926 21.8125C88.9309 21.8742 88.8577 21.9231 88.7771 21.9565C88.6966 21.9898 88.6102 22.007 88.523 22.007C88.3469 22.007 88.1779 21.937 88.0534 21.8125C87.9288 21.688 87.8589 21.519 87.8589 21.3429C87.8589 21.1668 87.9288 20.9979 88.0534 20.8733L92.3814 16.5453C93.1461 15.7806 94.0539 15.174 95.053 14.7602C96.0521 14.3463 97.123 14.1333 98.2045 14.1333C99.2859 14.1333 100.357 14.3463 101.356 14.7601C102.355 15.174 103.263 15.7806 104.028 16.5453C104.792 17.31 105.399 18.2178 105.813 19.2169C106.227 20.2161 106.44 21.2869 106.44 22.3684C106.44 23.4498 106.227 24.5207 105.813 25.5198C105.399 26.519 104.792 27.4268 104.028 28.1915L96.3974 35.8217C95.6345 36.5888 94.727 37.197 93.7275 37.6111C92.7279 38.0251 91.6562 38.2368 90.5743 38.2338Z" fill="white"/>
<path opacity="0.3" d="M115.664 15.4415C114.363 13.2308 112.796 11.1871 111 9.3556C110.599 8.94829 110.185 8.54973 109.762 8.16231C109.528 7.94764 109.291 7.73727 109.049 7.53135C108.591 7.13734 108.12 6.75651 107.639 6.38909C102.212 2.23795 95.568 -0.00770328 88.7354 1.98542e-05C71.5251 1.98542e-05 57.5205 14.0025 57.5205 31.215C57.5197 33.1129 57.6923 35.0069 58.0362 36.8734C58.0368 36.8839 58.0383 36.8943 58.0408 36.9044C58.198 37.7612 58.3927 38.6069 58.6186 39.437C60.2182 45.2968 63.4928 50.5624 68.041 54.5885C72.5891 58.6146 78.2132 61.2261 84.2237 62.103C90.2342 62.9798 96.37 62.0839 101.879 59.525C107.388 56.966 112.03 52.8553 115.237 47.6968C115.669 47.0017 116.075 46.2888 116.455 45.5582C118.879 40.8806 120.078 35.6647 119.94 30.398C119.801 25.1313 118.331 19.9856 115.664 15.4415ZM88.7354 61.9871C84.694 61.9885 80.6919 61.1935 76.9578 59.6476C73.2237 58.1016 69.8309 55.835 66.9731 52.9773C64.1154 50.1195 61.8488 46.7267 60.3028 42.9926C58.7569 39.2585 57.9619 35.2564 57.9633 31.215C57.9633 14.2459 71.7687 0.442785 88.7354 0.442785C92.8414 0.445113 96.9053 1.26939 100.688 2.86703C104.47 4.46466 107.894 6.80333 110.759 9.74517C111.506 10.5077 112.211 11.3104 112.871 12.1495C113.524 12.9706 114.134 13.8255 114.697 14.7108C117.045 18.4002 118.58 22.548 119.199 26.8775C119.817 31.2069 119.505 35.6185 118.283 39.8179C118.011 40.7565 117.692 41.6753 117.334 42.5763C116.973 43.4795 116.572 44.3651 116.129 45.224C113.54 50.2621 109.615 54.4908 104.783 57.4474C99.9517 60.404 94.3999 61.9746 88.7354 61.9871Z" fill="#3F3D56"/>
<path d="M131.199 104.707L129.164 104.69L128.264 96.6582L131.267 96.6837L131.199 104.707Z" fill="#FFB6B6"/>
<path d="M131.739 103.769L131.208 103.733L129.041 103.585L128.343 103.539L128.33 104.993L125.08 107.198C124.92 107.307 124.798 107.465 124.734 107.647C124.669 107.83 124.665 108.029 124.721 108.215C124.777 108.401 124.891 108.563 125.047 108.68C125.202 108.796 125.391 108.859 125.585 108.861L129.63 108.894L130.338 107.459L130.597 108.903L132.125 108.916L131.739 103.769Z" fill="#2F2E41"/>
<path d="M152.622 103.22L150.678 103.818L147.395 96.4332L150.265 95.5508L152.622 103.22Z" fill="#FFB6B6"/>
<path d="M152.855 102.164L152.337 102.29L150.227 102.801L149.547 102.967L149.975 104.36L147.541 107.441C147.436 107.576 147.37 107.737 147.352 107.907C147.334 108.077 147.363 108.248 147.438 108.402C147.513 108.556 147.629 108.686 147.774 108.776C147.918 108.867 148.086 108.915 148.257 108.916C148.347 108.916 148.436 108.902 148.522 108.876L152.39 107.687L152.631 106.104L153.315 107.402L154.774 106.952L152.855 102.164Z" fill="#2F2E41"/>
<path d="M127.106 37.1738L123.223 48.4586L123.095 49.3616C122.117 50.2906 123.346 50.5966 122.885 50.8416C122.424 51.0866 122.114 51.7734 122.735 51.8961C123.356 52.0188 125.358 96.0338 128 97.7428C130.641 99.4519 132.248 100.688 131.763 98.1856C131.568 97.1774 131.844 91.7717 132.244 85.6757C132.289 84.9849 133.005 84.2536 132.384 83.5819C131.763 82.9102 132.461 82.4682 132.5 81.9107C133.057 73.9505 133.7 66.0916 133.7 66.0916C133.7 66.0916 137.816 80.2285 138.885 79.1341C139.954 78.0398 139.531 80.7342 139.858 81.5394C140.131 82.2122 138.966 83.5338 140.678 83.5541C142.39 83.5744 146.409 97.3156 146.817 97.3001C147.625 97.2693 149.896 97.3563 151.245 97.0787C151.911 96.9416 148.955 86.538 146.486 77.5543C146.289 76.8379 145.218 76.8212 145.907 75.438C146.596 74.0549 143.167 65.1052 143.461 64.6913C144.242 63.5926 144.54 63.1151 143.77 63.0431C142.999 62.9712 142.772 63.3937 142.73 62.3279C142.689 61.2622 142.556 58.6341 142.556 58.6341C142.556 58.6341 141.998 48.2405 138.091 42.4981L137.758 39.0862L127.106 37.1738Z" fill="#2F2E41"/>
<path d="M136.808 15.6284L131.659 16.3616L131.348 20.0904L128.807 24.0654C128.807 24.0654 123.158 28.0403 127.098 34.3194C125.599 39.7285 124.108 44.916 122.687 48.3744C121.58 55.2373 131.497 55.8951 142.833 53.4662C142.833 53.4662 142.677 50.5318 141.648 49.121C140.619 47.7103 141.179 47.4023 141.179 47.4023L140.46 44.7667C140.867 40.957 139.494 40.6151 138.848 38.855L140.808 20.5921L136.808 15.6284Z" fill="#BFC2D9"/>
<path d="M112.087 47.5499C112.142 47.1833 112.337 46.8524 112.632 46.6277C112.927 46.403 113.298 46.3022 113.666 46.3468C113.74 46.357 113.814 46.3734 113.886 46.3958L116.869 42.4277L119.415 43.2329L114.741 48.2268C114.625 48.518 114.416 48.7626 114.146 48.9224C113.877 49.0823 113.562 49.1484 113.251 49.1105C113.074 49.0872 112.904 49.0293 112.749 48.9401C112.595 48.8509 112.459 48.7322 112.351 48.5907C112.242 48.4493 112.163 48.2878 112.117 48.1155C112.07 47.9433 112.059 47.7636 112.082 47.5868C112.084 47.5745 112.085 47.5622 112.087 47.5499Z" fill="#FFB6B6"/>
<path d="M138.582 22.8446C138.509 22.7538 138.429 22.6653 138.345 22.5789C137.76 21.9763 137.007 21.5642 136.184 21.3968C135.361 21.2293 134.507 21.3142 133.733 21.6403C133.658 21.6712 133.583 21.7067 133.51 21.7421C130.864 23.0416 129.436 23.9072 129.264 24.3123C129.204 24.4496 129.153 24.5846 129.102 24.7152C129.053 24.8436 129.007 24.9654 128.958 25.0761C128.754 25.5498 128.52 25.8443 127.922 25.7114C127.724 25.663 127.533 25.5893 127.353 25.4923C127.271 25.4524 127.196 25.4104 127.125 25.3705C126.868 25.2289 126.682 25.1271 126.556 25.22C126.434 25.3107 126.43 25.541 126.541 26.0745C126.577 26.2972 126.571 26.5248 126.523 26.7453C126.377 27.3884 126.147 28.0097 125.841 28.5939C125.382 29.5095 124.866 30.3953 124.296 31.246L119.029 38.7553L118.673 39.2623L118.283 39.818L115.175 44.2501L115.359 44.4382L116.129 45.2241L116.299 45.399L116.454 45.5584L116.855 45.9679L117.231 46.3509L125.629 39.5102L126.565 38.7464L128.243 37.3783L131.681 34.5779L138.188 28.5562C138.598 28.1792 138.929 27.723 139.159 27.2151C139.389 26.7073 139.514 26.1582 139.527 25.6008C139.527 25.5631 139.529 25.5277 139.529 25.4901C139.532 24.5247 139.196 23.5889 138.582 22.8446Z" fill="#BFC2D9"/>
<path d="M133.716 15.4927C136.894 15.4927 139.47 12.9164 139.47 9.73852C139.47 6.56059 136.894 3.98438 133.716 3.98438C130.538 3.98438 127.962 6.56059 127.962 9.73852C127.962 12.9164 130.538 15.4927 133.716 15.4927Z" fill="#FFB6B6"/>
<path d="M141.342 17.7173C142.114 18.8225 142.631 20.0858 142.854 21.4155C142.232 21.8136 141.507 22.0228 140.769 22.0175C140.744 21.9208 140.718 21.824 140.69 21.7273C140.476 20.978 140.157 20.2627 139.744 19.6022C139.8 20.3144 139.704 21.0305 139.461 21.7022C139.07 21.5248 138.652 21.4168 138.224 21.3833C137.876 21.3832 137.533 21.4642 137.221 21.6198C136.859 20.4193 136.526 19.3156 136.289 18.5236C136.282 20.5089 133.372 22.2397 130.197 21.9889C130.083 21.9172 131.233 18.6526 131.122 18.5773C130.867 18.4089 130.62 18.2262 130.373 18.047C131.412 16.4416 132.541 14.7215 132.347 14.4635C132.362 14.7824 131.222 16.3161 129.982 17.7639C129.294 17.2586 133.204 9.038 131.272 8.37147C131.24 8.66174 130.814 8.66174 130.294 8.60083C130.157 8.1219 129.953 7.66467 129.688 7.24264C129.723 7.66776 129.672 8.09547 129.538 8.50046C129.025 8.50061 128.513 8.55466 128.011 8.66173C127.895 8.47904 127.767 8.30425 127.628 8.13853C127.642 8.3405 127.636 8.54333 127.61 8.74414C127.097 8.85523 126.675 8.98423 126.614 9.08817C126.212 8.94123 126.897 8.27829 126.646 7.93426C126.008 7.07423 126.954 5.82 127.553 4.93127C128.782 3.11085 131.48 2.48014 133.39 3.57311C133.476 3.27568 133.917 3.07859 134.483 2.946C134.723 2.89311 134.969 2.87024 135.214 2.87791C137.651 2.92091 141.034 4.93126 141.166 7.36449C141.177 7.60817 141.195 7.87335 141.213 8.15644C141.385 10.8799 141.174 13.392 143.033 15.3844C143.707 16.1047 143.714 19.5162 143.456 21.2722C142.786 20.5662 142.31 17.8212 141.342 17.7173Z" fill="#2F2E41"/>
<path d="M77.9669 31.9919C78.3337 31.9919 78.631 31.6945 78.631 31.3277C78.631 30.9609 78.3337 30.6636 77.9669 30.6636C77.6001 30.6636 77.3027 30.9609 77.3027 31.3277C77.3027 31.6945 77.6001 31.9919 77.9669 31.9919Z" fill="#6ED56E"/>
<path d="M98.9991 31.549C99.3659 31.549 99.6633 31.2516 99.6633 30.8849C99.6633 30.5181 99.3659 30.2207 98.9991 30.2207C98.6323 30.2207 98.335 30.5181 98.335 30.8849C98.335 31.2516 98.6323 31.549 98.9991 31.549Z" fill="#6ED56E"/>
<path d="M35.7788 12.1313C35.2734 13.3901 33.8474 15.8656 33.6543 17.216L33.7412 17.1306C33.9071 17.4138 34.0955 17.6833 34.3047 17.9362C34.6797 17.5424 35.1326 17.231 35.6345 17.0219C35.3604 17.5843 35.2017 18.1958 35.1676 18.8205C35.7058 20.5073 38.1935 19.7562 39.6511 19.572C41.1066 21.2369 43.0432 21.6714 45.5791 20.7142C46.2883 20.7872 47.0823 20.8315 47.5792 20.4125C48.0762 19.9934 47.7803 19.2173 48.0476 18.6303C49.9523 14.449 48.1946 12.9405 46.7011 11.0445C46.3725 10.6273 46.3739 10.0047 45.974 9.6066C45.4191 9.05481 44.5686 8.88509 43.7844 8.74914C43.9881 8.75987 44.1911 8.71798 44.374 8.62751C44.5568 8.53704 44.7133 8.40102 44.8283 8.23256C44.9292 8.06284 44.9813 7.86854 44.9788 7.6711C44.9763 7.47366 44.9193 7.28075 44.8141 7.11364C44.5336 6.64869 43.9509 6.37832 43.3886 6.31078C42.8347 6.27316 42.2783 6.32099 41.7389 6.45258C41.3895 6.49854 41.0512 6.60668 40.7399 6.77189C40.5931 6.85024 40.4736 6.97157 40.3976 7.11963C40.3215 7.2677 40.2925 7.43545 40.3143 7.60047C40.3612 7.75286 40.4418 7.8927 40.5503 8.00958C40.6587 8.12645 40.7921 8.21733 40.9406 8.27545C41.1669 8.37115 41.405 8.43632 41.6485 8.46926C40.5299 8.3241 39.3936 8.52299 38.3908 9.03947C37.134 9.70984 36.286 10.8732 35.7788 12.1313Z" fill="#2F2E41"/>
<path d="M42.5833 19.1885C45.0644 19.1885 47.0758 17.1772 47.0758 14.6961C47.0758 12.215 45.0644 10.2036 42.5833 10.2036C40.1022 10.2036 38.0908 12.215 38.0908 14.6961C38.0908 17.1772 40.1022 19.1885 42.5833 19.1885Z" fill="#A0616A"/>
<path d="M38.261 12.2873C38.5215 13.0745 39.2659 13.3282 39.9539 13.4864C40.1708 13.537 40.3891 13.5841 40.6094 13.626C40.6907 13.5244 40.7771 13.4248 40.8674 13.3307C41.2423 12.9369 41.6952 12.6255 42.1972 12.4163C41.9801 12.8606 41.8359 13.3368 41.7699 13.8268C42.1859 13.8872 42.6041 13.9365 43.0246 13.9748C43.3804 14.0505 43.7517 13.9867 44.0618 13.7964C44.3718 13.6062 44.5969 13.3041 44.6906 12.9526C45.0734 13.5786 45.5261 14.1682 46.1451 14.4169C46.4991 14.5441 46.8846 14.5545 47.2449 14.4467C47.6053 14.3389 47.9216 14.1185 48.1476 13.8178C48.5046 13.3273 48.752 12.7659 48.8733 12.1715C49.049 11.4743 49.1466 10.6713 48.8017 10.229C48.5254 9.87099 48.0487 9.86457 47.6089 9.89632C46.6382 9.97079 45.6777 10.1449 44.7426 10.416L44.6634 10.5939C44.8241 9.62854 44.4756 8.69969 43.8306 8.36936C43.3956 8.14849 42.8722 8.18553 42.3637 8.23033C41.7105 8.25947 41.0651 8.38429 40.4482 8.60078C39.7404 8.87303 39.134 9.35732 38.712 9.98738C38.2606 10.6727 38.0363 11.6074 38.261 12.2873Z" fill="#2F2E41"/>
<path d="M44.6655 8.08836C44.6212 8.07528 44.736 8.09209 44.6962 8.09316C44.716 8.09201 44.7357 8.08926 44.755 8.08492C44.7583 8.08426 44.803 8.06999 44.7733 8.0805C44.84 8.06054 44.8995 8.0217 44.9447 7.96866C45.0502 7.83816 45.133 7.69081 45.1895 7.53281C45.261 7.32401 45.3757 7.13266 45.5263 6.97134C45.569 6.92841 45.6213 6.89617 45.6788 6.87723C45.7363 6.85829 45.7975 6.85318 45.8574 6.86232C45.9173 6.87146 45.9742 6.89459 46.0234 6.92983C46.0727 6.96508 46.1129 7.01144 46.1409 7.06516C46.1977 7.2724 46.1783 7.49314 46.0861 7.68724C46.0217 7.88475 45.9258 8.07057 45.8023 8.23755C45.5952 8.5106 45.3132 8.71752 44.9905 8.83308C44.6171 8.96871 44.2099 8.98034 43.8293 8.86626C43.7791 8.84541 43.7359 8.81037 43.7052 8.76544C43.6745 8.7205 43.6575 8.6676 43.6563 8.61318C43.6551 8.55876 43.6698 8.50517 43.6985 8.45894C43.7273 8.41271 43.7688 8.37583 43.8181 8.3528L44.4528 8.093C44.4863 8.0783 44.5222 8.07032 44.5587 8.06953C44.5952 8.06873 44.6315 8.07513 44.6655 8.08836C44.6995 8.10159 44.7306 8.12139 44.757 8.14663C44.7834 8.17187 44.8045 8.20206 44.8192 8.23547C44.8339 8.26888 44.8419 8.30486 44.8427 8.34135C44.8435 8.37784 44.8371 8.41414 44.8238 8.44816C44.8106 8.48217 44.7908 8.51326 44.7656 8.53962C44.7403 8.56599 44.7101 8.58712 44.6767 8.60183L44.042 8.86163L44.0308 8.34816C44.11 8.37102 44.1915 8.38495 44.2738 8.3897C44.3616 8.3985 44.4502 8.39476 44.5369 8.37861C44.62 8.36771 44.7017 8.3478 44.7804 8.31923C44.8309 8.3008 44.8804 8.27983 44.9287 8.25639C44.9462 8.24786 44.9636 8.23902 44.9809 8.22984C44.9796 8.2305 45.0535 8.1875 45.0211 8.2077C45.1032 8.15524 45.1802 8.09525 45.2511 8.02849C45.2762 8.00482 45.2993 7.97914 45.3202 7.95171C45.3563 7.90729 45.3898 7.86079 45.4206 7.81246C45.4831 7.71011 45.5326 7.60037 45.568 7.48577C45.5841 7.4376 45.5977 7.38863 45.6088 7.33905C45.6119 7.31184 45.6168 7.28487 45.6235 7.25832C45.6471 7.19507 45.6191 7.29525 45.6461 7.32266L45.7631 7.40887C45.7851 7.41542 45.8083 7.41693 45.8309 7.41331C45.8535 7.40968 45.8751 7.40101 45.8939 7.38794C45.9078 7.36843 45.9047 7.37167 45.8848 7.39764C45.8616 7.42822 45.8404 7.46023 45.8213 7.49348C45.7794 7.57178 45.7414 7.65215 45.7077 7.73429C45.6378 7.90898 45.5495 8.07572 45.4443 8.23166C45.3412 8.38939 45.1909 8.51054 45.0149 8.57784C44.8389 8.64515 44.6461 8.65517 44.464 8.60648C44.3957 8.57928 44.3408 8.52631 44.3112 8.459C44.2816 8.39169 44.2796 8.31543 44.3057 8.24668C44.3336 8.17893 44.3867 8.12461 44.4537 8.0951C44.5208 8.06558 44.5967 8.06317 44.6655 8.08836Z" fill="#2F2E41"/>
</g>
<defs>
<clipPath id="clip0_315_7222">
<rect width="160" height="109.363" fill="white"/>
</clipPath>
</defs>
</svg>
