<svg width="157" height="113" viewBox="0 0 157 113" fill="none" xmlns="http://www.w3.org/2000/svg">
<g clip-path="url(#clip0_315_7233)">
<path d="M4.15723 112.752C4.15723 112.889 4.26794 113 4.40581 113H156.752C156.889 113 157 112.889 157 112.752C157 112.614 156.889 112.503 156.752 112.503H4.40581C4.26794 112.503 4.15723 112.614 4.15723 112.752Z" fill="#3F3D58"/>
<rect x="1.04688" y="12.8774" width="55.4733" height="7.32667" rx="3.66333" fill="#BFC2D9"/>
<path d="M52.941 59.7482H4.08018C2.27323 59.7482 0.804688 58.2797 0.804688 56.4728C0.804688 54.6658 2.27323 53.1973 4.08018 53.1973H52.941C54.7479 53.1973 56.2164 54.6658 56.2164 56.4728C56.2164 58.2797 54.7479 59.7482 52.941 59.7482Z" fill="#6ED56E"/>
<path d="M36.9286 6.86836H3.27549C1.46854 6.86836 0 5.39982 0 3.59287C0 1.78592 1.46854 0.317383 3.27549 0.317383H36.9286C38.7356 0.317383 40.2041 1.78592 40.2041 3.59287C40.2041 5.39982 38.7356 6.86836 36.9286 6.86836Z" fill="#BFC2D9"/>
<rect x="1.04688" y="40.0908" width="55.4733" height="7.32667" rx="3.66333" fill="#BFC2D9"/>
<path d="M2.40025 9.95996H15.2056C15.5106 9.95996 15.7592 10.2065 15.7592 10.5135C15.7592 10.8185 15.5106 11.0671 15.2056 11.0671H2.40025C2.09527 11.0671 1.84668 10.8206 1.84668 10.5135C1.84668 10.2085 2.09527 9.95996 2.40025 9.95996Z" fill="#A0A4C5"/>
<path d="M2.40025 23.4922H15.2056C15.5106 23.4922 15.7592 23.7387 15.7592 24.0437C15.7592 24.3487 15.5106 24.5972 15.2056 24.5972H2.40025C2.09527 24.5972 1.84668 24.3508 1.84668 24.0458C1.84668 23.7408 2.09527 23.4922 2.40025 23.4922Z" fill="#A0A4C5"/>
<path d="M2.40025 37.0264H15.2056C15.5106 37.0264 15.7592 37.2729 15.7592 37.5799C15.7592 37.8849 15.5106 38.1314 15.2056 38.1314H2.40025C2.09527 38.1314 1.84668 37.8849 1.84668 37.5779C1.84668 37.2729 2.09527 37.0264 2.40025 37.0264Z" fill="#A0A4C5"/>
<path d="M93.3936 27.9462L88.7227 29.4836V22.7593H92.9612L93.3936 27.9462Z" fill="#9F616A"/>
<path d="M89.3007 24.6204C91.8711 24.6204 93.9549 22.5367 93.9549 19.9662C93.9549 17.3958 91.8711 15.312 89.3007 15.312C86.7302 15.312 84.6465 17.3958 84.6465 19.9662C84.6465 22.5367 86.7302 24.6204 89.3007 24.6204Z" fill="#9F616A"/>
<path d="M90.5794 19.5047C89.8002 19.4817 89.2884 18.6942 88.9855 17.9756C88.6826 17.257 88.3714 16.4318 87.6486 16.1352C87.0574 15.8929 86.015 17.5327 85.5492 17.0961C85.0625 16.6407 85.5366 14.3032 86.0526 13.8833C86.5686 13.4634 87.2747 13.382 87.939 13.3506C89.56 13.2754 91.1915 13.407 92.7812 13.7392C93.7651 13.9439 94.7761 14.2531 95.4864 14.9633C96.3846 15.8657 96.6144 17.2256 96.6792 18.4978C96.746 19.7992 96.6708 21.1613 96.0378 22.2997C95.4049 23.4382 94.0805 24.278 92.8104 23.9876C92.683 23.2983 92.8125 22.5901 92.8626 21.8882C92.9107 21.1884 92.8605 20.4322 92.4323 19.8745C92.0062 19.3167 91.0912 19.0953 90.594 19.5904" fill="#2F2E43"/>
<path d="M96.3047 21.1174C96.7706 20.7769 97.3283 20.4907 97.9007 20.5617C98.519 20.6369 99.0434 21.1466 99.2021 21.7503C99.3609 22.354 99.1833 23.0183 98.799 23.5113C98.4167 24.0043 97.8464 24.3302 97.2448 24.4931C96.8959 24.5871 96.5136 24.6268 96.1815 24.4848C95.6927 24.2738 95.4274 23.6492 95.6196 23.152" fill="#2F2E43"/>
<path d="M78.4952 64.9086C78.1839 66.4378 78.7542 67.8353 79.7653 68.0295C80.7763 68.2238 81.848 67.1396 82.1571 65.6105C82.2887 65.0005 82.2678 64.3697 82.0965 63.7681L85.9465 39.7972L81.1314 38.8906L79.2723 63.227C78.8775 63.72 78.6122 64.2966 78.4952 64.9107V64.9086Z" fill="#9F616A"/>
<path d="M88.6722 26.3984H85.3862C83.0633 26.7515 82.4324 27.9902 81.9039 30.2797C81.0976 33.7725 80.0677 38.4225 80.2725 38.4914C80.6004 38.6001 86.1947 41.2321 89.0461 40.6305L88.6722 26.3984Z" fill="#BFC2D9"/>
<path d="M91.8499 102.752H87.4756V108.958H91.8499V102.752Z" fill="#9F616A"/>
<path d="M83.2158 112.714C82.7563 112.714 82.3468 112.704 82.0377 112.674C80.8762 112.568 79.767 111.709 79.2092 111.208C78.9585 110.982 78.8791 110.623 79.0087 110.314C79.1027 110.093 79.2886 109.925 79.5205 109.861L82.5912 108.983L87.563 105.628L87.6194 105.729C87.6402 105.766 88.1291 106.646 88.292 107.239C88.3547 107.465 88.338 107.653 88.244 107.799C88.1792 107.899 88.0873 107.958 88.0142 107.991C88.104 108.085 88.386 108.277 89.255 108.415C90.523 108.616 90.7904 107.302 90.8008 107.247L90.8092 107.203L90.8468 107.178C91.4505 106.79 91.8223 106.612 91.9498 106.65C92.0292 106.673 92.1628 106.715 92.5242 110.293C92.5597 110.406 92.8125 111.229 92.6412 112.016C92.4553 112.873 88.7119 112.578 87.9619 112.512C87.9411 112.514 85.1377 112.714 83.2179 112.714H83.2158Z" fill="#2F2E43"/>
<path d="M104.305 97.8757L100.594 100.19L103.878 105.457L107.59 103.142L104.305 97.8757Z" fill="#9F616A"/>
<path d="M99.3761 111.864C98.8622 111.864 98.3901 111.801 98.0538 111.743C97.7238 111.684 97.4647 111.421 97.4104 111.091C97.3728 110.853 97.4417 110.613 97.6047 110.435L99.7459 108.066L102.19 102.589L102.29 102.643C102.328 102.664 103.207 103.151 103.661 103.569C103.834 103.728 103.92 103.897 103.915 104.07C103.913 104.191 103.867 104.287 103.821 104.356C103.947 104.39 104.287 104.402 105.098 104.06C106.28 103.56 105.812 102.303 105.791 102.251L105.775 102.209L105.793 102.169C106.1 101.52 106.32 101.173 106.449 101.137C106.531 101.114 106.665 101.079 108.864 103.926C108.954 104.001 109.604 104.567 109.875 105.326C110.17 106.151 106.838 107.882 106.167 108.221C106.146 108.238 102.66 110.772 101.227 111.492C100.659 111.778 99.9861 111.866 99.374 111.866L99.3761 111.864Z" fill="#2F2E43"/>
<path d="M95.0708 50.8516H82.8232L81.7119 62.2448L86.575 104.341H92.8273L90.3268 80.0281L100.469 101.979L106.025 98.0892L98.1061 77.5965C98.1061 77.5965 100.935 59.7443 98.7119 55.2969C96.4892 50.8516 95.0708 50.8516 95.0708 50.8516Z" fill="#2F2E43"/>
<path d="M101.164 51.5453H81.7119L87.5485 26.3984H96.0234L101.164 51.5453Z" fill="#BFC2D9"/>
<path d="M102.914 64.9081C103.225 66.4373 102.655 67.8348 101.644 68.0291C100.633 68.2233 99.5614 67.1392 99.2523 65.61C99.1207 65.0001 99.1416 64.3692 99.3128 63.7676L95.4629 39.7967L100.278 38.8901L102.137 63.2265C102.532 63.7195 102.797 64.2961 102.914 64.9102V64.9081Z" fill="#9F616A"/>
<path d="M92.7372 26.3984H96.0231C98.3461 26.7515 98.9769 27.9902 99.5054 30.2797C100.312 33.7725 101.342 38.4225 101.137 38.4914C100.809 38.6001 95.2147 41.2321 92.3633 40.6305L92.7372 26.3984Z" fill="#BFC2D9"/>
<rect x="1.04688" y="26.4844" width="55.4733" height="7.32667" rx="3.66333" fill="#BFC2D9"/>
</g>
<defs>
<clipPath id="clip0_315_7233">
<rect width="157" height="112.683" fill="white" transform="translate(0 0.317383)"/>
</clipPath>
</defs>
</svg>
