<svg width="150" height="78" viewBox="0 0 150 78" fill="none" xmlns="http://www.w3.org/2000/svg">
<g clip-path="url(#clip0_315_7228)">
<path d="M74.7241 19.7955L74.7202 19.8217L74.7095 19.8974L73.6064 27.8133L66.8519 30.2916L66.7461 30.241L62.9644 28.445L61.009 20.9423L60.875 20.4272L60.9158 20.4115L69.2816 17.2686L74.7192 19.7925L74.7241 19.7955Z" fill="#6ED56E"/>
<path d="M66.7461 30.2406L62.9644 28.4446L60.875 20.4268L60.9158 20.4111L66.3661 22.7106L66.7461 30.2406Z" fill="#6ED56E"/>
<path opacity="0.2" d="M66.8414 30.1495L63.9649 24.6371L64.3344 23.0743L62.5944 21.0254L62.4463 21.1513L64.1226 23.1252L62.8704 28.4226L63.0597 28.4675L63.8966 24.9263L66.6691 30.2394L66.8414 30.1495Z" fill="black"/>
<path d="M74.7241 19.8926L74.7095 19.8974L66.3661 22.8082L61.009 20.9423L60.875 20.4272L60.9158 20.4115L69.2816 17.2686L74.7192 19.7925L74.7202 19.8217L74.7241 19.8926Z" fill="#3F3D56"/>
<path d="M66.5123 22.9538L64.8115 21.6418L65.2003 20.184L70.0596 18.4346L73.364 18.6289L74.6761 19.7467L74.7732 20.0381L66.5123 22.9538Z" fill="#6ED56E"/>
<path d="M60.9727 20.4269L64.8115 20.281L66.8911 19.5752L70.1335 18.4345L70.7399 17.5599L69.2268 17.2891L60.9727 20.4269Z" fill="#6ED56E"/>
<path d="M68.6208 18.863L66.6191 19.5654L66.6835 19.7488L68.6851 19.0464L68.6208 18.863Z" fill="#CCCCCC"/>
<path d="M42.2558 7.49805L41.3174 12.1898L45.6964 15.4742L47.7297 9.37472L42.2558 7.49805Z" fill="#9F616A"/>
<path d="M45.7744 11.7989C48.1065 11.7989 49.9971 9.9083 49.9971 7.57618C49.9971 5.24407 48.1065 3.35352 45.7744 3.35352C43.4423 3.35352 41.5518 5.24407 41.5518 7.57618C41.5518 9.9083 43.4423 11.7989 45.7744 11.7989Z" fill="#9F616A"/>
<path d="M36.626 39.57C36.6453 40.9324 42.5788 56.0946 41.755 58.0689C40.4563 59.3964 37.663 66.4619 36.4695 68.3468C36.3132 68.3467 35.5312 70.6926 35.5312 70.6926C35.5312 70.6926 37.408 73.6642 39.4411 72.413C41.9976 66.4003 48.4 63.0468 48.5132 55.2101C48.8222 57.6857 49.7344 73.5761 49.7344 73.5761C49.7344 73.5761 49.5594 73.6504 53.4983 74.0278C54.1098 64.8051 56.6088 49.1146 51.0141 39.2571C49.294 38.4753 36.626 39.57 36.626 39.57Z" fill="#2F2E41"/>
<path d="M49.7343 73.2666C49.5515 73.6182 48.2402 76.8638 49.4335 77.1892C50.8095 77.5645 52.1434 77.0387 52.1434 77.0387C52.1434 77.0387 54.5523 77.7914 56.0265 76.8347C56.7146 76.1467 56.5582 75.5212 56.2298 75.0677C56.063 74.8443 55.8494 74.66 55.604 74.5277C55.3585 74.3954 55.0871 74.3183 54.8088 74.3018C54.0607 74.2484 53.8231 74.1098 53.7374 73.767C53.6123 73.2666 49.7343 73.2666 49.7343 73.2666Z" fill="#2F2E41"/>
<path d="M36.8649 70.4326C36.8649 70.4326 33.5035 71.4941 34.2112 72.7325C34.6708 73.5 35.3418 74.1189 36.144 74.5149C36.144 74.5149 36.8451 77.405 38.7911 77.405C39.7642 77.405 40.0959 76.8521 40.1843 76.2992C40.2243 76.0233 40.2036 75.7419 40.1236 75.4748C40.0436 75.2077 39.9062 74.9613 39.7211 74.7528C39.2299 74.1861 39.1599 73.92 39.3417 73.6171C39.6071 73.1748 36.8649 70.4326 36.8649 70.4326Z" fill="#2F2E41"/>
<path d="M51.7975 40.0278C51.7975 40.0278 51.1712 41.279 48.6689 40.8092C46.1667 40.341 36.3144 40.8092 36.3144 40.8092C36.3144 40.8092 36.8609 29.6275 35.6098 22.9022C34.3587 16.1769 39.2848 12.3453 39.2848 12.3453L40.8491 10.781C42.4134 10.6259 45.7165 15.4798 45.7165 15.4798C46.8036 15.662 47.8183 20.2825 48.684 24.6546C48.7352 24.9046 48.7834 25.1515 48.8315 25.3984C49.2305 27.4369 49.786 29.7058 50.1188 31.7428C50.1429 31.8873 50.1655 32.0303 50.1865 32.1734C50.5821 34.8186 51.1198 37.4405 51.7975 40.0278Z" fill="#BFC2D9"/>
<path d="M40.8353 4.9464C40.8353 4.9464 40.0458 3.20951 42.0985 2.42002C42.0985 2.42002 43.8354 -0.422167 47.3092 1.47262C47.3092 1.47262 49.6776 2.42001 49.6776 4.9464C49.6776 7.47278 50.4671 7.94648 50.4671 7.94648C50.4671 7.94648 49.2914 6.74032 48.9756 5.79293C48.6598 4.84554 46.2039 4.6306 45.2565 5.578C44.3091 6.52539 41.9406 6.36749 41.9406 6.36749L42.0985 9.84126C42.0985 9.84126 41.309 7.78858 40.9932 7.78858C40.6774 7.78858 40.3616 4.9464 40.8353 4.9464Z" fill="#2F2E41"/>
<path opacity="0.2" d="M50.118 31.7427C46.3872 29.7147 40.344 25.2673 38.3943 22.8615C35.8243 19.6923 38.6276 17.2834 38.6276 17.2834C41.8059 15.278 45.6059 22.1584 45.6059 22.1584L48.6832 24.6546C48.7344 24.9045 48.7826 25.1514 48.8308 25.3983C49.2297 27.4368 49.7853 29.7057 50.118 31.7427Z" fill="black"/>
<path d="M61.2549 29.4059C61.2549 29.4059 66.8013 31.6576 67.7142 29.1264C68.6271 26.5953 63.3352 26.6387 63.3352 26.6387L61.2577 26.9331L61.2549 29.4059Z" fill="#9F616A"/>
<path d="M37.9172 16.2535C37.9172 16.2535 35.1152 18.6638 37.6834 21.8319C40.2515 25 52.054 31.7692 52.054 31.7692L59.7419 29.6909L61.9176 30.089L62.3278 26.0044L59.1226 26.3172L50.9864 24.5848L45.7983 20.3751C45.7983 20.3751 41.0946 14.2491 37.9172 16.2535Z" fill="#BFC2D9"/>
<path opacity="0.2" d="M48.1239 45.2891L48.6141 56.7435L47.3711 45.2891H48.1239Z" fill="black"/>
<path d="M101.05 37.0963L96.5996 38.1274C96.2554 38.2072 95.8936 38.1496 95.5911 37.9669C95.2887 37.7841 95.0694 37.4907 94.9798 37.1488C94.9279 36.9506 94.9216 36.7432 94.9612 36.5421C95.0009 36.3411 95.0855 36.1516 95.2089 35.9879C95.3322 35.8242 95.4909 35.6906 95.6733 35.597C95.8556 35.5035 96.0567 35.4524 96.2616 35.4476L100.56 35.3477L101.05 37.0963Z" fill="#FFB9B9"/>
<path d="M100.577 37.749L99.5889 34.7839L105.514 32.7601L103.941 18.9111C106.773 19.4259 108.12 21.6524 107.994 24.5274L108.761 33.9776L100.577 37.749Z" fill="#3F3D56"/>
<path d="M104.671 15.8573H114.351V11.0432C114.355 9.74304 113.845 8.49399 112.934 7.56711C112.488 7.11047 111.956 6.74775 111.368 6.50038C110.78 6.25302 110.149 6.12605 109.511 6.12696C108.237 6.12931 107.015 6.63288 106.11 7.52879C105.205 8.4247 104.688 9.64097 104.672 10.9146C104.672 10.9587 104.671 11.0006 104.671 11.0432L104.671 15.8573Z" fill="#2F2E41"/>
<path d="M118.4 72.4301L115.305 72.075L111.602 47.0657L103.942 72.1765L100.594 72.2779L104.398 41.3841L103.84 34.3328L113.327 31.3398C120.045 36.0301 119.906 52.5964 118.4 72.4301Z" fill="#2F2E41"/>
<path d="M108.659 14.9036C110.676 14.9036 112.312 13.2683 112.312 11.2511C112.312 9.2339 110.676 7.59863 108.659 7.59863C106.642 7.59863 105.007 9.2339 105.007 11.2511C105.007 13.2683 106.642 14.9036 108.659 14.9036Z" fill="#FFB9B9"/>
<path d="M112.312 17.8458L106.123 19.4691C107.166 17.4638 107.499 15.5919 106.935 13.8889L111.297 13.1787C111.017 14.8071 111.381 16.4807 112.312 17.8458Z" fill="#FFB9B9"/>
<path d="M114.391 32.709C110.92 34.9166 106.876 37.4526 103.89 34.9918L102.47 28.0927C101.341 27.0872 101.842 23.9843 103.368 19.5616C103.465 19.2809 103.624 19.0259 103.834 18.816C104.045 18.6061 104.3 18.4468 104.581 18.3502L106.934 17.5412C107.977 18.4183 109.687 17.8951 111.703 16.7295L114.036 17.3382L115.051 24.9475C113.586 27.1419 113.842 30.0636 114.391 32.709Z" fill="#3F3D56"/>
<path d="M111.5 35.6754L107.05 36.7065C106.706 36.7863 106.344 36.7287 106.041 36.546C105.739 36.3632 105.52 36.0698 105.43 35.7279C105.378 35.5297 105.372 35.3223 105.411 35.1212C105.451 34.9202 105.536 34.7307 105.659 34.567C105.782 34.4033 105.941 34.2697 106.123 34.1761C106.306 34.0826 106.507 34.0315 106.712 34.0267L111.01 33.9268L111.5 35.6754Z" fill="#FFB9B9"/>
<path d="M117.861 77.2111C117.341 77.4483 116.906 75.9782 116.467 76.4091C115.241 77.6141 112.3 77.344 112.3 77.344C112.201 77.3122 112.109 77.2608 112.031 77.1927C111.953 77.1246 111.889 77.0414 111.844 76.948C111.799 76.8546 111.773 76.753 111.768 76.6494C111.764 76.5457 111.78 76.4422 111.816 76.3451C111.86 76.2288 111.931 76.1249 112.024 76.0423C112.116 75.9596 112.228 75.9007 112.348 75.8706L113.652 75.5446L115.7 71.9436L117.931 71.6611L117.988 71.7533C118.419 72.4486 118.697 73.2279 118.804 74.0392C118.91 74.8505 118.842 75.6752 118.604 76.4582C118.419 77.0528 118.166 77.0718 117.861 77.2111Z" fill="#2F2E41"/>
<path d="M103.15 77.2111C102.63 77.4483 102.195 75.9782 101.756 76.4091C100.53 77.6141 97.5886 77.344 97.5886 77.344C97.4898 77.3122 97.3985 77.2608 97.3202 77.1927C97.2419 77.1246 97.1783 77.0414 97.1331 76.948C97.0879 76.8546 97.0622 76.753 97.0574 76.6494C97.0527 76.5457 97.069 76.4422 97.1054 76.3451C97.149 76.2288 97.2202 76.1249 97.3129 76.0423C97.4055 75.9596 97.5168 75.9007 97.6373 75.8706L98.9414 75.5446L100.989 71.9436L103.221 71.6611L103.277 71.7533C103.708 72.4486 103.986 73.2279 104.093 74.0392C104.199 74.8505 104.131 75.6752 103.893 76.4582C103.708 77.0528 103.455 77.0718 103.15 77.2111Z" fill="#2F2E41"/>
<path d="M112.941 8.20469L112.021 11.1314L104.067 10.9901C104.095 9.96608 104.441 8.97615 105.058 8.15857C105.675 7.34099 106.532 6.73658 107.51 6.42979C108.487 6.12299 109.536 6.12913 110.509 6.44734C111.483 6.76555 112.333 7.37994 112.941 8.20469Z" fill="#2F2E41"/>
<path d="M111.027 36.3284L110.039 33.3633L115.964 31.3395L113.723 17.1904C115.092 17.4394 116.325 18.1758 117.193 19.2635C118.061 20.3512 118.505 21.7166 118.444 23.1068L119.211 32.557L111.027 36.3284Z" fill="#3F3D56"/>
<path d="M97.7907 26.307C98.3763 26.307 98.851 25.8323 98.851 25.2468C98.851 24.6612 98.3763 24.1865 97.7907 24.1865C97.2052 24.1865 96.7305 24.6612 96.7305 25.2468C96.7305 25.8323 97.2052 26.307 97.7907 26.307Z" fill="#E6E6E6"/>
<path d="M22.4819 67.2104L22.478 67.2366L22.4673 67.3124L21.3642 75.2283L14.6097 77.7066L14.5039 77.656L10.7222 75.8601L8.76681 68.3571L8.63281 67.8421L8.67361 67.8266L17.0394 64.6836L22.477 67.2075L22.4819 67.2104Z" fill="#6ED56E"/>
<path d="M14.5039 77.6556L10.7222 75.8597L8.63281 67.8417L8.67361 67.8262L14.1239 70.1256L14.5039 77.6556Z" fill="#6ED56E"/>
<path opacity="0.2" d="M14.5983 77.5636L11.7218 72.0511L12.0912 70.4885L10.3513 68.4395L10.2031 68.5653L11.8794 70.5394L10.6272 75.8368L10.8165 75.8815L11.6534 72.3405L14.4259 77.6536L14.5983 77.5636Z" fill="black"/>
<path d="M22.4819 67.3076L22.4673 67.3124L14.1239 70.2231L8.76681 68.3571L8.63281 67.8421L8.67361 67.8266L17.0394 64.6836L22.477 67.2075L22.478 67.2366L22.4819 67.3076Z" fill="#3F3D56"/>
<path d="M14.2692 70.3688L12.5684 69.0567L12.9571 67.5989L17.8164 65.8496L21.1208 66.044L22.4329 67.1615L22.53 67.4532L14.2692 70.3688Z" fill="#6ED56E"/>
<path d="M8.73047 67.8418L12.5693 67.6961L14.6489 66.9901L17.8913 65.8495L18.4977 64.9748L16.9847 64.7041L8.73047 67.8418Z" fill="#6ED56E"/>
<path d="M16.3786 66.278L14.377 66.9805L14.4413 67.1638L16.4429 66.4614L16.3786 66.278Z" fill="#CCCCCC"/>
<path d="M5.42014 77.2713H1.35515L0.75293 69.4424H6.02236L5.42014 77.2713Z" fill="#6ED56E"/>
<path d="M6.09772 72.6035H0.677734V73.808H6.09772V72.6035Z" fill="#E6E6E6"/>
<path d="M6.32332 68.9906H5.41999L5.31957 68.6895H1.30486L1.20444 68.9906H0.301111L0 69.8939H6.62443L6.32332 68.9906Z" fill="#3F3D56"/>
<path d="M121.7 77.1787H30.4492V77.4798H121.7V77.1787Z" fill="#3F3D56"/>
</g>
<defs>
<clipPath id="clip0_315_7228">
<rect width="150" height="76.8849" fill="white" transform="translate(0 0.821289)"/>
</clipPath>
</defs>
</svg>
