<svg width="166" height="130" viewBox="0 0 166 130" fill="none" xmlns="http://www.w3.org/2000/svg">
<path d="M136.174 0.0771484H0.0576172V87.2523H136.174V0.0771484Z" fill="#E6E6E6"/>
<path d="M132.282 11.0112H3.9502V82.0952H132.282V11.0112Z" fill="white"/>
<path d="M136.117 0H0V5.78273H136.117V0Z" fill="#6ED56E"/>
<path d="M4.29737 4.02834C4.8893 4.02834 5.36916 3.54848 5.36916 2.95655C5.36916 2.36462 4.8893 1.88477 4.29737 1.88477C3.70544 1.88477 3.22559 2.36462 3.22559 2.95655C3.22559 3.54848 3.70544 4.02834 4.29737 4.02834Z" fill="white"/>
<path d="M8.36573 4.02834C8.95766 4.02834 9.43752 3.54848 9.43752 2.95655C9.43752 2.36462 8.95766 1.88477 8.36573 1.88477C7.7738 1.88477 7.29395 2.36462 7.29395 2.95655C7.29395 3.54848 7.7738 4.02834 8.36573 4.02834Z" fill="white"/>
<path d="M12.4331 4.02834C13.025 4.02834 13.5049 3.54848 13.5049 2.95655C13.5049 2.36462 13.025 1.88477 12.4331 1.88477C11.8412 1.88477 11.3613 2.36462 11.3613 2.95655C11.3613 3.54848 11.8412 4.02834 12.4331 4.02834Z" fill="white"/>
<path d="M48.5867 18.3867H15.6113V74.7196H48.5867V18.3867Z" fill="#E6E6E6"/>
<path d="M81.7587 18.3867H54.2793V33.893H81.7587V18.3867Z" fill="#6ED56E"/>
<path d="M81.7587 38.2109H54.2793V54.8949H81.7587V38.2109Z" fill="#E6E6E6"/>
<path d="M81.7587 59.2134H54.2793V74.7196H81.7587V59.2134Z" fill="#E6E6E6"/>
<path d="M120.622 18.3867H87.6465V42.9363H120.622V18.3867Z" fill="#E6E6E6"/>
<path d="M120.622 50.1699H87.6465V74.7195H120.622V50.1699Z" fill="#E6E6E6"/>
<path d="M107.918 44.6998V39.4146C107.918 37.5363 108.664 35.735 109.992 34.4068C111.32 33.0787 113.122 32.3325 115 32.3325C116.878 32.3325 118.68 33.0787 120.008 34.4068C121.336 35.735 122.082 37.5363 122.082 39.4146V44.6998C122.082 44.952 121.982 45.1938 121.803 45.3722C121.625 45.5505 121.383 45.6509 121.131 45.6511H108.869C108.617 45.6509 108.375 45.5505 108.197 45.3722C108.019 45.1938 107.918 44.952 107.918 44.6998Z" fill="#2F2E41"/>
<path d="M125.472 113.48L122.974 114.172L119.119 104.866L122.806 103.846L125.472 113.48Z" fill="#FFB8B8"/>
<path d="M120.993 113.952L125.811 112.618L126.65 115.652L118.799 117.824C118.689 117.426 118.658 117.01 118.709 116.6C118.76 116.189 118.891 115.793 119.094 115.434C119.298 115.074 119.57 114.758 119.896 114.504C120.222 114.249 120.595 114.062 120.993 113.952Z" fill="#2F2E41"/>
<path d="M99.4305 115.402H96.8386L95.6055 105.405H99.4309L99.4305 115.402Z" fill="#FFB8B8"/>
<path d="M94.988 114.661H99.9865V117.808H91.8408C91.8408 117.395 91.9222 116.986 92.0804 116.604C92.2385 116.222 92.4704 115.875 92.7626 115.583C93.0549 115.291 93.4018 115.059 93.7836 114.901C94.1655 114.743 94.5747 114.661 94.988 114.661Z" fill="#2F2E41"/>
<path d="M96.3051 59.5316C96.4901 59.7813 96.7276 59.9875 97.0009 60.1355C97.2742 60.2835 97.5766 60.3698 97.8868 60.3883C98.1971 60.4067 98.5076 60.357 98.7965 60.2425C99.0855 60.128 99.3458 59.9515 99.5591 59.7256L106.449 62.8244L105.822 58.949L99.3756 56.6004C98.9722 56.2672 98.4606 56.0935 97.9377 56.1122C97.4148 56.131 96.9169 56.3409 96.5384 56.7022C96.16 57.0635 95.9272 57.5511 95.8842 58.0726C95.8412 58.5941 95.991 59.1132 96.3051 59.5316Z" fill="#FFB8B8"/>
<path d="M110.621 82.8369C108.456 82.8369 106.215 82.5144 104.332 81.5555C103.332 81.0564 102.446 80.3564 101.729 79.4991C101.012 78.6419 100.479 77.6459 100.165 76.5736C99.1836 73.4661 100.421 70.4131 101.618 67.4609C102.359 65.6314 103.06 63.9035 103.241 62.2003L103.305 61.5956C103.588 58.8795 103.832 56.5338 105.186 55.654C105.887 55.1979 106.83 55.1719 108.069 55.5743L119.706 59.3545L119.278 81.4445L119.208 81.4681C119.147 81.4886 115.044 82.8369 110.621 82.8369Z" fill="#2F2E41"/>
<path d="M107.866 48.6969C107.866 48.6969 113.574 47.0056 118.013 47.6399C118.013 47.6399 115.477 61.5927 116.322 66.2437C117.168 70.8946 101.629 68.0406 104.801 63.6011L105.858 58.3159C105.858 58.3159 103.744 56.2018 105.646 53.665L107.866 48.6969Z" fill="#6ED56E"/>
<path d="M105.058 82.4181L98.0234 81.0991L100.479 62.1979C100.645 61.6702 104.449 49.6946 106.177 49.0467C107.432 48.6049 108.715 48.2484 110.018 47.9798L110.268 47.9297L108.857 50.0456L103.242 63.5026L105.058 82.4181Z" fill="#2F2E41"/>
<path d="M101.392 113.085L92.3027 111.57L97.4036 90.7417L104.994 62.2573L105.069 62.7631C105.075 62.8008 105.784 66.5219 116.305 64.8708L116.398 64.8563L116.423 64.9465L129.14 109.878L118.783 111.604L109.337 78.8223L101.392 113.085Z" fill="#2F2E41"/>
<path d="M113.991 85.9549L113.997 85.795C114.003 85.6174 114.629 67.958 114.42 60.8559C114.21 53.7296 116.517 47.5582 116.541 47.4967L116.559 47.4471L116.61 47.4325C119.595 46.5797 122.185 49.1249 122.211 49.1507L122.247 49.187L121.397 56.2007L125.037 81.7052L113.991 85.9549Z" fill="#2F2E41"/>
<path d="M113.546 45.5283C116.414 45.5283 118.738 43.2036 118.738 40.3359C118.738 37.4683 116.414 35.1436 113.546 35.1436C110.678 35.1436 108.354 37.4683 108.354 40.3359C108.354 43.2036 110.678 45.5283 113.546 45.5283Z" fill="#FFB8B8"/>
<path d="M106.243 39.8376C106.245 38.3523 106.836 36.9283 107.886 35.8781C108.936 34.8278 110.36 34.237 111.845 34.2354H112.903C114.388 34.237 115.812 34.8278 116.862 35.8781C117.912 36.9283 118.503 38.3523 118.505 39.8376V39.9433H116.271L115.509 37.8099L115.357 39.9433H114.202L113.818 38.8669L113.741 39.9433H106.243V39.8376Z" fill="#2F2E41"/>
<path d="M113.034 46.2454C112.929 46.1034 112.866 45.9346 112.853 45.7586C112.84 45.5825 112.877 45.4064 112.959 45.2503C114.08 43.1197 115.648 39.1829 113.566 36.755L113.417 36.5806H119.46V45.6541L113.97 46.6228C113.914 46.6326 113.858 46.6376 113.802 46.6377C113.652 46.6376 113.504 46.6021 113.371 46.5339C113.237 46.4657 113.122 46.3668 113.034 46.2454Z" fill="#2F2E41"/>
<path d="M88.7021 8.783C84.4732 5.21452 79.2982 2.95215 73.8068 2.27119C68.3155 1.59023 62.7447 2.52003 57.7721 4.94746C52.7996 7.37488 48.6399 11.1953 45.799 15.9437C42.9582 20.6922 41.5587 26.164 41.771 31.6933C41.9833 37.2226 43.7981 42.571 46.9946 47.0877C50.1912 51.6044 54.6316 55.0946 59.7756 57.1337C64.9196 59.1727 70.5453 59.6727 75.9683 58.5727C81.3912 57.4727 86.3775 54.8203 90.3205 50.9381L125.333 80.4817C125.866 80.9321 126.556 81.1524 127.251 81.0942C127.946 81.036 128.59 80.704 129.04 80.1713C129.491 79.6385 129.711 78.9487 129.653 78.2535C129.594 77.5583 129.262 76.9148 128.73 76.4644L128.726 76.4611L93.713 46.9175C97.7804 41.0799 99.5212 33.9338 98.5943 26.8796C97.6674 19.8254 94.1395 13.3716 88.7021 8.783ZM86.445 44.0726C83.7174 47.3052 80.0924 49.6564 76.0285 50.8288C71.9646 52.0012 67.6443 51.9422 63.6139 50.6592C59.5836 49.3763 56.0242 46.927 53.3858 43.6211C50.7475 40.3152 49.1487 36.3012 48.7916 32.0867C48.4346 27.8721 49.3353 23.6464 51.3799 19.9437C53.4245 16.2411 56.5211 13.2279 60.2782 11.2852C64.0353 9.34251 68.2841 8.55753 72.4873 9.02955C76.6905 9.50158 80.6593 11.2094 83.8919 13.937C86.0383 15.7481 87.8069 17.9643 89.0969 20.4589C90.3868 22.9535 91.1727 25.6777 91.4098 28.4761C91.6468 31.2744 91.3304 34.0921 90.4786 36.7681C89.6267 39.4442 88.2561 41.9263 86.445 44.0726Z" fill="#3F3D56"/>
<path opacity="0.3" d="M56.309 46.6259C52.2064 43.1639 49.5558 38.2856 48.8836 32.9597C48.2113 27.6338 49.5665 22.2499 52.6801 17.877C52.2712 18.2887 51.8759 18.72 51.4942 19.1707C49.6831 21.3171 48.3125 23.7992 47.4607 26.4752C46.6088 29.1513 46.2924 31.9689 46.5295 34.7673C46.7665 37.5656 47.5525 40.2899 48.8424 42.7845C50.1323 45.2791 51.9009 47.4952 54.0473 49.3063C56.1936 51.1174 58.6757 52.488 61.3518 53.3399C64.0278 54.1917 66.8455 54.5082 69.6438 54.2711C72.4422 54.034 75.1664 53.2481 77.661 51.9582C80.1557 50.6683 82.3718 48.8996 84.1829 46.7533C84.5637 46.302 84.9223 45.8397 85.2587 45.3667C81.4719 49.1715 76.3927 51.4131 71.0296 51.6464C65.6666 51.8797 60.4119 50.0876 56.309 46.6259Z" fill="black"/>
<path d="M115.213 68.6092C115.514 68.683 115.829 68.6897 116.134 68.6289C116.438 68.5681 116.726 68.4411 116.977 68.2571C117.227 68.073 117.434 67.8362 117.583 67.5635C117.732 67.2908 117.819 66.9887 117.839 66.6785L125.118 64.658L122.159 62.0781L115.7 64.3924C115.177 64.3939 114.673 64.5873 114.283 64.936C113.892 65.2846 113.644 65.7643 113.584 66.2841C113.523 66.8039 113.656 67.3277 113.956 67.7562C114.256 68.1847 114.704 68.4882 115.213 68.6092Z" fill="#FFB8B8"/>
<path d="M118.238 67.5395L117.795 63.3312L123.875 59.9763L119.911 55.1773L120.558 49.7866L122.169 49.0962L122.219 49.1606C122.979 50.1373 129.64 58.7333 129.64 59.7959C129.64 60.8873 128.366 64.0923 126.622 64.9642C124.94 65.8052 118.625 67.4396 118.357 67.5089L118.238 67.5395Z" fill="#2F2E41"/>
<path d="M149.789 118.09H69.2427C69.1866 118.09 69.1328 118.068 69.0932 118.028C69.0535 117.989 69.0312 117.935 69.0312 117.879C69.0312 117.823 69.0535 117.769 69.0932 117.729C69.1328 117.69 69.1866 117.667 69.2427 117.667H149.789C149.845 117.667 149.898 117.69 149.938 117.729C149.978 117.769 150 117.823 150 117.879C150 117.935 149.978 117.989 149.938 118.028C149.898 118.068 149.845 118.09 149.789 118.09Z" fill="#CCCCCC"/>
</svg>
